<?xml version="1.0" encoding="UTF-8"?>
<svg id="Layer_13" data-name="Layer 13" xmlns="http://www.w3.org/2000/svg" xmlns:xlink="http://www.w3.org/1999/xlink" viewBox="0 0 1020.62 595.95">
  <defs>
    <style>
      .cls-1 {
        fill: url(#radial-gradient);
      }
    </style>
    <radialGradient id="radial-gradient" cx="751.57" cy="119.36" fx="751.57" fy="119.36" r="65.91" gradientUnits="userSpaceOnUse">
      <stop offset=".22" stop-color="#05dcf0"/>
      <stop offset=".25" stop-color="#05d6ea"/>
      <stop offset=".77" stop-color="#0c687b"/>
      <stop offset="1" stop-color="#103d4f"/>
    </radialGradient>
  </defs>
  <path class="cls-1" d="M771.42,124.78c-9.07,0-16.44,7.38-16.44,16.44s7.38,16.44,16.44,16.44,16.44-7.38,16.44-16.44-7.38-16.44-16.44-16.44ZM771,130.54c.68,0,1.23.55,1.23,1.23v.86c1.86.17,3.46,1.47,3.96,3.3.18.66-.21,1.34-.87,1.51-.66.18-1.34-.21-1.51-.87-.24-.89-1.06-1.52-1.98-1.52h-1.44c-1.25,0-2.26,1.01-2.26,2.26s1.01,2.26,2.26,2.26h1.64c2.83,0,5.14,2.31,5.14,5.14s-2.2,5.02-4.93,5.13v.83c0,.68-.55,1.23-1.23,1.23s-1.23-.55-1.23-1.23v-.86c-1.88-.17-3.48-1.49-3.97-3.34-.17-.66.22-1.33.88-1.5.66-.17,1.33.22,1.5.88.24.9,1.05,1.54,1.99,1.54h1.85c1.47,0,2.67-1.2,2.67-2.67s-1.2-2.67-2.67-2.67h-1.64c-2.61,0-4.73-2.12-4.73-4.73,0-2.4,1.8-4.38,4.11-4.68v-.87c0-.68.55-1.23,1.23-1.23Z"/>
</svg>