<?xml version="1.0" encoding="UTF-8"?>
<svg id="Layer_13" data-name="Layer 13" xmlns="http://www.w3.org/2000/svg" xmlns:xlink="http://www.w3.org/1999/xlink" viewBox="0 0 1020.62 595.95">
  <defs>
    <style>
      .cls-1 {
        fill: url(#radial-gradient);
      }
    </style>
    <radialGradient id="radial-gradient" cx="478.29" cy="117.83" fx="478.29" fy="117.83" r="70.5" gradientUnits="userSpaceOnUse">
      <stop offset=".22" stop-color="#05dcf0"/>
      <stop offset=".25" stop-color="#05d6ea"/>
      <stop offset=".77" stop-color="#0c687b"/>
      <stop offset="1" stop-color="#103d4f"/>
    </radialGradient>
  </defs>
  <path class="cls-1" d="M499.47,123.63c-1.08.02-1.94.9-1.92,1.98v18.73l-2.53-2.53c-.75-.78-1.98-.8-2.76-.06-.78.75-.8,1.98-.06,2.76.02.02.04.04.06.06l5.86,5.86c.76.76,2,.76,2.76,0l5.86-5.86c.78-.75.8-1.98.06-2.76s-1.98-.8-2.76-.06c-.02.02-.04.04-.06.06l-2.53,2.53v-18.73c.01-1.08-.85-1.97-1.93-1.98-.02,0-.04,0-.06,0ZM483.84,148.05c-1.08.02-1.94.9-1.92,1.98v2.93c0,3.21,2.65,5.86,5.86,5.86h23.44c3.21,0,5.86-2.65,5.86-5.86v-2.93c.02-1.08-.85-1.97-1.93-1.98-1.08-.02-1.97.85-1.98,1.93,0,.02,0,.04,0,.06v2.93c0,1.1-.85,1.95-1.95,1.95h-23.44c-1.1,0-1.95-.85-1.95-1.95v-2.93c.01-1.08-.85-1.97-1.93-1.98-.02,0-.04,0-.06,0Z"/>
</svg>