<?xml version="1.0" encoding="UTF-8"?>
<svg id="Layer_24" data-name="Layer 24" xmlns="http://www.w3.org/2000/svg" xmlns:xlink="http://www.w3.org/1999/xlink" viewBox="0 0 1760.24 1100.23">
  <defs>
    <radialGradient id="radial-gradient" cx="1416.55" cy="-289.15" fx="1416.55" fy="-289.15" r="351.15" gradientTransform="translate(-387.43 640.36) scale(1.3 1.84)" gradientUnits="userSpaceOnUse">
      <stop offset="0" stop-color="#071424"/>
      <stop offset=".64" stop-color="#060f20"/>
      <stop offset="1" stop-color="#060a1c"/>
    </radialGradient>
    <radialGradient id="radial-gradient-2" cx="1402.27" cy="-274.43" fx="1402.27" fy="-274.43" r="296.61" gradientTransform="translate(-387.43 640.36) scale(1.3 1.84)" gradientUnits="userSpaceOnUse">
      <stop offset="0" stop-color="#00a9bc"/>
      <stop offset=".1" stop-color="#00b6ca" stop-opacity=".77"/>
      <stop offset=".21" stop-color="#00c4d9" stop-opacity=".54"/>
      <stop offset=".33" stop-color="#00cfe6" stop-opacity=".34"/>
      <stop offset=".45" stop-color="#00d8ef" stop-opacity=".19"/>
      <stop offset=".56" stop-color="#00def6" stop-opacity=".09"/>
      <stop offset=".68" stop-color="#00e2fa" stop-opacity=".02"/>
      <stop offset=".8" stop-color="#00e4fc" stop-opacity="0"/>
      <stop offset="1" stop-color="#59e8c9" stop-opacity="0"/>
    </radialGradient>
    <radialGradient id="radial-gradient-3" cx="1375.51" cy="232.91" fx="1375.51" fy="232.91" r="200.08" gradientTransform="translate(-588.16) scale(1.44 1)" gradientUnits="userSpaceOnUse">
      <stop offset=".22" stop-color="#05dcf0"/>
      <stop offset=".25" stop-color="#05d6ea"/>
      <stop offset=".77" stop-color="#0c687b"/>
      <stop offset="1" stop-color="#103d4f"/>
    </radialGradient>
    <radialGradient id="radial-gradient-4" cx="1478.64" cy="205.02" fx="1478.64" fy="205.02" r="87.45" gradientTransform="matrix(1,0,0,1,0,0)" xlink:href="#radial-gradient-3"/>
    <radialGradient id="radial-gradient-5" cx="1478.64" cy="205.02" fx="1478.64" fy="205.02" r="87.45" gradientTransform="matrix(1,0,0,1,0,0)" xlink:href="#radial-gradient-3"/>
    <radialGradient id="radial-gradient-6" cx="1478.64" cy="205.02" fx="1478.64" fy="205.02" r="87.45" gradientTransform="matrix(1,0,0,1,0,0)" xlink:href="#radial-gradient-3"/>
    <radialGradient id="radial-gradient-7" cx="1478.64" cy="205.02" fx="1478.64" fy="205.02" r="87.45" gradientTransform="matrix(1,0,0,1,0,0)" xlink:href="#radial-gradient-3"/>
    <radialGradient id="radial-gradient-8" cx="1478.64" cy="205.02" fx="1478.64" fy="205.02" r="87.45" gradientTransform="matrix(1,0,0,1,0,0)" xlink:href="#radial-gradient-3"/>
    <radialGradient id="radial-gradient-9" cx="1478.64" cy="205.02" fx="1478.64" fy="205.02" r="87.45" gradientTransform="matrix(1,0,0,1,0,0)" xlink:href="#radial-gradient-3"/>
    <radialGradient id="radial-gradient-10" cx="1478.64" cy="205.02" fx="1478.64" fy="205.02" r="87.45" gradientTransform="matrix(1,0,0,1,0,0)" xlink:href="#radial-gradient-3"/>
    <radialGradient id="radial-gradient-11" cx="1478.64" cy="205.02" fx="1478.64" fy="205.02" r="87.45" gradientTransform="matrix(1,0,0,1,0,0)" xlink:href="#radial-gradient-3"/>
    <radialGradient id="radial-gradient-12" cx="1478.64" cy="205.02" fx="1478.64" fy="205.02" r="87.45" gradientTransform="matrix(1,0,0,1,0,0)" xlink:href="#radial-gradient-3"/>
    <radialGradient id="radial-gradient-13" cx="1478.64" cy="205.02" fx="1478.64" fy="205.02" r="87.45" gradientTransform="matrix(1,0,0,1,0,0)" xlink:href="#radial-gradient-3"/>
    <radialGradient id="radial-gradient-14" cx="1478.64" cy="205.02" fx="1478.64" fy="205.02" r="87.45" gradientTransform="matrix(1,0,0,1,0,0)" xlink:href="#radial-gradient-3"/>
    <radialGradient id="radial-gradient-15" cx="1478.64" cy="205.02" fx="1478.64" fy="205.02" r="87.45" gradientTransform="matrix(1,0,0,1,0,0)" xlink:href="#radial-gradient-3"/>
    <radialGradient id="radial-gradient-16" cx="1436.63" cy="305.47" fx="1436.63" fy="305.47" r="230.32" gradientTransform="matrix(1,0,0,1,0,0)" xlink:href="#radial-gradient-3"/>
    <radialGradient id="radial-gradient-17" cx="1436.63" cy="305.47" fx="1436.63" fy="305.47" r="230.32" gradientTransform="matrix(1,0,0,1,0,0)" xlink:href="#radial-gradient-3"/>
    <radialGradient id="radial-gradient-18" cx="1436.63" cy="305.47" fx="1436.63" fy="305.47" r="230.32" gradientTransform="matrix(1,0,0,1,0,0)" xlink:href="#radial-gradient-3"/>
    <radialGradient id="radial-gradient-19" cx="1436.63" cy="305.47" fx="1436.63" fy="305.47" r="230.32" gradientTransform="matrix(1,0,0,1,0,0)" xlink:href="#radial-gradient-3"/>
    <radialGradient id="radial-gradient-20" cx="1436.63" cy="305.47" fx="1436.63" fy="305.47" r="230.32" gradientTransform="matrix(1,0,0,1,0,0)" xlink:href="#radial-gradient-3"/>
    <radialGradient id="radial-gradient-21" cx="1436.63" cy="305.47" fx="1436.63" fy="305.47" r="230.32" gradientTransform="matrix(1,0,0,1,0,0)" xlink:href="#radial-gradient-3"/>
    <radialGradient id="radial-gradient-22" cx="1436.63" cy="305.47" fx="1436.63" fy="305.47" r="230.32" gradientTransform="matrix(1,0,0,1,0,0)" xlink:href="#radial-gradient-3"/>
    <radialGradient id="radial-gradient-23" cx="1436.63" cy="305.47" fx="1436.63" fy="305.47" r="230.32" gradientTransform="matrix(1,0,0,1,0,0)" xlink:href="#radial-gradient-3"/>
    <radialGradient id="radial-gradient-24" cx="1436.63" cy="305.47" fx="1436.63" fy="305.47" r="230.32" gradientTransform="matrix(1,0,0,1,0,0)" xlink:href="#radial-gradient-3"/>
    <radialGradient id="radial-gradient-25" cx="1436.63" cy="305.47" fx="1436.63" fy="305.47" r="230.32" gradientTransform="matrix(1,0,0,1,0,0)" xlink:href="#radial-gradient-3"/>
    <radialGradient id="radial-gradient-26" cx="1436.63" cy="305.47" fx="1436.63" fy="305.47" r="230.32" gradientTransform="matrix(1,0,0,1,0,0)" xlink:href="#radial-gradient-3"/>
    <radialGradient id="radial-gradient-27" cx="1436.63" cy="305.47" fx="1436.63" fy="305.47" r="230.32" gradientTransform="matrix(1,0,0,1,0,0)" xlink:href="#radial-gradient-3"/>
    <radialGradient id="radial-gradient-28" cx="1438.66" cy="253.33" fx="1438.66" fy="253.33" r="61.23" gradientTransform="matrix(1,0,0,1,0,0)" xlink:href="#radial-gradient-3"/>
    <radialGradient id="radial-gradient-29" cx="1469.06" cy="294.22" fx="1469.06" fy="294.22" r="87.08" gradientTransform="matrix(1,0,0,1,0,0)" xlink:href="#radial-gradient-3"/>
    <radialGradient id="radial-gradient-30" cx="1469.06" cy="294.22" fx="1469.06" fy="294.22" r="87.08" gradientTransform="matrix(1,0,0,1,0,0)" xlink:href="#radial-gradient-3"/>
    <radialGradient id="radial-gradient-31" cx="1469.06" cy="294.22" fx="1469.06" fy="294.22" r="87.08" gradientTransform="matrix(1,0,0,1,0,0)" xlink:href="#radial-gradient-3"/>
    <radialGradient id="radial-gradient-32" cx="1469.06" cy="294.22" fx="1469.06" fy="294.22" r="87.08" gradientTransform="matrix(1,0,0,1,0,0)" xlink:href="#radial-gradient-3"/>
    <radialGradient id="radial-gradient-33" cx="1469.06" cy="294.22" fx="1469.06" fy="294.22" r="87.08" gradientTransform="matrix(1,0,0,1,0,0)" xlink:href="#radial-gradient-3"/>
    <radialGradient id="radial-gradient-34" cx="1469.06" cy="294.22" fx="1469.06" fy="294.22" r="87.08" gradientTransform="matrix(1,0,0,1,0,0)" xlink:href="#radial-gradient-3"/>
    <radialGradient id="radial-gradient-35" cx="1469.06" cy="294.22" fx="1469.06" fy="294.22" r="87.08" gradientTransform="matrix(1,0,0,1,0,0)" xlink:href="#radial-gradient-3"/>
    <radialGradient id="radial-gradient-36" cx="1469.06" cy="294.22" fx="1469.06" fy="294.22" r="87.08" gradientTransform="matrix(1,0,0,1,0,0)" xlink:href="#radial-gradient-3"/>
    <radialGradient id="radial-gradient-37" cx="1436.23" cy="306.39" fx="1436.23" fy="306.39" r="43.66" gradientTransform="matrix(1,0,0,1,0,0)" xlink:href="#radial-gradient-3"/>
    <radialGradient id="radial-gradient-38" cx="1441.4" cy="379.99" fx="1441.4" fy="379.99" r="208.86" gradientTransform="matrix(1,0,0,1,0,0)" xlink:href="#radial-gradient-3"/>
    <radialGradient id="radial-gradient-39" cx="1441.4" cy="379.99" fx="1441.4" fy="379.99" r="208.86" gradientTransform="matrix(1,0,0,1,0,0)" xlink:href="#radial-gradient-3"/>
    <radialGradient id="radial-gradient-40" cx="1441.4" cy="379.99" fx="1441.4" fy="379.99" r="208.86" gradientTransform="matrix(1,0,0,1,0,0)" xlink:href="#radial-gradient-3"/>
    <radialGradient id="radial-gradient-41" cx="1441.4" cy="379.99" fx="1441.4" fy="379.99" r="208.86" gradientTransform="matrix(1,0,0,1,0,0)" xlink:href="#radial-gradient-3"/>
    <radialGradient id="radial-gradient-42" cx="1441.4" cy="379.99" fx="1441.4" fy="379.99" r="208.86" gradientTransform="matrix(1,0,0,1,0,0)" xlink:href="#radial-gradient-3"/>
    <radialGradient id="radial-gradient-43" cx="1441.4" cy="379.99" fx="1441.4" fy="379.99" r="208.86" gradientTransform="matrix(1,0,0,1,0,0)" xlink:href="#radial-gradient-3"/>
    <radialGradient id="radial-gradient-44" cx="1441.4" cy="379.99" fx="1441.4" fy="379.99" r="208.86" gradientTransform="matrix(1,0,0,1,0,0)" xlink:href="#radial-gradient-3"/>
    <radialGradient id="radial-gradient-45" cx="1441.4" cy="379.99" fx="1441.4" fy="379.99" r="208.86" gradientTransform="matrix(1,0,0,1,0,0)" xlink:href="#radial-gradient-3"/>
    <radialGradient id="radial-gradient-46" cx="1441.4" cy="379.99" fx="1441.4" fy="379.99" r="208.86" gradientTransform="matrix(1,0,0,1,0,0)" xlink:href="#radial-gradient-3"/>
    <radialGradient id="radial-gradient-47" cx="1441.4" cy="379.99" fx="1441.4" fy="379.99" r="208.86" gradientTransform="matrix(1,0,0,1,0,0)" xlink:href="#radial-gradient-3"/>
    <radialGradient id="radial-gradient-48" cx="1437.19" cy="403.04" fx="1437.19" fy="403.04" r="43.38" gradientTransform="matrix(1,0,0,1,0,0)" xlink:href="#radial-gradient-3"/>
    <radialGradient id="radial-gradient-49" cx="1432.35" cy="427.72" fx="1432.35" fy="427.72" r="272.69" gradientTransform="matrix(1,0,0,1,0,0)" xlink:href="#radial-gradient-3"/>
    <radialGradient id="radial-gradient-50" cx="1432.35" cy="427.72" fx="1432.35" fy="427.72" r="272.69" gradientTransform="matrix(1,0,0,1,0,0)" xlink:href="#radial-gradient-3"/>
    <radialGradient id="radial-gradient-51" cx="1432.35" cy="427.72" fx="1432.35" fy="427.72" r="272.69" gradientTransform="matrix(1,0,0,1,0,0)" xlink:href="#radial-gradient-3"/>
    <radialGradient id="radial-gradient-52" cx="1432.35" cy="427.72" fx="1432.35" fy="427.72" r="272.69" gradientTransform="matrix(1,0,0,1,0,0)" xlink:href="#radial-gradient-3"/>
    <radialGradient id="radial-gradient-53" cx="1432.35" cy="427.72" fx="1432.35" fy="427.72" r="272.69" gradientTransform="matrix(1,0,0,1,0,0)" xlink:href="#radial-gradient-3"/>
    <radialGradient id="radial-gradient-54" cx="1432.35" cy="427.72" fx="1432.35" fy="427.72" r="272.69" gradientTransform="matrix(1,0,0,1,0,0)" xlink:href="#radial-gradient-3"/>
    <radialGradient id="radial-gradient-55" cx="1432.35" cy="427.72" fx="1432.35" fy="427.72" r="272.69" gradientTransform="matrix(1,0,0,1,0,0)" xlink:href="#radial-gradient-3"/>
    <radialGradient id="radial-gradient-56" cx="1432.35" cy="427.72" fx="1432.35" fy="427.72" r="272.69" gradientTransform="matrix(1,0,0,1,0,0)" xlink:href="#radial-gradient-3"/>
    <radialGradient id="radial-gradient-57" cx="1432.35" cy="427.72" fx="1432.35" fy="427.72" r="272.69" gradientTransform="matrix(1,0,0,1,0,0)" xlink:href="#radial-gradient-3"/>
    <radialGradient id="radial-gradient-58" cx="1432.35" cy="427.72" fx="1432.35" fy="427.72" r="272.69" gradientTransform="matrix(1,0,0,1,0,0)" xlink:href="#radial-gradient-3"/>
    <radialGradient id="radial-gradient-59" cx="1432.35" cy="427.72" fx="1432.35" fy="427.72" r="272.69" gradientTransform="matrix(1,0,0,1,0,0)" xlink:href="#radial-gradient-3"/>
    <radialGradient id="radial-gradient-60" cx="1432.35" cy="427.72" fx="1432.35" fy="427.72" r="272.69" gradientTransform="matrix(1,0,0,1,0,0)" xlink:href="#radial-gradient-3"/>
    <radialGradient id="radial-gradient-61" cx="1432.35" cy="427.72" fx="1432.35" fy="427.72" r="272.69" gradientTransform="matrix(1,0,0,1,0,0)" xlink:href="#radial-gradient-3"/>
    <radialGradient id="radial-gradient-62" cx="1432.35" cy="427.72" fx="1432.35" fy="427.72" r="272.69" gradientTransform="matrix(1,0,0,1,0,0)" xlink:href="#radial-gradient-3"/>
    <radialGradient id="radial-gradient-63" cx="1432.35" cy="427.72" fx="1432.35" fy="427.72" r="272.69" gradientTransform="matrix(1,0,0,1,0,0)" xlink:href="#radial-gradient-3"/>
    <radialGradient id="radial-gradient-64" cx="1427.35" cy="443.14" fx="1427.35" fy="443.14" r="40.9" gradientUnits="userSpaceOnUse">
      <stop offset=".22" stop-color="#05dcf0"/>
      <stop offset=".25" stop-color="#05d6ea"/>
      <stop offset=".77" stop-color="#0c687b"/>
      <stop offset="1" stop-color="#103d4f"/>
    </radialGradient>
    <radialGradient id="radial-gradient-65" cx="1439.93" cy="472.3" fx="1439.93" fy="472.3" r="206.39" gradientTransform="matrix(1,0,0,1,0,0)" xlink:href="#radial-gradient-3"/>
    <radialGradient id="radial-gradient-66" cx="1439.93" cy="472.3" fx="1439.93" fy="472.3" r="206.39" gradientTransform="matrix(1,0,0,1,0,0)" xlink:href="#radial-gradient-3"/>
    <radialGradient id="radial-gradient-67" cx="1439.93" cy="472.3" fx="1439.93" fy="472.3" r="206.39" gradientTransform="matrix(1,0,0,1,0,0)" xlink:href="#radial-gradient-3"/>
    <radialGradient id="radial-gradient-68" cx="1439.93" cy="472.3" fx="1439.93" fy="472.3" r="206.39" gradientTransform="matrix(1,0,0,1,0,0)" xlink:href="#radial-gradient-3"/>
    <radialGradient id="radial-gradient-69" cx="1439.93" cy="472.3" fx="1439.93" fy="472.3" r="206.39" gradientTransform="matrix(1,0,0,1,0,0)" xlink:href="#radial-gradient-3"/>
    <radialGradient id="radial-gradient-70" cx="1439.93" cy="472.3" fx="1439.93" fy="472.3" r="206.39" gradientTransform="matrix(1,0,0,1,0,0)" xlink:href="#radial-gradient-3"/>
    <radialGradient id="radial-gradient-71" cx="1439.93" cy="472.3" fx="1439.93" fy="472.3" r="206.39" gradientTransform="matrix(1,0,0,1,0,0)" xlink:href="#radial-gradient-3"/>
    <radialGradient id="radial-gradient-72" cx="1439.93" cy="472.3" fx="1439.93" fy="472.3" r="206.39" gradientTransform="matrix(1,0,0,1,0,0)" xlink:href="#radial-gradient-3"/>
    <radialGradient id="radial-gradient-73" cx="1439.93" cy="472.3" fx="1439.93" fy="472.3" r="206.39" gradientTransform="matrix(1,0,0,1,0,0)" xlink:href="#radial-gradient-3"/>
    <radialGradient id="radial-gradient-74" cx="1439.93" cy="472.3" fx="1439.93" fy="472.3" r="206.39" gradientTransform="matrix(1,0,0,1,0,0)" xlink:href="#radial-gradient-3"/>
    <radialGradient id="radial-gradient-75" cx="1439.93" cy="472.3" fx="1439.93" fy="472.3" r="206.39" gradientTransform="matrix(1,0,0,1,0,0)" xlink:href="#radial-gradient-3"/>
    <radialGradient id="radial-gradient-76" cx="1439.93" cy="472.3" fx="1439.93" fy="472.3" r="206.39" gradientTransform="matrix(1,0,0,1,0,0)" xlink:href="#radial-gradient-3"/>
    <radialGradient id="radial-gradient-77" cx="1427.08" cy="486.26" fx="1427.08" fy="486.26" r="41.38" xlink:href="#radial-gradient-64"/>
    <radialGradient id="radial-gradient-78" cx="1438.43" cy="333.54" fx="1438.43" fy="333.54" r="231.66" gradientTransform="matrix(1,0,0,1,0,0)" xlink:href="#radial-gradient-3"/>
    <radialGradient id="radial-gradient-79" cx="1438.43" cy="333.54" fx="1438.43" fy="333.54" r="231.66" gradientTransform="matrix(1,0,0,1,0,0)" xlink:href="#radial-gradient-3"/>
    <radialGradient id="radial-gradient-80" cx="1438.43" cy="333.54" fx="1438.43" fy="333.54" r="231.66" gradientTransform="matrix(1,0,0,1,0,0)" xlink:href="#radial-gradient-3"/>
    <radialGradient id="radial-gradient-81" cx="1438.43" cy="333.54" fx="1438.43" fy="333.54" r="231.66" gradientTransform="matrix(1,0,0,1,0,0)" xlink:href="#radial-gradient-3"/>
    <radialGradient id="radial-gradient-82" cx="1438.43" cy="333.54" fx="1438.43" fy="333.54" r="231.66" gradientTransform="matrix(1,0,0,1,0,0)" xlink:href="#radial-gradient-3"/>
    <radialGradient id="radial-gradient-83" cx="1438.43" cy="333.54" fx="1438.43" fy="333.54" r="231.66" gradientTransform="matrix(1,0,0,1,0,0)" xlink:href="#radial-gradient-3"/>
    <radialGradient id="radial-gradient-84" cx="1438.43" cy="333.54" fx="1438.43" fy="333.54" r="231.66" gradientTransform="matrix(1,0,0,1,0,0)" xlink:href="#radial-gradient-3"/>
    <radialGradient id="radial-gradient-85" cx="1438.43" cy="333.54" fx="1438.43" fy="333.54" r="231.66" gradientTransform="matrix(1,0,0,1,0,0)" xlink:href="#radial-gradient-3"/>
    <radialGradient id="radial-gradient-86" cx="1438.43" cy="333.54" fx="1438.43" fy="333.54" r="231.66" gradientTransform="matrix(1,0,0,1,0,0)" xlink:href="#radial-gradient-3"/>
    <radialGradient id="radial-gradient-87" cx="1438.43" cy="333.54" fx="1438.43" fy="333.54" r="231.66" gradientTransform="matrix(1,0,0,1,0,0)" xlink:href="#radial-gradient-3"/>
    <radialGradient id="radial-gradient-88" cx="1438.43" cy="333.54" fx="1438.43" fy="333.54" r="231.66" gradientTransform="matrix(1,0,0,1,0,0)" xlink:href="#radial-gradient-3"/>
    <radialGradient id="radial-gradient-89" cx="1438.43" cy="333.54" fx="1438.43" fy="333.54" r="231.66" gradientTransform="matrix(1,0,0,1,0,0)" xlink:href="#radial-gradient-3"/>
    <radialGradient id="radial-gradient-90" cx="1438.43" cy="333.54" fx="1438.43" fy="333.54" r="231.66" gradientTransform="matrix(1,0,0,1,0,0)" xlink:href="#radial-gradient-3"/>
    <radialGradient id="radial-gradient-91" cx="1427.19" cy="354.83" fx="1427.19" fy="354.83" r="41.19" xlink:href="#radial-gradient-64"/>
    <clipPath id="clippath">
      <rect x="1398.37" y="188.65" width="221.14" height="348.39" rx="23.95" ry="23.95" transform="translate(3017.89 725.68) rotate(180)" fill="none"/>
    </clipPath>
    <radialGradient id="radial-gradient-92" cx="1518.15" cy="541.2" fx="1518.15" fy="541.2" r="127.43" gradientUnits="userSpaceOnUse">
      <stop offset="0" stop-color="#05dcf0"/>
      <stop offset=".34" stop-color="#0599ab" stop-opacity=".65"/>
      <stop offset=".8" stop-color="#054151" stop-opacity=".19"/>
      <stop offset="1" stop-color="#051e2e" stop-opacity="0"/>
    </radialGradient>
    <linearGradient id="linear-gradient" x1="1509.64" y1="129.87" x2="1509.64" y2="336.84" gradientTransform="translate(3019.28 492.77) rotate(-180)" gradientUnits="userSpaceOnUse">
      <stop offset="0" stop-color="#05dcf0"/>
      <stop offset=".19" stop-color="#03a8b8" stop-opacity=".65"/>
      <stop offset=".45" stop-color="#02656f" stop-opacity=".19"/>
      <stop offset=".56" stop-color="#024b52" stop-opacity="0"/>
      <stop offset=".79" stop-color="#05dcf0" stop-opacity="0"/>
      <stop offset="1" stop-color="#05dcf0" stop-opacity="0"/>
    </linearGradient>
    <radialGradient id="radial-gradient-93" cx="1512.05" cy="537.12" fx="1512.05" fy="537.12" r="68.72" gradientUnits="userSpaceOnUse">
      <stop offset=".22" stop-color="#05dcf0"/>
      <stop offset=".33" stop-color="#05d9ed" stop-opacity=".98"/>
      <stop offset=".43" stop-color="#05d1e5" stop-opacity=".94"/>
      <stop offset=".53" stop-color="#06c5d8" stop-opacity=".86"/>
      <stop offset=".63" stop-color="#07b3c6" stop-opacity=".74"/>
      <stop offset=".72" stop-color="#099caf" stop-opacity=".6"/>
      <stop offset=".82" stop-color="#0b7f92" stop-opacity=".42"/>
      <stop offset=".92" stop-color="#0d5e71" stop-opacity=".21"/>
      <stop offset="1" stop-color="#103d4f" stop-opacity="0"/>
    </radialGradient>
    <radialGradient id="radial-gradient-94" cy="188.61" fy="188.61" xlink:href="#radial-gradient-93"/>
    <radialGradient id="radial-gradient-95" cx="7714.08" cy="-4358.51" fx="7714.08" fy="-4358.51" r="324.56" gradientTransform="translate(-18023.48 4678.04) scale(2.55 1)" gradientUnits="userSpaceOnUse">
      <stop offset="0" stop-color="#0ae6ff" stop-opacity=".3"/>
      <stop offset=".08" stop-color="#0abbd4" stop-opacity=".24"/>
      <stop offset=".25" stop-color="#0b778f" stop-opacity=".13"/>
      <stop offset=".41" stop-color="#0b465e" stop-opacity=".06"/>
      <stop offset=".58" stop-color="#0b2940" stop-opacity=".01"/>
      <stop offset=".77" stop-color="#0c2037" stop-opacity="0"/>
    </radialGradient>
    <radialGradient id="radial-gradient-96" cx="1508.94" cy="340.24" fx="1508.94" fy="340.24" r="62.19" gradientUnits="userSpaceOnUse">
      <stop offset="0" stop-color="#05d4e8" stop-opacity=".74"/>
      <stop offset=".2" stop-color="#04d0e4" stop-opacity=".72"/>
      <stop offset=".35" stop-color="#04c5d8" stop-opacity=".68"/>
      <stop offset=".49" stop-color="#04b2c5" stop-opacity=".61"/>
      <stop offset=".62" stop-color="#0498aa" stop-opacity=".51"/>
      <stop offset=".75" stop-color="#047687" stop-opacity=".38"/>
      <stop offset=".87" stop-color="#044c5c" stop-opacity=".21"/>
      <stop offset=".98" stop-color="#041b2a" stop-opacity=".03"/>
      <stop offset="1" stop-color="#041423" stop-opacity="0"/>
    </radialGradient>
    <radialGradient id="radial-gradient-97" cx="1431.37" cy="209.74" fx="1431.37" fy="209.74" r="33.21" xlink:href="#radial-gradient-64"/>
    <radialGradient id="radial-gradient-98" cx="1431.37" cy="209.74" fx="1431.37" fy="209.74" r="33.21" xlink:href="#radial-gradient-64"/>
  </defs>
  <g>
    <rect x="1398.37" y="188.65" width="221.14" height="348.39" rx="23.95" ry="23.95" fill="url(#radial-gradient)"/>
    <rect x="1398.37" y="188.65" width="221.14" height="348.39" rx="23.95" ry="23.95" fill="none" stroke="#00bbcf" stroke-miterlimit="10" stroke-width=".5"/>
    <rect x="1398.37" y="188.65" width="221.14" height="348.39" rx="23.95" ry="23.95" fill="url(#radial-gradient-2)" opacity=".46"/>
  </g>
  <rect x="1410.92" y="240.73" width="196.05" height="47.41" rx="10.98" ry="10.98" fill="url(#radial-gradient-3)" fill-opacity=".3"/>
  <g>
    <path d="M1467.77,214.66l3.38,8.45,3.38-8.45h1.77v10.35h-1.36v-4.03l.13-4.35-3.4,8.38h-1.05l-3.39-8.36.14,4.33v4.03h-1.36v-10.35h1.76Z" fill="url(#radial-gradient-4)"/>
    <path d="M1478.17,221.1c0-.75.15-1.43.44-2.03.3-.6.71-1.07,1.24-1.39.53-.33,1.13-.49,1.81-.49,1.05,0,1.89.36,2.54,1.09.65.73.97,1.69.97,2.89v.09c0,.75-.14,1.42-.43,2.02-.29.59-.7,1.06-1.23,1.39-.53.33-1.15.5-1.84.5-1.04,0-1.89-.36-2.53-1.09-.65-.73-.97-1.69-.97-2.88v-.09ZM1479.49,221.25c0,.85.2,1.54.59,2.05.4.52.93.77,1.59.77s1.2-.26,1.59-.79c.39-.52.59-1.26.59-2.2,0-.84-.2-1.53-.6-2.05-.4-.52-.93-.79-1.6-.79s-1.17.26-1.57.77c-.4.52-.6,1.26-.6,2.22Z" fill="url(#radial-gradient-5)"/>
    <path d="M1488.6,215.46v1.86h1.44v1.02h-1.44v4.78c0,.31.06.54.19.69.13.15.35.23.65.23.15,0,.36-.03.63-.08v1.06c-.35.09-.68.14-1.01.14-.59,0-1.03-.18-1.33-.53-.3-.36-.45-.86-.45-1.51v-4.77h-1.4v-1.02h1.4v-1.86h1.32Z" fill="url(#radial-gradient-6)"/>
    <path d="M1491.58,215.28c0-.21.07-.39.2-.54s.32-.22.58-.22.45.07.58.22c.13.15.2.33.2.54s-.07.39-.2.53c-.13.14-.33.21-.58.21s-.45-.07-.58-.21c-.13-.14-.2-.32-.2-.53ZM1493,225.01h-1.32v-7.69h1.32v7.69Z" fill="url(#radial-gradient-7)"/>
    <path d="M1494.76,221.1c0-.75.15-1.43.44-2.03.3-.6.71-1.07,1.24-1.39.53-.33,1.13-.49,1.81-.49,1.05,0,1.89.36,2.54,1.09.65.73.97,1.69.97,2.89v.09c0,.75-.14,1.42-.43,2.02-.29.59-.7,1.06-1.23,1.39-.53.33-1.15.5-1.84.5-1.04,0-1.89-.36-2.53-1.09-.65-.73-.97-1.69-.97-2.88v-.09ZM1496.08,221.25c0,.85.2,1.54.59,2.05.4.52.93.77,1.59.77s1.2-.26,1.59-.79c.39-.52.59-1.26.59-2.2,0-.84-.2-1.53-.6-2.05-.4-.52-.93-.79-1.6-.79s-1.17.26-1.57.77c-.4.52-.6,1.26-.6,2.22Z" fill="url(#radial-gradient-8)"/>
    <path d="M1504.66,217.32l.04.97c.59-.74,1.36-1.11,2.3-1.11,1.63,0,2.45.92,2.46,2.75v5.08h-1.32v-5.09c0-.55-.13-.96-.38-1.23-.25-.27-.64-.4-1.16-.4-.43,0-.8.11-1.12.34s-.57.53-.75.9v5.48h-1.32v-7.69h1.24Z" fill="url(#radial-gradient-9)"/>
    <path d="M1515.26,225.01v-10.35h2.92c.9,0,1.7.2,2.39.6.69.4,1.23.96,1.6,1.7.38.73.57,1.58.57,2.53v.66c0,.98-.19,1.83-.57,2.57-.38.73-.91,1.3-1.61,1.69-.7.39-1.51.6-2.44.6h-2.86ZM1516.62,215.78v8.12h1.44c1.05,0,1.87-.33,2.46-.98.59-.65.88-1.59.88-2.8v-.6c0-1.18-.28-2.09-.83-2.74-.55-.65-1.34-.98-2.35-.99h-1.59Z" fill="url(#radial-gradient-10)"/>
    <path d="M1527.79,225.16c-1.04,0-1.89-.34-2.55-1.03-.65-.68-.98-1.6-.98-2.75v-.24c0-.76.15-1.44.44-2.04s.7-1.07,1.22-1.41,1.09-.51,1.7-.51c1,0,1.78.33,2.33.99.55.66.83,1.6.83,2.83v.55h-5.21c.02.76.24,1.37.66,1.84.42.47.96.7,1.62.7.46,0,.86-.09,1.18-.28.32-.19.6-.44.85-.75l.8.63c-.64.99-1.61,1.49-2.9,1.49ZM1527.63,218.26c-.53,0-.98.19-1.34.58-.36.39-.58.93-.67,1.62h3.85v-.1c-.04-.67-.22-1.19-.54-1.55-.32-.37-.76-.55-1.31-.55Z" fill="url(#radial-gradient-11)"/>
    <path d="M1536.79,222.97c0-.36-.13-.63-.4-.83-.27-.2-.73-.37-1.4-.51s-1.19-.31-1.59-.51c-.39-.2-.68-.44-.87-.71s-.28-.6-.28-.98c0-.63.27-1.16.8-1.6.53-.44,1.21-.65,2.04-.65.87,0,1.58.23,2.12.68s.81,1.03.81,1.73h-1.32c0-.36-.15-.67-.46-.93-.31-.26-.69-.39-1.16-.39s-.85.1-1.12.31-.41.48-.41.82c0,.32.13.56.38.72.25.16.7.31,1.36.46.66.15,1.19.32,1.6.53.41.2.71.45.91.74.2.29.3.64.3,1.05,0,.69-.27,1.24-.82,1.65-.55.42-1.26.62-2.14.62-.62,0-1.16-.11-1.64-.33-.47-.22-.84-.52-1.11-.91-.27-.39-.4-.81-.4-1.27h1.32c.02.44.2.79.53,1.05.33.26.76.39,1.3.39.5,0,.9-.1,1.2-.3.3-.2.45-.47.45-.81Z" fill="url(#radial-gradient-12)"/>
    <path d="M1539.83,215.28c0-.21.07-.39.2-.54s.32-.22.58-.22.45.07.58.22c.13.15.2.33.2.54s-.07.39-.2.53c-.13.14-.33.21-.58.21s-.45-.07-.58-.21c-.13-.14-.2-.32-.2-.53ZM1541.25,225.01h-1.32v-7.69h1.32v7.69Z" fill="url(#radial-gradient-13)"/>
    <path d="M1543.04,221.1c0-1.2.28-2.15.83-2.86s1.29-1.06,2.2-1.06,1.67.33,2.2,1l.06-.85h1.2v7.51c0,1-.3,1.78-.89,2.35-.59.57-1.38.86-2.38.86-.55,0-1.1-.12-1.63-.36-.53-.24-.94-.56-1.22-.97l.68-.79c.56.7,1.25,1.04,2.07,1.04.64,0,1.14-.18,1.5-.54.36-.36.54-.87.54-1.52v-.66c-.53.61-1.24.91-2.15.91s-1.63-.36-2.19-1.09c-.56-.73-.84-1.71-.84-2.96ZM1544.36,221.25c0,.87.18,1.55.53,2.04s.85.74,1.49.74c.83,0,1.44-.38,1.83-1.13v-3.51c-.4-.73-1.01-1.1-1.81-1.1-.64,0-1.14.25-1.5.75-.36.5-.54,1.23-.54,2.21Z" fill="url(#radial-gradient-14)"/>
    <path d="M1552.77,217.32l.04.97c.59-.74,1.36-1.11,2.3-1.11,1.63,0,2.45.92,2.46,2.75v5.08h-1.32v-5.09c0-.55-.13-.96-.38-1.23-.25-.27-.64-.4-1.16-.4-.43,0-.8.11-1.12.34s-.57.53-.75.9v5.48h-1.32v-7.69h1.24Z" fill="url(#radial-gradient-15)"/>
  </g>
  <g>
    <g>
      <path d="M1468.59,267.74l2.96-8.54h1.49l-3.84,10.35h-1.21l-3.83-10.35h1.49l2.94,8.54Z" fill="url(#radial-gradient-16)"/>
      <path d="M1474.23,259.82c0-.21.07-.39.2-.54s.32-.22.58-.22.45.07.58.22c.13.15.2.33.2.54s-.07.39-.2.53c-.13.14-.33.21-.58.21s-.45-.07-.58-.21c-.13-.14-.2-.32-.2-.53ZM1475.65,269.55h-1.32v-7.69h1.32v7.69Z" fill="url(#radial-gradient-17)"/>
      <path d="M1477.43,265.64c0-1.18.28-2.13.84-2.85.56-.72,1.29-1.08,2.2-1.08s1.61.31,2.14.92v-4.01h1.32v10.92h-1.21l-.06-.82c-.53.64-1.26.97-2.2.97s-1.62-.36-2.18-1.09-.84-1.68-.84-2.86v-.1ZM1478.75,265.79c0,.87.18,1.55.54,2.05.36.49.86.74,1.49.74.83,0,1.44-.37,1.83-1.12v-3.53c-.39-.73-1-1.09-1.81-1.09-.64,0-1.15.25-1.51.75-.36.5-.54,1.23-.54,2.21Z" fill="url(#radial-gradient-18)"/>
      <path d="M1489.16,269.69c-1.04,0-1.89-.34-2.55-1.03-.65-.68-.98-1.6-.98-2.75v-.24c0-.76.15-1.44.44-2.04s.7-1.07,1.22-1.41,1.09-.51,1.7-.51c1,0,1.78.33,2.33.99.55.66.83,1.6.83,2.83v.55h-5.21c.02.76.24,1.37.66,1.84.42.47.96.7,1.62.7.46,0,.86-.09,1.18-.28.32-.19.6-.44.85-.75l.8.63c-.64.99-1.61,1.49-2.9,1.49ZM1488.99,262.8c-.53,0-.98.19-1.34.58-.36.39-.58.93-.67,1.62h3.85v-.1c-.04-.67-.22-1.19-.54-1.55-.32-.37-.76-.55-1.31-.55Z" fill="url(#radial-gradient-19)"/>
      <path d="M1493.33,265.63c0-.75.15-1.43.44-2.03.3-.6.71-1.07,1.24-1.39.53-.33,1.13-.49,1.81-.49,1.05,0,1.89.36,2.54,1.09.65.73.97,1.69.97,2.89v.09c0,.75-.14,1.42-.43,2.02-.29.59-.7,1.06-1.23,1.39-.53.33-1.15.5-1.84.5-1.04,0-1.89-.36-2.53-1.09-.65-.73-.97-1.69-.97-2.88v-.09ZM1494.65,265.79c0,.85.2,1.54.59,2.05.4.52.93.77,1.59.77s1.2-.26,1.59-.79c.39-.52.59-1.26.59-2.2,0-.84-.2-1.53-.6-2.05-.4-.52-.93-.79-1.6-.79s-1.17.26-1.57.77c-.4.52-.6,1.26-.6,2.22Z" fill="url(#radial-gradient-20)"/>
      <path d="M1511.64,264.76h-4.49v3.67h5.21v1.12h-6.58v-10.35h6.51v1.12h-5.14v3.33h4.49v1.12Z" fill="url(#radial-gradient-21)"/>
      <path d="M1513.41,265.64c0-1.18.28-2.13.84-2.85.56-.72,1.29-1.08,2.2-1.08s1.61.31,2.14.92v-4.01h1.32v10.92h-1.21l-.06-.82c-.53.64-1.26.97-2.2.97s-1.62-.36-2.18-1.09-.84-1.68-.84-2.86v-.1ZM1514.72,265.79c0,.87.18,1.55.54,2.05.36.49.86.74,1.49.74.83,0,1.44-.37,1.83-1.12v-3.53c-.39-.73-1-1.09-1.81-1.09-.64,0-1.15.25-1.51.75-.36.5-.54,1.23-.54,2.21Z" fill="url(#radial-gradient-22)"/>
      <path d="M1521.95,259.82c0-.21.07-.39.2-.54s.32-.22.58-.22.45.07.58.22c.13.15.2.33.2.54s-.07.39-.2.53c-.13.14-.33.21-.58.21s-.45-.07-.58-.21c-.13-.14-.2-.32-.2-.53ZM1523.37,269.55h-1.32v-7.69h1.32v7.69Z" fill="url(#radial-gradient-23)"/>
      <path d="M1527.26,259.99v1.86h1.44v1.02h-1.44v4.78c0,.31.06.54.19.69.13.15.35.23.65.23.15,0,.36-.03.63-.08v1.06c-.35.09-.68.14-1.01.14-.59,0-1.03-.18-1.33-.53-.3-.36-.45-.86-.45-1.51v-4.77h-1.4v-1.02h1.4v-1.86h1.32Z" fill="url(#radial-gradient-24)"/>
      <path d="M1530.23,259.82c0-.21.07-.39.2-.54s.32-.22.58-.22.45.07.58.22c.13.15.2.33.2.54s-.07.39-.2.53c-.13.14-.33.21-.58.21s-.45-.07-.58-.21c-.13-.14-.2-.32-.2-.53ZM1531.66,269.55h-1.32v-7.69h1.32v7.69Z" fill="url(#radial-gradient-25)"/>
      <path d="M1535.01,261.86l.04.97c.59-.74,1.36-1.11,2.3-1.11,1.63,0,2.45.92,2.46,2.75v5.08h-1.32v-5.09c0-.55-.13-.96-.38-1.23-.25-.27-.64-.4-1.16-.4-.43,0-.8.11-1.12.34s-.57.53-.75.9v5.48h-1.32v-7.69h1.24Z" fill="url(#radial-gradient-26)"/>
      <path d="M1541.48,265.64c0-1.2.28-2.15.83-2.86s1.29-1.06,2.2-1.06,1.67.33,2.2,1l.06-.85h1.2v7.51c0,1-.3,1.78-.89,2.35-.59.57-1.38.86-2.38.86-.55,0-1.1-.12-1.63-.36-.53-.24-.94-.56-1.22-.97l.68-.79c.56.7,1.25,1.04,2.07,1.04.64,0,1.14-.18,1.5-.54.36-.36.54-.87.54-1.52v-.66c-.53.61-1.24.91-2.15.91s-1.63-.36-2.19-1.09c-.56-.73-.84-1.71-.84-2.96ZM1542.8,265.79c0,.87.18,1.55.53,2.04s.85.74,1.49.74c.83,0,1.44-.38,1.83-1.13v-3.51c-.4-.73-1.01-1.1-1.81-1.1-.64,0-1.14.25-1.5.75-.36.5-.54,1.23-.54,2.21Z" fill="url(#radial-gradient-27)"/>
    </g>
    <g>
      <path d="M1447.96,255.23c0-.43-.38-.83-.82-.82-4.19,0-8.38,0-12.56,0-.35-.01-.68.24-.78.57-.03.09-.03.19-.03.29v18.38c0,.44.42.82.86.8,4.05,0,8.1,0,12.15,0,.22,0,.45.03.67-.06.3-.11.52-.42.53-.74,0-6.14,0-12.28,0-18.42ZM1437.78,255.49c2.05,0,4.11,0,6.16,0,.2-.02.37.17.36.36,0,1.51,0,3.02,0,4.54.02.19-.16.38-.36.37h-3.53c-.26,0-.53-.01-.79.01-.44-.03-.89,0-1.33-.01-.15,0-.31-.02-.46.01-.2,0-.39-.17-.38-.38,0-1.51,0-3.02,0-4.54,0-.18.15-.37.34-.36ZM1436.1,273.27c0,.14-.13.26-.27.26-.32,0-.64,0-.96,0-.12,0-.2-.09-.26-.18,0-.39,0-.79,0-1.18.06-.1.14-.18.26-.21.34,0,.68,0,1.01,0,.11.04.22.13.22.26,0,.35,0,.69,0,1.04ZM1436.1,270.86c0,.12-.11.24-.23.23-.37,0-.73,0-1.1,0-.07-.05-.12-.11-.17-.18,0-.38,0-.76,0-1.14.04-.12.16-.24.3-.22.3,0,.61,0,.91,0,.14-.02.28.12.28.27,0,.35,0,.69,0,1.04ZM1436.1,268.07c.02.15-.12.29-.27.27-.33,0-.67,0-1,0-.11,0-.18-.09-.23-.17,0-.4,0-.79,0-1.19.07-.08.14-.19.27-.18.32,0,.64,0,.96,0,.15,0,.29.13.27.28,0,.33,0,.67,0,1ZM1435.87,265.58c-.32.02-.64,0-.96.01-.15.02-.3-.1-.31-.25,0-.38,0-.77,0-1.15.06-.09.14-.19.27-.2.34,0,.67,0,1.01,0,.11.05.22.14.22.26,0,.35,0,.69,0,1.04.01.14-.1.28-.24.29ZM1436.1,262.55c0,.11-.1.17-.18.23-.37,0-.73,0-1.09,0-.11,0-.17-.11-.23-.18v-1.19c.06-.08.11-.19.22-.19.35,0,.7-.02,1.05-.01.14.02.24.16.23.29,0,.35,0,.7,0,1.04ZM1436.11,259.76c0,.11-.1.17-.19.22-.35,0-.7,0-1.06,0-.13,0-.26-.12-.26-.26,0-.38,0-.76,0-1.14.07-.08.14-.19.26-.18.32,0,.64,0,.96,0,.15-.01.29.12.28.27,0,.36,0,.72,0,1.08ZM1435.9,257.16c-.33,0-.66,0-.99,0-.13.01-.24-.09-.3-.19,0-.41,0-.82,0-1.22.05-.09.12-.17.21-.22.37,0,.73,0,1.1,0,.09.06.2.14.19.27,0,.36,0,.72,0,1.08.01.13-.1.23-.21.27ZM1443.97,273.31c-2.04,0-4.08,0-6.12,0-.21.03-.42-.15-.42-.36,0-1.58,0-3.16,0-4.74-.02-.19.12-.38.31-.4,2.05,0,4.09,0,6.14,0,.21-.02.4.16.4.36,0,1.59,0,3.19,0,4.78,0,.18-.15.34-.32.36ZM1443.93,266.9c-2.05,0-4.1,0-6.16,0-.19,0-.35-.17-.34-.36v-4.49c-.02-.18.11-.35.28-.39,2.03-.02,4.06,0,6.09-.01.13-.01.28,0,.38.11.09.08.12.21.11.33,0,1.48,0,2.97,0,4.45.02.2-.17.38-.37.37ZM1445.65,267.07c-.02-.13.09-.25.21-.28.33-.01.66,0,.99,0,.15-.01.28.13.27.28,0,.34,0,.69,0,1.04,0,.14-.14.25-.27.23-.31,0-.61,0-.92,0-.15.02-.29-.12-.28-.27,0-.34,0-.67,0-1ZM1447.12,269.82c0,.35,0,.69,0,1.04,0,.12-.11.24-.23.23-.32,0-.64,0-.96,0-.13.02-.27-.09-.27-.23,0-.35,0-.69,0-1.04,0-.09.05-.18.13-.23.02,0,.05-.02.06-.03.33-.02.67,0,1,0,.14-.02.28.12.27.27ZM1447.12,273.28c0,.14-.14.26-.27.25-.31,0-.62,0-.92,0-.14,0-.28-.12-.27-.26,0-.35,0-.7,0-1.04,0-.13.12-.21.23-.26.35,0,.71,0,1.06.03.09.03.18.12.17.23v1.05ZM1446.89,265.58c-.17.01-.34,0-.5,0-.19,0-.38.02-.56-.02-.13-.04-.19-.19-.17-.32,0-.33,0-.67,0-1,0-.14.14-.26.27-.26.33,0,.65,0,.98,0,.11.04.23.13.22.26,0,.36,0,.72,0,1.09,0,.12-.11.24-.23.24ZM1447.12,261.63c0,.3,0,.61,0,.91,0,.11-.1.17-.17.23-.37,0-.74,0-1.11,0-.08-.05-.18-.12-.18-.22,0-.35,0-.7,0-1.05-.01-.12.06-.23.17-.27.26-.06.52.01.78-.02.15,0,.34-.05.45.08.09.09.07.22.07.34ZM1445.65,258.68c0-.14.13-.28.28-.27.3,0,.61,0,.92,0,.14,0,.29.12.27.27,0,.35,0,.7,0,1.04,0,.14-.13.27-.27.26-.34,0-.67,0-1.01,0-.09-.06-.19-.14-.19-.26,0-.35,0-.7,0-1.05ZM1446.84,257.17c-.3,0-.61,0-.91,0-.14,0-.28-.13-.28-.27,0-.35,0-.69,0-1.04-.02-.16.12-.32.28-.31h1.01c.08.07.19.15.18.27,0,.36,0,.72,0,1.08.01.15-.13.29-.28.28Z"/>
      <path d="M1447.96,255.23c0-.43-.38-.83-.82-.82-4.19,0-8.38,0-12.56,0-.35-.01-.68.24-.78.57-.03.09-.03.19-.03.29v18.38c0,.44.42.82.86.8,4.05,0,8.1,0,12.15,0,.22,0,.45.03.67-.06.3-.11.52-.42.53-.74,0-6.14,0-12.28,0-18.42ZM1437.78,255.49c2.05,0,4.11,0,6.16,0,.2-.02.37.17.36.36,0,1.51,0,3.02,0,4.54.02.19-.16.38-.36.37h-3.53c-.26,0-.53-.01-.79.01-.44-.03-.89,0-1.33-.01-.15,0-.31-.02-.46.01-.2,0-.39-.17-.38-.38,0-1.51,0-3.02,0-4.54,0-.18.15-.37.34-.36ZM1436.1,273.27c0,.14-.13.26-.27.26-.32,0-.64,0-.96,0-.12,0-.2-.09-.26-.18,0-.39,0-.79,0-1.18.06-.1.14-.18.26-.21.34,0,.68,0,1.01,0,.11.04.22.13.22.26,0,.35,0,.69,0,1.04ZM1436.1,270.86c0,.12-.11.24-.23.23-.37,0-.73,0-1.1,0-.07-.05-.12-.11-.17-.18,0-.38,0-.76,0-1.14.04-.12.16-.24.3-.22.3,0,.61,0,.91,0,.14-.02.28.12.28.27,0,.35,0,.69,0,1.04ZM1436.1,268.07c.02.15-.12.29-.27.27-.33,0-.67,0-1,0-.11,0-.18-.09-.23-.17,0-.4,0-.79,0-1.19.07-.08.14-.19.27-.18.32,0,.64,0,.96,0,.15,0,.29.13.27.28,0,.33,0,.67,0,1ZM1435.87,265.58c-.32.02-.64,0-.96.01-.15.02-.3-.1-.31-.25,0-.38,0-.77,0-1.15.06-.09.14-.19.27-.2.34,0,.67,0,1.01,0,.11.05.22.14.22.26,0,.35,0,.69,0,1.04.01.14-.1.28-.24.29ZM1436.1,262.55c0,.11-.1.17-.18.23-.37,0-.73,0-1.09,0-.11,0-.17-.11-.23-.18v-1.19c.06-.08.11-.19.22-.19.35,0,.7-.02,1.05-.01.14.02.24.16.23.29,0,.35,0,.7,0,1.04ZM1436.11,259.76c0,.11-.1.17-.19.22-.35,0-.7,0-1.06,0-.13,0-.26-.12-.26-.26,0-.38,0-.76,0-1.14.07-.08.14-.19.26-.18.32,0,.64,0,.96,0,.15-.01.29.12.28.27,0,.36,0,.72,0,1.08ZM1435.9,257.16c-.33,0-.66,0-.99,0-.13.01-.24-.09-.3-.19,0-.41,0-.82,0-1.22.05-.09.12-.17.21-.22.37,0,.73,0,1.1,0,.09.06.2.14.19.27,0,.36,0,.72,0,1.08.01.13-.1.23-.21.27ZM1443.97,273.31c-2.04,0-4.08,0-6.12,0-.21.03-.42-.15-.42-.36,0-1.58,0-3.16,0-4.74-.02-.19.12-.38.31-.4,2.05,0,4.09,0,6.14,0,.21-.02.4.16.4.36,0,1.59,0,3.19,0,4.78,0,.18-.15.34-.32.36ZM1443.93,266.9c-2.05,0-4.1,0-6.16,0-.19,0-.35-.17-.34-.36v-4.49c-.02-.18.11-.35.28-.39,2.03-.02,4.06,0,6.09-.01.13-.01.28,0,.38.11.09.08.12.21.11.33,0,1.48,0,2.97,0,4.45.02.2-.17.38-.37.37ZM1445.65,267.07c-.02-.13.09-.25.21-.28.33-.01.66,0,.99,0,.15-.01.28.13.27.28,0,.34,0,.69,0,1.04,0,.14-.14.25-.27.23-.31,0-.61,0-.92,0-.15.02-.29-.12-.28-.27,0-.34,0-.67,0-1ZM1447.12,269.82c0,.35,0,.69,0,1.04,0,.12-.11.24-.23.23-.32,0-.64,0-.96,0-.13.02-.27-.09-.27-.23,0-.35,0-.69,0-1.04,0-.09.05-.18.13-.23.02,0,.05-.02.06-.03.33-.02.67,0,1,0,.14-.02.28.12.27.27ZM1447.12,273.28c0,.14-.14.26-.27.25-.31,0-.62,0-.92,0-.14,0-.28-.12-.27-.26,0-.35,0-.7,0-1.04,0-.13.12-.21.23-.26.35,0,.71,0,1.06.03.09.03.18.12.17.23v1.05ZM1446.89,265.58c-.17.01-.34,0-.5,0-.19,0-.38.02-.56-.02-.13-.04-.19-.19-.17-.32,0-.33,0-.67,0-1,0-.14.14-.26.27-.26.33,0,.65,0,.98,0,.11.04.23.13.22.26,0,.36,0,.72,0,1.09,0,.12-.11.24-.23.24ZM1447.12,261.63c0,.3,0,.61,0,.91,0,.11-.1.17-.17.23-.37,0-.74,0-1.11,0-.08-.05-.18-.12-.18-.22,0-.35,0-.7,0-1.05-.01-.12.06-.23.17-.27.26-.06.52.01.78-.02.15,0,.34-.05.45.08.09.09.07.22.07.34ZM1445.65,258.68c0-.14.13-.28.28-.27.3,0,.61,0,.92,0,.14,0,.29.12.27.27,0,.35,0,.7,0,1.04,0,.14-.13.27-.27.26-.34,0-.67,0-1.01,0-.09-.06-.19-.14-.19-.26,0-.35,0-.7,0-1.05ZM1446.84,257.17c-.3,0-.61,0-.91,0-.14,0-.28-.13-.28-.27,0-.35,0-.69,0-1.04-.02-.16.12-.32.28-.31h1.01c.08.07.19.15.18.27,0,.36,0,.72,0,1.08.01.15-.13.29-.28.28Z" fill="url(#radial-gradient-28)"/>
    </g>
  </g>
  <g>
    <g>
      <path d="M1467.69,308.56h.99c.62,0,1.11-.17,1.46-.49.36-.32.53-.75.53-1.29,0-1.21-.6-1.82-1.81-1.82-.57,0-1.02.16-1.36.49s-.51.75-.51,1.29h-1.32c0-.82.3-1.5.9-2.04.6-.54,1.36-.81,2.29-.81.98,0,1.74.26,2.3.77.55.52.83,1.23.83,2.15,0,.45-.15.89-.44,1.31s-.69.74-1.19.95c.57.18,1.01.48,1.32.9.31.42.47.93.47,1.53,0,.93-.3,1.67-.91,2.21s-1.4.82-2.37.82-1.76-.26-2.37-.79-.91-1.22-.91-2.08h1.32c0,.54.18.98.53,1.31s.83.49,1.43.49c.64,0,1.12-.17,1.46-.5.34-.33.5-.81.5-1.43s-.18-1.06-.55-1.39c-.37-.32-.9-.49-1.6-.5h-.99v-1.07Z" fill="url(#radial-gradient-29)"/>
      <path d="M1474.29,314.37v-10.35h2.92c.9,0,1.7.2,2.39.6.69.4,1.23.96,1.6,1.7.38.73.57,1.58.57,2.53v.66c0,.98-.19,1.83-.57,2.57-.38.73-.91,1.3-1.61,1.69-.7.39-1.51.6-2.44.6h-2.86ZM1475.66,305.14v8.12h1.44c1.05,0,1.87-.33,2.46-.98.59-.65.88-1.59.88-2.8v-.6c0-1.18-.28-2.09-.83-2.74-.55-.65-1.34-.98-2.35-.99h-1.59Z" fill="url(#radial-gradient-30)"/>
      <path d="M1487.5,315.26h-1.13l4.32-11.24h1.12l-4.32,11.24Z" fill="url(#radial-gradient-31)"/>
      <path d="M1504.34,304.02v7.04c0,.98-.31,1.77-.92,2.4-.61.62-1.43.97-2.48,1.04h-.36c-1.13.01-2.04-.29-2.71-.9-.67-.61-1.01-1.45-1.02-2.52v-7.05h1.35v7.01c0,.75.21,1.33.62,1.75.41.42,1,.62,1.76.62s1.36-.21,1.77-.62c.41-.41.61-.99.61-1.74v-7.02h1.37Z" fill="url(#radial-gradient-32)"/>
      <path d="M1507.95,314.37h-1.36v-10.35h1.36v10.35Z" fill="url(#radial-gradient-33)"/>
      <path d="M1512.98,310.51h-3.47v-1.07h3.47v1.07Z" fill="url(#radial-gradient-34)"/>
      <path d="M1521.75,304.02v7.04c0,.98-.31,1.77-.92,2.4-.61.62-1.43.97-2.48,1.04h-.36c-1.13.01-2.04-.29-2.71-.9-.67-.61-1.01-1.45-1.02-2.52v-7.05h1.35v7.01c0,.75.21,1.33.62,1.75.41.42,1,.62,1.76.62s1.36-.21,1.77-.62c.41-.41.61-.99.61-1.74v-7.02h1.37Z" fill="url(#radial-gradient-35)"/>
      <path d="M1527.29,307.99l2.48-3.97h1.61l-3.27,5.13,3.35,5.22h-1.62l-2.55-4.04-2.56,4.04h-1.61l3.36-5.22-3.28-5.13h1.6l2.5,3.97Z" fill="url(#radial-gradient-36)"/>
    </g>
    <g>
      <path d="M1441.59,299.95c.15-.06.33-.05.48.02,1.63.94,3.28,1.86,4.91,2.81.82.46,1.63.93,2.45,1.4.14.08.31.15.38.31.09.14.06.31.06.47,0,2.93,0,5.86,0,8.78,0,.17-.12.33-.26.41-2.47,1.44-4.94,2.9-7.42,4.33-.18.1-.42.1-.6,0-2.47-1.42-4.94-2.86-7.4-4.3-.22-.1-.43-.28-.42-.54,0-2.94,0-5.88,0-8.83-.01-.2.08-.41.26-.52,1.61-.94,3.22-1.87,4.83-2.8.92-.51,1.81-1.05,2.74-1.55M1441.62,301.45c-2.01,1.14-4.02,2.29-6.03,3.45,2.09,1.29,4.19,2.58,6.29,3.86,2.04-1.3,4.09-2.58,6.15-3.86-2.05-1.18-4.11-2.35-6.16-3.53-.09-.05-.17.04-.24.08M1435.07,313.18c.07.04.15.08.22.12,1.98,1.14,3.95,2.31,5.94,3.44.01-2.29,0-4.57,0-6.86-2.06-1.25-4.1-2.53-6.16-3.77,0,2.35,0,4.71,0,7.07M1442.55,309.89c0,2.29,0,4.57,0,6.86,2-1.16,3.99-2.35,6-3.51,0-2.37,0-4.73,0-7.1-2.02,1.22-4,2.51-6,3.75Z"/>
      <path d="M1441.59,299.95c.15-.06.33-.05.48.02,1.63.94,3.28,1.86,4.91,2.81.82.46,1.63.93,2.45,1.4.14.08.31.15.38.31.09.14.06.31.06.47,0,2.93,0,5.86,0,8.78,0,.17-.12.33-.26.41-2.47,1.44-4.94,2.9-7.42,4.33-.18.1-.42.1-.6,0-2.47-1.42-4.94-2.86-7.4-4.3-.22-.1-.43-.28-.42-.54,0-2.94,0-5.88,0-8.83-.01-.2.08-.41.26-.52,1.61-.94,3.22-1.87,4.83-2.8.92-.51,1.81-1.05,2.74-1.55M1441.62,301.45c-2.01,1.14-4.02,2.29-6.03,3.45,2.09,1.29,4.19,2.58,6.29,3.86,2.04-1.3,4.09-2.58,6.15-3.86-2.05-1.18-4.11-2.35-6.16-3.53-.09-.05-.17.04-.24.08M1435.07,313.18c.07.04.15.08.22.12,1.98,1.14,3.95,2.31,5.94,3.44.01-2.29,0-4.57,0-6.86-2.06-1.25-4.1-2.53-6.16-3.77,0,2.35,0,4.71,0,7.07M1442.55,309.89c0,2.29,0,4.57,0,6.86,2-1.16,3.99-2.35,6-3.51,0-2.37,0-4.73,0-7.1-2.02,1.22-4,2.51-6,3.75Z" fill="url(#radial-gradient-37)"/>
    </g>
  </g>
  <g>
    <g>
      <path d="M1467.49,416.64h4.91v1.12h-6.28v-10.35h1.37v9.23Z" fill="url(#radial-gradient-38)"/>
      <path d="M1473.4,413.84c0-.75.15-1.43.44-2.03.3-.6.71-1.07,1.24-1.39.53-.33,1.13-.49,1.81-.49,1.05,0,1.89.36,2.54,1.09.65.73.97,1.69.97,2.89v.09c0,.75-.14,1.42-.43,2.02-.29.59-.7,1.06-1.23,1.39-.53.33-1.15.5-1.84.5-1.04,0-1.89-.36-2.53-1.09-.65-.73-.97-1.69-.97-2.88v-.09ZM1474.72,414c0,.85.2,1.54.59,2.05.4.52.93.77,1.59.77s1.2-.26,1.59-.79c.39-.52.59-1.26.59-2.2,0-.84-.2-1.53-.6-2.05-.4-.52-.93-.79-1.6-.79s-1.17.26-1.57.77c-.4.52-.6,1.26-.6,2.22Z" fill="url(#radial-gradient-39)"/>
      <path d="M1481.74,413.85c0-1.2.28-2.15.83-2.86s1.29-1.06,2.2-1.06,1.67.33,2.2,1l.06-.85h1.2v7.51c0,1-.3,1.78-.89,2.35-.59.57-1.38.86-2.38.86-.55,0-1.1-.12-1.63-.36-.53-.24-.94-.56-1.22-.97l.68-.79c.56.7,1.25,1.04,2.07,1.04.64,0,1.14-.18,1.5-.54.36-.36.54-.87.54-1.52v-.66c-.53.61-1.24.91-2.15.91s-1.63-.36-2.19-1.09c-.56-.73-.84-1.71-.84-2.96ZM1483.06,414c0,.87.18,1.55.53,2.04s.85.74,1.49.74c.83,0,1.44-.38,1.83-1.13v-3.51c-.4-.73-1.01-1.1-1.81-1.1-.64,0-1.14.25-1.5.75-.36.5-.54,1.23-.54,2.21Z" fill="url(#radial-gradient-40)"/>
      <path d="M1489.87,413.84c0-.75.15-1.43.44-2.03.3-.6.71-1.07,1.24-1.39.53-.33,1.13-.49,1.81-.49,1.05,0,1.89.36,2.54,1.09.65.73.97,1.69.97,2.89v.09c0,.75-.14,1.42-.43,2.02-.29.59-.7,1.06-1.23,1.39-.53.33-1.15.5-1.84.5-1.04,0-1.89-.36-2.53-1.09-.65-.73-.97-1.69-.97-2.88v-.09ZM1491.19,414c0,.85.2,1.54.59,2.05.4.52.93.77,1.59.77s1.2-.26,1.59-.79c.39-.52.59-1.26.59-2.2,0-.84-.2-1.53-.6-2.05-.4-.52-.93-.79-1.6-.79s-1.17.26-1.57.77c-.4.52-.6,1.26-.6,2.22Z" fill="url(#radial-gradient-41)"/>
      <path d="M1502.33,417.76v-10.35h2.92c.9,0,1.7.2,2.39.6.69.4,1.23.96,1.6,1.7.38.73.57,1.58.57,2.53v.66c0,.98-.19,1.83-.57,2.57-.38.73-.91,1.3-1.61,1.69-.7.39-1.51.6-2.44.6h-2.86ZM1503.7,408.53v8.12h1.44c1.05,0,1.87-.33,2.46-.98.59-.65.88-1.59.88-2.8v-.6c0-1.18-.28-2.09-.83-2.74-.55-.65-1.34-.98-2.35-.99h-1.59Z" fill="url(#radial-gradient-42)"/>
      <path d="M1514.87,417.9c-1.04,0-1.89-.34-2.55-1.03-.65-.68-.98-1.6-.98-2.75v-.24c0-.76.15-1.44.44-2.04s.7-1.07,1.22-1.41,1.09-.51,1.7-.51c1,0,1.78.33,2.33.99.55.66.83,1.6.83,2.83v.55h-5.21c.02.76.24,1.37.66,1.84.42.47.96.7,1.62.7.46,0,.86-.09,1.18-.28.32-.19.6-.44.85-.75l.8.63c-.64.99-1.61,1.49-2.9,1.49ZM1514.7,411.01c-.53,0-.98.19-1.34.58-.36.39-.58.93-.67,1.62h3.85v-.1c-.04-.67-.22-1.19-.54-1.55-.32-.37-.76-.55-1.31-.55Z" fill="url(#radial-gradient-43)"/>
      <path d="M1523.87,415.72c0-.36-.13-.63-.4-.83-.27-.2-.73-.37-1.4-.51s-1.19-.31-1.59-.51c-.39-.2-.68-.44-.87-.71s-.28-.6-.28-.98c0-.63.27-1.16.8-1.6.53-.44,1.21-.65,2.04-.65.87,0,1.58.23,2.12.68s.81,1.03.81,1.73h-1.32c0-.36-.15-.67-.46-.93-.31-.26-.69-.39-1.16-.39s-.85.1-1.12.31-.41.48-.41.82c0,.32.13.56.38.72.25.16.7.31,1.36.46.66.15,1.19.32,1.6.53.41.2.71.45.91.74.2.29.3.64.3,1.05,0,.69-.27,1.24-.82,1.65-.55.42-1.26.62-2.14.62-.62,0-1.16-.11-1.64-.33-.47-.22-.84-.52-1.11-.91-.27-.39-.4-.81-.4-1.27h1.32c.02.44.2.79.53,1.05.33.26.76.39,1.3.39.5,0,.9-.1,1.2-.3.3-.2.45-.47.45-.81Z" fill="url(#radial-gradient-44)"/>
      <path d="M1526.58,413.85c0-1.2.28-2.15.83-2.86s1.29-1.06,2.2-1.06,1.67.33,2.2,1l.06-.85h1.2v7.51c0,1-.3,1.78-.89,2.35-.59.57-1.38.86-2.38.86-.55,0-1.1-.12-1.63-.36-.53-.24-.94-.56-1.22-.97l.68-.79c.56.7,1.25,1.04,2.07,1.04.64,0,1.14-.18,1.5-.54.36-.36.54-.87.54-1.52v-.66c-.53.61-1.24.91-2.15.91s-1.63-.36-2.19-1.09c-.56-.73-.84-1.71-.84-2.96ZM1527.9,414c0,.87.18,1.55.53,2.04s.85.74,1.49.74c.83,0,1.44-.38,1.83-1.13v-3.51c-.4-.73-1.01-1.1-1.81-1.1-.64,0-1.14.25-1.5.75-.36.5-.54,1.23-.54,2.21Z" fill="url(#radial-gradient-45)"/>
      <path d="M1535.07,408.03c0-.21.07-.39.2-.54s.32-.22.58-.22.45.07.58.22c.13.15.2.33.2.54s-.07.39-.2.53c-.13.14-.33.21-.58.21s-.45-.07-.58-.21c-.13-.14-.2-.32-.2-.53ZM1536.49,417.76h-1.32v-7.69h1.32v7.69Z" fill="url(#radial-gradient-46)"/>
      <path d="M1539.84,410.07l.04.97c.59-.74,1.36-1.11,2.3-1.11,1.63,0,2.45.92,2.46,2.75v5.08h-1.32v-5.09c0-.55-.13-.96-.38-1.23-.25-.27-.64-.4-1.16-.4-.43,0-.8.11-1.12.34s-.57.53-.75.9v5.48h-1.32v-7.69h1.24Z" fill="url(#radial-gradient-47)"/>
    </g>
    <g id="_010100ff" data-name="#010100ff">
      <path d="M1429.69,405.13c.28-.36.73-.57,1.19-.6.73-.04,1.44.49,1.63,1.19,1.8,0,3.59,0,5.39,0,0-.31,0-.62,0-.93,0-.16.16-.3.32-.27.96,0,1.92,0,2.88,0,.15-.02.26.13.26.27,0,.31,0,.62,0,.93,1.78,0,3.56,0,5.34,0,.13-.52.54-.96,1.05-1.13.5-.16,1.07-.06,1.48.26.61.47.81,1.38.46,2.06-.25.49-.75.85-1.3.89-.74.07-1.49-.43-1.68-1.14-1.37-.01-2.75,0-4.12,0-.41-.03-.82,0-1.22,0,0,.1,0,.2,0,.3,1.42.85,2.62,2.03,3.6,3.36,1.17,1.64,2.06,3.5,2.41,5.49.03.2.07.39.1.59.31,0,.62,0,.93-.01.16,0,.32.13.31.29,0,.98,0,1.95,0,2.93.02.16-.11.33-.27.33-.5,0-.99-.01-1.49.01-.46-.03-.93.01-1.39,0-.16.01-.33-.11-.33-.28,0-.98,0-1.96,0-2.93-.02-.16.12-.33.28-.32.25,0,.49,0,.74,0-.3-1.92-1.12-3.74-2.25-5.31-.54-.76-1.18-1.44-1.88-2.05-.43-.37-.9-.7-1.36-1.03-.22,0-.44,0-.66,0,0,2.89,0,5.79,0,8.68.58.18,1.02.68,1.15,1.26.04.24.04.49,0,.74-.13.47-.44.89-.88,1.1-.48.25-1.08.23-1.54-.04-.68-.38-1.02-1.27-.74-2,.16-.5.58-.89,1.07-1.06,0-2.89,0-5.79,0-8.68-.2,0-.4,0-.61.01-1.52.9-2.78,2.2-3.73,3.68-.89,1.44-1.55,3.03-1.82,4.71.25,0,.5,0,.76,0,.15,0,.28.16.27.31,0,.99,0,1.98,0,2.98,0,.12-.12.2-.2.26-1,0-1.99,0-2.99,0-.16,0-.31-.14-.3-.3,0-.98,0-1.95,0-2.93-.02-.14.09-.27.22-.3.34-.01.68,0,1.02-.01,0-.07.02-.14.04-.2.03-.23.09-.46.13-.69.1-.43.21-.86.35-1.28.03-.1.06-.19.1-.29.63-1.76,1.62-3.41,2.87-4.8.78-.85,1.66-1.61,2.64-2.2,0-.09,0-.18,0-.27-1.28-.01-2.57,0-3.85,0-.51,0-1.03-.01-1.54,0-.14.5-.55.89-1.03,1.06-.44.14-.95.1-1.35-.14-.41-.23-.69-.64-.79-1.09-.08-.48.03-1.01.36-1.38M1430.44,405.58c-.37.3-.36.95.04,1.22.3.24.78.2,1.03-.1.3-.3.27-.85-.06-1.12-.14-.13-.34-.17-.53-.19-.17.03-.36.07-.49.19M1438.81,405.42c-.05.34,0,.69-.02,1.04.01.21-.03.44.03.65.54,0,1.09,0,1.64,0,0-.56,0-1.12,0-1.68-.55-.01-1.1,0-1.64,0M1447.98,405.44c-.34.11-.55.49-.49.83.05.38.42.7.8.67.41-.02.76-.41.71-.82,0-.5-.56-.89-1.02-.68M1446.15,417.32c-.05.17-.02.34-.02.51.01.39-.03.79.01,1.18.55,0,1.1,0,1.64,0,0-.56,0-1.12,0-1.69-.55-.02-1.09-.01-1.64,0M1431.44,417.39c0,.55,0,1.1,0,1.65.55.01,1.11,0,1.66,0,.04-.51,0-1.03.02-1.55,0-.06.02-.18-.08-.16-.51,0-1.03,0-1.54,0-.01.01-.05.04-.06.05M1439.43,417.54c-.34.1-.59.45-.56.81,0,.39.36.72.75.73.42.02.84-.35.8-.78.03-.5-.51-.92-.99-.76Z"/>
      <path d="M1429.69,405.13c.28-.36.73-.57,1.19-.6.73-.04,1.44.49,1.63,1.19,1.8,0,3.59,0,5.39,0,0-.31,0-.62,0-.93,0-.16.16-.3.32-.27.96,0,1.92,0,2.88,0,.15-.02.26.13.26.27,0,.31,0,.62,0,.93,1.78,0,3.56,0,5.34,0,.13-.52.54-.96,1.05-1.13.5-.16,1.07-.06,1.48.26.61.47.81,1.38.46,2.06-.25.49-.75.85-1.3.89-.74.07-1.49-.43-1.68-1.14-1.37-.01-2.75,0-4.12,0-.41-.03-.82,0-1.22,0,0,.1,0,.2,0,.3,1.42.85,2.62,2.03,3.6,3.36,1.17,1.64,2.06,3.5,2.41,5.49.03.2.07.39.1.59.31,0,.62,0,.93-.01.16,0,.32.13.31.29,0,.98,0,1.95,0,2.93.02.16-.11.33-.27.33-.5,0-.99-.01-1.49.01-.46-.03-.93.01-1.39,0-.16.01-.33-.11-.33-.28,0-.98,0-1.96,0-2.93-.02-.16.12-.33.28-.32.25,0,.49,0,.74,0-.3-1.92-1.12-3.74-2.25-5.31-.54-.76-1.18-1.44-1.88-2.05-.43-.37-.9-.7-1.36-1.03-.22,0-.44,0-.66,0,0,2.89,0,5.79,0,8.68.58.18,1.02.68,1.15,1.26.04.24.04.49,0,.74-.13.47-.44.89-.88,1.1-.48.25-1.08.23-1.54-.04-.68-.38-1.02-1.27-.74-2,.16-.5.58-.89,1.07-1.06,0-2.89,0-5.79,0-8.68-.2,0-.4,0-.61.01-1.52.9-2.78,2.2-3.73,3.68-.89,1.44-1.55,3.03-1.82,4.71.25,0,.5,0,.76,0,.15,0,.28.16.27.31,0,.99,0,1.98,0,2.98,0,.12-.12.2-.2.26-1,0-1.99,0-2.99,0-.16,0-.31-.14-.3-.3,0-.98,0-1.95,0-2.93-.02-.14.09-.27.22-.3.34-.01.68,0,1.02-.01,0-.07.02-.14.04-.2.03-.23.09-.46.13-.69.1-.43.21-.86.35-1.28.03-.1.06-.19.1-.29.63-1.76,1.62-3.41,2.87-4.8.78-.85,1.66-1.61,2.64-2.2,0-.09,0-.18,0-.27-1.28-.01-2.57,0-3.85,0-.51,0-1.03-.01-1.54,0-.14.5-.55.89-1.03,1.06-.44.14-.95.1-1.35-.14-.41-.23-.69-.64-.79-1.09-.08-.48.03-1.01.36-1.38M1430.44,405.58c-.37.3-.36.95.04,1.22.3.24.78.2,1.03-.1.3-.3.27-.85-.06-1.12-.14-.13-.34-.17-.53-.19-.17.03-.36.07-.49.19M1438.81,405.42c-.05.34,0,.69-.02,1.04.01.21-.03.44.03.65.54,0,1.09,0,1.64,0,0-.56,0-1.12,0-1.68-.55-.01-1.1,0-1.64,0M1447.98,405.44c-.34.11-.55.49-.49.83.05.38.42.7.8.67.41-.02.76-.41.71-.82,0-.5-.56-.89-1.02-.68M1446.15,417.32c-.05.17-.02.34-.02.51.01.39-.03.79.01,1.18.55,0,1.1,0,1.64,0,0-.56,0-1.12,0-1.69-.55-.02-1.09-.01-1.64,0M1431.44,417.39c0,.55,0,1.1,0,1.65.55.01,1.11,0,1.66,0,.04-.51,0-1.03.02-1.55,0-.06.02-.18-.08-.16-.51,0-1.03,0-1.54,0-.01.01-.05.04-.06.05M1439.43,417.54c-.34.1-.59.45-.56.81,0,.39.36.72.75.73.42.02.84-.35.8-.78.03-.5-.51-.92-.99-.76Z" fill="url(#radial-gradient-48)"/>
    </g>
  </g>
  <g>
    <g>
      <path d="M1466.12,460.96v-10.35h3.38c1.12,0,1.97.23,2.53.7.57.46.85,1.15.85,2.06,0,.48-.14.91-.41,1.28-.27.37-.65.66-1.12.86.56.16,1,.45,1.33.89.32.44.49.96.49,1.57,0,.93-.3,1.66-.9,2.19-.6.53-1.45.8-2.55.8h-3.59ZM1467.48,455.02h2.06c.6,0,1.07-.15,1.43-.45.36-.3.54-.71.54-1.22,0-.57-.17-.98-.5-1.24-.33-.26-.84-.39-1.51-.39h-2.02v3.3ZM1467.48,456.12v3.73h2.25c.64,0,1.14-.16,1.5-.49.37-.33.55-.78.55-1.36,0-1.25-.68-1.87-2.03-1.87h-2.27Z" fill="url(#radial-gradient-49)"/>
      <path d="M1478.69,454.45c-.2-.03-.41-.05-.65-.05-.86,0-1.45.37-1.76,1.1v5.46h-1.32v-7.69h1.28l.02.89c.43-.69,1.04-1.03,1.83-1.03.26,0,.45.03.58.1v1.22Z" fill="url(#radial-gradient-50)"/>
      <path d="M1484.37,460.96c-.08-.15-.14-.42-.18-.81-.61.64-1.34.95-2.19.95-.76,0-1.38-.21-1.87-.64-.49-.43-.73-.97-.73-1.63,0-.8.3-1.42.91-1.87.61-.44,1.47-.66,2.57-.66h1.28v-.6c0-.46-.14-.83-.41-1.1-.27-.27-.68-.41-1.22-.41-.47,0-.86.12-1.18.36-.32.24-.48.52-.48.86h-1.32c0-.38.14-.75.41-1.11.27-.36.64-.64,1.11-.85.47-.21.98-.31,1.54-.31.89,0,1.58.22,2.08.66.5.44.76,1.05.78,1.83v3.54c0,.71.09,1.27.27,1.69v.11h-1.38ZM1482.18,459.96c.41,0,.8-.11,1.17-.32.37-.21.64-.49.8-.83v-1.58h-1.03c-1.61,0-2.42.47-2.42,1.41,0,.41.14.73.41.97.27.23.63.35,1.06.35Z" fill="url(#radial-gradient-51)"/>
      <path d="M1488.78,453.27l.04.97c.59-.74,1.36-1.11,2.3-1.11,1.63,0,2.45.92,2.46,2.75v5.08h-1.32v-5.09c0-.55-.13-.96-.38-1.23-.25-.27-.64-.4-1.16-.4-.43,0-.8.11-1.12.34s-.57.53-.75.9v5.48h-1.32v-7.69h1.24Z" fill="url(#radial-gradient-52)"/>
      <path d="M1495.25,457.05c0-1.18.28-2.13.84-2.85.56-.72,1.29-1.08,2.2-1.08s1.61.31,2.14.92v-4.01h1.32v10.92h-1.21l-.06-.82c-.53.64-1.26.97-2.2.97s-1.62-.36-2.18-1.09-.84-1.68-.84-2.86v-.1ZM1496.57,457.2c0,.87.18,1.55.54,2.05.36.49.86.74,1.49.74.83,0,1.44-.37,1.83-1.12v-3.53c-.39-.73-1-1.09-1.81-1.09-.64,0-1.15.25-1.51.75-.36.5-.54,1.23-.54,2.21Z" fill="url(#radial-gradient-53)"/>
      <path d="M1515.24,459.6c-.35.5-.84.88-1.47,1.13-.63.25-1.36.37-2.19.37s-1.59-.2-2.25-.59c-.65-.4-1.16-.96-1.52-1.69-.36-.73-.54-1.58-.55-2.54v-.9c0-1.56.36-2.77,1.09-3.63s1.75-1.29,3.07-1.29c1.08,0,1.95.28,2.61.83.66.55,1.06,1.34,1.21,2.35h-1.37c-.26-1.37-1.07-2.06-2.45-2.06-.91,0-1.61.32-2.08.96-.47.64-.71,1.57-.71,2.79v.85c0,1.16.27,2.09.8,2.77.53.69,1.25,1.03,2.15,1.03.51,0,.96-.06,1.34-.17.38-.11.7-.31.95-.57v-2.32h-2.4v-1.12h3.75v3.8Z" fill="url(#radial-gradient-54)"/>
      <path d="M1522.05,460.2c-.51.6-1.26.9-2.25.9-.82,0-1.44-.24-1.87-.71-.43-.48-.65-1.18-.65-2.12v-5h1.32v4.97c0,1.17.47,1.75,1.42,1.75,1,0,1.67-.37,2-1.12v-5.6h1.32v7.69h-1.25l-.03-.76Z" fill="url(#radial-gradient-55)"/>
      <path d="M1525.34,451.22c0-.21.07-.39.2-.54s.32-.22.58-.22.45.07.58.22c.13.15.2.33.2.54s-.07.39-.2.53c-.13.14-.33.21-.58.21s-.45-.07-.58-.21c-.13-.14-.2-.32-.2-.53ZM1526.76,460.96h-1.32v-7.69h1.32v7.69Z" fill="url(#radial-gradient-56)"/>
      <path d="M1528.54,457.05c0-1.18.28-2.13.84-2.85.56-.72,1.29-1.08,2.2-1.08s1.61.31,2.14.92v-4.01h1.32v10.92h-1.21l-.06-.82c-.53.64-1.26.97-2.2.97s-1.62-.36-2.18-1.09-.84-1.68-.84-2.86v-.1ZM1529.86,457.2c0,.87.18,1.55.54,2.05.36.49.86.74,1.49.74.83,0,1.44-.37,1.83-1.12v-3.53c-.39-.73-1-1.09-1.81-1.09-.64,0-1.15.25-1.51.75-.36.5-.54,1.23-.54,2.21Z" fill="url(#radial-gradient-57)"/>
      <path d="M1540.27,461.1c-1.04,0-1.89-.34-2.55-1.03-.65-.68-.98-1.6-.98-2.75v-.24c0-.76.15-1.44.44-2.04s.7-1.07,1.22-1.41,1.09-.51,1.7-.51c1,0,1.78.33,2.33.99.55.66.83,1.6.83,2.83v.55h-5.21c.02.76.24,1.37.66,1.84.42.47.96.7,1.62.7.46,0,.86-.09,1.18-.28.32-.19.6-.44.85-.75l.8.63c-.64.99-1.61,1.49-2.9,1.49ZM1540.1,454.2c-.53,0-.98.19-1.34.58-.36.39-.58.93-.67,1.62h3.85v-.1c-.04-.67-.22-1.19-.54-1.55-.32-.37-.76-.55-1.31-.55Z" fill="url(#radial-gradient-58)"/>
      <path d="M1546.22,460.96h-1.32v-10.92h1.32v10.92Z" fill="url(#radial-gradient-59)"/>
      <path d="M1548.33,451.22c0-.21.07-.39.2-.54s.32-.22.58-.22.45.07.58.22c.13.15.2.33.2.54s-.07.39-.2.53c-.13.14-.33.21-.58.21s-.45-.07-.58-.21c-.13-.14-.2-.32-.2-.53ZM1549.75,460.96h-1.32v-7.69h1.32v7.69Z" fill="url(#radial-gradient-60)"/>
      <path d="M1553.1,453.27l.04.97c.59-.74,1.36-1.11,2.3-1.11,1.63,0,2.45.92,2.46,2.75v5.08h-1.32v-5.09c0-.55-.13-.96-.38-1.23-.25-.27-.64-.4-1.16-.4-.43,0-.8.11-1.12.34s-.57.53-.75.9v5.48h-1.32v-7.69h1.24Z" fill="url(#radial-gradient-61)"/>
      <path d="M1563.08,461.1c-1.04,0-1.89-.34-2.55-1.03-.65-.68-.98-1.6-.98-2.75v-.24c0-.76.15-1.44.44-2.04s.7-1.07,1.22-1.41,1.09-.51,1.7-.51c1,0,1.78.33,2.33.99.55.66.83,1.6.83,2.83v.55h-5.21c.02.76.24,1.37.66,1.84.42.47.96.7,1.62.7.46,0,.86-.09,1.18-.28.32-.19.6-.44.85-.75l.8.63c-.64.99-1.61,1.49-2.9,1.49ZM1562.92,454.2c-.53,0-.98.19-1.34.58-.36.39-.58.93-.67,1.62h3.85v-.1c-.04-.67-.22-1.19-.54-1.55-.32-.37-.76-.55-1.31-.55Z" fill="url(#radial-gradient-62)"/>
      <path d="M1572.08,458.92c0-.36-.13-.63-.4-.83-.27-.2-.73-.37-1.4-.51s-1.19-.31-1.59-.51c-.39-.2-.68-.44-.87-.71s-.28-.6-.28-.98c0-.63.27-1.16.8-1.6.53-.44,1.21-.65,2.04-.65.87,0,1.58.23,2.12.68s.81,1.03.81,1.73h-1.32c0-.36-.15-.67-.46-.93-.31-.26-.69-.39-1.16-.39s-.85.1-1.12.31-.41.48-.41.82c0,.32.13.56.38.72.25.16.7.31,1.36.46.66.15,1.19.32,1.6.53.41.2.71.45.91.74.2.29.3.64.3,1.05,0,.69-.27,1.24-.82,1.65-.55.42-1.26.62-2.14.62-.62,0-1.16-.11-1.64-.33-.47-.22-.84-.52-1.11-.91-.27-.39-.4-.81-.4-1.27h1.32c.02.44.2.79.53,1.05.33.26.76.39,1.3.39.5,0,.9-.1,1.2-.3.3-.2.45-.47.45-.81Z" fill="url(#radial-gradient-63)"/>
    </g>
    <path d="M1432.6,446.5c-1.73,0-3.14,1.41-3.14,3.14v14.13c0,1.73,1.41,3.14,3.14,3.14h10.2c.83,0,1.99-1.2,3.34-2.58.19-.19.37-.37.56-.56s.4-.4.59-.59c1.37-1.34,2.58-2.5,2.58-3.34v-10.2c0-1.73-1.41-3.14-3.14-3.14h-14.13ZM1432.6,448.07h14.13c.87,0,1.57.7,1.57,1.57v10.2c0,.78-.79.78-1.57.78h-2.35c-.43,0-.78.35-.78.78v2.4c0,.7,0,1.38-.56,1.52h-10.42c-.87,0-1.57-.7-1.57-1.57v-14.13c0-.87.7-1.57,1.57-1.57ZM1434.81,452.78c-.43.04-.75.43-.71.86s.43.75.86.71h9.42c.28,0,.55-.14.69-.39.14-.25.14-.55,0-.79-.14-.25-.41-.39-.69-.39h-9.57ZM1434.81,456.7c-.43.04-.75.43-.71.86s.43.75.86.71h7.85c.28,0,.55-.14.69-.39.14-.25.14-.55,0-.79-.14-.25-.41-.39-.69-.39h-8Z" fill="url(#radial-gradient-64)"/>
  </g>
  <g>
    <g>
      <path d="M1471.76,501.54h-4.34l-.97,2.71h-1.41l3.95-10.35h1.19l3.96,10.35h-1.4l-.99-2.71ZM1467.84,500.42h3.52l-1.76-4.84-1.76,4.84Z" fill="url(#radial-gradient-65)"/>
      <path d="M1479.06,497.73c-.2-.03-.41-.05-.65-.05-.86,0-1.45.37-1.76,1.1v5.46h-1.32v-7.69h1.28l.02.89c.43-.69,1.04-1.03,1.83-1.03.26,0,.45.03.58.1v1.22Z" fill="url(#radial-gradient-66)"/>
      <path d="M1482.4,494.69v1.86h1.44v1.02h-1.44v4.78c0,.31.06.54.19.69.13.15.35.23.65.23.15,0,.36-.03.63-.08v1.06c-.35.09-.68.14-1.01.14-.59,0-1.03-.18-1.33-.53-.3-.36-.45-.86-.45-1.51v-4.77h-1.4v-1.02h1.4v-1.86h1.32Z" fill="url(#radial-gradient-67)"/>
      <path d="M1489.19,504.24v-10.35h2.92c.9,0,1.7.2,2.39.6.69.4,1.23.96,1.6,1.7.38.73.57,1.58.57,2.53v.66c0,.98-.19,1.83-.57,2.57-.38.73-.91,1.3-1.61,1.69-.7.39-1.51.6-2.44.6h-2.86ZM1490.55,495.01v8.12h1.44c1.05,0,1.87-.33,2.46-.98.59-.65.88-1.59.88-2.8v-.6c0-1.18-.28-2.09-.83-2.74-.55-.65-1.34-.98-2.35-.99h-1.59Z" fill="url(#radial-gradient-68)"/>
      <path d="M1498.54,494.51c0-.21.07-.39.2-.54s.32-.22.58-.22.45.07.58.22c.13.15.2.33.2.54s-.07.39-.2.53c-.13.14-.33.21-.58.21s-.45-.07-.58-.21c-.13-.14-.2-.32-.2-.53ZM1499.96,504.24h-1.32v-7.69h1.32v7.69Z" fill="url(#radial-gradient-69)"/>
      <path d="M1505.78,497.73c-.2-.03-.41-.05-.65-.05-.86,0-1.45.37-1.76,1.1v5.46h-1.32v-7.69h1.28l.02.89c.43-.69,1.04-1.03,1.83-1.03.26,0,.45.03.58.1v1.22Z" fill="url(#radial-gradient-70)"/>
      <path d="M1510.05,504.39c-1.04,0-1.89-.34-2.55-1.03-.65-.68-.98-1.6-.98-2.75v-.24c0-.76.15-1.44.44-2.04s.7-1.07,1.22-1.41,1.09-.51,1.7-.51c1,0,1.78.33,2.33.99.55.66.83,1.6.83,2.83v.55h-5.21c.02.76.24,1.37.66,1.84.42.47.96.7,1.62.7.46,0,.86-.09,1.18-.28.32-.19.6-.44.85-.75l.8.63c-.64.99-1.61,1.49-2.9,1.49ZM1509.88,497.49c-.53,0-.98.19-1.34.58-.36.39-.58.93-.67,1.62h3.85v-.1c-.04-.67-.22-1.19-.54-1.55-.32-.37-.76-.55-1.31-.55Z" fill="url(#radial-gradient-71)"/>
      <path d="M1517.65,503.31c.47,0,.88-.14,1.23-.43s.55-.64.58-1.07h1.24c-.02.44-.18.86-.45,1.26-.28.4-.65.72-1.12.95-.47.24-.96.36-1.48.36-1.05,0-1.88-.35-2.5-1.05-.62-.7-.93-1.66-.93-2.87v-.22c0-.75.14-1.41.41-2,.27-.58.67-1.04,1.18-1.36.51-.32,1.12-.48,1.82-.48.86,0,1.58.26,2.15.77.57.52.88,1.19.91,2.01h-1.24c-.04-.5-.23-.91-.57-1.23-.34-.32-.76-.48-1.25-.48-.67,0-1.19.24-1.55.72s-.55,1.18-.55,2.09v.25c0,.89.18,1.57.55,2.05.36.48.89.72,1.56.72Z" fill="url(#radial-gradient-72)"/>
      <path d="M1523.97,494.69v1.86h1.44v1.02h-1.44v4.78c0,.31.06.54.19.69.13.15.35.23.65.23.15,0,.36-.03.63-.08v1.06c-.35.09-.68.14-1.01.14-.59,0-1.03-.18-1.33-.53-.3-.36-.45-.86-.45-1.51v-4.77h-1.4v-1.02h1.4v-1.86h1.32Z" fill="url(#radial-gradient-73)"/>
      <path d="M1526.95,494.51c0-.21.07-.39.2-.54s.32-.22.58-.22.45.07.58.22c.13.15.2.33.2.54s-.07.39-.2.53c-.13.14-.33.21-.58.21s-.45-.07-.58-.21c-.13-.14-.2-.32-.2-.53ZM1528.37,504.24h-1.32v-7.69h1.32v7.69Z" fill="url(#radial-gradient-74)"/>
      <path d="M1530.13,500.33c0-.75.15-1.43.44-2.03.3-.6.71-1.07,1.24-1.39.53-.33,1.13-.49,1.81-.49,1.05,0,1.89.36,2.54,1.09.65.73.97,1.69.97,2.89v.09c0,.75-.14,1.42-.43,2.02-.29.59-.7,1.06-1.23,1.39-.53.33-1.15.5-1.84.5-1.04,0-1.89-.36-2.53-1.09-.65-.73-.97-1.69-.97-2.88v-.09ZM1531.45,500.48c0,.85.2,1.54.59,2.05.4.52.93.77,1.59.77s1.2-.26,1.59-.79c.39-.52.59-1.26.59-2.2,0-.84-.2-1.53-.6-2.05-.4-.52-.93-.79-1.6-.79s-1.17.26-1.57.77c-.4.52-.6,1.26-.6,2.22Z" fill="url(#radial-gradient-75)"/>
      <path d="M1540.03,496.55l.04.97c.59-.74,1.36-1.11,2.3-1.11,1.63,0,2.45.92,2.46,2.75v5.08h-1.32v-5.09c0-.55-.13-.96-.38-1.23-.25-.27-.64-.4-1.16-.4-.43,0-.8.11-1.12.34s-.57.53-.75.9v5.48h-1.32v-7.69h1.24Z" fill="url(#radial-gradient-76)"/>
    </g>
    <path d="M1439.54,489.66c-5.7,0-10.32,4.62-10.32,10.32s4.62,10.32,10.32,10.32h.86c1.43,0,2.58-1.16,2.58-2.58v-2.58c0-.95.77-1.72,1.72-1.72h3.44c.95,0,1.72-.77,1.72-1.72v-1.72c0-5.7-4.62-10.32-10.32-10.32ZM1439.54,491.39c.95,0,1.72.77,1.72,1.72s-.77,1.72-1.72,1.72-1.72-.77-1.72-1.72.77-1.72,1.72-1.72ZM1432.66,501.71c-.95,0-1.72-.77-1.72-1.72s.77-1.72,1.72-1.72,1.72.77,1.72,1.72-.77,1.72-1.72,1.72ZM1439.11,508.59c-1.19,0-2.15-.96-2.15-2.15s.96-2.15,2.15-2.15,2.15.96,2.15,2.15-.96,2.15-2.15,2.15ZM1446.42,501.71c-.95,0-1.72-.77-1.72-1.72s.77-1.72,1.72-1.72,1.72.77,1.72,1.72-.77,1.72-1.72,1.72ZM1445.63,496.34c-.67.67-1.76.67-2.43,0-.67-.67-.67-1.76,0-2.43s1.76-.67,2.43,0c.67.67.67,1.76,0,2.43ZM1433.46,496.34c-.67-.67-.67-1.76,0-2.43s1.76-.67,2.43,0,.67,1.76,0,2.43-1.76.67-2.43,0Z" fill="url(#radial-gradient-77)"/>
  </g>
  <g>
    <g>
      <path d="M1466.12,372.75v-10.35h3.38c1.12,0,1.97.23,2.53.7.57.46.85,1.15.85,2.06,0,.48-.14.91-.41,1.28-.27.37-.65.66-1.12.86.56.16,1,.45,1.33.89.32.44.49.96.49,1.57,0,.93-.3,1.66-.9,2.19-.6.53-1.45.8-2.55.8h-3.59ZM1467.48,366.82h2.06c.6,0,1.07-.15,1.43-.45.36-.3.54-.71.54-1.22,0-.57-.17-.98-.5-1.24-.33-.26-.84-.39-1.51-.39h-2.02v3.3ZM1467.48,367.91v3.73h2.25c.64,0,1.14-.16,1.5-.49.37-.33.55-.78.55-1.36,0-1.25-.68-1.87-2.03-1.87h-2.27Z" fill="url(#radial-gradient-78)"/>
      <path d="M1478.69,366.24c-.2-.03-.41-.05-.65-.05-.86,0-1.45.37-1.76,1.1v5.46h-1.32v-7.69h1.28l.02.89c.43-.69,1.04-1.03,1.83-1.03.26,0,.45.03.58.1v1.22Z" fill="url(#radial-gradient-79)"/>
      <path d="M1484.37,372.75c-.08-.15-.14-.42-.18-.81-.61.64-1.34.95-2.19.95-.76,0-1.38-.21-1.87-.64-.49-.43-.73-.97-.73-1.63,0-.8.3-1.42.91-1.87.61-.44,1.47-.66,2.57-.66h1.28v-.6c0-.46-.14-.83-.41-1.1-.27-.27-.68-.41-1.22-.41-.47,0-.86.12-1.18.36-.32.24-.48.52-.48.86h-1.32c0-.38.14-.75.41-1.11.27-.36.64-.64,1.11-.85.47-.21.98-.31,1.54-.31.89,0,1.58.22,2.08.66.5.44.76,1.05.78,1.83v3.54c0,.71.09,1.27.27,1.69v.11h-1.38ZM1482.18,371.75c.41,0,.8-.11,1.17-.32.37-.21.64-.49.8-.83v-1.58h-1.03c-1.61,0-2.42.47-2.42,1.41,0,.41.14.73.41.97.27.23.63.35,1.06.35Z" fill="url(#radial-gradient-80)"/>
      <path d="M1488.78,365.06l.04.97c.59-.74,1.36-1.11,2.3-1.11,1.63,0,2.45.92,2.46,2.75v5.08h-1.32v-5.09c0-.55-.13-.96-.38-1.23-.25-.27-.64-.4-1.16-.4-.43,0-.8.11-1.12.34s-.57.53-.75.9v5.48h-1.32v-7.69h1.24Z" fill="url(#radial-gradient-81)"/>
      <path d="M1495.25,368.84c0-1.18.28-2.13.84-2.85.56-.72,1.29-1.08,2.2-1.08s1.61.31,2.14.92v-4.01h1.32v10.92h-1.21l-.06-.82c-.53.64-1.26.97-2.2.97s-1.62-.36-2.18-1.09-.84-1.68-.84-2.86v-.1ZM1496.57,368.99c0,.87.18,1.55.54,2.05.36.49.86.74,1.49.74.83,0,1.44-.37,1.83-1.12v-3.53c-.39-.73-1-1.09-1.81-1.09-.64,0-1.15.25-1.51.75-.36.5-.54,1.23-.54,2.21Z" fill="url(#radial-gradient-82)"/>
      <path d="M1509.06,372.75h-1.36v-10.35h1.36v10.35Z" fill="url(#radial-gradient-83)"/>
      <path d="M1511.03,368.84c0-1.18.28-2.13.84-2.85.56-.72,1.29-1.08,2.2-1.08s1.61.31,2.14.92v-4.01h1.32v10.92h-1.21l-.06-.82c-.53.64-1.26.97-2.2.97s-1.62-.36-2.18-1.09-.84-1.68-.84-2.86v-.1ZM1512.34,368.99c0,.87.18,1.55.54,2.05.36.49.86.74,1.49.74.83,0,1.44-.37,1.83-1.12v-3.53c-.39-.73-1-1.09-1.81-1.09-.64,0-1.15.25-1.51.75-.36.5-.54,1.23-.54,2.21Z" fill="url(#radial-gradient-84)"/>
      <path d="M1522.75,372.89c-1.04,0-1.89-.34-2.55-1.03-.65-.68-.98-1.6-.98-2.75v-.24c0-.76.15-1.44.44-2.04s.7-1.07,1.22-1.41,1.09-.51,1.7-.51c1,0,1.78.33,2.33.99.55.66.83,1.6.83,2.83v.55h-5.21c.02.76.24,1.37.66,1.84.42.47.96.7,1.62.7.46,0,.86-.09,1.18-.28.32-.19.6-.44.85-.75l.8.63c-.64.99-1.61,1.49-2.9,1.49ZM1522.59,366c-.53,0-.98.19-1.34.58-.36.39-.58.93-.67,1.62h3.85v-.1c-.04-.67-.22-1.19-.54-1.55-.32-.37-.76-.55-1.31-.55Z" fill="url(#radial-gradient-85)"/>
      <path d="M1528.52,365.06l.04.97c.59-.74,1.36-1.11,2.3-1.11,1.63,0,2.45.92,2.46,2.75v5.08h-1.32v-5.09c0-.55-.13-.96-.38-1.23-.25-.27-.64-.4-1.16-.4-.43,0-.8.11-1.12.34s-.57.53-.75.9v5.48h-1.32v-7.69h1.24Z" fill="url(#radial-gradient-86)"/>
      <path d="M1537.09,363.2v1.86h1.44v1.02h-1.44v4.78c0,.31.06.54.19.69.13.15.35.23.65.23.15,0,.36-.03.63-.08v1.06c-.35.09-.68.14-1.01.14-.59,0-1.03-.18-1.33-.53-.3-.36-.45-.86-.45-1.51v-4.77h-1.4v-1.02h1.4v-1.86h1.32Z" fill="url(#radial-gradient-87)"/>
      <path d="M1540.07,363.02c0-.21.07-.39.2-.54s.32-.22.58-.22.45.07.58.22c.13.15.2.33.2.54s-.07.39-.2.53c-.13.14-.33.21-.58.21s-.45-.07-.58-.21c-.13-.14-.2-.32-.2-.53ZM1541.49,372.75h-1.32v-7.69h1.32v7.69Z" fill="url(#radial-gradient-88)"/>
      <path d="M1545.38,363.2v1.86h1.44v1.02h-1.44v4.78c0,.31.06.54.19.69.13.15.35.23.65.23.15,0,.36-.03.63-.08v1.06c-.35.09-.68.14-1.01.14-.59,0-1.03-.18-1.33-.53-.3-.36-.45-.86-.45-1.51v-4.77h-1.4v-1.02h1.4v-1.86h1.32Z" fill="url(#radial-gradient-89)"/>
      <path d="M1550.87,370.82l1.79-5.77h1.41l-3.09,8.88c-.48,1.28-1.24,1.92-2.28,1.92l-.25-.02-.49-.09v-1.07l.36.03c.45,0,.79-.09,1.04-.27.25-.18.45-.51.61-.99l.29-.78-2.74-7.61h1.44l1.92,5.77Z" fill="url(#radial-gradient-90)"/>
    </g>
    <path d="M1446.44,358.22h-5.14c-.44,0-.88.17-1.21.5l-10.28,10.28c-.67.67-.67,1.75,0,2.42l6.85,6.85c.67.67,1.75.67,2.42,0,.33-.33,9.94-9.94,10.28-10.28.33-.33.5-.77.5-1.21v-5.14c0-1.89-1.53-3.43-3.43-3.43ZM1446.44,363.36c-.95,0-1.71-.77-1.71-1.71s.77-1.71,1.71-1.71,1.71.77,1.71,1.71-.77,1.71-1.71,1.71Z" fill="url(#radial-gradient-91)"/>
  </g>
  <g clip-path="url(#clippath)">
    <rect x="1380.33" y="423.52" width="257.22" height="124.76" fill="url(#radial-gradient-92)" opacity=".7"/>
    <rect x="1381.03" y="184.01" width="257.22" height="124.76" transform="translate(3019.28 492.77) rotate(180)" fill="url(#linear-gradient)" opacity=".7"/>
    <path d="M1414.91,537.12c16.19-1.24,32.38-1.89,48.57-2.33,8.1-.28,16.19-.34,24.29-.5l24.29-.17c16.19-.02,32.38.22,48.57.66,16.19.44,32.38,1.09,48.57,2.34-16.19,1.25-32.38,1.9-48.57,2.34-16.19.43-32.38.67-48.57.66l-24.29-.17c-8.1-.16-16.19-.22-24.29-.5-16.19-.44-32.38-1.09-48.57-2.33Z" fill="url(#radial-gradient-93)"/>
    <path d="M1414.91,188.61c16.19-1.24,32.38-1.89,48.57-2.33,8.1-.28,16.19-.34,24.29-.5l24.29-.17c16.19-.02,32.38.22,48.57.66,16.19.44,32.38,1.09,48.57,2.34-16.19,1.25-32.38,1.9-48.57,2.34-16.19.43-32.38.67-48.57.66l-24.29-.17c-8.1-.16-16.19-.22-24.29-.5-16.19-.44-32.38-1.09-48.57-2.33Z" fill="url(#radial-gradient-94)"/>
    <ellipse cx="1653.76" cy="305.06" rx="378.4" ry="173.67" transform="translate(39.69 777.04) rotate(-26.75)" fill="url(#radial-gradient-95)"/>
  </g>
  <polygon points="1421 340.24 1442.99 340 1464.97 339.86 1508.94 339.74 1552.92 339.85 1574.9 339.99 1596.89 340.24 1574.9 340.48 1552.92 340.62 1508.94 340.74 1464.97 340.62 1442.99 340.48 1421 340.24" fill="url(#radial-gradient-96)"/>
  <g>
    <g>
      <path d="M1444.72,229.05c-1.63,0-2.52,0-3.29-.44-.5-.29-.92-.71-1.21-1.21-.44-.77-.44-1.66-.44-3.29s0-2.52.44-3.29c.29-.5.71-.92,1.21-1.21.77-.44,1.66-.44,3.29-.44s2.52,0,3.29.44c.5.29.92.71,1.21,1.21.44.77.44,1.66.44,3.29s0,2.52-.44,3.29c-.29.5-.71.92-1.21,1.21-.77.44-1.66.44-3.29.44ZM1444.72,220.86c-1.33,0-2.07,0-2.44.22-.24.14-.45.35-.59.59-.22.37-.22,1.11-.22,2.44s0,2.07.22,2.44c.14.24.35.45.59.59.37.22,1.11.22,2.44.22s2.07,0,2.44-.22c.24-.14.45-.35.59-.59.22-.37.22-1.11.22-2.44s0-2.07-.22-2.44c-.14-.24-.35-.45-.59-.59-.37-.22-1.11-.22-2.44-.22Z"/>
      <path d="M1438.77,223.84s-.05,0-.08,0c-.5-.05-.87-.15-1.2-.34-.43-.25-.8-.61-1.05-1.05-.38-.66-.38-1.42-.38-2.78s0-2.11.38-2.78c.25-.43.61-.8,1.05-1.05.66-.38,1.41-.38,2.78-.38s2.11,0,2.78.38c.43.25.8.61,1.05,1.05.19.33.3.7.34,1.2.04.46-.3.87-.76.92-.46.05-.87-.3-.92-.76-.03-.32-.08-.44-.13-.52-.1-.18-.25-.33-.43-.43-.27-.16-.9-.16-1.94-.16s-1.66,0-1.94.16c-.18.1-.33.25-.43.43-.16.27-.16.9-.16,1.94s0,1.66.16,1.94c.1.18.25.33.43.43.08.04.2.1.52.13.46.04.8.46.76.92-.04.44-.41.76-.84.76ZM1434.98,219.37c-.08,0-.16-.01-.25-.04-.54-.16-1.02-.56-1.32-1.08-.33-.57-.33-1.18-.33-2.28s0-1.72.33-2.28c.22-.37.53-.68.89-.89.57-.33,1.18-.33,2.29-.33s1.72,0,2.29.33c.49.28.87.73,1.05,1.22.16.44-.07.92-.51,1.08-.44.16-.92-.07-1.08-.51-.04-.12-.16-.25-.3-.33-.18-.1-.71-.1-1.45-.1s-1.27,0-1.45.1c-.11.07-.21.16-.28.28-.1.17-.1.7-.1,1.44s0,1.26.1,1.44c.09.15.22.27.36.31.45.14.7.61.56,1.05-.11.36-.44.6-.81.6Z"/>
    </g>
    <g>
      <path d="M1444.72,229.05c-1.63,0-2.52,0-3.29-.44-.5-.29-.92-.71-1.21-1.21-.44-.77-.44-1.66-.44-3.29s0-2.52.44-3.29c.29-.5.71-.92,1.21-1.21.77-.44,1.66-.44,3.29-.44s2.52,0,3.29.44c.5.29.92.71,1.21,1.21.44.77.44,1.66.44,3.29s0,2.52-.44,3.29c-.29.5-.71.92-1.21,1.21-.77.44-1.66.44-3.29.44ZM1444.72,220.86c-1.33,0-2.07,0-2.44.22-.24.14-.45.35-.59.59-.22.37-.22,1.11-.22,2.44s0,2.07.22,2.44c.14.24.35.45.59.59.37.22,1.11.22,2.44.22s2.07,0,2.44-.22c.24-.14.45-.35.59-.59.22-.37.22-1.11.22-2.44s0-2.07-.22-2.44c-.14-.24-.35-.45-.59-.59-.37-.22-1.11-.22-2.44-.22Z" fill="url(#radial-gradient-97)"/>
      <path d="M1438.77,223.84s-.05,0-.08,0c-.5-.05-.87-.15-1.2-.34-.43-.25-.8-.61-1.05-1.05-.38-.66-.38-1.42-.38-2.78s0-2.11.38-2.78c.25-.43.61-.8,1.05-1.05.66-.38,1.41-.38,2.78-.38s2.11,0,2.78.38c.43.25.8.61,1.05,1.05.19.33.3.7.34,1.2.04.46-.3.87-.76.92-.46.05-.87-.3-.92-.76-.03-.32-.08-.44-.13-.52-.1-.18-.25-.33-.43-.43-.27-.16-.9-.16-1.94-.16s-1.66,0-1.94.16c-.18.1-.33.25-.43.43-.16.27-.16.9-.16,1.94s0,1.66.16,1.94c.1.18.25.33.43.43.08.04.2.1.52.13.46.04.8.46.76.92-.04.44-.41.76-.84.76ZM1434.98,219.37c-.08,0-.16-.01-.25-.04-.54-.16-1.02-.56-1.32-1.08-.33-.57-.33-1.18-.33-2.28s0-1.72.33-2.28c.22-.37.53-.68.89-.89.57-.33,1.18-.33,2.29-.33s1.72,0,2.29.33c.49.28.87.73,1.05,1.22.16.44-.07.92-.51,1.08-.44.16-.92-.07-1.08-.51-.04-.12-.16-.25-.3-.33-.18-.1-.71-.1-1.45-.1s-1.27,0-1.45.1c-.11.07-.21.16-.28.28-.1.17-.1.7-.1,1.44s0,1.26.1,1.44c.09.15.22.27.36.31.45.14.7.61.56,1.05-.11.36-.44.6-.81.6Z" fill="url(#radial-gradient-98)"/>
    </g>
  </g>
</svg>