<?xml version="1.0" encoding="UTF-8"?>
<svg xmlns="http://www.w3.org/2000/svg" xmlns:xlink="http://www.w3.org/1999/xlink" viewBox="0 0 1760.24 1100.23">
  <defs>
    <style>
      @keyframes digitRoll {
        0%, 100% { opacity: 1; transform: translateY(0); }
        25% { opacity: 0.7; transform: translateY(-0.5px); }
        50% { opacity: 1; transform: translateY(0); }
        75% { opacity: 0.7; transform: translateY(0.5px); }
      }
      @keyframes barUp {
        0%, 100% { transform: scaleY(1); }
        50% { transform: scaleY(1.08); }
      }
      @keyframes barUp2 {
        0%, 100% { transform: scaleY(1); }
        50% { transform: scaleY(1.1); }
      }
      @keyframes glowPulse {
        0%, 100% { opacity: 0.6; }
        50% { opacity: 1; }
      }
      @keyframes countFlash {
        0%, 100% { fill: #00ff50; }
        50% { fill: #00ebef; }
      }
      .code-line { animation: digitRoll 3s ease-in-out infinite; }
      .code-line-delay { animation: digitRoll 3.5s ease-in-out infinite -1.2s; }
      .code-line-delay2 { animation: digitRoll 2.8s ease-in-out infinite -0.7s; }
      .bar-1 { transform-origin: center bottom; animation: barUp 2.5s ease-in-out infinite; }
      .bar-2 { transform-origin: center bottom; animation: barUp2 3s ease-in-out infinite 0.5s; }
      .bar-3 { transform-origin: center bottom; animation: barUp 2.2s ease-in-out infinite 1s; }
      .bar-4 { transform-origin: center bottom; animation: barUp2 2.8s ease-in-out infinite 1.5s; }
      .bar-5 { transform-origin: center bottom; animation: barUp 3.2s ease-in-out infinite 2s; }
      .glow-num { animation: glowPulse 2s ease-in-out infinite; }
      .glow-delay { animation: glowPulse 2.5s ease-in-out infinite -1s; }
      .count-color { animation: countFlash 4s ease-in-out infinite; }
    </style>
    <radialGradient id="radial-gradient" cx="1432.03" cy="543.49" fx="1432.03" fy="543.49" r="196.57" gradientUnits="userSpaceOnUse">
      <stop offset="0" stop-color="#012730"/>
      <stop offset=".37" stop-color="#01222d"/>
      <stop offset=".75" stop-color="#031624"/>
      <stop offset="1" stop-color="#060a1c"/>
    </radialGradient>
    <clipPath id="clippath-1">
      <rect x="1396.64" y="574.62" width="224.32" height="158.31" rx="21.37" ry="21.37" fill="none"/>
    </clipPath>
    <radialGradient id="radial-gradient-2" cx="1519.85" cy="760.8" fx="1519.85" fy="760.8" r="152.98" gradientUnits="userSpaceOnUse">
      <stop offset="0" stop-color="#05dcf0"/>
      <stop offset=".34" stop-color="#0599ab" stop-opacity=".65"/>
      <stop offset=".8" stop-color="#054151" stop-opacity=".19"/>
      <stop offset="1" stop-color="#051e2e" stop-opacity="0"/>
    </radialGradient>
    <radialGradient id="radial-gradient-3" cx="1508.8" cy="732.93" fx="1508.8" fy="732.93" r="68.94" gradientUnits="userSpaceOnUse">
      <stop offset=".22" stop-color="#05dcf0"/>
      <stop offset=".33" stop-color="#05d9ed" stop-opacity=".98"/>
      <stop offset=".43" stop-color="#05d1e5" stop-opacity=".94"/>
      <stop offset=".53" stop-color="#06c5d8" stop-opacity=".86"/>
      <stop offset=".63" stop-color="#07b3c6" stop-opacity=".74"/>
      <stop offset=".72" stop-color="#099caf" stop-opacity=".6"/>
      <stop offset=".82" stop-color="#0b7f92" stop-opacity=".42"/>
      <stop offset=".92" stop-color="#0d5e71" stop-opacity=".21"/>
      <stop offset="1" stop-color="#103d4f" stop-opacity="0"/>
    </radialGradient>
    <radialGradient id="radial-gradient-4" cx="1512.57" cy="573.02" fx="1512.57" fy="573.02" r="68.94" xlink:href="#radial-gradient-3"/>
    <radialGradient id="radial-gradient-5" cx="10298.28" cy="7901.24" fx="10298.28" fy="7901.24" r="140.87" gradientTransform="translate(27905.53 11858.32) rotate(-180) scale(2.55 1.43)" gradientUnits="userSpaceOnUse">
      <stop offset=".03" stop-color="#0ae6ff" stop-opacity=".3"/>
      <stop offset=".09" stop-color="#0abbd4" stop-opacity=".24"/>
      <stop offset=".2" stop-color="#0b778f" stop-opacity=".13"/>
      <stop offset=".31" stop-color="#0b465e" stop-opacity=".06"/>
      <stop offset=".42" stop-color="#0b2940" stop-opacity=".01"/>
      <stop offset=".54" stop-color="#0c2037" stop-opacity="0"/>
      <stop offset=".77" stop-color="#0c2037" stop-opacity="0"/>
      <stop offset="1" stop-color="#0c2037" stop-opacity="0"/>
    </radialGradient>
    <radialGradient id="radial-gradient-6" cx="7400.78" cy="5663.31" fx="7400.78" fy="5663.31" r="140.87" gradientTransform="translate(7165.26 -18313.92) rotate(90) scale(2.55 1)" gradientUnits="userSpaceOnUse">
      <stop offset="0" stop-color="#0ae6ff" stop-opacity=".3"/>
      <stop offset=".08" stop-color="#0abbd4" stop-opacity=".24"/>
      <stop offset=".25" stop-color="#0b778f" stop-opacity=".13"/>
      <stop offset=".41" stop-color="#0b465e" stop-opacity=".06"/>
      <stop offset=".58" stop-color="#0b2940" stop-opacity=".01"/>
      <stop offset=".77" stop-color="#0c2037" stop-opacity="0"/>
    </radialGradient>
    <radialGradient id="radial-gradient-7" cx="1601.39" cy="603.74" fx="1601.39" fy="603.74" r="136.32" gradientUnits="userSpaceOnUse">
      <stop offset=".22" stop-color="#05dcf0"/>
      <stop offset=".25" stop-color="#05d6ea"/>
      <stop offset=".77" stop-color="#0c687b"/>
      <stop offset="1" stop-color="#103d4f"/>
    </radialGradient>
    <radialGradient id="radial-gradient-8" cx="1571.99" cy="617.17" fx="1571.99" fy="617.17" r="124.02" xlink:href="#radial-gradient-7"/>
    <radialGradient id="radial-gradient-9" cx="1541.42" cy="643.46" fx="1541.42" fy="643.46" r="92.25" xlink:href="#radial-gradient-7"/>
    <radialGradient id="radial-gradient-10" cx="1510.85" cy="661.58" fx="1510.85" fy="661.58" r="70.93" xlink:href="#radial-gradient-7"/>
    <radialGradient id="radial-gradient-11" cx="1492.82" cy="676.69" fx="1492.82" fy="676.69" r="49.49" xlink:href="#radial-gradient-7"/>
    <radialGradient id="radial-gradient-12" cx="1462.25" cy="689.59" fx="1462.25" fy="689.59" r="33.62" xlink:href="#radial-gradient-7"/>
    <radialGradient id="radial-gradient-13" cx="1431.59" cy="713.57" fx="1431.59" fy="713.57" r="211.83" xlink:href="#radial-gradient-7"/>
    <radialGradient id="radial-gradient-14" cx="1562.36" cy="631.69" fx="1562.36" fy="631.69" r="101.57" gradientUnits="userSpaceOnUse">
      <stop offset="0" stop-color="#05dcf0" stop-opacity=".5"/>
      <stop offset=".41" stop-color="#077e8f" stop-opacity=".22"/>
      <stop offset=".77" stop-color="#0a3342" stop-opacity="0"/>
      <stop offset="1" stop-color="#0a3241" stop-opacity="0"/>
    </radialGradient>
    <radialGradient id="radial-gradient-15" cx="1435.27" cy="597.76" fx="1435.27" fy="597.76" r="115.5" gradientUnits="userSpaceOnUse">
      <stop offset="0" stop-color="#00ebef"/>
      <stop offset=".05" stop-color="#00ece6"/>
      <stop offset=".51" stop-color="#00f695"/>
      <stop offset=".84" stop-color="#00fc63"/>
      <stop offset="1" stop-color="#00ff50"/>
    </radialGradient>
    <radialGradient id="radial-gradient-16" cx="1508.89" cy="598.45" fx="1508.89" fy="598.45" r="71.44" xlink:href="#radial-gradient-15"/>
    <radialGradient id="radial-gradient-17" cx="1460.41" cy="616.02" fx="1460.41" fy="616.02" r="119.56" xlink:href="#radial-gradient-7"/>
    <radialGradient id="radial-gradient-18" cx="1460.41" cy="616.02" fx="1460.41" fy="616.02" r="119.56" xlink:href="#radial-gradient-7"/>
    <radialGradient id="radial-gradient-19" cx="1460.41" cy="616.02" fx="1460.41" fy="616.02" r="119.56" xlink:href="#radial-gradient-7"/>
    <radialGradient id="radial-gradient-20" cx="1460.41" cy="616.02" fx="1460.41" fy="616.02" r="119.56" xlink:href="#radial-gradient-7"/>
    <radialGradient id="radial-gradient-21" cx="1460.41" cy="616.02" fx="1460.41" fy="616.02" r="119.56" xlink:href="#radial-gradient-7"/>
    <radialGradient id="radial-gradient-22" cx="1460.41" cy="616.02" fx="1460.41" fy="616.02" r="119.56" xlink:href="#radial-gradient-7"/>
    <radialGradient id="radial-gradient-23" cx="1460.41" cy="616.02" fx="1460.41" fy="616.02" r="119.56" xlink:href="#radial-gradient-7"/>
    <radialGradient id="radial-gradient-24" cx="1460.41" cy="616.02" fx="1460.41" fy="616.02" r="119.56" xlink:href="#radial-gradient-7"/>
    <radialGradient id="radial-gradient-25" cx="1460.41" cy="616.02" fx="1460.41" fy="616.02" r="119.56" xlink:href="#radial-gradient-7"/>
    <radialGradient id="radial-gradient-26" cx="1460.41" cy="616.02" fx="1460.41" fy="616.02" r="119.56" xlink:href="#radial-gradient-7"/>
    <radialGradient id="radial-gradient-27" cx="1460.41" cy="616.02" fx="1460.41" fy="616.02" r="119.56" xlink:href="#radial-gradient-7"/>
    <radialGradient id="radial-gradient-28" cx="1460.41" cy="616.02" fx="1460.41" fy="616.02" r="119.56" xlink:href="#radial-gradient-7"/>
    <radialGradient id="radial-gradient-29" cx="1460.41" cy="616.02" fx="1460.41" fy="616.02" r="119.56" xlink:href="#radial-gradient-7"/>
    <radialGradient id="radial-gradient-30" cx="1460.41" cy="616.02" fx="1460.41" fy="616.02" r="119.56" xlink:href="#radial-gradient-7"/>
    <radialGradient id="radial-gradient-31" cx="1460.41" cy="616.02" fx="1460.41" fy="616.02" r="119.56" xlink:href="#radial-gradient-7"/>
  </defs>
  <g isolation="isolate">
    <g id="Layer_24" data-name="Layer 24">
      <g>
        <g>
          <g>
            <rect x="1396.64" y="574.62" width="224.32" height="158.31" rx="21.37" ry="21.37" fill="url(#radial-gradient)"/>
            <rect x="1396.64" y="574.62" width="224.32" height="158.31" rx="21.37" ry="21.37" fill="none" opacity=".7" stroke="#00bbcf" stroke-miterlimit="10"/>
          </g>
          <g clip-path="url(#clippath-1)">
            <rect x="1354.4" y="619.53" width="308.79" height="149.77" fill="url(#radial-gradient-2)" opacity=".7"/>
            <path d="M1411.35,732.93c16.24-1.24,32.48-1.89,48.72-2.33,8.12-.28,16.24-.34,24.36-.5l24.36-.17c16.24-.02,32.48.22,48.72.66,16.24.44,32.48,1.09,48.72,2.34-16.24,1.25-32.48,1.9-48.72,2.34-16.24.43-32.48.67-48.72.66l-24.36-.17c-8.12-.16-16.24-.22-24.36-.5-16.24-.44-32.48-1.09-48.72-2.33Z" fill="url(#radial-gradient-3)"/>
            <path d="M1415.12,573.02c16.24-1.24,32.48-1.89,48.72-2.33,8.12-.28,16.24-.34,24.36-.5l24.36-.17c16.24-.02,32.48.22,48.72.66,16.24.44,32.48,1.09,48.72,2.34-16.24,1.25-32.48,1.9-48.72,2.34-16.24.43-32.48.67-48.72.66l-24.36-.17c-8.12-.16-16.24-.22-24.36-.5-16.24-.44-32.48-1.09-48.72-2.33Z" fill="url(#radial-gradient-4)"/>
            <ellipse cx="1638.44" cy="594.82" rx="164.24" ry="107.54" transform="translate(1035.62 2230.33) rotate(-89.72)" fill="url(#radial-gradient-5)"/>
            <g mix-blend-mode="color-dodge">
              <ellipse cx="1508.23" cy="562.99" rx="75.38" ry="164.24" transform="translate(937.88 2068.45) rotate(-89.72)" fill="url(#radial-gradient-6)"/>
            </g>
          </g>
        </g>
        <g class="code-line">
          <path d="M1424.49,604.99h-2.23v4.97h-2.8v-13.59h5.05c1.6,0,2.84.36,3.71,1.07.87.72,1.31,1.73,1.31,3.03,0,.93-.2,1.7-.6,2.32-.4.62-1.01,1.11-1.82,1.48l2.94,5.55v.13h-3l-2.55-4.97ZM1422.26,602.72h2.26c.7,0,1.25-.18,1.63-.54.39-.36.58-.85.58-1.48s-.18-1.14-.55-1.51-.92-.55-1.67-.55h-2.25v4.08Z" fill="#e3e3e3"/>
          <path d="M1436.12,610.15c-1.48,0-2.69-.45-3.62-1.36s-1.39-2.12-1.39-3.63v-.26c0-1.01.2-1.92.59-2.72.39-.8.95-1.42,1.67-1.85.72-.43,1.54-.65,2.46-.65,1.38,0,2.47.44,3.26,1.31.79.87,1.19,2.11,1.19,3.7v1.1h-6.43c.09.66.35,1.19.79,1.59.44.4.99.6,1.67.6,1.04,0,1.85-.38,2.44-1.13l1.33,1.48c-.4.57-.95,1.02-1.64,1.34-.69.32-1.46.48-2.3.48ZM1435.82,601.85c-.54,0-.97.18-1.3.54-.33.36-.55.88-.64,1.56h3.75v-.22c-.01-.6-.17-1.06-.49-1.39-.31-.33-.75-.49-1.33-.49Z" fill="#e3e3e3"/>
          <path d="M1447.28,607.17c0-.33-.16-.59-.49-.78-.33-.19-.85-.36-1.57-.51-2.4-.5-3.6-1.52-3.6-3.06,0-.9.37-1.64,1.11-2.24.74-.6,1.72-.9,2.92-.9,1.28,0,2.31.3,3.07.9.77.6,1.15,1.39,1.15,2.35h-2.7c0-.39-.12-.7-.37-.96-.25-.25-.64-.38-1.17-.38-.45,0-.81.1-1.05.31-.25.21-.37.47-.37.78,0,.3.14.54.42.72.28.18.76.34,1.43.48.67.13,1.24.28,1.7.45,1.42.52,2.14,1.43,2.14,2.72,0,.92-.4,1.67-1.19,2.23-.79.57-1.81.85-3.06.85-.85,0-1.6-.15-2.25-.45-.66-.3-1.17-.72-1.54-1.24-.37-.53-.56-1.09-.56-1.7h2.56c.02.48.2.85.53,1.1.33.26.77.38,1.33.38.52,0,.91-.1,1.17-.29.26-.2.4-.45.4-.77Z" fill="#e3e3e3"/>
          <path d="M1457.68,608.93c-.67.81-1.59,1.21-2.76,1.21-1.08,0-1.91-.31-2.48-.93s-.86-1.53-.87-2.73v-6.62h2.7v6.53c0,1.05.48,1.58,1.44,1.58s1.54-.32,1.88-.95v-7.16h2.71v10.1h-2.54l-.07-1.03Z" fill="#e3e3e3"/>
          <path d="M1465.17,609.96h-2.71v-14.33h2.71v14.33Z" fill="#e3e3e3"/>
          <path d="M1470.62,597.38v2.48h1.73v1.98h-1.73v5.04c0,.37.07.64.21.8.14.16.42.24.82.24.3,0,.56-.02.79-.07v2.04c-.53.16-1.07.24-1.63.24-1.89,0-2.86-.95-2.89-2.86v-5.44h-1.47v-1.98h1.47v-2.48h2.7Z" fill="#e3e3e3"/>
          <path d="M1479.32,607.17c0-.33-.16-.59-.49-.78-.33-.19-.85-.36-1.57-.51-2.4-.5-3.6-1.52-3.6-3.06,0-.9.37-1.64,1.11-2.24.74-.6,1.72-.9,2.92-.9,1.28,0,2.31.3,3.07.9.77.6,1.15,1.39,1.15,2.35h-2.7c0-.39-.12-.7-.37-.96-.25-.25-.64-.38-1.17-.38-.45,0-.81.1-1.05.31-.25.21-.37.47-.37.78,0,.3.14.54.42.72.28.18.76.34,1.43.48.67.13,1.24.28,1.7.45,1.42.52,2.14,1.43,2.14,2.72,0,.92-.4,1.67-1.19,2.23-.79.57-1.81.85-3.06.85-.85,0-1.6-.15-2.25-.45-.66-.3-1.17-.72-1.54-1.24-.37-.53-.56-1.09-.56-1.7h2.56c.02.48.2.85.53,1.1.33.26.77.38,1.33.38.52,0,.91-.1,1.17-.29.26-.2.4-.45.4-.77Z" fill="#e3e3e3"/>
        </g>
        <path d="M1580.04,603.83c.02-2.17,1.96-4.07,4.11-4.15,1.52-.05,2.96.65,3.84,1.88.77,1.07.95,2.53.53,3.77-.45,1.37-1.58,2.44-2.97,2.81-1.07.28-2.24.14-3.23-.32-10.14,10.54-21.31,20.11-33.34,28.44-1.11.88-2.36,1.53-3.5,2.37-5.73,3.8-11.59,7.43-17.63,10.73-.19.1-.38.2-.56.3-1.21.69-2.44,1.36-3.68,2.01-1.62.88-3.28,1.69-4.91,2.57-.29.15-.58.29-.86.44-.63.27-1.24.59-1.84.91-.94.45-1.86.92-2.79,1.38-1.49.73-3.01,1.41-4.51,2.11-.2.09-.41.18-.61.28-.78.39-1.57.75-2.37,1.1-.85.38-1.71.73-2.56,1.1-.54.25-1.09.51-1.64.72-.43.18-.86.36-1.28.55-1.55.7-3.15,1.25-4.71,1.91-2.6,1-5.21,2-7.85,2.91-.86.31-1.73.57-2.57.92-.1.03-.3.08-.4.1-.91.35-1.84.63-2.76.94-1.2.37-2.41.75-3.6,1.15-1.77.54-3.52,1.13-5.3,1.64-.43.11-.86.23-1.28.36-.43.12-.86.24-1.28.37-.24.06-.48.12-.72.18-.67.18-1.35.36-2.02.55-.44.11-.87.23-1.3.35-3.36.98-6.8,1.64-10.21,2.39-.26.04-.52.06-.78.07-.59-.35-.91-1.14-.54-1.76.25-.51.88-.55,1.37-.66,1.44-.32,2.88-.62,4.31-.97.74-.18,1.47-.37,2.21-.52,1.44-.39,2.89-.75,4.34-1.14,1.53-.41,3.06-.82,4.57-1.29,2.02-.6,4.05-1.16,6.04-1.83.1-.03.29-.09.39-.12,1.01-.35,2.05-.63,3.06-.98,1.91-.65,3.83-1.28,5.73-1.95.22-.09.45-.18.67-.26.49-.16.97-.35,1.46-.53,1.48-.52,2.94-1.09,4.4-1.65.86-.34,1.75-.64,2.6-1.02.35-.16.71-.3,1.07-.45.3-.12.6-.24.89-.35.31-.12.61-.24.92-.37.43-.18.85-.35,1.28-.54.43-.18.86-.37,1.28-.56.5-.22,1-.44,1.51-.65.6-.25,1.19-.53,1.78-.81.43-.17.86-.36,1.29-.55,1-.45,1.97-.94,2.97-1.38,1.03-.49,2.07-.98,3.11-1.47.24-.12.49-.24.74-.35.29-.16.58-.3.87-.45,1.8-.85,3.57-1.76,5.35-2.66,1.3-.74,2.66-1.36,3.95-2.1,6.1-3.23,12.05-6.76,17.84-10.52,6.41-4.07,12.59-8.51,18.53-13.25,7.48-5.94,14.59-12.36,21.21-19.25-.39-.76-.69-1.59-.61-2.46Z" fill="url(#radial-gradient-7)"/>
        <rect class="bar-1" x="1574.03" y="630.88" width="19.7" height="83.17" rx="1.65" ry="1.65" fill="url(#radial-gradient-8)"/>
        <rect class="bar-2" x="1543.46" y="653.45" width="19.7" height="60.59" rx="1.65" ry="1.65" fill="url(#radial-gradient-9)"/>
        <rect class="bar-3" x="1512.88" y="669.01" width="19.7" height="45.04" rx="1.65" ry="1.65" fill="url(#radial-gradient-10)"/>
        <rect class="bar-4" x="1482.31" y="681.14" width="19.7" height="32.9" rx="1.65" ry="1.65" fill="url(#radial-gradient-11)"/>
        <rect class="bar-5" x="1451.74" y="692.5" width="19.7" height="21.54" rx="1.65" ry="1.65" fill="url(#radial-gradient-12)"/>
        <rect x="1447.47" y="714.04" width="153.67" height="2.88" rx="1.44" ry="1.44" fill="url(#radial-gradient-13)"/>
        <circle cx="1563.8" cy="622.18" r="81.09" fill="url(#radial-gradient-14)" opacity=".7"/>
        <g class="code-line-delay">
          <g opacity=".7">
            <path d="M1421.79,652.08l1.02-3.44h1.12l-1.67,4.81h-.94l-1.68-4.81h1.12l1.03,3.44Z" fill="#bababa"/>
            <path d="M1427.29,652.14c0-.19-.08-.34-.24-.44s-.42-.19-.79-.27-.67-.17-.92-.29c-.54-.26-.81-.64-.81-1.13,0-.42.17-.76.52-1.04.35-.28.79-.42,1.33-.42.57,0,1.04.14,1.39.43.35.28.53.65.53,1.11h-1.08c0-.21-.08-.38-.23-.52-.15-.14-.36-.21-.61-.21-.24,0-.43.05-.58.16-.15.11-.22.26-.22.44,0,.17.07.29.21.39.14.09.42.18.84.28.42.09.76.2,1,.33.24.13.42.28.54.46s.18.4.18.66c0,.43-.18.78-.54,1.05-.36.27-.83.4-1.41.4-.39,0-.74-.07-1.05-.21s-.55-.34-.72-.59-.26-.52-.26-.8h1.05c.01.25.11.45.29.59s.41.21.71.21.5-.05.65-.16c.15-.11.22-.25.22-.42Z" fill="#bababa"/>
            <path d="M1432.71,653.45h-1.08v-6.83h1.08v6.83Z" fill="#bababa"/>
            <path d="M1436.76,653.45c-.05-.09-.09-.24-.12-.45-.34.36-.76.54-1.26.54s-.88-.14-1.18-.41-.46-.62-.46-1.02c0-.51.19-.91.57-1.18s.92-.41,1.63-.41h.66v-.32c0-.25-.07-.45-.21-.6s-.35-.22-.64-.22c-.25,0-.45.06-.6.18-.16.12-.24.28-.24.47h-1.08c0-.26.09-.51.26-.74.17-.23.41-.41.71-.54s.64-.2,1.01-.2c.56,0,1.01.14,1.35.42.33.28.51.68.52,1.19v2.17c0,.43.06.78.18,1.04v.08h-1.1ZM1435.57,652.67c.21,0,.41-.05.6-.16.19-.1.33-.24.42-.42v-.91h-.58c-.4,0-.7.07-.9.21s-.3.34-.3.59c0,.21.07.37.21.5.14.12.32.18.55.18Z" fill="#bababa"/>
            <path d="M1441.5,652.14c0-.19-.08-.34-.24-.44s-.42-.19-.79-.27-.67-.17-.92-.29c-.54-.26-.81-.64-.81-1.13,0-.42.17-.76.52-1.04.35-.28.79-.42,1.33-.42.57,0,1.04.14,1.39.43.35.28.53.65.53,1.11h-1.08c0-.21-.08-.38-.23-.52-.15-.14-.36-.21-.61-.21-.24,0-.43.05-.58.16-.15.11-.22.26-.22.44,0,.17.07.29.21.39.14.09.42.18.84.28.42.09.76.2,1,.33.24.13.42.28.54.46s.18.4.18.66c0,.43-.18.78-.54,1.05-.36.27-.83.4-1.41.4-.39,0-.74-.07-1.05-.21s-.55-.34-.72-.59-.26-.52-.26-.8h1.05c.01.25.11.45.29.59s.41.21.71.21.5-.05.65-.16c.15-.11.22-.25.22-.42Z" fill="#bababa"/>
            <path d="M1444.86,647.47v1.17h.85v.8h-.85v2.68c0,.18.04.32.11.4s.2.12.39.12c.12,0,.25-.01.38-.04v.84c-.25.07-.48.1-.71.1-.83,0-1.24-.46-1.24-1.37v-2.72h-.79v-.8h.79v-1.17h1.08Z" fill="#bababa"/>
            <path d="M1453.01,651.09c0,.74-.17,1.34-.51,1.78-.34.44-.79.66-1.36.66-.53,0-.95-.17-1.27-.52v2.28h-1.08v-6.66h1l.04.49c.32-.39.75-.58,1.29-.58.59,0,1.05.22,1.38.66s.5,1.04.5,1.82v.07ZM1451.93,651c0-.48-.1-.86-.29-1.14-.19-.28-.46-.42-.82-.42-.44,0-.76.18-.95.55v2.13c.2.37.52.56.96.56.34,0,.61-.14.81-.42.19-.28.29-.7.29-1.26Z" fill="#bababa"/>
            <path d="M1456.44,649.63c-.14-.02-.29-.04-.44-.04-.49,0-.83.19-1,.57v3.29h-1.08v-4.81h1.03l.03.54c.26-.42.62-.63,1.08-.63.15,0,.28.02.38.06v1.01Z" fill="#bababa"/>
            <path d="M1456.76,651c0-.47.09-.9.28-1.27.19-.38.45-.67.79-.87.34-.2.73-.3,1.16-.3.65,0,1.18.21,1.58.63.4.42.62.97.66,1.66v.25c0,.47-.09.9-.27,1.27-.18.37-.44.66-.78.87-.34.2-.73.31-1.18.31-.68,0-1.22-.23-1.63-.68-.41-.45-.61-1.05-.61-1.81v-.05ZM1457.84,651.09c0,.49.1.88.31,1.16.2.28.49.42.85.42s.65-.14.85-.43c.2-.28.3-.7.3-1.25,0-.49-.1-.87-.31-1.16-.21-.28-.49-.43-.85-.43s-.63.14-.84.42c-.21.28-.31.7-.31,1.26Z" fill="#bababa"/>
            <path d="M1463.26,648.64v5.23c0,.49-.12.87-.37,1.13-.24.26-.6.39-1.07.39-.2,0-.39-.03-.57-.08v-.85c.11.03.24.04.38.04.36,0,.54-.2.55-.59v-5.27h1.08ZM1462.09,647.39c0-.17.05-.3.16-.41.11-.11.26-.16.45-.16s.35.05.45.16c.11.11.16.25.16.41s-.05.3-.16.41c-.11.11-.26.16-.45.16s-.35-.05-.45-.16c-.11-.11-.16-.24-.16-.41Z" fill="#bababa"/>
            <path d="M1466.54,653.54c-.68,0-1.24-.22-1.66-.65-.43-.43-.64-1-.64-1.72v-.13c0-.48.09-.91.28-1.29.19-.38.45-.67.78-.88s.71-.32,1.12-.32c.65,0,1.16.21,1.52.63.36.42.54,1.01.54,1.77v.44h-3.14c.03.4.17.71.4.94s.53.35.88.35c.49,0,.9-.2,1.21-.6l.58.56c-.19.29-.45.51-.77.67-.32.16-.68.24-1.08.24ZM1466.41,649.42c-.3,0-.54.1-.72.31-.18.21-.3.5-.35.87h2.06v-.08c-.02-.36-.12-.63-.29-.82s-.4-.28-.7-.28Z" fill="#bababa"/>
            <path d="M1471.28,652.68c.27,0,.49-.08.67-.24.18-.16.27-.35.28-.58h1.02c-.01.3-.11.58-.28.84-.17.26-.41.46-.71.62-.3.15-.62.23-.97.23-.67,0-1.21-.22-1.6-.65-.39-.44-.59-1.04-.59-1.8v-.11c0-.73.2-1.32.59-1.76.39-.44.92-.66,1.6-.66.57,0,1.04.17,1.4.5.36.33.55.77.57,1.31h-1.02c-.01-.28-.11-.5-.28-.68s-.4-.27-.67-.27c-.35,0-.62.13-.81.38-.19.25-.29.64-.29,1.15v.17c0,.52.09.91.28,1.17.19.26.46.38.82.38Z" fill="#bababa"/>
            <path d="M1475.42,647.47v1.17h.85v.8h-.85v2.68c0,.18.04.32.11.4s.2.12.39.12c.12,0,.25-.01.38-.04v.84c-.25.07-.48.1-.71.1-.83,0-1.24-.46-1.24-1.37v-2.72h-.79v-.8h.79v-1.17h1.08Z" fill="#bababa"/>
          </g>
          <g>
            <g class="glow-delay">
              <g>
                <path d="M1431.57,627.43h6.26v4.52h-6.26v7.07h-4.77v-7.07h-6.27v-4.52h6.27v-6.78h4.77v6.78Z" fill="url(#radial-gradient-17)"/>
                <path d="M1452.8,641.55h-5.01v-19.3l-5.98,1.85v-4.07l10.45-3.74h.54v25.27Z" fill="url(#radial-gradient-18)"/>
                <path d="M1466.09,626.72h2.67c1.27,0,2.21-.32,2.82-.95.61-.64.92-1.48.92-2.53s-.3-1.81-.91-2.37c-.61-.57-1.44-.85-2.5-.85-.96,0-1.76.26-2.41.79-.65.53-.97,1.21-.97,2.05h-5.01c0-1.32.36-2.5,1.07-3.54.71-1.05,1.7-1.86,2.98-2.45,1.28-.59,2.68-.88,4.22-.88,2.67,0,4.76.64,6.27,1.91,1.51,1.28,2.27,3.04,2.27,5.28,0,1.16-.35,2.22-1.06,3.19-.7.97-1.63,1.72-2.77,2.24,1.42.51,2.48,1.27,3.18,2.29.7,1.02,1.05,2.22,1.05,3.6,0,2.24-.82,4.04-2.45,5.39-1.63,1.35-3.8,2.03-6.49,2.03-2.52,0-4.58-.66-6.18-1.99-1.6-1.33-2.4-3.08-2.4-5.27h5.01c0,.95.36,1.72,1.07,2.32.71.6,1.59.9,2.63.9,1.19,0,2.12-.31,2.8-.94.68-.63,1.01-1.46,1.01-2.5,0-2.52-1.39-3.78-4.16-3.78h-2.65v-3.92Z" fill="url(#radial-gradient-19)"/>
                <path d="M1496.17,632.06h2.86v4.04h-2.86v5.46h-5.01v-5.46h-10.35l-.23-3.15,10.52-16.62h5.06v15.73ZM1485.59,632.06h5.58v-8.91l-.33.57-5.25,8.33Z" fill="url(#radial-gradient-20)"/>
              </g>
              <path d="M1504.57,621.89c0-1.55.5-2.8,1.51-3.77,1.01-.96,2.32-1.45,3.95-1.45s2.98.48,3.99,1.43c1.01.95,1.51,2.24,1.51,3.87v1.25c0,1.56-.5,2.81-1.51,3.76-1.01.95-2.32,1.42-3.95,1.42s-2.97-.48-3.98-1.43c-1.01-.95-1.52-2.24-1.52-3.86v-1.23ZM1507.9,623.22c0,.69.2,1.25.6,1.67.4.42.92.63,1.57.63s1.16-.21,1.54-.64c.38-.43.57-1,.57-1.72v-1.28c0-.69-.19-1.25-.57-1.68-.38-.43-.91-.64-1.58-.64s-1.15.21-1.54.63c-.39.42-.59,1.01-.59,1.76v1.26ZM1511.05,640.38l-2.44-1.32,12.32-19.72,2.44,1.32-12.32,19.72ZM1516.63,636.08c0-1.56.51-2.82,1.53-3.77,1.02-.95,2.33-1.43,3.95-1.43s2.97.47,3.98,1.41c1.01.94,1.52,2.24,1.52,3.89v1.25c0,1.55-.5,2.8-1.49,3.75-.99.95-2.32,1.43-3.97,1.43s-3-.48-4-1.44c-1.01-.96-1.51-2.23-1.51-3.81v-1.28ZM1519.96,637.43c0,.64.21,1.18.62,1.63.42.45.94.68,1.56.68,1.41,0,2.11-.78,2.11-2.34v-1.32c0-.69-.2-1.25-.59-1.67-.39-.42-.91-.63-1.56-.63s-1.17.21-1.56.63c-.39.42-.59,1-.59,1.72v1.3Z" fill="url(#radial-gradient-16)"/>
            </g>
            <g>
              <g>
                <g>
                  <path d="M1431.57,627.43h6.26v4.52h-6.26v7.07h-4.77v-7.07h-6.27v-4.52h6.27v-6.78h4.77v6.78Z" fill="url(#radial-gradient-17)"/>
                  <path d="M1452.8,641.55h-5.01v-19.3l-5.98,1.85v-4.07l10.45-3.74h.54v25.27Z" fill="url(#radial-gradient-18)"/>
                  <path d="M1466.09,626.72h2.67c1.27,0,2.21-.32,2.82-.95.61-.64.92-1.48.92-2.53s-.3-1.81-.91-2.37c-.61-.57-1.44-.85-2.5-.85-.96,0-1.76.26-2.41.79-.65.53-.97,1.21-.97,2.05h-5.01c0-1.32.36-2.5,1.07-3.54.71-1.05,1.7-1.86,2.98-2.45,1.28-.59,2.68-.88,4.22-.88,2.67,0,4.76.64,6.27,1.91,1.51,1.28,2.27,3.04,2.27,5.28,0,1.16-.35,2.22-1.06,3.19-.7.97-1.63,1.72-2.77,2.24,1.42.51,2.48,1.27,3.18,2.29.7,1.02,1.05,2.22,1.05,3.6,0,2.24-.82,4.04-2.45,5.39-1.63,1.35-3.8,2.03-6.49,2.03-2.52,0-4.58-.66-6.18-1.99-1.6-1.33-2.4-3.08-2.4-5.27h5.01c0,.95.36,1.72,1.07,2.32.71.6,1.59.9,2.63.9,1.19,0,2.12-.31,2.8-.94.68-.63,1.01-1.46,1.01-2.5,0-2.52-1.39-3.78-4.16-3.78h-2.65v-3.92Z" fill="url(#radial-gradient-19)"/>
                  <path d="M1496.17,632.06h2.86v4.04h-2.86v5.46h-5.01v-5.46h-10.35l-.23-3.15,10.52-16.62h5.06v15.73ZM1485.59,632.06h5.58v-8.91l-.33.57-5.25,8.33Z" fill="url(#radial-gradient-20)"/>
                </g>
                <g>
                  <path d="M1431.57,627.43h6.26v4.52h-6.26v7.07h-4.77v-7.07h-6.27v-4.52h6.27v-6.78h4.77v6.78Z" fill="url(#radial-gradient-21)"/>
                  <path d="M1452.8,641.55h-5.01v-19.3l-5.98,1.85v-4.07l10.45-3.74h.54v25.27Z" fill="url(#radial-gradient-22)"/>
                  <path d="M1466.09,626.72h2.67c1.27,0,2.21-.32,2.82-.95.61-.64.92-1.48.92-2.53s-.3-1.81-.91-2.37c-.61-.57-1.44-.85-2.5-.85-.96,0-1.76.26-2.41.79-.65.53-.97,1.21-.97,2.05h-5.01c0-1.32.36-2.5,1.07-3.54.71-1.05,1.7-1.86,2.98-2.45,1.28-.59,2.68-.88,4.22-.88,2.67,0,4.76.64,6.27,1.91,1.51,1.28,2.27,3.04,2.27,5.28,0,1.16-.35,2.22-1.06,3.19-.7.97-1.63,1.72-2.77,2.24,1.42.51,2.48,1.27,3.18,2.29.7,1.02,1.05,2.22,1.05,3.6,0,2.24-.82,4.04-2.45,5.39-1.63,1.35-3.8,2.03-6.49,2.03-2.52,0-4.58-.66-6.18-1.99-1.6-1.33-2.4-3.08-2.4-5.27h5.01c0,.95.36,1.72,1.07,2.32.71.6,1.59.9,2.63.9,1.19,0,2.12-.31,2.8-.94.68-.63,1.01-1.46,1.01-2.5,0-2.52-1.39-3.78-4.16-3.78h-2.65v-3.92Z" fill="url(#radial-gradient-23)"/>
                  <path d="M1496.17,632.06h2.86v4.04h-2.86v5.46h-5.01v-5.46h-10.35l-.23-3.15,10.52-16.62h5.06v15.73ZM1485.59,632.06h5.58v-8.91l-.33.57-5.25,8.33Z" fill="url(#radial-gradient-24)"/>
                </g>
                <g>
                  <path d="M1431.57,627.43h6.26v4.52h-6.26v7.07h-4.77v-7.07h-6.27v-4.52h6.27v-6.78h4.77v6.78Z" fill="url(#radial-gradient-25)"/>
                  <path d="M1452.8,641.55h-5.01v-19.3l-5.98,1.85v-4.07l10.45-3.74h.54v25.27Z" fill="url(#radial-gradient-26)"/>
                  <path d="M1466.09,626.72h2.67c1.27,0,2.21-.32,2.82-.95.61-.64.92-1.48.92-2.53s-.3-1.81-.91-2.37c-.61-.57-1.44-.85-2.5-.85-.96,0-1.76.26-2.41.79-.65.53-.97,1.21-.97,2.05h-5.01c0-1.32.36-2.5,1.07-3.54.71-1.05,1.7-1.86,2.98-2.45,1.28-.59,2.68-.88,4.22-.88,2.67,0,4.76.64,6.27,1.91,1.51,1.28,2.27,3.04,2.27,5.28,0,1.16-.35,2.22-1.06,3.19-.7.97-1.63,1.72-2.77,2.24,1.42.51,2.48,1.27,3.18,2.29.7,1.02,1.05,2.22,1.05,3.6,0,2.24-.82,4.04-2.45,5.39-1.63,1.35-3.8,2.03-6.49,2.03-2.52,0-4.58-.66-6.18-1.99-1.6-1.33-2.4-3.08-2.4-5.27h5.01c0,.95.36,1.72,1.07,2.32.71.6,1.59.9,2.63.9,1.19,0,2.12-.31,2.8-.94.68-.63,1.01-1.46,1.01-2.5,0-2.52-1.39-3.78-4.16-3.78h-2.65v-3.92Z" fill="url(#radial-gradient-27)"/>
                  <path d="M1496.17,632.06h2.86v4.04h-2.86v5.46h-5.01v-5.46h-10.35l-.23-3.15,10.52-16.62h5.06v15.73ZM1485.59,632.06h5.58v-8.91l-.33.57-5.25,8.33Z" fill="url(#radial-gradient-28)"/>
                </g>
              </g>
              <g>
                <path class="count-color" d="M1504.57,621.89c0-1.55.5-2.8,1.51-3.77,1.01-.96,2.32-1.45,3.95-1.45s2.98.48,3.99,1.43c1.01.95,1.51,2.24,1.51,3.87v1.25c0,1.56-.5,2.81-1.51,3.76-1.01.95-2.32,1.42-3.95,1.42s-2.97-.48-3.98-1.43c-1.01-.95-1.52-2.24-1.52-3.86v-1.23ZM1507.9,623.22c0,.69.2,1.25.6,1.67.4.42.92.63,1.57.63s1.16-.21,1.54-.64c.38-.43.57-1,.57-1.72v-1.28c0-.69-.19-1.25-.57-1.68-.38-.43-.91-.64-1.58-.64s-1.15.21-1.54.63c-.39.42-.59,1.01-.59,1.76v1.26ZM1511.05,640.38l-2.44-1.32,12.32-19.72,2.44,1.32-12.32,19.72ZM1516.63,636.08c0-1.56.51-2.82,1.53-3.77,1.02-.95,2.33-1.43,3.95-1.43s2.97.47,3.98,1.41c1.01.94,1.52,2.24,1.52,3.89v1.25c0,1.55-.5,2.8-1.49,3.75-.99.95-2.32,1.43-3.97,1.43s-3-.48-4-1.44c-1.01-.96-1.51-2.23-1.51-3.81v-1.28ZM1519.96,637.43c0,.64.21,1.18.62,1.63.42.45.94.68,1.56.68,1.41,0,2.11-.78,2.11-2.34v-1.32c0-.69-.2-1.25-.59-1.67-.39-.42-.91-.63-1.56-.63s-1.17.21-1.56.63c-.39.42-.59,1-.59,1.72v1.3Z" fill="url(#radial-gradient-29)"/>
                <path d="M1504.57,621.89c0-1.55.5-2.8,1.51-3.77,1.01-.96,2.32-1.45,3.95-1.45s2.98.48,3.99,1.43c1.01.95,1.51,2.24,1.51,3.87v1.25c0,1.56-.5,2.81-1.51,3.76-1.01.95-2.32,1.42-3.95,1.42s-2.97-.48-3.98-1.43c-1.01-.95-1.52-2.24-1.52-3.86v-1.23ZM1507.9,623.22c0,.69.2,1.25.6,1.67.4.42.92.63,1.57.63s1.16-.21,1.54-.64c.38-.43.57-1,.57-1.72v-1.28c0-.69-.19-1.25-.57-1.68-.38-.43-.91-.64-1.58-.64s-1.15.21-1.54.63c-.39.42-.59,1.01-.59,1.76v1.26ZM1511.05,640.38l-2.44-1.32,12.32-19.72,2.44,1.32-12.32,19.72ZM1516.63,636.08c0-1.56.51-2.82,1.53-3.77,1.02-.95,2.33-1.43,3.95-1.43s2.97.47,3.98,1.41c1.01.94,1.52,2.24,1.52,3.89v1.25c0,1.55-.5,2.8-1.49,3.75-.99.95-2.32,1.43-3.97,1.43s-3-.48-4-1.44c-1.01-.96-1.51-2.23-1.51-3.81v-1.28ZM1519.96,637.43c0,.64.21,1.18.62,1.63.42.45.94.68,1.56.68,1.41,0,2.11-.78,2.11-2.34v-1.32c0-.69-.2-1.25-.59-1.67-.39-.42-.91-.63-1.56-.63s-1.17.21-1.56.63c-.39.42-.59,1-.59,1.72v1.3Z" fill="url(#radial-gradient-30)"/>
                <path d="M1504.57,621.89c0-1.55.5-2.8,1.51-3.77,1.01-.96,2.32-1.45,3.95-1.45s2.98.48,3.99,1.43c1.01.95,1.51,2.24,1.51,3.87v1.25c0,1.56-.5,2.81-1.51,3.76-1.01.95-2.32,1.42-3.95,1.42s-2.97-.48-3.98-1.43c-1.01-.95-1.52-2.24-1.52-3.86v-1.23ZM1507.9,623.22c0,.69.2,1.25.6,1.67.4.42.92.63,1.57.63s1.16-.21,1.54-.64c.38-.43.57-1,.57-1.72v-1.28c0-.69-.19-1.25-.57-1.68-.38-.43-.91-.64-1.58-.64s-1.15.21-1.54.63c-.39.42-.59,1.01-.59,1.76v1.26ZM1511.05,640.38l-2.44-1.32,12.32-19.72,2.44,1.32-12.32,19.72ZM1516.63,636.08c0-1.56.51-2.82,1.53-3.77,1.02-.95,2.33-1.43,3.95-1.43s2.97.47,3.98,1.41c1.01.94,1.52,2.24,1.52,3.89v1.25c0,1.55-.5,2.8-1.49,3.75-.99.95-2.32,1.43-3.97,1.43s-3-.48-4-1.44c-1.01-.96-1.51-2.23-1.51-3.81v-1.28ZM1519.96,637.43c0,.64.21,1.18.62,1.63.42.45.94.68,1.56.68,1.41,0,2.11-.78,2.11-2.34v-1.32c0-.69-.2-1.25-.59-1.67-.39-.42-.91-.63-1.56-.63s-1.17.21-1.56.63c-.39.42-.59,1-.59,1.72v1.3Z" fill="url(#radial-gradient-31)"/>
              </g>
            </g>
          </g>
        </g>
      </g>
    </g>
  </g>
</svg>