<?xml version="1.0" encoding="UTF-8"?>
<svg id="Layer_24" data-name="Layer 24" xmlns="http://www.w3.org/2000/svg" xmlns:xlink="http://www.w3.org/1999/xlink" viewBox="0 0 1760.24 1100.23">
  <defs>
    <radialGradient id="radial-gradient" cx="881.32" cy="697.71" fx="881.32" fy="697.71" r="537.53" gradientTransform="translate(0 -20.9) scale(1 1.13)" gradientUnits="userSpaceOnUse">
      <stop offset="0" stop-color="#012730"/>
      <stop offset=".37" stop-color="#01222d"/>
      <stop offset=".75" stop-color="#031624"/>
      <stop offset="1" stop-color="#060a1c"/>
    </radialGradient>
    <radialGradient id="radial-gradient-2" cx="1130.09" cy="756.03" fx="1130.09" fy="756.03" r="303.23" gradientTransform="translate(0 -20.9) scale(1 1.13)" gradientUnits="userSpaceOnUse">
      <stop offset="0" stop-color="#00a9bc"/>
      <stop offset=".1" stop-color="#00b6ca" stop-opacity=".77"/>
      <stop offset=".21" stop-color="#00c4d9" stop-opacity=".54"/>
      <stop offset=".33" stop-color="#00cfe6" stop-opacity=".34"/>
      <stop offset=".45" stop-color="#00d8ef" stop-opacity=".19"/>
      <stop offset=".56" stop-color="#00def6" stop-opacity=".09"/>
      <stop offset=".68" stop-color="#00e2fa" stop-opacity=".02"/>
      <stop offset=".8" stop-color="#00e4fc" stop-opacity="0"/>
      <stop offset="1" stop-color="#59e8c9" stop-opacity="0"/>
    </radialGradient>
    <clipPath id="clippath">
      <rect x="1117.24" y="835.45" width="179.06" height="160.12" rx="18.5" ry="18.5" fill="none"/>
    </clipPath>
    <radialGradient id="radial-gradient-3" cx="1216.02" cy="1011.15" fx="1216.02" fy="1011.15" r="128.02" gradientUnits="userSpaceOnUse">
      <stop offset="0" stop-color="#05dcf0"/>
      <stop offset=".34" stop-color="#0599ab" stop-opacity=".65"/>
      <stop offset=".8" stop-color="#054151" stop-opacity=".19"/>
      <stop offset="1" stop-color="#051e2e" stop-opacity="0"/>
    </radialGradient>
    <radialGradient id="radial-gradient-4" cx="1211.11" cy="995.57" fx="1211.11" fy="995.57" r="69.04" gradientUnits="userSpaceOnUse">
      <stop offset=".22" stop-color="#05dcf0"/>
      <stop offset=".33" stop-color="#05d9ed" stop-opacity=".98"/>
      <stop offset=".43" stop-color="#05d1e5" stop-opacity=".94"/>
      <stop offset=".53" stop-color="#06c5d8" stop-opacity=".86"/>
      <stop offset=".63" stop-color="#07b3c6" stop-opacity=".74"/>
      <stop offset=".72" stop-color="#099caf" stop-opacity=".6"/>
      <stop offset=".82" stop-color="#0b7f92" stop-opacity=".42"/>
      <stop offset=".92" stop-color="#0d5e71" stop-opacity=".21"/>
      <stop offset="1" stop-color="#103d4f" stop-opacity="0"/>
    </radialGradient>
    <radialGradient id="radial-gradient-5" cx="7458.29" cy="-4098.07" fx="7458.29" fy="-4098.07" r="172.78" gradientTransform="translate(-17853.5 4936.48) scale(2.55 1)" gradientUnits="userSpaceOnUse">
      <stop offset="0" stop-color="#0ae6ff" stop-opacity=".3"/>
      <stop offset=".08" stop-color="#0abbd4" stop-opacity=".24"/>
      <stop offset=".25" stop-color="#0b778f" stop-opacity=".13"/>
      <stop offset=".41" stop-color="#0b465e" stop-opacity=".06"/>
      <stop offset=".58" stop-color="#0b2940" stop-opacity=".01"/>
      <stop offset=".77" stop-color="#0c2037" stop-opacity="0"/>
    </radialGradient>
    <radialGradient id="radial-gradient-6" cx="1151.36" cy="854.27" fx="1151.36" fy="854.27" r="87.46" gradientTransform="translate(-3.08 -8.93) scale(1.01)" gradientUnits="userSpaceOnUse">
      <stop offset=".22" stop-color="#05dcf0"/>
      <stop offset=".25" stop-color="#05d6ea"/>
      <stop offset=".77" stop-color="#0c687b"/>
      <stop offset="1" stop-color="#103d4f"/>
    </radialGradient>
    <radialGradient id="radial-gradient-7" cx="661.8" fx="661.8" r="537.53" xlink:href="#radial-gradient"/>
    <radialGradient id="radial-gradient-8" cx="910.57" fx="910.57" r="303.23" xlink:href="#radial-gradient-2"/>
    <clipPath id="clippath-1">
      <rect x="897.72" y="835.45" width="179.06" height="160.12" rx="18.5" ry="18.5" fill="none"/>
    </clipPath>
    <radialGradient id="radial-gradient-9" cx="996.49" fx="996.49" r="128.02" xlink:href="#radial-gradient-3"/>
    <radialGradient id="radial-gradient-10" cx="991.59" fx="991.59" r="69.04" xlink:href="#radial-gradient-4"/>
    <radialGradient id="radial-gradient-11" cx="7377.56" cy="-4174.15" fx="7377.56" fy="-4174.15" r="172.78" gradientTransform="translate(-17867.1 5012.56) scale(2.55 1)" xlink:href="#radial-gradient-5"/>
    <radialGradient id="radial-gradient-12" cx="942.75" cy="850.37" fx="942.75" fy="850.37" r="78.05" gradientTransform="matrix(1,0,0,1,0,0)" xlink:href="#radial-gradient-6"/>
    <radialGradient id="radial-gradient-13" cx="385.69" cy="670.2" fx="385.69" fy="670.2" r="610.83" xlink:href="#radial-gradient"/>
    <radialGradient id="radial-gradient-14" cx="668.38" cy="736.47" fx="668.38" fy="736.47" r="344.58" xlink:href="#radial-gradient-2"/>
    <clipPath id="clippath-2">
      <rect x="653.78" y="813.61" width="203.48" height="181.95" rx="21.02" ry="21.02" fill="none"/>
    </clipPath>
    <radialGradient id="radial-gradient-15" cx="766.02" cy="1013.27" fx="766.02" fy="1013.27" r="145.48" xlink:href="#radial-gradient-3"/>
    <radialGradient id="radial-gradient-16" cx="760.45" fx="760.45" r="78.45" xlink:href="#radial-gradient-4"/>
    <radialGradient id="radial-gradient-17" cx="7293.5" cy="-4276.21" fx="7293.5" fy="-4276.21" r="196.35" gradientTransform="translate(-17889.56 5093.2) scale(2.55 1)" xlink:href="#radial-gradient-5"/>
    <radialGradient id="radial-gradient-18" cx="674.84" cy="794.06" fx="674.84" fy="794.06" r="108.93" gradientTransform="translate(-30.52 -11.65) scale(1.08)" gradientUnits="userSpaceOnUse">
      <stop offset="0" stop-color="#05dcf0"/>
      <stop offset=".14" stop-color="#05d7eb"/>
      <stop offset=".3" stop-color="#06c9dd"/>
      <stop offset=".47" stop-color="#07b2c5"/>
      <stop offset=".65" stop-color="#0a92a5"/>
      <stop offset=".83" stop-color="#0c697c"/>
      <stop offset="1" stop-color="#103d4f"/>
    </radialGradient>
    <radialGradient id="radial-gradient-19" cx="198.34" fx="198.34" r="537.53" xlink:href="#radial-gradient"/>
    <radialGradient id="radial-gradient-20" cx="447.11" fx="447.11" r="303.23" xlink:href="#radial-gradient-2"/>
    <clipPath id="clippath-3">
      <rect x="434.26" y="835.45" width="179.06" height="160.12" rx="18.5" ry="18.5" fill="none"/>
    </clipPath>
    <radialGradient id="radial-gradient-21" cx="533.03" cy="1011.15" fx="533.03" fy="1011.15" r="128.02" xlink:href="#radial-gradient-3"/>
    <radialGradient id="radial-gradient-22" cx="528.13" fx="528.13" xlink:href="#radial-gradient-4"/>
    <radialGradient id="radial-gradient-23" cx="7207.11" cy="-4334.76" fx="7207.11" fy="-4334.76" r="172.78" gradientTransform="translate(-17895.82 5173.17) scale(2.55 1)" xlink:href="#radial-gradient-5"/>
    <radialGradient id="radial-gradient-24" cx="480.24" cy="849.64" fx="480.24" fy="849.64" r="138.96" xlink:href="#radial-gradient-6"/>
    <radialGradient id="radial-gradient-25" cx="480.24" cy="849.64" fx="480.24" fy="849.64" r="138.96" xlink:href="#radial-gradient-6"/>
  </defs>
  <g>
    <g>
      <rect x="1117.24" y="835.45" width="179.06" height="160.12" rx="18.5" ry="18.5" fill="url(#radial-gradient)"/>
      <rect x="1117.24" y="835.45" width="179.06" height="160.12" rx="18.5" ry="18.5" fill="none" opacity=".7" stroke="#00bbcf" stroke-miterlimit="10"/>
      <rect x="1117.24" y="835.45" width="179.06" height="160.12" rx="18.5" ry="18.5" fill="url(#radial-gradient-2)" opacity=".46"/>
    </g>
    <g>
      <path d="M1152.5,925.11c-.09,1.22-.54,2.19-1.36,2.89-.82.7-1.89,1.06-3.23,1.06-1.46,0-2.61-.49-3.44-1.47-.84-.98-1.26-2.33-1.26-4.05v-.7c0-1.09.19-2.06.58-2.89.39-.83.94-1.47,1.65-1.92.72-.45,1.55-.67,2.5-.67,1.31,0,2.37.35,3.18,1.06.8.7,1.27,1.69,1.39,2.96h-2.35c-.06-.74-.26-1.27-.61-1.6s-.89-.5-1.61-.5c-.78,0-1.37.28-1.76.84-.39.56-.59,1.43-.6,2.61v.86c0,1.23.19,2.13.56,2.7.37.57.96.85,1.76.85.72,0,1.27-.17,1.62-.5.36-.33.56-.84.61-1.54h2.35Z" fill="#fff"/>
      <path d="M1158.64,922.56c-.31-.04-.58-.06-.81-.06-.86,0-1.42.29-1.68.87v5.54h-2.26v-8.46h2.14l.06,1.01c.45-.78,1.08-1.17,1.88-1.17.25,0,.48.03.7.1l-.03,2.17Z" fill="#fff"/>
      <path d="M1163.48,929.06c-1.24,0-2.25-.38-3.03-1.14-.78-.76-1.17-1.78-1.17-3.04v-.22c0-.85.16-1.61.49-2.28s.79-1.19,1.4-1.55,1.29-.54,2.06-.54c1.16,0,2.07.36,2.73,1.09.66.73,1,1.76,1,3.1v.92h-5.39c.07.55.29,1,.66,1.33.37.33.83.5,1.4.5.87,0,1.55-.32,2.04-.95l1.11,1.24c-.34.48-.8.85-1.38,1.12-.58.27-1.22.4-1.92.4ZM1163.22,922.11c-.45,0-.81.15-1.09.46-.28.3-.46.74-.54,1.3h3.14v-.18c-.01-.5-.15-.89-.41-1.17-.26-.28-.63-.41-1.11-.41Z" fill="#fff"/>
      <path d="M1173.14,928.9c-.1-.2-.18-.46-.23-.76-.55.61-1.26.92-2.14.92-.83,0-1.52-.24-2.06-.72s-.82-1.08-.82-1.81c0-.9.33-1.58,1-2.06.66-.48,1.63-.72,2.88-.73h1.04v-.48c0-.39-.1-.7-.3-.94s-.52-.35-.95-.35c-.38,0-.68.09-.9.27-.22.18-.32.43-.32.75h-2.26c0-.49.15-.94.45-1.36.3-.42.73-.74,1.28-.98.55-.24,1.17-.36,1.86-.36,1.04,0,1.87.26,2.48.79.61.52.92,1.26.92,2.21v3.67c0,.8.12,1.41.34,1.82v.13h-2.28ZM1171.27,927.33c.33,0,.64-.07.92-.22.28-.15.49-.35.63-.6v-1.45h-.84c-1.13,0-1.73.39-1.81,1.17v.13c0,.28.09.51.29.7.2.18.47.27.81.27Z" fill="#fff"/>
      <path d="M1179.53,918.36v2.08h1.45v1.66h-1.45v4.22c0,.31.06.54.18.67.12.14.35.2.69.2.25,0,.47-.02.66-.05v1.71c-.44.13-.9.2-1.37.2-1.58,0-2.39-.8-2.42-2.4v-4.56h-1.24v-1.66h1.24v-2.08h2.26Z" fill="#fff"/>
      <path d="M1182.22,918.25c0-.34.11-.62.34-.84.23-.22.54-.33.93-.33s.69.11.92.33c.23.22.34.5.34.84s-.12.62-.35.84c-.23.22-.54.33-.92.33s-.69-.11-.92-.33c-.23-.22-.35-.5-.35-.84ZM1184.62,928.9h-2.27v-8.46h2.27v8.46Z" fill="#fff"/>
      <path d="M1189.65,926.14l1.57-5.7h2.36l-2.85,8.46h-2.16l-2.85-8.46h2.36l1.57,5.7Z" fill="#fff"/>
      <path d="M1198.37,929.06c-1.24,0-2.25-.38-3.03-1.14-.78-.76-1.17-1.78-1.17-3.04v-.22c0-.85.16-1.61.49-2.28s.79-1.19,1.4-1.55,1.29-.54,2.06-.54c1.16,0,2.07.36,2.73,1.09.66.73,1,1.76,1,3.1v.92h-5.39c.07.55.29,1,.66,1.33.37.33.83.5,1.4.5.87,0,1.55-.32,2.04-.95l1.11,1.24c-.34.48-.8.85-1.38,1.12-.58.27-1.22.4-1.92.4ZM1198.11,922.11c-.45,0-.81.15-1.09.46-.28.3-.46.74-.54,1.3h3.14v-.18c-.01-.5-.15-.89-.41-1.17-.26-.28-.63-.41-1.11-.41Z" fill="#fff"/>
      <path d="M1213.18,925.92c0-.44-.16-.78-.47-1.02-.31-.24-.88-.49-1.69-.75-.81-.26-1.46-.52-1.93-.78-1.29-.7-1.94-1.64-1.94-2.82,0-.62.17-1.16.52-1.65.35-.48.84-.86,1.49-1.13.65-.27,1.38-.41,2.19-.41s1.54.15,2.17.44c.64.29,1.13.71,1.48,1.25.35.54.53,1.15.53,1.83h-2.35c0-.52-.16-.93-.49-1.22s-.79-.43-1.38-.43-1.02.12-1.34.36-.48.56-.48.96c0,.37.19.68.56.93.37.25.92.48,1.65.7,1.33.4,2.31.9,2.92,1.49.61.59.92,1.33.92,2.22,0,.99-.37,1.76-1.12,2.32-.75.56-1.75.84-3.01.84-.88,0-1.67-.16-2.39-.48-.72-.32-1.27-.76-1.65-1.32-.38-.56-.57-1.2-.57-1.94h2.35c0,1.26.75,1.88,2.25,1.88.56,0,.99-.11,1.31-.34.31-.23.47-.54.47-.95Z" fill="#fff"/>
      <path d="M1219.68,918.36v2.08h1.45v1.66h-1.45v4.22c0,.31.06.54.18.67.12.14.35.2.69.2.25,0,.47-.02.66-.05v1.71c-.44.13-.9.2-1.37.2-1.58,0-2.39-.8-2.42-2.4v-4.56h-1.24v-1.66h1.24v-2.08h2.26Z" fill="#fff"/>
      <path d="M1227.14,922.56c-.31-.04-.58-.06-.81-.06-.86,0-1.42.29-1.68.87v5.54h-2.26v-8.46h2.14l.06,1.01c.45-.78,1.08-1.17,1.88-1.17.25,0,.48.03.7.1l-.03,2.17Z" fill="#fff"/>
      <path d="M1232.89,928.9c-.1-.2-.18-.46-.23-.76-.55.61-1.26.92-2.14.92-.83,0-1.52-.24-2.06-.72s-.82-1.08-.82-1.81c0-.9.33-1.58,1-2.06.66-.48,1.63-.72,2.88-.73h1.04v-.48c0-.39-.1-.7-.3-.94s-.52-.35-.95-.35c-.38,0-.68.09-.9.27-.22.18-.32.43-.32.75h-2.26c0-.49.15-.94.45-1.36.3-.42.73-.74,1.28-.98.55-.24,1.17-.36,1.86-.36,1.04,0,1.87.26,2.48.79.61.52.92,1.26.92,2.21v3.67c0,.8.12,1.41.34,1.82v.13h-2.28ZM1231.02,927.33c.33,0,.64-.07.92-.22.28-.15.49-.35.63-.6v-1.45h-.84c-1.13,0-1.73.39-1.81,1.17v.13c0,.28.09.51.29.7.2.18.47.27.81.27Z" fill="#fff"/>
      <path d="M1239.28,918.36v2.08h1.45v1.66h-1.45v4.22c0,.31.06.54.18.67.12.14.35.2.69.2.25,0,.47-.02.66-.05v1.71c-.44.13-.9.2-1.37.2-1.58,0-2.39-.8-2.42-2.4v-4.56h-1.24v-1.66h1.24v-2.08h2.26Z" fill="#fff"/>
      <path d="M1245.88,929.06c-1.24,0-2.25-.38-3.03-1.14-.78-.76-1.17-1.78-1.17-3.04v-.22c0-.85.16-1.61.49-2.28s.79-1.19,1.4-1.55,1.29-.54,2.06-.54c1.16,0,2.07.36,2.73,1.09.66.73,1,1.76,1,3.1v.92h-5.39c.07.55.29,1,.66,1.33.37.33.83.5,1.4.5.87,0,1.55-.32,2.04-.95l1.11,1.24c-.34.48-.8.85-1.38,1.12-.58.27-1.22.4-1.92.4ZM1245.62,922.11c-.45,0-.81.15-1.09.46-.28.3-.46.74-.54,1.3h3.14v-.18c-.01-.5-.15-.89-.41-1.17-.26-.28-.63-.41-1.11-.41Z" fill="#fff"/>
      <path d="M1250.32,924.61c0-1.3.31-2.34.93-3.14.62-.79,1.45-1.19,2.5-1.19.93,0,1.65.32,2.17.95l.09-.8h2.05v8.18c0,.74-.17,1.38-.5,1.93-.34.55-.81.96-1.42,1.25-.61.29-1.32.43-2.14.43-.62,0-1.23-.12-1.81-.37-.59-.25-1.04-.57-1.34-.96l1-1.38c.56.63,1.25.95,2.05.95.6,0,1.07-.16,1.4-.48.33-.32.5-.78.5-1.37v-.45c-.52.59-1.21.88-2.06.88-1.02,0-1.84-.4-2.47-1.19s-.94-1.85-.94-3.16v-.09ZM1252.58,924.78c0,.77.15,1.37.46,1.8.31.44.73.65,1.27.65.69,0,1.18-.26,1.48-.78v-3.56c-.3-.52-.79-.78-1.46-.78-.54,0-.97.22-1.28.67-.31.44-.47,1.11-.47,1.99Z" fill="#fff"/>
      <path d="M1262.95,925.7l1.56-5.26h2.42l-3.4,9.78-.19.45c-.51,1.1-1.34,1.66-2.5,1.66-.33,0-.66-.05-1-.15v-1.71h.34c.43,0,.75-.06.96-.19.21-.13.38-.35.5-.65l.27-.7-2.96-8.49h2.43l1.57,5.26Z" fill="#fff"/>
    </g>
    <g clip-path="url(#clippath)">
      <rect x="1077.57" y="892.92" width="258.41" height="125.34" fill="url(#radial-gradient-3)" opacity=".7"/>
      <path d="M1113.52,995.57c16.27-1.24,32.53-1.89,48.8-2.33,8.13-.28,16.26-.34,24.4-.5l24.4-.17c16.27-.02,32.53.22,48.8.66,16.27.44,32.53,1.09,48.8,2.34-16.27,1.25-32.53,1.9-48.8,2.34-16.27.43-32.53.67-48.8.66l-24.4-.17c-8.13-.16-16.27-.22-24.4-.5-16.27-.44-32.53-1.09-48.8-2.33Z" fill="url(#radial-gradient-4)"/>
      <ellipse cx="1170.32" cy="830.71" rx="201.45" ry="92.45" transform="translate(-215.36 457.06) rotate(-20.28)" fill="url(#radial-gradient-5)"/>
    </g>
    <g>
      <rect x="1142.54" y="942.05" width="147.66" height="40.84" fill="none"/>
      <path d="M1145.55,953.79h-2.01v-9.76h2.01v9.76Z" fill="#cfcfcf"/>
      <path d="M1149.07,946.54l.06.84c.52-.65,1.21-.97,2.08-.97.77,0,1.34.23,1.72.68.38.45.57,1.13.58,2.02v4.69h-1.94v-4.64c0-.41-.09-.71-.27-.89-.18-.19-.48-.28-.89-.28-.55,0-.95.23-1.23.7v5.11h-1.94v-7.25h1.82Z" fill="#cfcfcf"/>
      <path d="M1158.91,951.79c0-.24-.12-.42-.35-.56-.23-.14-.61-.26-1.13-.37-1.73-.36-2.59-1.1-2.59-2.2,0-.64.27-1.18.8-1.61.53-.43,1.23-.65,2.09-.65.92,0,1.66.22,2.21.65.55.43.83,1,.83,1.69h-1.94c0-.28-.09-.51-.27-.69-.18-.18-.46-.27-.84-.27-.33,0-.58.07-.76.22-.18.15-.27.34-.27.56,0,.21.1.39.31.52.2.13.55.25,1.03.34.48.1.89.2,1.22.33,1.02.38,1.54,1.03,1.54,1.95,0,.66-.28,1.2-.85,1.61-.57.41-1.3.61-2.2.61-.61,0-1.15-.11-1.62-.33-.47-.22-.84-.51-1.11-.89-.27-.38-.4-.79-.4-1.22h1.84c.02.34.15.61.38.79.24.18.55.27.95.27.37,0,.65-.07.84-.21.19-.14.28-.33.28-.55Z" fill="#cfcfcf"/>
      <path d="M1162.02,944.66c0-.29.1-.53.29-.72.19-.19.46-.28.79-.28s.59.09.79.28.3.43.3.72-.1.54-.3.72c-.2.19-.46.28-.79.28s-.59-.09-.79-.28c-.2-.19-.3-.43-.3-.72ZM1164.08,953.79h-1.94v-7.25h1.94v7.25Z" fill="#cfcfcf"/>
      <path d="M1165.4,950.11c0-1.11.26-2.01.79-2.69.53-.68,1.24-1.02,2.14-1.02.8,0,1.41.27,1.86.82l.08-.68h1.76v7.01c0,.63-.14,1.19-.43,1.66-.29.47-.69.83-1.22,1.07-.52.25-1.14.37-1.84.37-.53,0-1.05-.11-1.56-.32-.51-.21-.89-.49-1.15-.82l.86-1.18c.48.54,1.07.81,1.76.81.51,0,.91-.14,1.2-.41.29-.28.43-.67.43-1.17v-.39c-.45.5-1.03.76-1.76.76-.87,0-1.58-.34-2.11-1.02-.54-.68-.81-1.59-.81-2.71v-.08ZM1167.33,950.25c0,.66.13,1.17.4,1.55.26.37.63.56,1.09.56.59,0,1.01-.22,1.27-.66v-3.05c-.26-.44-.68-.67-1.25-.67-.46,0-.83.19-1.1.57-.27.38-.4.95-.4,1.71Z" fill="#cfcfcf"/>
      <path d="M1175.4,947.33c.51-.62,1.16-.92,1.94-.92,1.57,0,2.37.91,2.39,2.74v4.65h-1.94v-4.59c0-.42-.09-.72-.27-.92-.18-.2-.48-.3-.89-.3-.57,0-.98.22-1.23.66v5.15h-1.94v-10.3h1.94v3.83Z" fill="#cfcfcf"/>
      <path d="M1183.51,944.75v1.78h1.24v1.42h-1.24v3.62c0,.27.05.46.15.58s.3.17.59.17c.21,0,.4-.02.57-.05v1.47c-.38.12-.77.17-1.17.17-1.36,0-2.05-.69-2.08-2.06v-3.91h-1.06v-1.42h1.06v-1.78h1.94Z" fill="#cfcfcf"/>
      <path d="M1189.6,950.39h-3.77v-1.56h3.77v1.56Z" fill="#cfcfcf"/>
      <path d="M1193.2,953.79h-1.94v-10.3h1.94v10.3Z" fill="#cfcfcf"/>
      <path d="M1198.13,953.92c-1.06,0-1.93-.33-2.6-.98-.67-.65-1-1.52-1-2.61v-.19c0-.73.14-1.38.42-1.95.28-.57.68-1.02,1.2-1.33.52-.31,1.1-.47,1.77-.47.99,0,1.77.31,2.34.94.57.63.85,1.51.85,2.66v.79h-4.62c.06.47.25.85.57,1.14s.71.43,1.2.43c.75,0,1.33-.27,1.75-.81l.95,1.07c-.29.41-.68.73-1.18.96s-1.05.35-1.65.35ZM1197.91,947.96c-.38,0-.7.13-.94.39-.24.26-.39.63-.46,1.12h2.69v-.16c0-.43-.13-.76-.35-1-.22-.24-.54-.35-.95-.35Z" fill="#cfcfcf"/>
      <path d="M1201.92,950.11c0-1.13.25-2.03.76-2.7.51-.67,1.2-1.01,2.08-1.01.71,0,1.29.26,1.75.79v-3.7h1.94v10.3h-1.75l-.09-.77c-.48.6-1.1.91-1.86.91-.85,0-1.54-.34-2.05-1.01-.52-.67-.77-1.61-.77-2.8ZM1203.85,950.25c0,.68.12,1.2.36,1.56.24.36.58.54,1.03.54.6,0,1.02-.25,1.27-.76v-2.87c-.24-.51-.66-.76-1.25-.76-.93,0-1.4.76-1.4,2.28Z" fill="#cfcfcf"/>
      <path d="M1213.36,944.66c0-.29.1-.53.29-.72.19-.19.46-.28.79-.28s.59.09.79.28.3.43.3.72-.1.54-.3.72c-.2.19-.46.28-.79.28s-.59-.09-.79-.28c-.2-.19-.3-.43-.3-.72ZM1215.42,953.79h-1.94v-7.25h1.94v7.25Z" fill="#cfcfcf"/>
      <path d="M1216.71,950.11c0-1.13.25-2.03.76-2.7.51-.67,1.2-1.01,2.08-1.01.71,0,1.29.26,1.75.79v-3.7h1.94v10.3h-1.75l-.09-.77c-.48.6-1.1.91-1.86.91-.85,0-1.54-.34-2.05-1.01-.52-.67-.77-1.61-.77-2.8ZM1218.65,950.25c0,.68.12,1.2.36,1.56.24.36.58.54,1.03.54.6,0,1.02-.25,1.27-.76v-2.87c-.24-.51-.66-.76-1.25-.76-.93,0-1.4.76-1.4,2.28Z" fill="#cfcfcf"/>
      <path d="M1228.08,953.92c-1.06,0-1.93-.33-2.6-.98-.67-.65-1-1.52-1-2.61v-.19c0-.73.14-1.38.42-1.95.28-.57.68-1.02,1.2-1.33.52-.31,1.1-.47,1.77-.47.99,0,1.77.31,2.34.94.57.63.85,1.51.85,2.66v.79h-4.62c.06.47.25.85.57,1.14s.71.43,1.2.43c.75,0,1.33-.27,1.75-.81l.95,1.07c-.29.41-.68.73-1.18.96s-1.05.35-1.65.35ZM1227.86,947.96c-.38,0-.7.13-.94.39-.24.26-.39.63-.46,1.12h2.69v-.16c0-.43-.13-.76-.35-1-.22-.24-.54-.35-.95-.35Z" fill="#cfcfcf"/>
      <path d="M1236.37,953.79c-.09-.17-.15-.39-.19-.65-.47.52-1.08.79-1.83.79-.71,0-1.3-.21-1.77-.62-.47-.41-.7-.93-.7-1.55,0-.77.28-1.36.85-1.77.57-.41,1.39-.62,2.47-.62h.89v-.42c0-.33-.09-.6-.26-.8-.17-.2-.44-.3-.81-.3-.33,0-.58.08-.77.23-.19.16-.28.37-.28.64h-1.94c0-.42.13-.81.39-1.17.26-.36.63-.64,1.1-.84.47-.2,1.01-.3,1.6-.3.89,0,1.6.22,2.13.67s.79,1.08.79,1.89v3.14c0,.69.1,1.21.29,1.56v.11h-1.96ZM1234.77,952.44c.29,0,.55-.06.79-.19.24-.13.42-.3.54-.51v-1.25h-.72c-.97,0-1.49.33-1.55,1.01v.11c0,.24.08.44.25.6.17.16.4.24.7.24Z" fill="#cfcfcf"/>
      <path d="M1243.46,951.79c0-.24-.12-.42-.35-.56-.23-.14-.61-.26-1.13-.37-1.73-.36-2.59-1.1-2.59-2.2,0-.64.27-1.18.8-1.61.53-.43,1.23-.65,2.09-.65.92,0,1.66.22,2.21.65.55.43.83,1,.83,1.69h-1.94c0-.28-.09-.51-.27-.69-.18-.18-.46-.27-.84-.27-.33,0-.58.07-.76.22-.18.15-.27.34-.27.56,0,.21.1.39.31.52.2.13.55.25,1.03.34.48.1.89.2,1.22.33,1.02.38,1.54,1.03,1.54,1.95,0,.66-.28,1.2-.85,1.61-.57.41-1.3.61-2.2.61-.61,0-1.15-.11-1.62-.33-.47-.22-.84-.51-1.11-.89-.27-.38-.4-.79-.4-1.22h1.84c.02.34.15.61.38.79.24.18.55.27.95.27.37,0,.65-.07.84-.21.19-.14.28-.33.28-.55Z" fill="#cfcfcf"/>
      <path d="M1252.32,944.75v1.78h1.24v1.42h-1.24v3.62c0,.27.05.46.15.58s.3.17.59.17c.21,0,.4-.02.57-.05v1.47c-.38.12-.77.17-1.17.17-1.36,0-2.05-.69-2.08-2.06v-3.91h-1.06v-1.42h1.06v-1.78h1.94Z" fill="#cfcfcf"/>
      <path d="M1256.53,947.33c.51-.62,1.16-.92,1.94-.92,1.57,0,2.37.91,2.39,2.74v4.65h-1.94v-4.59c0-.42-.09-.72-.27-.92-.18-.2-.48-.3-.89-.3-.57,0-.98.22-1.23.66v5.15h-1.94v-10.3h1.94v3.83Z" fill="#cfcfcf"/>
      <path d="M1266.53,953.79c-.09-.17-.15-.39-.19-.65-.47.52-1.08.79-1.83.79-.71,0-1.3-.21-1.77-.62-.47-.41-.7-.93-.7-1.55,0-.77.28-1.36.85-1.77.57-.41,1.39-.62,2.47-.62h.89v-.42c0-.33-.09-.6-.26-.8-.17-.2-.44-.3-.81-.3-.33,0-.58.08-.77.23-.19.16-.28.37-.28.64h-1.94c0-.42.13-.81.39-1.17.26-.36.63-.64,1.1-.84.47-.2,1.01-.3,1.6-.3.89,0,1.6.22,2.13.67s.79,1.08.79,1.89v3.14c0,.69.1,1.21.29,1.56v.11h-1.96ZM1264.93,952.44c.29,0,.55-.06.79-.19.24-.13.42-.3.54-.51v-1.25h-.72c-.97,0-1.49.33-1.55,1.01v.11c0,.24.08.44.25.6.17.16.4.24.7.24Z" fill="#cfcfcf"/>
      <path d="M1272,944.75v1.78h1.24v1.42h-1.24v3.62c0,.27.05.46.15.58s.3.17.59.17c.21,0,.4-.02.57-.05v1.47c-.38.12-.77.17-1.17.17-1.36,0-2.05-.69-2.08-2.06v-3.91h-1.06v-1.42h1.06v-1.78h1.94Z" fill="#cfcfcf"/>
      <path d="M1142.99,966.58c0-1.13.25-2.03.76-2.7.51-.67,1.2-1,2.08-1,.71,0,1.29.26,1.75.79v-3.7h1.94v10.3h-1.75l-.09-.77c-.48.6-1.1.9-1.86.9-.85,0-1.54-.34-2.05-1.01-.52-.67-.77-1.61-.77-2.8ZM1144.92,966.73c0,.68.12,1.2.36,1.56.24.36.58.54,1.03.54.6,0,1.02-.25,1.27-.76v-2.87c-.24-.51-.66-.76-1.25-.76-.93,0-1.4.76-1.4,2.28Z" fill="#cfcfcf"/>
      <path d="M1155.1,964.83c-.26-.04-.5-.05-.7-.05-.73,0-1.21.25-1.44.74v4.75h-1.94v-7.25h1.83l.05.86c.39-.67.93-1,1.62-1,.21,0,.42.03.6.09l-.03,1.86Z" fill="#cfcfcf"/>
      <path d="M1156.02,961.13c0-.29.1-.53.29-.72.19-.19.46-.28.79-.28s.59.09.79.28.3.43.3.72-.1.54-.3.72c-.2.19-.46.28-.79.28s-.59-.09-.79-.28c-.2-.19-.3-.43-.3-.72ZM1158.08,970.26h-1.94v-7.25h1.94v7.25Z" fill="#cfcfcf"/>
      <path d="M1162.39,967.9l1.35-4.89h2.02l-2.45,7.25h-1.85l-2.45-7.25h2.02l1.35,4.89Z" fill="#cfcfcf"/>
      <path d="M1169.86,970.4c-1.06,0-1.93-.33-2.6-.98s-1-1.52-1-2.61v-.19c0-.73.14-1.38.42-1.95.28-.57.68-1.02,1.2-1.33.52-.31,1.1-.47,1.77-.47.99,0,1.77.31,2.34.94.57.62.85,1.51.85,2.66v.79h-4.62c.06.47.25.85.57,1.14s.71.43,1.2.43c.75,0,1.33-.27,1.75-.81l.95,1.07c-.29.41-.68.73-1.18.96-.5.23-1.05.34-1.65.34ZM1169.64,964.44c-.38,0-.7.13-.94.39-.24.26-.39.63-.46,1.12h2.69v-.15c0-.43-.13-.76-.35-1-.22-.24-.54-.35-.95-.35Z" fill="#cfcfcf"/>
      <path d="M1181.44,964.83c-.26-.04-.5-.05-.7-.05-.73,0-1.21.25-1.44.74v4.75h-1.94v-7.25h1.83l.05.86c.39-.67.93-1,1.62-1,.21,0,.42.03.6.09l-.03,1.86Z" fill="#cfcfcf"/>
      <path d="M1185.58,970.4c-1.06,0-1.93-.33-2.6-.98s-1-1.52-1-2.61v-.19c0-.73.14-1.38.42-1.95.28-.57.68-1.02,1.2-1.33.52-.31,1.1-.47,1.77-.47.99,0,1.77.31,2.34.94.57.62.85,1.51.85,2.66v.79h-4.62c.06.47.25.85.57,1.14s.71.43,1.2.43c.75,0,1.33-.27,1.75-.81l.95,1.07c-.29.41-.68.73-1.18.96-.5.23-1.05.34-1.65.34ZM1185.36,964.44c-.38,0-.7.13-.94.39-.24.26-.39.63-.46,1.12h2.69v-.15c0-.43-.13-.76-.35-1-.22-.24-.54-.35-.95-.35Z" fill="#cfcfcf"/>
      <path d="M1193.86,970.26c-.09-.17-.15-.39-.19-.65-.47.52-1.08.78-1.83.78-.71,0-1.3-.21-1.77-.62-.47-.41-.7-.93-.7-1.56,0-.77.28-1.36.85-1.77.57-.41,1.39-.62,2.47-.62h.89v-.42c0-.33-.09-.6-.26-.8-.17-.2-.44-.3-.81-.3-.33,0-.58.08-.77.23-.19.16-.28.37-.28.64h-1.94c0-.42.13-.81.39-1.17.26-.36.63-.64,1.1-.84.47-.2,1.01-.3,1.6-.3.89,0,1.6.22,2.13.67.53.45.79,1.08.79,1.89v3.14c0,.69.1,1.21.29,1.56v.11h-1.96ZM1192.26,968.92c.29,0,.55-.06.79-.19.24-.13.42-.3.54-.51v-1.25h-.72c-.97,0-1.49.33-1.55,1v.11c0,.24.08.44.25.6.17.16.4.23.7.23Z" fill="#cfcfcf"/>
      <path d="M1199.07,970.26h-1.94v-10.3h1.94v10.3Z" fill="#cfcfcf"/>
      <path d="M1204.07,961.13c0-.29.1-.53.29-.72.19-.19.46-.28.79-.28s.59.09.79.28.3.43.3.72-.1.54-.3.72c-.2.19-.46.28-.79.28s-.59-.09-.79-.28c-.2-.19-.3-.43-.3-.72ZM1206.12,970.26h-1.94v-7.25h1.94v7.25Z" fill="#cfcfcf"/>
      <path d="M1209.54,963.01l.06.81c.51-.63,1.21-.95,2.08-.95.93,0,1.58.37,1.92,1.11.51-.74,1.24-1.11,2.18-1.11.79,0,1.37.23,1.76.69.38.46.58,1.15.58,2.07v4.63h-1.94v-4.62c0-.41-.08-.71-.24-.9-.16-.19-.44-.28-.85-.28-.58,0-.98.28-1.21.83v4.98s-1.93,0-1.93,0v-4.62c0-.42-.08-.72-.25-.91-.17-.19-.45-.28-.84-.28-.55,0-.95.23-1.19.68v5.13h-1.94v-7.25h1.82Z" fill="#cfcfcf"/>
      <path d="M1226.13,966.7c0,1.12-.25,2.01-.76,2.68-.51.67-1.19,1.01-2.05,1.01-.73,0-1.32-.25-1.78-.76v3.42h-1.94v-10.04h1.8l.07.71c.47-.56,1.08-.84,1.84-.84.89,0,1.59.33,2.08.99.5.66.74,1.57.74,2.73v.1ZM1224.2,966.56c0-.67-.12-1.2-.36-1.56-.24-.37-.59-.55-1.04-.55-.61,0-1.03.23-1.25.7v2.97c.24.48.66.72,1.27.72.93,0,1.39-.76,1.39-2.27Z" fill="#cfcfcf"/>
      <path d="M1231.54,970.26c-.09-.17-.15-.39-.19-.65-.47.52-1.08.78-1.83.78-.71,0-1.3-.21-1.77-.62-.47-.41-.7-.93-.7-1.56,0-.77.28-1.36.85-1.77.57-.41,1.39-.62,2.47-.62h.89v-.42c0-.33-.09-.6-.26-.8-.17-.2-.44-.3-.81-.3-.33,0-.58.08-.77.23-.19.16-.28.37-.28.64h-1.94c0-.42.13-.81.39-1.17.26-.36.63-.64,1.1-.84.47-.2,1.01-.3,1.6-.3.89,0,1.6.22,2.13.67.53.45.79,1.08.79,1.89v3.14c0,.69.1,1.21.29,1.56v.11h-1.96ZM1229.93,968.92c.29,0,.55-.06.79-.19.24-.13.42-.3.54-.51v-1.25h-.72c-.97,0-1.49.33-1.55,1v.11c0,.24.08.44.25.6.17.16.4.23.7.23Z" fill="#cfcfcf"/>
      <path d="M1237.71,968.84c.36,0,.65-.1.87-.29.22-.2.34-.46.35-.78h1.82c0,.49-.14.94-.4,1.35s-.62.73-1.08.95c-.46.23-.96.34-1.52.34-1.04,0-1.85-.33-2.45-.99-.6-.66-.9-1.57-.9-2.73v-.13c0-1.12.3-2.01.89-2.67.59-.67,1.41-1,2.45-1,.91,0,1.63.26,2.18.77.55.52.83,1.2.83,2.06h-1.82c0-.38-.13-.68-.35-.92-.22-.24-.52-.35-.88-.35-.45,0-.79.17-1.02.49-.23.33-.35.86-.35,1.6v.2c0,.75.11,1.29.34,1.61.23.33.57.49,1.04.49Z" fill="#cfcfcf"/>
      <path d="M1244.17,961.23v1.78h1.24v1.42h-1.24v3.62c0,.27.05.46.15.58s.3.17.59.17c.21,0,.4-.02.57-.05v1.47c-.38.12-.77.17-1.17.17-1.36,0-2.05-.69-2.08-2.06v-3.91h-1.06v-1.42h1.06v-1.78h1.94Z" fill="#cfcfcf"/>
    </g>
    <g>
      <g>
        <path d="M1162.84,857.17c-11.54,0-20.99,9.44-20.99,20.99s9.44,20.99,20.99,20.99,20.99-9.44,20.99-20.99-9.44-20.99-20.99-20.99ZM1162.84,894.94c-9.23,0-16.79-7.55-16.79-16.79s7.55-16.79,16.79-16.79,16.79,7.55,16.79,16.79-7.55,16.79-16.79,16.79Z"/>
        <path d="M1162.84,865.56c-6.93,0-12.59,5.67-12.59,12.59s5.67,12.59,12.59,12.59,12.59-5.67,12.59-12.59-5.67-12.59-12.59-12.59ZM1162.84,886.55c-4.62,0-8.39-3.78-8.39-8.39s3.78-8.39,8.39-8.39,8.39,3.78,8.39,8.39-3.78,8.39-8.39,8.39Z"/>
        <circle cx="1162.84" cy="878.15" r="4.2"/>
      </g>
      <g>
        <path d="M1162.84,857.17c-11.54,0-20.99,9.44-20.99,20.99s9.44,20.99,20.99,20.99,20.99-9.44,20.99-20.99-9.44-20.99-20.99-20.99ZM1162.84,894.94c-9.23,0-16.79-7.55-16.79-16.79s7.55-16.79,16.79-16.79,16.79,7.55,16.79,16.79-7.55,16.79-16.79,16.79Z" fill="url(#radial-gradient-6)"/>
        <path d="M1162.84,865.56c-6.93,0-12.59,5.67-12.59,12.59s5.67,12.59,12.59,12.59,12.59-5.67,12.59-12.59-5.67-12.59-12.59-12.59ZM1162.84,886.55c-4.62,0-8.39-3.78-8.39-8.39s3.78-8.39,8.39-8.39,8.39,3.78,8.39,8.39-3.78,8.39-8.39,8.39Z" fill="url(#radial-gradient-6)"/>
        <circle cx="1162.84" cy="878.15" r="4.2" fill="url(#radial-gradient-6)"/>
      </g>
    </g>
  </g>
  <g>
    <g>
      <rect x="897.72" y="835.45" width="179.06" height="160.12" rx="18.5" ry="18.5" fill="url(#radial-gradient-7)"/>
      <rect x="897.72" y="835.45" width="179.06" height="160.12" rx="18.5" ry="18.5" fill="none" opacity=".7" stroke="#00bbcf" stroke-miterlimit="10"/>
      <rect x="897.72" y="835.45" width="179.06" height="160.12" rx="18.5" ry="18.5" fill="url(#radial-gradient-8)" opacity=".46"/>
    </g>
    <g>
      <path d="M924.18,928.9v-13.01h4.56c1.58,0,2.78.3,3.59.91.82.6,1.22,1.49,1.22,2.66,0,.64-.16,1.2-.49,1.68-.33.49-.78.84-1.37,1.07.67.17,1.19.5,1.58,1.01.38.51.58,1.13.58,1.86,0,1.25-.4,2.2-1.2,2.84-.8.64-1.94.97-3.41.98h-5.06ZM926.87,921.34h1.98c1.35-.02,2.03-.56,2.03-1.62,0-.59-.17-1.01-.51-1.27-.34-.26-.88-.39-1.62-.39h-1.88v3.28ZM926.87,923.24v3.51h2.3c.63,0,1.12-.15,1.48-.45s.53-.72.53-1.25c0-1.19-.62-1.8-1.85-1.81h-2.46Z" fill="#fff"/>
      <path d="M941.13,921.65c-.35-.05-.66-.07-.93-.07-.98,0-1.62.33-1.92.99v6.33h-2.58v-9.67h2.44l.07,1.15c.52-.89,1.24-1.33,2.15-1.33.29,0,.55.04.8.12l-.04,2.48Z" fill="#fff"/>
      <path d="M947.71,928.9c-.12-.23-.21-.52-.26-.87-.63.7-1.44,1.05-2.44,1.05-.95,0-1.73-.27-2.36-.82-.62-.55-.93-1.24-.93-2.07,0-1.02.38-1.81,1.14-2.36.76-.55,1.86-.83,3.29-.83h1.19v-.55c0-.45-.11-.8-.34-1.07-.23-.27-.59-.4-1.09-.4-.44,0-.78.1-1.02.31-.25.21-.37.49-.37.86h-2.58c0-.56.17-1.08.52-1.56.35-.48.83-.85,1.47-1.12.63-.27,1.34-.41,2.13-.41,1.19,0,2.14.3,2.84.9.7.6,1.05,1.44,1.05,2.52v4.19c0,.92.13,1.61.38,2.08v.15h-2.61ZM945.57,927.11c.38,0,.73-.08,1.05-.25.32-.17.56-.4.72-.68v-1.66h-.97c-1.29,0-1.98.45-2.06,1.34v.15c0,.32.1.59.33.8.23.21.54.31.93.31Z" fill="#fff"/>
      <path d="M954.3,919.23l.08,1.12c.69-.86,1.62-1.3,2.78-1.3,1.02,0,1.79.3,2.29.9.5.6.76,1.5.77,2.7v6.25h-2.58v-6.19c0-.55-.12-.95-.36-1.19-.24-.25-.63-.37-1.19-.37-.73,0-1.27.31-1.64.93v6.82h-2.58v-9.67h2.43Z" fill="#fff"/>
      <path d="M961.77,924c0-1.51.34-2.71,1.01-3.6.68-.89,1.6-1.34,2.78-1.34.94,0,1.72.35,2.33,1.05v-4.93h2.59v13.73h-2.33l-.13-1.03c-.64.8-1.47,1.21-2.48,1.21-1.14,0-2.05-.45-2.74-1.35-.69-.9-1.03-2.14-1.03-3.74ZM964.35,924.19c0,.91.16,1.6.47,2.09.32.48.77.72,1.38.72.8,0,1.36-.34,1.69-1.01v-3.82c-.32-.67-.88-1.01-1.67-1.01-1.25,0-1.87,1.01-1.87,3.03Z" fill="#fff"/>
      <path d="M980.06,928.9h-2.68v-13.01h2.68v13.01Z" fill="#fff"/>
      <path d="M981.98,924c0-1.51.34-2.71,1.01-3.6.68-.89,1.6-1.34,2.78-1.34.94,0,1.72.35,2.33,1.05v-4.93h2.59v13.73h-2.33l-.13-1.03c-.64.8-1.47,1.21-2.48,1.21-1.14,0-2.05-.45-2.74-1.35-.69-.9-1.03-2.14-1.03-3.74ZM984.56,924.19c0,.91.16,1.6.47,2.09.32.48.77.72,1.38.72.8,0,1.36-.34,1.69-1.01v-3.82c-.32-.67-.88-1.01-1.67-1.01-1.25,0-1.87,1.01-1.87,3.03Z" fill="#fff"/>
      <path d="M997.14,929.08c-1.42,0-2.57-.44-3.46-1.3-.89-.87-1.34-2.03-1.34-3.48v-.25c0-.97.19-1.84.56-2.61.38-.77.91-1.36,1.6-1.77s1.47-.62,2.36-.62c1.32,0,2.36.42,3.12,1.25.76.83,1.14,2.02,1.14,3.55v1.05h-6.16c.08.63.34,1.14.76,1.52.42.38.95.57,1.6.57.99,0,1.77-.36,2.33-1.08l1.27,1.42c-.39.55-.91.98-1.57,1.28-.66.31-1.39.46-2.2.46ZM996.85,921.14c-.51,0-.93.17-1.25.52-.32.35-.52.84-.61,1.49h3.59v-.21c-.01-.57-.17-1.02-.46-1.33s-.72-.47-1.27-.47Z" fill="#fff"/>
      <path d="M1004.96,919.23l.08,1.12c.69-.86,1.62-1.3,2.78-1.3,1.02,0,1.79.3,2.29.9.5.6.76,1.5.77,2.7v6.25h-2.58v-6.19c0-.55-.12-.95-.36-1.19-.24-.25-.63-.37-1.19-.37-.73,0-1.27.31-1.64.93v6.82h-2.58v-9.67h2.43Z" fill="#fff"/>
      <path d="M1015.93,916.86v2.38h1.65v1.89h-1.65v4.83c0,.36.07.61.21.77.14.15.4.23.79.23.29,0,.54-.02.76-.06v1.96c-.51.15-1.03.23-1.56.23-1.81,0-2.73-.92-2.77-2.74v-5.21h-1.41v-1.89h1.41v-2.38h2.58Z" fill="#fff"/>
      <path d="M1019.01,916.73c0-.39.13-.71.39-.96.26-.25.61-.38,1.06-.38s.79.12,1.05.38c.26.25.39.57.39.96s-.13.72-.4.97-.62.38-1.05.38-.79-.12-1.05-.38c-.27-.25-.4-.57-.4-.97ZM1021.75,928.9h-2.59v-9.67h2.59v9.67Z" fill="#fff"/>
      <path d="M1026.97,916.86v2.38h1.65v1.89h-1.65v4.83c0,.36.07.61.21.77.14.15.4.23.79.23.29,0,.54-.02.76-.06v1.96c-.51.15-1.03.23-1.56.23-1.81,0-2.73-.92-2.77-2.74v-5.21h-1.41v-1.89h1.41v-2.38h2.58Z" fill="#fff"/>
      <path d="M1033.67,925.25l1.79-6.01h2.77l-3.89,11.17-.21.51c-.58,1.26-1.53,1.89-2.86,1.89-.38,0-.76-.06-1.14-.17v-1.96h.39c.49,0,.85-.07,1.09-.21.24-.15.43-.4.57-.74l.3-.8-3.39-9.7h2.78l1.8,6.01Z" fill="#fff"/>
    </g>
    <g clip-path="url(#clippath-1)">
      <rect x="858.05" y="892.92" width="258.41" height="125.34" fill="url(#radial-gradient-9)" opacity=".7"/>
      <path d="M894,995.57c16.27-1.24,32.53-1.89,48.79-2.33,8.13-.28,16.27-.34,24.4-.5l24.4-.17c16.27-.02,32.53.22,48.8.66,16.27.44,32.53,1.09,48.79,2.34-16.27,1.25-32.53,1.9-48.79,2.34-16.27.43-32.53.67-48.8.66l-24.4-.17c-8.13-.16-16.27-.22-24.4-.5-16.27-.44-32.53-1.09-48.79-2.33Z" fill="url(#radial-gradient-10)"/>
      <ellipse cx="950.8" cy="830.71" rx="201.45" ry="92.45" transform="translate(-228.96 380.98) rotate(-20.28)" fill="url(#radial-gradient-11)"/>
    </g>
    <g>
      <rect x="923.02" y="942.05" width="147.66" height="45.12" fill="none"/>
      <path d="M923.97,954.77v-10.57h3.25c.93,0,1.76.21,2.49.63.73.42,1.31,1.01,1.72,1.79.41.77.62,1.65.62,2.63v.49c0,.98-.2,1.86-.61,2.62-.4.76-.97,1.36-1.71,1.78-.74.42-1.57.63-2.49.64h-3.28ZM926.15,945.96v7.06h1.05c.85,0,1.5-.28,1.95-.83.45-.56.68-1.35.69-2.39v-.56c0-1.08-.22-1.89-.67-2.44-.45-.55-1.1-.83-1.95-.83h-1.07Z" fill="#cfcfcf"/>
      <path d="M937.11,954.91c-1.15,0-2.09-.35-2.81-1.06-.72-.71-1.09-1.65-1.09-2.82v-.2c0-.79.15-1.49.46-2.12.31-.62.74-1.1,1.3-1.44.56-.34,1.2-.5,1.91-.5,1.07,0,1.92.34,2.54,1.02s.93,1.64.93,2.88v.86h-5c.07.51.27.92.61,1.23.34.31.77.46,1.3.46.81,0,1.44-.29,1.9-.88l1.03,1.15c-.31.45-.74.79-1.28,1.04-.54.25-1.13.37-1.79.37ZM936.87,948.46c-.42,0-.75.14-1.01.42-.26.28-.42.69-.5,1.21h2.92v-.17c0-.47-.14-.83-.38-1.08-.24-.25-.59-.38-1.03-.38Z" fill="#cfcfcf"/>
      <path d="M945.79,952.6c0-.26-.13-.46-.38-.61s-.66-.28-1.22-.4c-1.87-.39-2.8-1.19-2.8-2.38,0-.7.29-1.28.87-1.75.58-.47,1.33-.7,2.27-.7,1,0,1.79.23,2.39.7s.9,1.08.9,1.83h-2.1c0-.3-.1-.55-.29-.74-.19-.2-.5-.29-.91-.29-.35,0-.63.08-.82.24-.19.16-.29.36-.29.61,0,.23.11.42.33.56.22.14.59.27,1.11.37.52.1.96.22,1.32.35,1.11.41,1.66,1.11,1.66,2.11,0,.72-.31,1.3-.92,1.74-.61.44-1.41.66-2.38.66-.66,0-1.24-.12-1.75-.35-.51-.23-.91-.56-1.2-.97-.29-.41-.44-.85-.44-1.33h1.99c.02.37.16.66.41.86.26.2.6.3,1.03.3.4,0,.71-.08.91-.23.21-.15.31-.35.31-.6Z" fill="#cfcfcf"/>
      <path d="M949.17,944.88c0-.31.11-.57.32-.78.21-.2.5-.3.86-.3s.64.1.86.3c.21.2.32.46.32.78s-.11.58-.32.78c-.22.2-.5.31-.85.31s-.64-.1-.85-.31c-.22-.2-.32-.46-.32-.78ZM951.4,954.77h-2.11v-7.86h2.11v7.86Z" fill="#cfcfcf"/>
      <path d="M952.82,950.78c0-1.21.29-2.18.86-2.91.57-.74,1.35-1.1,2.32-1.1.86,0,1.53.29,2.01.89l.09-.74h1.9v7.6c0,.69-.16,1.29-.47,1.79-.31.51-.75.9-1.32,1.16-.57.27-1.23.4-1.99.4-.58,0-1.14-.12-1.68-.34-.55-.23-.96-.53-1.24-.89l.93-1.28c.52.59,1.16.88,1.9.88.56,0,.99-.15,1.3-.45.31-.3.46-.72.46-1.27v-.42c-.48.55-1.12.82-1.91.82-.94,0-1.71-.37-2.29-1.11s-.88-1.72-.88-2.94v-.09ZM954.92,950.94c0,.71.14,1.27.43,1.68.29.41.68.61,1.18.61.64,0,1.1-.24,1.37-.72v-3.31c-.28-.48-.73-.72-1.36-.72-.5,0-.9.21-1.19.62-.29.41-.43,1.03-.43,1.85Z" fill="#cfcfcf"/>
      <path d="M963.54,946.91l.07.91c.56-.7,1.31-1.05,2.26-1.05.83,0,1.45.24,1.86.73.41.49.61,1.22.62,2.19v5.08h-2.1v-5.03c0-.45-.1-.77-.29-.97-.19-.2-.52-.3-.97-.3-.59,0-1.03.25-1.33.75v5.54h-2.1v-7.86h1.98Z" fill="#cfcfcf"/>
      <path d="M977.9,952.6c0-.26-.13-.46-.38-.61s-.66-.28-1.22-.4c-1.87-.39-2.8-1.19-2.8-2.38,0-.7.29-1.28.87-1.75.58-.47,1.33-.7,2.27-.7,1,0,1.79.23,2.39.7s.9,1.08.9,1.83h-2.1c0-.3-.1-.55-.29-.74-.19-.2-.5-.29-.91-.29-.35,0-.63.08-.82.24-.19.16-.29.36-.29.61,0,.23.11.42.33.56.22.14.59.27,1.11.37.52.1.96.22,1.32.35,1.11.41,1.66,1.11,1.66,2.11,0,.72-.31,1.3-.92,1.74-.61.44-1.41.66-2.38.66-.66,0-1.24-.12-1.75-.35-.51-.23-.91-.56-1.2-.97-.29-.41-.44-.85-.44-1.33h1.99c.02.37.16.66.41.86.26.2.6.3,1.03.3.4,0,.71-.08.91-.23.21-.15.31-.35.31-.6Z" fill="#cfcfcf"/>
      <path d="M984.23,951.8l1.45-4.89h2.25l-3.16,9.08-.17.41c-.47,1.03-1.24,1.54-2.32,1.54-.3,0-.61-.05-.93-.14v-1.59h.32c.4,0,.69-.05.89-.17.2-.12.35-.32.46-.6l.25-.65-2.75-7.88h2.26l1.46,4.89Z" fill="#cfcfcf"/>
      <path d="M993.01,952.6c0-.26-.13-.46-.38-.61s-.66-.28-1.22-.4c-1.87-.39-2.8-1.19-2.8-2.38,0-.7.29-1.28.87-1.75.58-.47,1.33-.7,2.27-.7,1,0,1.79.23,2.39.7s.9,1.08.9,1.83h-2.1c0-.3-.1-.55-.29-.74-.19-.2-.5-.29-.91-.29-.35,0-.63.08-.82.24-.19.16-.29.36-.29.61,0,.23.11.42.33.56.22.14.59.27,1.11.37.52.1.96.22,1.32.35,1.11.41,1.66,1.11,1.66,2.11,0,.72-.31,1.3-.92,1.74-.61.44-1.41.66-2.38.66-.66,0-1.24-.12-1.75-.35-.51-.23-.91-.56-1.2-.97-.29-.41-.44-.85-.44-1.33h1.99c.02.37.16.66.41.86.26.2.6.3,1.03.3.4,0,.71-.08.91-.23.21-.15.31-.35.31-.6Z" fill="#cfcfcf"/>
      <path d="M998.92,944.98v1.93h1.34v1.54h-1.34v3.92c0,.29.06.5.17.62.11.13.32.19.64.19.23,0,.44-.02.62-.05v1.59c-.41.12-.84.19-1.27.19-1.47,0-2.22-.74-2.25-2.23v-4.23h-1.15v-1.54h1.15v-1.93h2.1Z" fill="#cfcfcf"/>
      <path d="M1005.05,954.91c-1.15,0-2.09-.35-2.81-1.06-.72-.71-1.09-1.65-1.09-2.82v-.2c0-.79.15-1.49.46-2.12.31-.62.74-1.1,1.3-1.44.56-.34,1.2-.5,1.91-.5,1.07,0,1.92.34,2.54,1.02s.93,1.64.93,2.88v.86h-5c.07.51.27.92.61,1.23.34.31.77.46,1.3.46.81,0,1.44-.29,1.9-.88l1.03,1.15c-.31.45-.74.79-1.28,1.04-.54.25-1.13.37-1.79.37ZM1004.81,948.46c-.42,0-.75.14-1.01.42-.26.28-.42.69-.5,1.21h2.92v-.17c0-.47-.14-.83-.38-1.08-.24-.25-.59-.38-1.03-.38Z" fill="#cfcfcf"/>
      <path d="M1011.44,946.91l.07.88c.56-.68,1.31-1.02,2.26-1.02,1.01,0,1.71.4,2.08,1.2.55-.8,1.34-1.2,2.36-1.2.85,0,1.49.25,1.9.74.42.5.62,1.24.62,2.24v5.02h-2.11v-5.01c0-.45-.09-.77-.26-.98s-.48-.31-.92-.31c-.63,0-1.07.3-1.31.9v5.4s-2.09,0-2.09,0v-5c0-.46-.09-.78-.27-.99-.18-.2-.48-.3-.92-.3-.6,0-1.03.25-1.29.74v5.55h-2.1v-7.86h1.97Z" fill="#cfcfcf"/>
      <path d="M1026.6,952.6c0-.26-.13-.46-.38-.61s-.66-.28-1.22-.4c-1.87-.39-2.8-1.19-2.8-2.38,0-.7.29-1.28.87-1.75.58-.47,1.33-.7,2.27-.7,1,0,1.79.23,2.39.7s.9,1.08.9,1.83h-2.1c0-.3-.1-.55-.29-.74-.19-.2-.5-.29-.91-.29-.35,0-.63.08-.82.24-.19.16-.29.36-.29.61,0,.23.11.42.33.56.22.14.59.27,1.11.37.52.1.96.22,1.32.35,1.11.41,1.66,1.11,1.66,2.11,0,.72-.31,1.3-.92,1.74-.61.44-1.41.66-2.38.66-.66,0-1.24-.12-1.75-.35-.51-.23-.91-.56-1.2-.97-.29-.41-.44-.85-.44-1.33h1.99c.02.37.16.66.41.86.26.2.6.3,1.03.3.4,0,.71-.08.91-.23.21-.15.31-.35.31-.6Z" fill="#cfcfcf"/>
      <path d="M1036.21,944.98v1.93h1.34v1.54h-1.34v3.92c0,.29.06.5.17.62.11.13.32.19.64.19.23,0,.44-.02.62-.05v1.59c-.41.12-.84.19-1.27.19-1.47,0-2.22-.74-2.25-2.23v-4.23h-1.15v-1.54h1.15v-1.93h2.1Z" fill="#cfcfcf"/>
      <path d="M1040.77,947.77c.56-.67,1.26-1,2.1-1,1.7,0,2.57.99,2.59,2.97v5.03h-2.1v-4.97c0-.45-.1-.78-.29-1-.19-.22-.52-.32-.97-.32-.61,0-1.06.24-1.34.71v5.58h-2.1v-11.15h2.1v4.15Z" fill="#cfcfcf"/>
      <path d="M1051.59,954.77c-.1-.19-.17-.42-.21-.7-.51.57-1.17.85-1.98.85-.77,0-1.41-.22-1.91-.67-.51-.45-.76-1.01-.76-1.68,0-.83.31-1.47.93-1.92.62-.45,1.51-.67,2.68-.67h.97v-.45c0-.36-.09-.65-.28-.87-.19-.22-.48-.33-.88-.33-.35,0-.63.08-.83.25-.2.17-.3.4-.3.7h-2.1c0-.46.14-.88.42-1.26.28-.39.68-.69,1.19-.91.51-.22,1.09-.33,1.73-.33.97,0,1.74.24,2.31.73s.85,1.17.85,2.05v3.41c0,.75.11,1.31.31,1.69v.12h-2.12ZM1049.86,953.31c.31,0,.6-.07.86-.21.26-.14.45-.32.58-.56v-1.35h-.78c-1.05,0-1.61.36-1.68,1.09v.12c0,.26.08.48.27.65.18.17.44.25.76.25Z" fill="#cfcfcf"/>
      <path d="M1057.53,944.98v1.93h1.34v1.54h-1.34v3.92c0,.29.06.5.17.62.11.13.32.19.64.19.23,0,.44-.02.62-.05v1.59c-.41.12-.84.19-1.27.19-1.47,0-2.22-.74-2.25-2.23v-4.23h-1.15v-1.54h1.15v-1.93h2.1Z" fill="#cfcfcf"/>
      <path d="M923.5,968.63c0-1.23.27-2.2.82-2.93.55-.73,1.3-1.09,2.25-1.09.76,0,1.4.29,1.9.86v-4.01h2.11v11.15h-1.9l-.1-.83c-.52.65-1.2.98-2.02.98-.92,0-1.67-.36-2.23-1.09-.56-.73-.84-1.74-.84-3.04ZM925.6,968.78c0,.74.13,1.3.38,1.69.26.39.63.59,1.12.59.65,0,1.11-.27,1.37-.82v-3.11c-.26-.55-.71-.82-1.36-.82-1.01,0-1.52.82-1.52,2.47Z" fill="#cfcfcf"/>
      <path d="M935.83,972.76c-1.15,0-2.09-.35-2.81-1.06-.72-.71-1.09-1.65-1.09-2.83v-.2c0-.79.15-1.49.46-2.12.31-.62.74-1.1,1.3-1.44.56-.34,1.2-.5,1.91-.5,1.07,0,1.92.34,2.54,1.02.62.68.93,1.64.93,2.88v.86h-5c.07.51.27.92.61,1.23s.77.46,1.3.46c.81,0,1.44-.29,1.9-.88l1.03,1.16c-.31.45-.74.79-1.28,1.04-.54.25-1.13.37-1.79.37ZM935.59,966.3c-.42,0-.75.14-1.01.42-.26.28-.42.69-.5,1.21h2.92v-.17c0-.47-.14-.83-.38-1.08-.24-.25-.59-.38-1.03-.38Z" fill="#cfcfcf"/>
      <path d="M940.76,972.61v-6.32h-1.17v-1.54h1.17v-.36c0-.99.31-1.75.91-2.28.6-.54,1.44-.8,2.53-.8.65,0,1.45.14,2.38.43l-.3,1.74c-.47-.14-.84-.23-1.1-.27-.26-.04-.54-.06-.84-.06-.98,0-1.47.43-1.47,1.3v.32h1.55v1.54h-1.55v6.32h-2.11ZM947.56,972.61h-2.11v-7.86h2.11v7.86Z" fill="#cfcfcf"/>
      <path d="M951.23,964.76l.07.91c.56-.7,1.31-1.05,2.26-1.05.83,0,1.45.25,1.86.73.41.49.61,1.22.62,2.19v5.08h-2.1v-5.03c0-.45-.1-.77-.29-.97-.19-.2-.52-.3-.97-.3-.59,0-1.03.25-1.33.75v5.54h-2.1v-7.86h1.98Z" fill="#cfcfcf"/>
      <path d="M961.24,972.76c-1.15,0-2.09-.35-2.81-1.06-.72-.71-1.09-1.65-1.09-2.83v-.2c0-.79.15-1.49.46-2.12.31-.62.74-1.1,1.3-1.44.56-.34,1.2-.5,1.91-.5,1.07,0,1.92.34,2.54,1.02.62.68.93,1.64.93,2.88v.86h-5c.07.51.27.92.61,1.23s.77.46,1.3.46c.81,0,1.44-.29,1.9-.88l1.03,1.16c-.31.45-.74.79-1.28,1.04-.54.25-1.13.37-1.79.37ZM961,966.3c-.42,0-.75.14-1.01.42-.26.28-.42.69-.5,1.21h2.92v-.17c0-.47-.14-.83-.38-1.08-.24-.25-.59-.38-1.03-.38Z" fill="#cfcfcf"/>
      <path d="M973.92,972.61c-.1-.19-.17-.42-.21-.7-.51.57-1.17.85-1.98.85-.77,0-1.41-.22-1.91-.67-.51-.45-.76-1.01-.76-1.69,0-.83.31-1.47.93-1.92.62-.45,1.51-.67,2.68-.67h.97v-.45c0-.36-.09-.65-.28-.87-.19-.22-.48-.33-.88-.33-.35,0-.63.08-.83.25s-.3.4-.3.7h-2.1c0-.46.14-.88.42-1.26s.68-.69,1.19-.91c.51-.22,1.09-.33,1.73-.33.97,0,1.74.24,2.31.73.57.49.85,1.17.85,2.05v3.41c0,.75.11,1.31.31,1.69v.12h-2.12ZM972.19,971.16c.31,0,.6-.07.86-.21.26-.14.45-.32.58-.55v-1.35h-.78c-1.05,0-1.61.36-1.68,1.09v.12c0,.26.08.48.27.65.18.17.44.25.76.25Z" fill="#cfcfcf"/>
      <path d="M979.27,964.76l.07.91c.56-.7,1.31-1.05,2.26-1.05.83,0,1.45.25,1.86.73.41.49.61,1.22.62,2.19v5.08h-2.1v-5.03c0-.45-.1-.77-.29-.97-.19-.2-.52-.3-.97-.3-.59,0-1.03.25-1.33.75v5.54h-2.1v-7.86h1.98Z" fill="#cfcfcf"/>
      <path d="M985.34,968.63c0-1.23.27-2.2.82-2.93.55-.73,1.3-1.09,2.25-1.09.76,0,1.4.29,1.9.86v-4.01h2.11v11.15h-1.9l-.1-.83c-.52.65-1.2.98-2.02.98-.92,0-1.67-.36-2.23-1.09-.56-.73-.84-1.74-.84-3.04ZM987.44,968.78c0,.74.13,1.3.38,1.69.26.39.63.59,1.12.59.65,0,1.11-.27,1.37-.82v-3.11c-.26-.55-.71-.82-1.36-.82-1.01,0-1.52.82-1.52,2.47Z" fill="#cfcfcf"/>
      <path d="M1001.37,972.76c-1.15,0-2.09-.35-2.81-1.06-.72-.71-1.09-1.65-1.09-2.83v-.2c0-.79.15-1.49.46-2.12.31-.62.74-1.1,1.3-1.44.56-.34,1.2-.5,1.91-.5,1.07,0,1.92.34,2.54,1.02.62.68.93,1.64.93,2.88v.86h-5c.07.51.27.92.61,1.23s.77.46,1.3.46c.81,0,1.44-.29,1.9-.88l1.03,1.16c-.31.45-.74.79-1.28,1.04-.54.25-1.13.37-1.79.37ZM1001.13,966.3c-.42,0-.75.14-1.01.42-.26.28-.42.69-.5,1.21h2.92v-.17c0-.47-.14-.83-.38-1.08-.24-.25-.59-.38-1.03-.38Z" fill="#cfcfcf"/>
      <path d="M1008.01,972.61h-2.11v-11.15h2.11v11.15Z" fill="#cfcfcf"/>
      <path d="M1013.35,972.76c-1.15,0-2.09-.35-2.81-1.06-.72-.71-1.09-1.65-1.09-2.83v-.2c0-.79.15-1.49.46-2.12.31-.62.74-1.1,1.3-1.44.56-.34,1.2-.5,1.91-.5,1.07,0,1.92.34,2.54,1.02.62.68.93,1.64.93,2.88v.86h-5c.07.51.27.92.61,1.23s.77.46,1.3.46c.81,0,1.44-.29,1.9-.88l1.03,1.16c-.31.45-.74.79-1.28,1.04-.54.25-1.13.37-1.79.37ZM1013.11,966.3c-.42,0-.75.14-1.01.42-.26.28-.42.69-.5,1.21h2.92v-.17c0-.47-.14-.83-.38-1.08-.24-.25-.59-.38-1.03-.38Z" fill="#cfcfcf"/>
      <path d="M1020.62,970.05l1.46-5.29h2.19l-2.65,7.86h-2l-2.65-7.86h2.19l1.46,5.29Z" fill="#cfcfcf"/>
      <path d="M1029.64,972.61c-.1-.19-.17-.42-.21-.7-.51.57-1.17.85-1.98.85-.77,0-1.41-.22-1.91-.67-.51-.45-.76-1.01-.76-1.69,0-.83.31-1.47.93-1.92.62-.45,1.51-.67,2.68-.67h.97v-.45c0-.36-.09-.65-.28-.87-.19-.22-.48-.33-.88-.33-.35,0-.63.08-.83.25s-.3.4-.3.7h-2.1c0-.46.14-.88.42-1.26s.68-.69,1.19-.91c.51-.22,1.09-.33,1.73-.33.97,0,1.74.24,2.31.73.57.49.85,1.17.85,2.05v3.41c0,.75.11,1.31.31,1.69v.12h-2.12ZM1027.91,971.16c.31,0,.6-.07.86-.21.26-.14.45-.32.58-.55v-1.35h-.78c-1.05,0-1.61.36-1.68,1.09v.12c0,.26.08.48.27.65.18.17.44.25.76.25Z" fill="#cfcfcf"/>
      <path d="M1035.58,962.83v1.93h1.34v1.54h-1.34v3.92c0,.29.06.5.17.62.11.13.32.19.64.19.23,0,.44-.02.62-.05v1.59c-.41.13-.84.19-1.27.19-1.47,0-2.22-.74-2.25-2.23v-4.23h-1.15v-1.54h1.15v-1.93h2.1Z" fill="#cfcfcf"/>
      <path d="M1041.7,972.76c-1.15,0-2.09-.35-2.81-1.06-.72-.71-1.09-1.65-1.09-2.83v-.2c0-.79.15-1.49.46-2.12.31-.62.74-1.1,1.3-1.44.56-.34,1.2-.5,1.91-.5,1.07,0,1.92.34,2.54,1.02.62.68.93,1.64.93,2.88v.86h-5c.07.51.27.92.61,1.23s.77.46,1.3.46c.81,0,1.44-.29,1.9-.88l1.03,1.16c-.31.45-.74.79-1.28,1.04-.54.25-1.13.37-1.79.37ZM1041.46,966.3c-.42,0-.75.14-1.01.42-.26.28-.42.69-.5,1.21h2.92v-.17c0-.47-.14-.83-.38-1.08-.24-.25-.59-.38-1.03-.38Z" fill="#cfcfcf"/>
    </g>
    <path d="M956.95,857.38h-10.39c-.89,0-1.77.34-2.45,1.01l-20.77,20.77c-1.35,1.35-1.35,3.54,0,4.9l13.85,13.85c1.35,1.35,3.54,1.35,4.9,0,.68-.68,20.1-20.1,20.77-20.77.68-.68,1.01-1.56,1.01-2.45v-10.39c0-3.82-3.1-6.92-6.92-6.92ZM956.95,867.77c-1.91,0-3.46-1.55-3.46-3.46s1.55-3.46,3.46-3.46,3.46,1.55,3.46,3.46-1.55,3.46-3.46,3.46Z" fill="url(#radial-gradient-12)"/>
  </g>
  <g>
    <g>
      <rect x="653.78" y="813.61" width="203.48" height="181.95" rx="21.02" ry="21.02" fill="url(#radial-gradient-13)"/>
      <rect x="653.78" y="813.61" width="203.48" height="181.95" rx="21.02" ry="21.02" fill="none" opacity=".7" stroke="#00bbcf" stroke-miterlimit="10"/>
      <rect x="653.78" y="813.61" width="203.48" height="181.95" rx="21.02" ry="21.02" fill="url(#radial-gradient-14)" opacity=".46"/>
    </g>
    <g>
      <path d="M688.47,916.6l2.93-9.73h2.97l-4.51,12.94h-2.78l-4.49-12.94h2.96l2.91,9.73Z" fill="#fff"/>
      <path d="M695.4,907.71c0-.39.13-.7.39-.95.26-.25.61-.37,1.05-.37s.79.12,1.05.37c.26.25.39.57.39.95s-.13.71-.4.96c-.26.25-.61.37-1.04.37s-.78-.12-1.04-.37c-.26-.25-.4-.57-.4-.96ZM698.13,919.81h-2.58v-9.62h2.58v9.62Z" fill="#fff"/>
      <path d="M699.85,914.93c0-1.5.34-2.69,1.01-3.58.67-.89,1.59-1.33,2.76-1.33.94,0,1.71.35,2.32,1.05v-4.91h2.58v13.65h-2.32l-.12-1.02c-.64.8-1.46,1.2-2.47,1.2-1.13,0-2.04-.45-2.72-1.34-.68-.89-1.03-2.13-1.03-3.72ZM702.41,915.12c0,.9.16,1.59.47,2.07.31.48.77.72,1.37.72.79,0,1.35-.33,1.68-1.01v-3.8c-.32-.67-.87-1.01-1.66-1.01-1.24,0-1.86,1.01-1.86,3.02Z" fill="#fff"/>
      <path d="M714.93,919.99c-1.41,0-2.56-.43-3.44-1.3-.89-.87-1.33-2.02-1.33-3.46v-.25c0-.97.19-1.83.56-2.59.37-.76.9-1.35,1.59-1.76.68-.41,1.46-.62,2.34-.62,1.32,0,2.35.42,3.11,1.24s1.13,2,1.13,3.53v1.05h-6.12c.08.63.33,1.13.75,1.51.42.38.95.57,1.59.57.99,0,1.76-.36,2.32-1.08l1.26,1.41c-.39.54-.91.97-1.56,1.28-.66.3-1.39.46-2.19.46ZM714.63,912.09c-.51,0-.92.17-1.24.52-.32.35-.52.84-.61,1.48h3.57v-.21c-.01-.57-.17-1.01-.46-1.33-.3-.31-.72-.47-1.26-.47Z" fill="#fff"/>
      <path d="M719.94,914.91c0-.95.18-1.8.55-2.55.37-.75.9-1.32,1.59-1.73.69-.41,1.49-.61,2.4-.61,1.3,0,2.36.4,3.18,1.19.82.79,1.28,1.87,1.37,3.24l.02.66c0,1.48-.41,2.66-1.24,3.55-.82.89-1.93,1.34-3.31,1.34s-2.49-.44-3.32-1.33c-.83-.89-1.24-2.1-1.24-3.63v-.12ZM722.51,915.1c0,.91.17,1.61.52,2.1.34.48.84.73,1.48.73s1.11-.24,1.46-.72c.35-.48.52-1.24.52-2.29,0-.9-.17-1.59-.52-2.08-.35-.49-.84-.74-1.48-.74s-1.11.25-1.46.73c-.34.49-.52,1.25-.52,2.27Z" fill="#fff"/>
      <path d="M738,915.25v4.56h-2.67v-12.94h5.05c.97,0,1.83.18,2.56.53s1.3.86,1.7,1.52c.4.65.6,1.4.6,2.24,0,1.27-.43,2.27-1.3,3-.87.73-2.07,1.1-3.6,1.1h-2.34ZM738,913.09h2.38c.7,0,1.24-.17,1.61-.5.37-.33.56-.81.56-1.42s-.19-1.15-.56-1.54c-.37-.39-.89-.59-1.55-.6h-2.44v4.06Z" fill="#fff"/>
      <path d="M752.31,912.6c-.35-.05-.66-.07-.92-.07-.97,0-1.61.33-1.91.99v6.29h-2.57v-9.62h2.43l.07,1.15c.52-.88,1.23-1.32,2.14-1.32.28,0,.55.04.8.12l-.04,2.47Z" fill="#fff"/>
      <path d="M752.82,914.91c0-.95.18-1.8.55-2.55.37-.75.9-1.32,1.59-1.73.69-.41,1.49-.61,2.4-.61,1.3,0,2.36.4,3.18,1.19.82.79,1.28,1.87,1.37,3.24l.02.66c0,1.48-.41,2.66-1.24,3.55-.82.89-1.93,1.34-3.31,1.34s-2.49-.44-3.32-1.33c-.83-.89-1.24-2.1-1.24-3.63v-.12ZM755.39,915.1c0,.91.17,1.61.52,2.1.34.48.84.73,1.48.73s1.11-.24,1.46-.72c.35-.48.52-1.24.52-2.29,0-.9-.17-1.59-.52-2.08-.35-.49-.84-.74-1.48-.74s-1.11.25-1.46.73c-.34.49-.52,1.25-.52,2.27Z" fill="#fff"/>
      <path d="M763.11,914.93c0-1.5.34-2.69,1.01-3.58.67-.89,1.59-1.33,2.76-1.33.94,0,1.71.35,2.32,1.05v-4.91h2.58v13.65h-2.32l-.12-1.02c-.64.8-1.46,1.2-2.47,1.2-1.13,0-2.04-.45-2.72-1.34-.68-.89-1.03-2.13-1.03-3.72ZM765.68,915.12c0,.9.16,1.59.47,2.07.31.48.77.72,1.37.72.79,0,1.35-.33,1.68-1.01v-3.8c-.32-.67-.87-1.01-1.66-1.01-1.24,0-1.86,1.01-1.86,3.02Z" fill="#fff"/>
      <path d="M779.53,918.83c-.63.77-1.51,1.16-2.63,1.16-1.03,0-1.82-.3-2.36-.89-.54-.59-.82-1.46-.83-2.6v-6.3h2.57v6.22c0,1,.46,1.5,1.37,1.5s1.47-.3,1.8-.91v-6.82h2.58v9.62h-2.42l-.07-.98Z" fill="#fff"/>
      <path d="M787.95,917.92c.47,0,.86-.13,1.16-.39.3-.26.45-.61.46-1.04h2.41c0,.65-.18,1.25-.53,1.79-.35.54-.83.96-1.44,1.26-.61.3-1.28.45-2.01.45-1.37,0-2.46-.44-3.25-1.31-.79-.87-1.19-2.08-1.19-3.62v-.17c0-1.48.39-2.66,1.18-3.55.79-.88,1.87-1.32,3.24-1.32,1.2,0,2.17.34,2.89,1.03.73.68,1.09,1.59,1.11,2.73h-2.41c-.01-.5-.17-.91-.46-1.22-.3-.31-.69-.47-1.17-.47-.6,0-1.05.22-1.36.65-.31.44-.46,1.14-.46,2.12v.27c0,.99.15,1.7.45,2.14.3.43.76.65,1.38.65Z" fill="#fff"/>
      <path d="M796.52,907.83v2.36h1.64v1.88h-1.64v4.8c0,.36.07.61.2.76.14.15.4.23.78.23.28,0,.54-.02.76-.06v1.95c-.5.15-1.02.23-1.56.23-1.8,0-2.72-.91-2.76-2.73v-5.18h-1.4v-1.88h1.4v-2.36h2.57Z" fill="#fff"/>
      <path d="M799.57,907.71c0-.39.13-.7.39-.95.26-.25.61-.37,1.05-.37s.79.12,1.05.37c.26.25.39.57.39.95s-.13.71-.4.96c-.26.25-.61.37-1.04.37s-.78-.12-1.04-.37c-.26-.25-.4-.57-.4-.96ZM802.3,919.81h-2.58v-9.62h2.58v9.62Z" fill="#fff"/>
      <path d="M804.02,914.91c0-.95.18-1.8.55-2.55.37-.75.9-1.32,1.59-1.73.69-.41,1.49-.61,2.4-.61,1.3,0,2.36.4,3.18,1.19.82.79,1.28,1.87,1.37,3.24l.02.66c0,1.48-.41,2.66-1.24,3.55-.82.89-1.93,1.34-3.31,1.34s-2.49-.44-3.32-1.33c-.83-.89-1.24-2.1-1.24-3.63v-.12ZM806.59,915.1c0,.91.17,1.61.52,2.1.34.48.84.73,1.48.73s1.11-.24,1.46-.72c.35-.48.52-1.24.52-2.29,0-.9-.17-1.59-.52-2.08-.35-.49-.84-.74-1.48-.74s-1.11.25-1.46.73c-.34.49-.52,1.25-.52,2.27Z" fill="#fff"/>
      <path d="M817.07,910.2l.08,1.11c.69-.86,1.61-1.29,2.76-1.29,1.02,0,1.78.3,2.28.9.5.6.75,1.49.76,2.68v6.21h-2.57v-6.15c0-.54-.12-.94-.36-1.19-.24-.25-.63-.37-1.18-.37-.72,0-1.26.31-1.63.92v6.78h-2.57v-9.62h2.42Z" fill="#fff"/>
    </g>
    <g clip-path="url(#clippath-2)">
      <rect x="608.7" y="878.92" width="293.65" height="142.43" fill="url(#radial-gradient-15)" opacity=".7"/>
      <path d="M649.55,995.57c18.48-1.24,36.97-1.89,55.45-2.33,9.24-.28,18.48-.34,27.72-.5l27.72-.17c18.48-.02,36.97.22,55.45.66,18.48.44,36.97,1.09,55.45,2.34-18.48,1.25-36.97,1.9-55.45,2.34-18.48.43-36.97.67-55.45.66l-27.72-.17c-9.24-.16-18.48-.22-27.72-.5-18.48-.44-36.97-1.09-55.45-2.33Z" fill="url(#radial-gradient-16)"/>
      <ellipse cx="714.1" cy="808.23" rx="228.92" ry="105.06" transform="translate(-235.84 297.56) rotate(-20.28)" fill="url(#radial-gradient-17)"/>
    </g>
    <g>
      <rect x="682.53" y="934.75" width="144.34" height="34.47" fill="none"/>
      <path d="M690.88,945.87h-1.9v-3.96h-3.71v3.96h-1.9v-9.24h1.9v3.75h3.71v-3.75h1.9v9.24Z" fill="#cfcfcf"/>
      <path d="M692.41,937.22c0-.28.09-.5.28-.68.18-.18.43-.27.75-.27s.56.09.75.27c.19.18.28.4.28.68s-.09.51-.28.69c-.19.18-.44.27-.75.27s-.56-.09-.75-.27c-.19-.18-.28-.41-.28-.69ZM694.36,945.87h-1.84v-6.87h1.84v6.87Z" fill="#cfcfcf"/>
      <path d="M695.6,942.38c0-1.05.25-1.9.75-2.54.5-.64,1.18-.96,2.03-.96.75,0,1.34.26,1.76.77l.08-.65h1.66v6.64c0,.6-.14,1.12-.41,1.57s-.66.78-1.15,1.02c-.5.23-1.07.35-1.74.35-.5,0-.99-.1-1.47-.3-.48-.2-.84-.46-1.09-.78l.81-1.12c.46.51,1.01.77,1.66.77.49,0,.87-.13,1.14-.39.27-.26.41-.63.41-1.11v-.37c-.42.48-.98.72-1.67.72-.83,0-1.49-.32-2-.97-.51-.64-.76-1.5-.76-2.57v-.08ZM697.44,942.52c0,.62.12,1.11.37,1.47.25.35.59.53,1.03.53.56,0,.96-.21,1.2-.63v-2.89c-.25-.42-.64-.63-1.19-.63-.44,0-.79.18-1.04.54-.25.36-.38.9-.38,1.61Z" fill="#cfcfcf"/>
      <path d="M705.08,939.75c.49-.58,1.1-.88,1.83-.88,1.49,0,2.24.87,2.27,2.6v4.4h-1.83v-4.35c0-.39-.08-.68-.25-.87-.17-.19-.45-.28-.84-.28-.54,0-.93.21-1.17.62v4.88h-1.83v-9.75h1.83v3.63Z" fill="#cfcfcf"/>
      <path d="M714.13,942.65h-3.57v-1.48h3.57v1.48Z" fill="#cfcfcf"/>
      <path d="M718.77,946c-1.01,0-1.83-.31-2.46-.93-.63-.62-.95-1.44-.95-2.47v-.18c0-.69.13-1.31.4-1.85.27-.54.64-.96,1.13-1.26.49-.29,1.05-.44,1.67-.44.94,0,1.68.3,2.22.89.54.59.81,1.43.81,2.52v.75h-4.37c.06.45.24.81.54,1.08.3.27.68.41,1.13.41.71,0,1.26-.26,1.66-.77l.9,1.01c-.28.39-.65.69-1.12.91-.47.22-.99.33-1.56.33ZM718.56,940.35c-.36,0-.66.12-.89.37-.23.25-.37.6-.43,1.06h2.55v-.15c0-.41-.12-.72-.33-.95-.21-.22-.51-.33-.9-.33Z" fill="#cfcfcf"/>
      <path d="M724.32,939l.06.79c.49-.61,1.15-.92,1.97-.92.73,0,1.27.21,1.63.64s.54,1.07.55,1.92v4.44h-1.83v-4.39c0-.39-.08-.67-.25-.85-.17-.18-.45-.26-.84-.26-.52,0-.9.22-1.16.66v4.84h-1.83v-6.87h1.73Z" fill="#cfcfcf"/>
      <path d="M729.63,942.38c0-1.07.24-1.92.72-2.56.48-.63,1.14-.95,1.97-.95.67,0,1.22.25,1.66.75v-3.5h1.84v9.75h-1.66l-.09-.73c-.46.57-1.05.86-1.76.86-.81,0-1.46-.32-1.95-.96-.49-.64-.73-1.52-.73-2.66ZM731.46,942.52c0,.64.11,1.14.34,1.48.22.34.55.51.98.51.57,0,.97-.24,1.2-.72v-2.71c-.23-.48-.62-.72-1.19-.72-.88,0-1.33.72-1.33,2.16Z" fill="#cfcfcf"/>
      <path d="M746.66,942.5c0,1.06-.24,1.91-.72,2.54-.48.64-1.13.96-1.95.96-.69,0-1.25-.24-1.68-.72v3.24h-1.83v-9.51h1.7l.06.67c.44-.53,1.02-.8,1.74-.8.85,0,1.5.31,1.97.94.47.63.7,1.49.7,2.59v.09ZM744.83,942.37c0-.64-.11-1.13-.34-1.48-.23-.35-.56-.52-.99-.52-.58,0-.97.22-1.19.66v2.81c.22.45.62.68,1.2.68.88,0,1.31-.72,1.31-2.15Z" fill="#cfcfcf"/>
      <path d="M751.66,940.72c-.25-.03-.47-.05-.66-.05-.69,0-1.15.24-1.36.71v4.49h-1.83v-6.87h1.73l.05.82c.37-.63.88-.95,1.53-.95.2,0,.39.03.57.08l-.03,1.76Z" fill="#cfcfcf"/>
      <path d="M752.02,942.37c0-.68.13-1.29.39-1.82.26-.53.64-.95,1.13-1.24.49-.29,1.07-.44,1.72-.44.93,0,1.68.28,2.27.85.59.57.91,1.34.98,2.31v.47c.01,1.05-.28,1.9-.87,2.54-.59.64-1.38.96-2.37.96s-1.78-.32-2.37-.95c-.59-.63-.89-1.5-.89-2.59v-.08ZM753.86,942.5c0,.65.12,1.15.37,1.5.25.34.6.52,1.05.52s.79-.17,1.04-.51c.25-.34.37-.89.37-1.64,0-.64-.12-1.14-.37-1.49-.25-.35-.6-.53-1.05-.53s-.8.17-1.04.52c-.25.35-.37.89-.37,1.62Z" fill="#cfcfcf"/>
      <path d="M759.38,942.38c0-1.07.24-1.92.72-2.56.48-.63,1.14-.95,1.97-.95.67,0,1.22.25,1.66.75v-3.5h1.84v9.75h-1.66l-.09-.73c-.46.57-1.05.86-1.76.86-.81,0-1.46-.32-1.95-.96-.49-.64-.73-1.52-.73-2.66ZM761.21,942.52c0,.64.11,1.14.34,1.48.22.34.55.51.98.51.57,0,.97-.24,1.2-.72v-2.71c-.23-.48-.62-.72-1.19-.72-.88,0-1.33.72-1.33,2.16Z" fill="#cfcfcf"/>
      <path d="M771.1,945.17c-.45.55-1.08.83-1.88.83-.74,0-1.3-.21-1.69-.63-.39-.42-.59-1.04-.59-1.86v-4.5h1.83v4.44c0,.72.33,1.07.98,1.07s1.05-.22,1.28-.65v-4.87h1.84v6.87h-1.73l-.05-.7Z" fill="#cfcfcf"/>
      <path d="M777.12,944.52c.34,0,.61-.09.83-.28.21-.19.32-.43.33-.74h1.72c0,.46-.13.89-.38,1.28-.25.39-.59.69-1.03.9-.43.21-.91.32-1.44.32-.98,0-1.76-.31-2.32-.94-.57-.62-.85-1.49-.85-2.59v-.12c0-1.06.28-1.9.84-2.53.56-.63,1.34-.95,2.32-.95.86,0,1.55.24,2.07.73.52.49.78,1.14.79,1.95h-1.72c0-.36-.12-.65-.33-.87-.21-.22-.49-.33-.84-.33-.43,0-.75.16-.97.47-.22.31-.33.82-.33,1.52v.19c0,.71.11,1.22.32,1.53s.54.46.98.46Z" fill="#cfcfcf"/>
      <path d="M783.24,937.31v1.69h1.17v1.35h-1.17v3.43c0,.25.05.44.15.55.1.11.28.17.56.17.2,0,.38-.01.54-.04v1.39c-.36.11-.73.17-1.11.17-1.29,0-1.94-.65-1.97-1.95v-3.7h-1v-1.35h1v-1.69h1.83Z" fill="#cfcfcf"/>
      <path d="M785.42,937.22c0-.28.09-.5.28-.68.18-.18.43-.27.75-.27s.56.09.75.27c.19.18.28.4.28.68s-.09.51-.28.69c-.19.18-.44.27-.75.27s-.56-.09-.75-.27c-.19-.18-.28-.41-.28-.69ZM787.37,945.87h-1.84v-6.87h1.84v6.87Z" fill="#cfcfcf"/>
      <path d="M788.59,942.37c0-.68.13-1.29.39-1.82.26-.53.64-.95,1.13-1.24.49-.29,1.07-.44,1.72-.44.93,0,1.68.28,2.27.85.59.57.91,1.34.98,2.31v.47c.01,1.05-.28,1.9-.87,2.54-.59.64-1.38.96-2.37.96s-1.78-.32-2.37-.95c-.59-.63-.89-1.5-.89-2.59v-.08ZM790.43,942.5c0,.65.12,1.15.37,1.5.25.34.6.52,1.05.52s.79-.17,1.04-.51c.25-.34.37-.89.37-1.64,0-.64-.12-1.14-.37-1.49-.25-.35-.6-.53-1.05-.53s-.8.17-1.04.52c-.25.35-.37.89-.37,1.62Z" fill="#cfcfcf"/>
      <path d="M797.92,939l.06.79c.49-.61,1.15-.92,1.97-.92.73,0,1.27.21,1.63.64s.54,1.07.55,1.92v4.44h-1.83v-4.39c0-.39-.08-.67-.25-.85-.17-.18-.45-.26-.84-.26-.52,0-.9.22-1.16.66v4.84h-1.83v-6.87h1.73Z" fill="#cfcfcf"/>
      <path d="M689.21,958.98l.9-4.37h1.77l-1.75,6.87h-1.54l-1.3-4.32-1.3,4.32h-1.53l-1.75-6.87h1.77l.9,4.37,1.26-4.37h1.33l1.25,4.37Z" fill="#cfcfcf"/>
      <path d="M692.78,952.82c0-.28.09-.5.28-.68.18-.18.43-.27.75-.27s.56.09.75.27c.19.18.28.4.28.68s-.09.51-.28.69c-.19.18-.44.27-.75.27s-.56-.09-.75-.27c-.19-.18-.28-.41-.28-.69ZM694.73,961.47h-1.84v-6.87h1.84v6.87Z" fill="#cfcfcf"/>
      <path d="M698.44,952.91v1.69h1.17v1.35h-1.17v3.43c0,.25.05.44.15.55.1.11.28.17.56.17.2,0,.38-.01.54-.04v1.39c-.36.11-.73.17-1.11.17-1.29,0-1.94-.65-1.97-1.95v-3.7h-1v-1.35h1v-1.69h1.83Z" fill="#cfcfcf"/>
      <path d="M702.42,955.35c.49-.58,1.1-.88,1.83-.88,1.49,0,2.24.87,2.27,2.6v4.4h-1.83v-4.35c0-.39-.08-.68-.25-.87-.17-.19-.45-.28-.84-.28-.54,0-.93.21-1.17.62v4.88h-1.83v-9.75h1.83v3.63Z" fill="#cfcfcf"/>
      <path d="M714,960.12c.34,0,.61-.09.83-.28.21-.19.32-.43.33-.74h1.72c0,.47-.13.89-.38,1.28-.25.39-.59.69-1.03.9-.43.21-.91.32-1.44.32-.98,0-1.76-.31-2.32-.94-.57-.62-.85-1.49-.85-2.59v-.12c0-1.06.28-1.9.84-2.53.56-.63,1.34-.95,2.32-.95.86,0,1.55.24,2.07.73.52.49.78,1.14.79,1.95h-1.72c0-.36-.12-.65-.33-.87-.21-.22-.49-.33-.84-.33-.43,0-.75.16-.97.47-.22.31-.33.82-.33,1.52v.19c0,.71.11,1.22.32,1.53.22.31.54.46.98.46Z" fill="#cfcfcf"/>
      <path d="M717.91,952.82c0-.28.09-.5.28-.68.18-.18.43-.27.75-.27s.56.09.75.27c.19.18.28.4.28.68s-.09.51-.28.69c-.19.18-.44.27-.75.27s-.56-.09-.75-.27c-.19-.18-.28-.41-.28-.69ZM719.86,961.47h-1.84v-6.87h1.84v6.87Z" fill="#cfcfcf"/>
      <path d="M723.06,954.6l.06.79c.49-.61,1.15-.92,1.97-.92.73,0,1.27.21,1.63.64.36.43.54,1.07.55,1.92v4.44h-1.83v-4.39c0-.39-.08-.67-.25-.85-.17-.17-.45-.26-.84-.26-.52,0-.9.22-1.16.66v4.84h-1.83v-6.87h1.73Z" fill="#cfcfcf"/>
      <path d="M731.81,961.6c-1.01,0-1.83-.31-2.46-.93-.63-.62-.95-1.44-.95-2.47v-.18c0-.69.13-1.31.4-1.85s.64-.96,1.13-1.26,1.05-.44,1.67-.44c.94,0,1.68.3,2.22.89.54.59.81,1.43.81,2.52v.75h-4.37c.06.45.24.81.54,1.08.3.27.68.41,1.13.41.71,0,1.26-.26,1.66-.77l.9,1.01c-.28.39-.65.69-1.12.91-.47.22-.99.33-1.56.33ZM731.6,955.95c-.36,0-.66.12-.89.37-.23.25-.37.6-.43,1.06h2.55v-.15c0-.41-.12-.72-.33-.95-.21-.22-.51-.33-.9-.33Z" fill="#cfcfcf"/>
      <path d="M737.4,954.6l.06.77c.49-.6,1.14-.9,1.97-.9.88,0,1.49.35,1.82,1.05.48-.7,1.17-1.05,2.06-1.05.74,0,1.3.22,1.66.65.36.43.55,1.09.55,1.96v4.39h-1.84v-4.38c0-.39-.08-.67-.23-.85s-.42-.27-.81-.27c-.55,0-.93.26-1.14.79v4.72s-1.83,0-1.83,0v-4.37c0-.4-.08-.69-.23-.86-.16-.18-.42-.27-.8-.27-.52,0-.9.22-1.13.65v4.86h-1.83v-6.87h1.72Z" fill="#cfcfcf"/>
      <path d="M750.91,961.47c-.08-.17-.15-.37-.18-.62-.44.5-1.02.74-1.73.74-.67,0-1.23-.19-1.67-.58-.44-.39-.66-.88-.66-1.47,0-.73.27-1.29.81-1.68.54-.39,1.32-.59,2.34-.59h.84v-.39c0-.32-.08-.57-.24-.76-.16-.19-.42-.29-.77-.29-.31,0-.55.07-.73.22-.18.15-.26.35-.26.61h-1.83c0-.4.12-.77.37-1.1.25-.34.59-.6,1.04-.8.45-.19.95-.29,1.51-.29.85,0,1.52.21,2.02.64.5.43.75,1.02.75,1.79v2.98c0,.65.1,1.14.27,1.48v.11h-1.85ZM749.4,960.19c.27,0,.52-.06.75-.18.23-.12.4-.28.51-.49v-1.18h-.69c-.92,0-1.41.32-1.47.95v.11c0,.23.07.42.23.56.16.15.38.22.66.22Z" fill="#cfcfcf"/>
      <path d="M756.1,952.91v1.69h1.17v1.35h-1.17v3.43c0,.25.05.44.15.55.1.11.28.17.56.17.2,0,.38-.01.54-.04v1.39c-.36.11-.73.17-1.11.17-1.29,0-1.94-.65-1.97-1.95v-3.7h-1v-1.35h1v-1.69h1.83Z" fill="#cfcfcf"/>
      <path d="M758.28,952.82c0-.28.09-.5.28-.68.18-.18.43-.27.75-.27s.56.09.75.27c.19.18.28.4.28.68s-.09.51-.28.69c-.19.18-.44.27-.75.27s-.56-.09-.75-.27c-.19-.18-.28-.41-.28-.69ZM760.23,961.47h-1.84v-6.87h1.84v6.87Z" fill="#cfcfcf"/>
      <path d="M764.6,960.12c.34,0,.61-.09.83-.28.21-.19.32-.43.33-.74h1.72c0,.47-.13.89-.38,1.28-.25.39-.59.69-1.03.9-.43.21-.91.32-1.44.32-.98,0-1.76-.31-2.32-.94-.57-.62-.85-1.49-.85-2.59v-.12c0-1.06.28-1.9.84-2.53.56-.63,1.34-.95,2.32-.95.86,0,1.55.24,2.07.73.52.49.78,1.14.79,1.95h-1.72c0-.36-.12-.65-.33-.87-.21-.22-.49-.33-.84-.33-.43,0-.75.16-.97.47-.22.31-.33.82-.33,1.52v.19c0,.71.11,1.22.32,1.53.22.31.54.46.98.46Z" fill="#cfcfcf"/>
      <path d="M771.47,957.97c0-1.08.24-1.93.72-2.56.48-.63,1.14-.94,1.98-.94.74,0,1.32.28,1.76.84l.12-.72h1.61v9.51h-1.84v-3.23c-.42.48-.98.72-1.66.72-.82,0-1.47-.32-1.96-.95-.49-.63-.73-1.53-.73-2.67ZM773.31,958.1c0,.66.12,1.16.35,1.5.23.34.56.52.97.52.56,0,.96-.22,1.19-.67v-2.84c-.23-.43-.62-.65-1.18-.65-.42,0-.75.17-.98.51-.23.34-.35.89-.35,1.63Z" fill="#cfcfcf"/>
      <path d="M783.22,960.77c-.45.55-1.08.83-1.88.83-.74,0-1.3-.21-1.69-.63-.39-.42-.59-1.04-.59-1.86v-4.5h1.83v4.44c0,.72.33,1.07.98,1.07s1.05-.22,1.28-.65v-4.87h1.84v6.87h-1.73l-.05-.7Z" fill="#cfcfcf"/>
      <path d="M790.36,961.47c-.08-.17-.15-.37-.18-.62-.44.5-1.02.74-1.73.74-.67,0-1.23-.19-1.67-.58-.44-.39-.66-.88-.66-1.47,0-.73.27-1.29.81-1.68.54-.39,1.32-.59,2.34-.59h.84v-.39c0-.32-.08-.57-.24-.76-.16-.19-.42-.29-.77-.29-.31,0-.55.07-.73.22-.18.15-.26.35-.26.61h-1.83c0-.4.12-.77.37-1.1.25-.34.59-.6,1.04-.8.45-.19.95-.29,1.51-.29.85,0,1.52.21,2.02.64.5.43.75,1.02.75,1.79v2.98c0,.65.1,1.14.27,1.48v.11h-1.85ZM788.84,960.19c.27,0,.52-.06.75-.18.23-.12.4-.28.51-.49v-1.18h-.69c-.92,0-1.41.32-1.47.95v.11c0,.23.07.42.23.56.16.15.38.22.66.22Z" fill="#cfcfcf"/>
      <path d="M795.28,961.47h-1.84v-9.75h1.84v9.75Z" fill="#cfcfcf"/>
      <path d="M796.78,952.82c0-.28.09-.5.28-.68.18-.18.43-.27.75-.27s.56.09.75.27c.19.18.28.4.28.68s-.09.51-.28.69c-.19.18-.44.27-.75.27s-.56-.09-.75-.27c-.19-.18-.28-.41-.28-.69ZM798.73,961.47h-1.84v-6.87h1.84v6.87Z" fill="#cfcfcf"/>
      <path d="M802.44,952.91v1.69h1.17v1.35h-1.17v3.43c0,.25.05.44.15.55.1.11.28.17.56.17.2,0,.38-.01.54-.04v1.39c-.36.11-.73.17-1.11.17-1.29,0-1.94-.65-1.97-1.95v-3.7h-1v-1.35h1v-1.69h1.83Z" fill="#cfcfcf"/>
      <path d="M807.2,958.87l1.27-4.27h1.97l-2.76,7.93-.15.36c-.41.9-1.09,1.35-2.03,1.35-.27,0-.54-.04-.81-.12v-1.39h.28c.35,0,.61-.05.78-.15.17-.11.31-.28.4-.53l.22-.56-2.41-6.89h1.97l1.28,4.27Z" fill="#cfcfcf"/>
    </g>
    <g>
      <g>
        <path d="M729.64,842.32h-38.29c-5.29,0-9.6,4.31-9.6,9.6v24.22c0,5.29,4.31,9.6,9.6,9.6h38.29c5.29,0,9.6-4.31,9.6-9.6v-24.22c0-5.29-4.31-9.6-9.6-9.6ZM734.74,877.41c0,2.26-1.76,4.11-3.94,4.11h-40.6c-2.18,0-3.94-1.85-3.94-4.11v-26.74c0-2.27,1.76-4.11,3.94-4.11h40.6c2.18,0,3.94,1.83,3.94,4.11v26.74Z" fill="#05dcf0"/>
        <polygon points="704.4 871.95 718.11 864.04 704.4 856.12 704.4 871.95" fill="#05dcf0"/>
      </g>
      <g>
        <path d="M729.64,842.32h-38.29c-5.29,0-9.6,4.31-9.6,9.6v24.22c0,5.29,4.31,9.6,9.6,9.6h38.29c5.29,0,9.6-4.31,9.6-9.6v-24.22c0-5.29-4.31-9.6-9.6-9.6ZM734.74,877.41c0,2.26-1.76,4.11-3.94,4.11h-40.6c-2.18,0-3.94-1.85-3.94-4.11v-26.74c0-2.27,1.76-4.11,3.94-4.11h40.6c2.18,0,3.94,1.83,3.94,4.11v26.74Z" fill="url(#radial-gradient-18)"/>
        <polygon points="704.4 871.95 718.11 864.04 704.4 856.12 704.4 871.95" fill="url(#radial-gradient-18)"/>
      </g>
    </g>
  </g>
  <g>
    <g>
      <rect x="434.26" y="835.45" width="179.06" height="160.12" rx="18.5" ry="18.5" fill="url(#radial-gradient-19)"/>
      <rect x="434.26" y="835.45" width="179.06" height="160.12" rx="18.5" ry="18.5" fill="none" opacity=".7" stroke="#00bbcf" stroke-miterlimit="10"/>
      <rect x="434.26" y="835.45" width="179.06" height="160.12" rx="18.5" ry="18.5" fill="url(#radial-gradient-20)" opacity=".46"/>
    </g>
    <g>
      <path d="M463.06,917.22l3,8.47,2.99-8.47h3.16v11.68h-2.42v-3.19l.24-5.51-3.15,8.71h-1.65l-3.15-8.7.24,5.5v3.19h-2.41v-11.68h3.15Z" fill="#fff"/>
      <path d="M473.8,924.48c0-.86.17-1.63.5-2.3.33-.67.81-1.2,1.43-1.56.62-.37,1.35-.55,2.17-.55,1.17,0,2.13.36,2.87,1.08.74.72,1.15,1.69,1.24,2.92l.02.59c0,1.33-.37,2.4-1.12,3.21-.74.81-1.74,1.21-2.99,1.21s-2.25-.4-3-1.2c-.75-.8-1.12-1.89-1.12-3.27v-.1ZM476.12,924.65c0,.83.16,1.46.47,1.89.31.44.75.65,1.33.65s1-.21,1.32-.65c.32-.43.47-1.12.47-2.07,0-.81-.16-1.44-.47-1.88-.32-.45-.76-.67-1.33-.67s-1.01.22-1.32.66c-.31.44-.47,1.13-.47,2.05Z" fill="#fff"/>
      <path d="M486.23,918.08v2.13h1.48v1.7h-1.48v4.33c0,.32.06.55.18.69.12.14.36.21.71.21.26,0,.48-.02.68-.06v1.76c-.45.14-.92.21-1.4.21-1.63,0-2.46-.82-2.49-2.46v-4.68h-1.27v-1.7h1.27v-2.13h2.32Z" fill="#fff"/>
      <path d="M488.99,917.97c0-.35.12-.63.35-.86s.55-.34.95-.34.71.11.95.34c.24.22.35.51.35.86s-.12.64-.36.87c-.24.22-.55.34-.94.34s-.7-.11-.94-.34c-.24-.22-.36-.51-.36-.87ZM491.45,928.9h-2.33v-8.68h2.33v8.68Z" fill="#fff"/>
      <path d="M493,924.48c0-.86.17-1.63.5-2.3.33-.67.81-1.2,1.43-1.56.62-.37,1.35-.55,2.17-.55,1.17,0,2.13.36,2.87,1.08.74.72,1.15,1.69,1.24,2.92l.02.59c0,1.33-.37,2.4-1.12,3.21-.74.81-1.74,1.21-2.99,1.21s-2.25-.4-3-1.2c-.75-.8-1.12-1.89-1.12-3.27v-.1ZM495.32,924.65c0,.83.16,1.46.47,1.89.31.44.75.65,1.33.65s1-.21,1.32-.65c.32-.43.47-1.12.47-2.07,0-.81-.16-1.44-.47-1.88-.32-.45-.76-.67-1.33-.67s-1.01.22-1.32.66c-.31.44-.47,1.13-.47,2.05Z" fill="#fff"/>
      <path d="M504.79,920.22l.07,1c.62-.78,1.45-1.16,2.5-1.16.92,0,1.6.27,2.05.81s.68,1.35.69,2.42v5.61h-2.32v-5.55c0-.49-.11-.85-.32-1.07-.21-.22-.57-.33-1.07-.33-.65,0-1.14.28-1.47.83v6.12h-2.32v-8.68h2.18Z" fill="#fff"/>
      <path d="M516.11,928.9v-11.68h3.6c1.03,0,1.95.23,2.76.69.81.46,1.44,1.12,1.9,1.97.45.85.68,1.82.68,2.91v.54c0,1.09-.22,2.05-.67,2.9-.45.85-1.08,1.5-1.89,1.97-.81.46-1.73.7-2.75.71h-3.62ZM518.51,919.17v7.8h1.16c.94,0,1.66-.31,2.16-.92.5-.62.75-1.5.76-2.64v-.62c0-1.19-.25-2.09-.74-2.7-.49-.61-1.21-.92-2.16-.92h-1.19Z" fill="#fff"/>
      <path d="M530.63,929.06c-1.27,0-2.31-.39-3.11-1.17-.8-.78-1.2-1.82-1.2-3.12v-.22c0-.87.17-1.65.51-2.34s.81-1.22,1.43-1.59c.62-.37,1.32-.56,2.11-.56,1.19,0,2.12.37,2.8,1.12s1.02,1.81,1.02,3.19v.95h-5.53c.07.57.3,1.02.68,1.36.38.34.85.51,1.43.51.89,0,1.59-.32,2.09-.97l1.14,1.28c-.35.49-.82.88-1.41,1.15-.59.28-1.25.41-1.97.41ZM530.37,921.93c-.46,0-.83.16-1.12.47-.29.31-.47.76-.55,1.34h3.23v-.19c-.01-.52-.15-.92-.42-1.2-.27-.28-.65-.42-1.14-.42Z" fill="#fff"/>
      <path d="M540.22,926.5c0-.28-.14-.51-.42-.67-.28-.16-.73-.31-1.35-.44-2.07-.43-3.1-1.31-3.1-2.63,0-.77.32-1.41.96-1.93.64-.52,1.48-.77,2.51-.77,1.1,0,1.98.26,2.64.78.66.52.99,1.19.99,2.02h-2.32c0-.33-.11-.61-.32-.82-.21-.22-.55-.33-1-.33-.39,0-.69.09-.91.26-.21.18-.32.4-.32.67,0,.26.12.46.37.62.24.16.65.29,1.23.41s1.06.25,1.46.39c1.23.45,1.84,1.23,1.84,2.33,0,.79-.34,1.43-1.02,1.92-.68.49-1.56.73-2.63.73-.73,0-1.37-.13-1.94-.39-.56-.26-1.01-.62-1.33-1.07s-.48-.94-.48-1.46h2.2c.02.41.17.73.46.95.28.22.66.33,1.14.33.44,0,.78-.08,1.01-.25.23-.17.34-.39.34-.66Z" fill="#fff"/>
      <path d="M543.95,917.97c0-.35.12-.63.35-.86s.55-.34.95-.34.71.11.95.34c.24.22.35.51.35.86s-.12.64-.36.87c-.24.22-.55.34-.94.34s-.7-.11-.94-.34c-.24-.22-.36-.51-.36-.87ZM546.42,928.9h-2.33v-8.68h2.33v8.68Z" fill="#fff"/>
      <path d="M547.99,924.5c0-1.33.32-2.4.95-3.22s1.49-1.22,2.56-1.22c.95,0,1.69.33,2.22.98l.1-.82h2.1v8.39c0,.76-.17,1.42-.52,1.98-.35.56-.83.99-1.46,1.28-.63.29-1.36.44-2.2.44-.64,0-1.26-.13-1.86-.38-.6-.25-1.06-.58-1.37-.98l1.03-1.41c.58.65,1.28.97,2.1.97.62,0,1.09-.16,1.44-.49.34-.33.51-.8.51-1.4v-.46c-.54.6-1.24.91-2.11.91-1.04,0-1.89-.41-2.53-1.22-.64-.82-.97-1.9-.97-3.25v-.1ZM550.31,924.67c0,.79.16,1.41.47,1.85.32.45.75.67,1.3.67.71,0,1.21-.26,1.52-.79v-3.66c-.31-.53-.81-.8-1.5-.8-.56,0-.99.23-1.31.68-.32.46-.48,1.14-.48,2.04Z" fill="#fff"/>
      <path d="M559.84,920.22l.07,1c.62-.78,1.45-1.16,2.5-1.16.92,0,1.6.27,2.05.81s.68,1.35.69,2.42v5.61h-2.32v-5.55c0-.49-.11-.85-.32-1.07-.21-.22-.57-.33-1.07-.33-.65,0-1.14.28-1.47.83v6.12h-2.32v-8.68h2.18Z" fill="#fff"/>
    </g>
    <g clip-path="url(#clippath-3)">
      <rect x="394.59" y="892.92" width="258.41" height="125.34" fill="url(#radial-gradient-21)" opacity=".7"/>
      <path d="M430.54,995.57c16.27-1.24,32.53-1.89,48.8-2.33,8.13-.28,16.27-.34,24.4-.5l24.4-.17c16.27-.02,32.53.22,48.8.66,16.26.44,32.53,1.09,48.79,2.34-16.27,1.25-32.53,1.9-48.79,2.34-16.27.43-32.53.67-48.8.66l-24.4-.17c-8.13-.16-16.26-.22-24.4-.5-16.27-.44-32.53-1.09-48.8-2.33Z" fill="url(#radial-gradient-22)"/>
      <ellipse cx="487.34" cy="830.71" rx="201.45" ry="92.45" transform="translate(-257.68 220.37) rotate(-20.28)" fill="url(#radial-gradient-23)"/>
    </g>
    <g>
      <rect x="459.56" y="942.05" width="132.85" height="30.33" fill="none"/>
      <path d="M465.33,950.98c0-.37-.13-.65-.39-.85-.26-.2-.73-.41-1.41-.63-.68-.22-1.22-.44-1.61-.65-1.08-.58-1.62-1.37-1.62-2.35,0-.51.14-.97.43-1.37.29-.4.7-.72,1.25-.94.54-.23,1.15-.34,1.82-.34s1.28.12,1.81.37c.53.25.94.59,1.24,1.04.29.45.44.96.44,1.53h-1.96c0-.43-.14-.77-.41-1.01s-.66-.36-1.15-.36-.85.1-1.11.3c-.27.2-.4.47-.4.8,0,.31.16.57.47.78s.77.4,1.37.59c1.11.33,1.92.75,2.43,1.25.51.5.76,1.11.76,1.85,0,.82-.31,1.47-.93,1.93-.62.47-1.46.7-2.51.7-.73,0-1.4-.13-2-.4s-1.06-.63-1.37-1.1c-.32-.46-.47-1-.47-1.62h1.96c0,1.05.63,1.57,1.88,1.57.47,0,.83-.09,1.09-.28s.39-.45.39-.79Z" fill="#cfcfcf"/>
      <path d="M470.75,944.68v1.73h1.21v1.38h-1.21v3.52c0,.26.05.45.15.56.1.11.29.17.57.17.21,0,.39-.02.55-.05v1.43c-.37.11-.75.17-1.14.17-1.32,0-2-.67-2.02-2v-3.8h-1.03v-1.38h1.03v-1.73h1.88Z" fill="#cfcfcf"/>
      <path d="M477.23,952.75c-.47.56-1.11.85-1.93.85-.76,0-1.33-.22-1.73-.65-.4-.43-.6-1.07-.61-1.91v-4.62h1.88v4.56c0,.74.33,1.1,1,1.1s1.08-.22,1.32-.67v-5h1.89v7.05h-1.77l-.05-.72Z" fill="#cfcfcf"/>
      <path d="M482.21,946.41l.06.82c.5-.63,1.18-.95,2.03-.95.75,0,1.3.22,1.67.66.37.44.55,1.09.56,1.97v4.56h-1.88v-4.51c0-.4-.09-.69-.26-.87-.17-.18-.46-.27-.87-.27-.53,0-.93.23-1.19.68v4.97h-1.88v-7.05h1.77Z" fill="#cfcfcf"/>
      <path d="M489.69,946.41l.06.82c.5-.63,1.18-.95,2.03-.95.75,0,1.3.22,1.67.66.37.44.55,1.09.56,1.97v4.56h-1.88v-4.51c0-.4-.09-.69-.26-.87-.17-.18-.46-.27-.87-.27-.53,0-.93.23-1.19.68v4.97h-1.88v-7.05h1.77Z" fill="#cfcfcf"/>
      <path d="M495.43,944.59c0-.28.09-.51.28-.7s.45-.27.77-.27.58.09.77.27.29.42.29.7-.1.52-.29.71c-.19.18-.45.27-.77.27s-.57-.09-.77-.27c-.19-.18-.29-.42-.29-.71ZM497.43,953.47h-1.89v-7.05h1.89v7.05Z" fill="#cfcfcf"/>
      <path d="M498.7,949.89c0-1.08.26-1.95.77-2.62.52-.66,1.21-.99,2.08-.99.77,0,1.38.27,1.81.8l.08-.67h1.71v6.82c0,.62-.14,1.15-.42,1.61-.28.46-.67.8-1.18,1.04s-1.1.36-1.79.36c-.52,0-1.02-.1-1.51-.31-.49-.21-.86-.47-1.11-.8l.83-1.15c.47.53,1.04.79,1.71.79.5,0,.89-.13,1.17-.4.28-.27.42-.65.42-1.14v-.38c-.43.49-1.01.74-1.71.74-.85,0-1.53-.33-2.06-.99-.52-.66-.79-1.54-.79-2.64v-.08ZM500.59,950.03c0,.64.13,1.14.38,1.51.26.36.61.54,1.06.54.57,0,.98-.22,1.23-.65v-2.97c-.25-.43-.66-.65-1.22-.65-.45,0-.81.19-1.07.56-.26.37-.39.92-.39,1.66Z" fill="#cfcfcf"/>
      <path d="M514.01,953.47c-.09-.17-.15-.38-.19-.63-.46.51-1.05.76-1.78.76-.69,0-1.26-.2-1.72-.6-.45-.4-.68-.9-.68-1.51,0-.75.28-1.32.83-1.72.55-.4,1.36-.6,2.4-.61h.87v-.4c0-.33-.08-.59-.25-.78-.17-.2-.43-.29-.79-.29-.32,0-.57.08-.75.23-.18.15-.27.36-.27.63h-1.88c0-.41.13-.79.38-1.13.25-.35.61-.62,1.07-.82.46-.2.98-.3,1.55-.3.87,0,1.56.22,2.07.66.51.44.77,1.05.77,1.84v3.06c0,.67.1,1.18.28,1.52v.11h-1.9ZM512.46,952.16c.28,0,.53-.06.77-.19.23-.12.41-.29.52-.5v-1.21h-.7c-.94,0-1.45.33-1.51.98v.11c0,.24.08.43.24.58.17.15.39.23.68.23Z" fill="#cfcfcf"/>
      <path d="M518.82,946.41l.06.82c.5-.63,1.18-.95,2.03-.95.75,0,1.3.22,1.67.66.37.44.55,1.09.56,1.97v4.56h-1.88v-4.51c0-.4-.09-.69-.26-.87-.17-.18-.46-.27-.87-.27-.53,0-.93.23-1.19.68v4.97h-1.88v-7.05h1.77Z" fill="#cfcfcf"/>
      <path d="M524.55,944.59c0-.28.09-.51.28-.7s.45-.27.77-.27.58.09.77.27.29.42.29.7-.1.52-.29.71c-.19.18-.45.27-.77.27s-.57-.09-.77-.27c-.19-.18-.29-.42-.29-.71ZM526.55,953.47h-1.89v-7.05h1.89v7.05Z" fill="#cfcfcf"/>
      <path d="M529.87,946.41l.06.79c.5-.61,1.18-.92,2.03-.92.91,0,1.53.36,1.87,1.08.5-.72,1.2-1.08,2.12-1.08.77,0,1.33.22,1.71.67.37.45.56,1.12.56,2.01v4.5h-1.89v-4.5c0-.4-.08-.69-.23-.88-.16-.18-.43-.28-.83-.28-.57,0-.96.27-1.17.81v4.84s-1.88,0-1.88,0v-4.49c0-.41-.08-.7-.24-.89-.16-.18-.43-.27-.82-.27-.53,0-.92.22-1.16.67v4.99h-1.88v-7.05h1.77Z" fill="#cfcfcf"/>
      <path d="M543.75,953.47c-.09-.17-.15-.38-.19-.63-.46.51-1.05.76-1.78.76-.69,0-1.26-.2-1.72-.6-.45-.4-.68-.9-.68-1.51,0-.75.28-1.32.83-1.72.55-.4,1.36-.6,2.4-.61h.87v-.4c0-.33-.08-.59-.25-.78-.17-.2-.43-.29-.79-.29-.32,0-.57.08-.75.23-.18.15-.27.36-.27.63h-1.88c0-.41.13-.79.38-1.13.25-.35.61-.62,1.07-.82.46-.2.98-.3,1.55-.3.87,0,1.56.22,2.07.66.51.44.77,1.05.77,1.84v3.06c0,.67.1,1.18.28,1.52v.11h-1.9ZM542.2,952.16c.28,0,.53-.06.77-.19.23-.12.41-.29.52-.5v-1.21h-.7c-.94,0-1.45.33-1.51.98v.11c0,.24.08.43.24.58.17.15.39.23.68.23Z" fill="#cfcfcf"/>
      <path d="M549.08,944.68v1.73h1.21v1.38h-1.21v3.52c0,.26.05.45.15.56.1.11.29.17.57.17.21,0,.39-.02.55-.05v1.43c-.37.11-.75.17-1.14.17-1.32,0-2-.67-2.02-2v-3.8h-1.03v-1.38h1.03v-1.73h1.88Z" fill="#cfcfcf"/>
      <path d="M551.32,944.59c0-.28.09-.51.28-.7s.45-.27.77-.27.58.09.77.27.29.42.29.7-.1.52-.29.71c-.19.18-.45.27-.77.27s-.57-.09-.77-.27c-.19-.18-.29-.42-.29-.71ZM553.33,953.47h-1.89v-7.05h1.89v7.05Z" fill="#cfcfcf"/>
      <path d="M554.58,949.88c0-.7.13-1.32.4-1.87.27-.55.66-.97,1.16-1.27.51-.3,1.09-.45,1.76-.45.95,0,1.73.29,2.33.87.6.58.94,1.37,1.01,2.37v.48c.01,1.08-.29,1.95-.89,2.6-.6.65-1.41.98-2.43.98s-1.83-.33-2.44-.98c-.61-.65-.91-1.54-.91-2.66v-.08ZM556.47,950.01c0,.67.13,1.18.38,1.54.25.35.61.53,1.08.53s.81-.17,1.07-.53c.26-.35.38-.91.38-1.68,0-.66-.13-1.17-.38-1.53-.26-.36-.62-.54-1.08-.54s-.82.18-1.07.54c-.25.36-.38.92-.38,1.67Z" fill="#cfcfcf"/>
      <path d="M564.16,946.41l.06.82c.5-.63,1.18-.95,2.03-.95.75,0,1.3.22,1.67.66.37.44.55,1.09.56,1.97v4.56h-1.88v-4.51c0-.4-.09-.69-.26-.87-.17-.18-.46-.27-.87-.27-.53,0-.93.23-1.19.68v4.97h-1.88v-7.05h1.77Z" fill="#cfcfcf"/>
      <path d="M464.38,969.49c-.09-.17-.15-.38-.19-.63-.46.51-1.05.76-1.78.76-.69,0-1.26-.2-1.72-.6-.45-.4-.68-.9-.68-1.51,0-.75.28-1.32.83-1.72.55-.4,1.36-.6,2.4-.61h.87v-.4c0-.33-.08-.59-.25-.78-.17-.2-.43-.29-.79-.29-.32,0-.57.08-.75.23-.18.15-.27.36-.27.63h-1.88c0-.41.13-.79.38-1.13.25-.35.61-.62,1.07-.82.46-.2.98-.3,1.55-.3.87,0,1.56.22,2.07.66.51.44.77,1.05.77,1.84v3.06c0,.67.1,1.18.28,1.52v.11h-1.9ZM462.82,968.18c.28,0,.53-.06.77-.19.23-.12.41-.29.52-.5v-1.21h-.7c-.94,0-1.45.33-1.51.98v.11c0,.23.08.43.24.58.17.15.39.23.68.23Z" fill="#cfcfcf"/>
      <path d="M469.18,962.44l.06.81c.5-.63,1.18-.95,2.03-.95.75,0,1.3.22,1.67.66.37.44.55,1.09.56,1.97v4.56h-1.88v-4.51c0-.4-.09-.69-.26-.87-.17-.18-.46-.27-.87-.27-.53,0-.93.23-1.19.68v4.97h-1.88v-7.05h1.77Z" fill="#cfcfcf"/>
      <path d="M474.63,965.91c0-1.1.25-1.98.74-2.63.49-.65,1.17-.98,2.02-.98.69,0,1.25.26,1.7.77v-3.6h1.89v10.01h-1.7l-.09-.75c-.47.59-1.07.88-1.81.88-.83,0-1.5-.33-2-.98-.5-.65-.75-1.56-.75-2.73ZM476.52,966.05c0,.66.12,1.17.35,1.52.23.35.57.53,1,.53.58,0,.99-.25,1.23-.74v-2.79c-.23-.49-.64-.74-1.22-.74-.91,0-1.36.74-1.36,2.21Z" fill="#cfcfcf"/>
      <path d="M488.42,967.19l1.31-4.75h1.97l-2.38,7.05h-1.8l-2.38-7.05h1.97l1.31,4.75Z" fill="#cfcfcf"/>
      <path d="M492.51,960.61c0-.28.09-.51.28-.7s.45-.27.77-.27.58.09.77.27.29.42.29.7-.1.52-.29.71c-.19.18-.45.27-.77.27s-.57-.09-.77-.27c-.19-.18-.29-.42-.29-.71ZM494.51,969.49h-1.89v-7.05h1.89v7.05Z" fill="#cfcfcf"/>
      <path d="M499.89,967.54c0-.23-.11-.41-.34-.54s-.59-.25-1.1-.36c-1.68-.35-2.52-1.06-2.52-2.14,0-.63.26-1.15.78-1.57.52-.42,1.2-.63,2.04-.63.9,0,1.61.21,2.15.63.54.42.81.97.81,1.64h-1.88c0-.27-.09-.49-.26-.67-.17-.18-.45-.26-.82-.26-.32,0-.56.07-.74.21-.17.14-.26.33-.26.55,0,.21.1.38.3.5.2.13.53.24,1,.33s.86.2,1.19.32c1,.36,1.49,1,1.49,1.9,0,.64-.28,1.16-.83,1.56-.55.4-1.26.6-2.14.6-.59,0-1.12-.11-1.57-.32-.46-.21-.82-.5-1.08-.87s-.39-.76-.39-1.19h1.79c.02.33.14.59.37.77.23.18.54.27.93.27.36,0,.63-.07.82-.21.18-.14.28-.32.28-.54Z" fill="#cfcfcf"/>
      <path d="M507.16,968.78c-.47.56-1.11.85-1.93.85-.76,0-1.33-.22-1.73-.65-.4-.43-.6-1.07-.61-1.91v-4.62h1.88v4.56c0,.74.33,1.1,1,1.1s1.08-.22,1.32-.67v-5h1.89v7.05h-1.77l-.05-.72Z" fill="#cfcfcf"/>
      <path d="M514.49,969.49c-.09-.17-.15-.38-.19-.63-.46.51-1.05.76-1.78.76-.69,0-1.26-.2-1.72-.6-.45-.4-.68-.9-.68-1.51,0-.75.28-1.32.83-1.72.55-.4,1.36-.6,2.4-.61h.87v-.4c0-.33-.08-.59-.25-.78-.17-.2-.43-.29-.79-.29-.32,0-.57.08-.75.23-.18.15-.27.36-.27.63h-1.88c0-.41.13-.79.38-1.13.25-.35.61-.62,1.07-.82.46-.2.98-.3,1.55-.3.87,0,1.56.22,2.07.66.51.44.77,1.05.77,1.84v3.06c0,.67.1,1.18.28,1.52v.11h-1.9ZM512.93,968.18c.28,0,.53-.06.77-.19.23-.12.41-.29.52-.5v-1.21h-.7c-.94,0-1.45.33-1.51.98v.11c0,.23.08.43.24.58.17.15.39.23.68.23Z" fill="#cfcfcf"/>
      <path d="M519.55,969.49h-1.89v-10.01h1.89v10.01Z" fill="#cfcfcf"/>
      <path d="M528.25,967.54c0-.23-.11-.41-.34-.54s-.59-.25-1.1-.36c-1.68-.35-2.52-1.06-2.52-2.14,0-.63.26-1.15.78-1.57.52-.42,1.2-.63,2.04-.63.9,0,1.61.21,2.15.63.54.42.81.97.81,1.64h-1.88c0-.27-.09-.49-.26-.67-.17-.18-.45-.26-.82-.26-.32,0-.56.07-.74.21-.17.14-.26.33-.26.55,0,.21.1.38.3.5.2.13.53.24,1,.33s.86.2,1.19.32c1,.36,1.49,1,1.49,1.9,0,.64-.28,1.16-.83,1.56-.55.4-1.26.6-2.14.6-.59,0-1.12-.11-1.57-.32-.46-.21-.82-.5-1.08-.87s-.39-.76-.39-1.19h1.79c.02.33.14.59.37.77.23.18.54.27.93.27.36,0,.63-.07.82-.21.18-.14.28-.32.28-.54Z" fill="#cfcfcf"/>
      <path d="M533.55,960.7v1.73h1.21v1.38h-1.21v3.52c0,.26.05.45.15.56.1.11.29.17.57.17.21,0,.39-.01.55-.04v1.43c-.37.11-.75.17-1.14.17-1.32,0-2-.67-2.02-2v-3.8h-1.03v-1.38h1.03v-1.73h1.88Z" fill="#cfcfcf"/>
      <path d="M535.32,965.9c0-.7.13-1.32.4-1.87.27-.55.66-.97,1.16-1.27.51-.3,1.09-.45,1.76-.45.95,0,1.73.29,2.33.87.6.58.94,1.37,1.01,2.37v.48c.01,1.08-.29,1.95-.89,2.61-.6.65-1.41.98-2.43.98s-1.83-.33-2.44-.98-.91-1.54-.91-2.66v-.08ZM537.2,966.03c0,.67.13,1.18.38,1.54.25.35.61.53,1.08.53s.81-.18,1.07-.53c.26-.35.38-.91.38-1.68,0-.66-.13-1.17-.38-1.53-.26-.36-.62-.54-1.08-.54s-.82.18-1.07.54c-.25.36-.38.92-.38,1.67Z" fill="#cfcfcf"/>
      <path d="M547.12,964.21c-.26-.03-.48-.05-.68-.05-.71,0-1.18.24-1.4.72v4.62h-1.88v-7.05h1.78l.05.84c.38-.65.9-.97,1.57-.97.21,0,.4.03.59.08l-.03,1.81Z" fill="#cfcfcf"/>
      <path d="M550.78,966.83l1.3-4.39h2.02l-2.84,8.15-.16.37c-.42.92-1.12,1.38-2.09,1.38-.27,0-.55-.04-.83-.12v-1.43h.29c.36,0,.62-.05.8-.16.18-.11.31-.29.41-.54l.22-.58-2.47-7.07h2.03l1.31,4.39Z" fill="#cfcfcf"/>
      <path d="M557.11,960.7v1.73h1.21v1.38h-1.21v3.52c0,.26.05.45.15.56.1.11.29.17.57.17.21,0,.39-.01.55-.04v1.43c-.37.11-.75.17-1.14.17-1.32,0-2-.67-2.02-2v-3.8h-1.03v-1.38h1.03v-1.73h1.88Z" fill="#cfcfcf"/>
      <path d="M562.61,969.62c-1.03,0-1.88-.32-2.53-.95-.65-.63-.97-1.48-.97-2.54v-.18c0-.71.14-1.34.41-1.9s.66-.99,1.16-1.29c.5-.3,1.07-.45,1.72-.45.97,0,1.72.3,2.28.91s.83,1.47.83,2.59v.77h-4.49c.06.46.24.83.55,1.11.31.28.69.42,1.16.42.73,0,1.29-.26,1.7-.79l.93,1.04c-.28.4-.67.71-1.15.94-.48.22-1.02.34-1.6.34ZM562.4,963.83c-.37,0-.68.13-.91.38-.23.25-.38.62-.45,1.09h2.62v-.15c0-.42-.12-.74-.34-.97-.22-.23-.53-.34-.93-.34Z" fill="#cfcfcf"/>
      <path d="M568.57,969.49h-1.89v-10.01h1.89v10.01Z" fill="#cfcfcf"/>
      <path d="M572.11,969.49h-1.89v-10.01h1.89v10.01Z" fill="#cfcfcf"/>
      <path d="M573.65,960.61c0-.28.09-.51.28-.7s.45-.27.77-.27.58.09.77.27.29.42.29.7-.1.52-.29.71c-.19.18-.45.27-.77.27s-.57-.09-.77-.27c-.19-.18-.29-.42-.29-.71ZM575.65,969.49h-1.89v-7.05h1.89v7.05Z" fill="#cfcfcf"/>
      <path d="M578.94,962.44l.06.81c.5-.63,1.18-.95,2.03-.95.75,0,1.3.22,1.67.66.37.44.55,1.09.56,1.97v4.56h-1.88v-4.51c0-.4-.09-.69-.26-.87-.17-.18-.46-.27-.87-.27-.53,0-.93.23-1.19.68v4.97h-1.88v-7.05h1.77Z" fill="#cfcfcf"/>
      <path d="M584.41,965.91c0-1.08.26-1.95.77-2.61.52-.66,1.21-.99,2.08-.99.77,0,1.38.27,1.81.8l.08-.67h1.71v6.82c0,.62-.14,1.15-.42,1.61-.28.46-.67.8-1.18,1.04s-1.1.36-1.79.36c-.52,0-1.02-.1-1.51-.31-.49-.21-.86-.47-1.11-.8l.83-1.15c.47.53,1.04.79,1.71.79.5,0,.89-.13,1.17-.4.28-.27.42-.65.42-1.14v-.38c-.43.49-1.01.74-1.71.74-.85,0-1.53-.33-2.06-1-.52-.66-.79-1.54-.79-2.64v-.08ZM586.29,966.05c0,.64.13,1.14.38,1.5.26.36.61.55,1.06.55.57,0,.98-.22,1.23-.65v-2.97c-.25-.43-.66-.65-1.22-.65-.45,0-.81.19-1.07.56-.26.37-.39.92-.39,1.66Z" fill="#cfcfcf"/>
    </g>
    <g>
      <g>
        <path d="M485.2,895.15c-3.58,0-5.55,0-7.24-.97-1.1-.64-2.02-1.56-2.66-2.66-.97-1.69-.97-3.66-.97-7.24s0-5.55.97-7.24c.64-1.1,1.56-2.02,2.66-2.66,1.69-.97,3.66-.97,7.24-.97s5.55,0,7.24.97c1.1.64,2.02,1.56,2.66,2.66.97,1.69.97,3.66.97,7.24s0,5.55-.97,7.24c-.64,1.1-1.56,2.02-2.66,2.66-1.69.97-3.66.97-7.24.97ZM485.2,877.11c-2.94,0-4.56,0-5.39.48-.54.31-.99.76-1.3,1.3-.48.83-.48,2.44-.48,5.39s0,4.56.48,5.39c.31.54.76.99,1.3,1.3.83.48,2.44.48,5.39.48s4.56,0,5.39-.48c.54-.31.99-.76,1.3-1.3.48-.83.48-2.45.48-5.39s0-4.56-.48-5.39c-.31-.54-.76-.99-1.3-1.3-.83-.48-2.45-.48-5.39-.48Z"/>
        <path d="M472.1,883.67c-.06,0-.12,0-.18,0-1.11-.11-1.93-.34-2.65-.76-.96-.55-1.75-1.35-2.31-2.31-.84-1.46-.84-3.12-.84-6.12s0-4.66.85-6.12c.55-.96,1.35-1.76,2.31-2.31,1.46-.84,3.12-.84,6.12-.84s4.66,0,6.12.85c.96.55,1.76,1.35,2.31,2.31.42.72.65,1.54.76,2.65.1,1.02-.65,1.93-1.67,2.02-1.02.1-1.93-.65-2.02-1.67-.07-.7-.18-.98-.28-1.14-.23-.4-.56-.72-.95-.95-.6-.35-1.98-.35-4.27-.35s-3.66,0-4.26.35c-.4.23-.72.55-.95.95-.35.6-.35,1.98-.35,4.27s0,3.66.35,4.27c.23.39.55.72.95.95.17.1.44.21,1.14.28,1.02.1,1.77,1,1.67,2.02-.09.96-.9,1.68-1.85,1.68ZM463.74,873.83c-.18,0-.36-.03-.54-.08-1.19-.36-2.25-1.22-2.92-2.37-.72-1.25-.72-2.59-.72-5.03s0-3.78.72-5.03c.48-.82,1.16-1.5,1.97-1.96,1.25-.72,2.6-.72,5.04-.72s3.79,0,5.04.72c1.08.62,1.92,1.6,2.31,2.69.35.97-.16,2.03-1.12,2.37-.97.35-2.03-.16-2.37-1.12-.09-.26-.35-.54-.66-.72-.39-.22-1.56-.22-3.19-.22s-2.8,0-3.19.22c-.25.14-.46.36-.61.61-.22.38-.22,1.55-.22,3.16s0,2.79.22,3.17c.19.33.49.59.78.68.98.3,1.53,1.34,1.24,2.32-.24.8-.98,1.32-1.78,1.32Z"/>
      </g>
      <g>
        <path d="M485.2,895.15c-3.58,0-5.55,0-7.24-.97-1.1-.64-2.02-1.56-2.66-2.66-.97-1.69-.97-3.66-.97-7.24s0-5.55.97-7.24c.64-1.1,1.56-2.02,2.66-2.66,1.69-.97,3.66-.97,7.24-.97s5.55,0,7.24.97c1.1.64,2.02,1.56,2.66,2.66.97,1.69.97,3.66.97,7.24s0,5.55-.97,7.24c-.64,1.1-1.56,2.02-2.66,2.66-1.69.97-3.66.97-7.24.97ZM485.2,877.11c-2.94,0-4.56,0-5.39.48-.54.31-.99.76-1.3,1.3-.48.83-.48,2.44-.48,5.39s0,4.56.48,5.39c.31.54.76.99,1.3,1.3.83.48,2.44.48,5.39.48s4.56,0,5.39-.48c.54-.31.99-.76,1.3-1.3.48-.83.48-2.45.48-5.39s0-4.56-.48-5.39c-.31-.54-.76-.99-1.3-1.3-.83-.48-2.45-.48-5.39-.48Z" fill="url(#radial-gradient-24)"/>
        <path d="M472.1,883.67c-.06,0-.12,0-.18,0-1.11-.11-1.93-.34-2.65-.76-.96-.55-1.75-1.35-2.31-2.31-.84-1.46-.84-3.12-.84-6.12s0-4.66.85-6.12c.55-.96,1.35-1.76,2.31-2.31,1.46-.84,3.12-.84,6.12-.84s4.66,0,6.12.85c.96.55,1.76,1.35,2.31,2.31.42.72.65,1.54.76,2.65.1,1.02-.65,1.93-1.67,2.02-1.02.1-1.93-.65-2.02-1.67-.07-.7-.18-.98-.28-1.14-.23-.4-.56-.72-.95-.95-.6-.35-1.98-.35-4.27-.35s-3.66,0-4.26.35c-.4.23-.72.55-.95.95-.35.6-.35,1.98-.35,4.27s0,3.66.35,4.27c.23.39.55.72.95.95.17.1.44.21,1.14.28,1.02.1,1.77,1,1.67,2.02-.09.96-.9,1.68-1.85,1.68ZM463.74,873.83c-.18,0-.36-.03-.54-.08-1.19-.36-2.25-1.22-2.92-2.37-.72-1.25-.72-2.59-.72-5.03s0-3.78.72-5.03c.48-.82,1.16-1.5,1.97-1.96,1.25-.72,2.6-.72,5.04-.72s3.79,0,5.04.72c1.08.62,1.92,1.6,2.31,2.69.35.97-.16,2.03-1.12,2.37-.97.35-2.03-.16-2.37-1.12-.09-.26-.35-.54-.66-.72-.39-.22-1.56-.22-3.19-.22s-2.8,0-3.19.22c-.25.14-.46.36-.61.61-.22.38-.22,1.55-.22,3.16s0,2.79.22,3.17c.19.33.49.59.78.68.98.3,1.53,1.34,1.24,2.32-.24.8-.98,1.32-1.78,1.32Z" fill="url(#radial-gradient-25)"/>
      </g>
    </g>
  </g>
</svg>