<?xml version="1.0" encoding="UTF-8"?>
<svg id="Layer_24" data-name="Layer 24" xmlns="http://www.w3.org/2000/svg" xmlns:xlink="http://www.w3.org/1999/xlink" viewBox="0 0 1760.24 1100.23">
  <defs>
    <style>
      @keyframes trackMove {
        0%, 100% { transform: translateX(0); }
        25% { transform: translateX(55px); }
        50% { transform: translateX(90px); }
        75% { transform: translateX(30px); }
      }
      @keyframes trackSmooth {
        0%, 100% { transform: translateX(0); }
        50% { transform: translateX(85px); }
      }
      @keyframes pulseGlow {
        0%, 100% { opacity: 0.7; }
        50% { opacity: 1; }
      }
      .timeline-tracker { animation: trackSmooth 4s ease-in-out infinite; transform-origin: center; }
      .timeline-glow { animation: pulseGlow 2s ease-in-out infinite; }
    </style>
    <radialGradient id="radial-gradient" cx="118.17" cy="434.78" fx="118.17" fy="434.78" r="397.85" gradientUnits="userSpaceOnUse">
      <stop offset="0" stop-color="#071424"/>
      <stop offset=".64" stop-color="#060f20"/>
      <stop offset="1" stop-color="#060a1c"/>
    </radialGradient>
    <radialGradient id="radial-gradient-2" cx="171.82" cy="458.25" fx="171.82" fy="458.25" r="320.97" gradientUnits="userSpaceOnUse">
      <stop offset="0" stop-color="#00a9bc"/>
      <stop offset=".1" stop-color="#00b6ca" stop-opacity=".77"/>
      <stop offset=".21" stop-color="#00c4d9" stop-opacity=".54"/>
      <stop offset=".33" stop-color="#00cfe6" stop-opacity=".34"/>
      <stop offset=".45" stop-color="#00d8ef" stop-opacity=".19"/>
      <stop offset=".56" stop-color="#00def6" stop-opacity=".09"/>
      <stop offset=".68" stop-color="#00e2fa" stop-opacity=".02"/>
      <stop offset=".8" stop-color="#00e4fc" stop-opacity="0"/>
      <stop offset="1" stop-color="#59e8c9" stop-opacity="0"/>
    </radialGradient>
    <radialGradient id="radial-gradient-3" cx="144.02" cy="472.45" fx="144.02" fy="472.45" r="201.21" gradientUnits="userSpaceOnUse">
      <stop offset=".26" stop-color="#01383d"/>
      <stop offset=".46" stop-color="#00282b"/>
      <stop offset="1" stop-color="#000"/>
    </radialGradient>
    <clipPath id="clippath">
      <rect x="116.16" y="495.24" width="200.6" height="96.29" rx="6.71" ry="6.71" fill="url(#radial-gradient-3)"/>
    </clipPath>
    <radialGradient id="radial-gradient-4" cx="155.62" cy="495.59" fx="155.62" fy="495.59" r="147.05" gradientUnits="userSpaceOnUse">
      <stop offset=".22" stop-color="#05dcf0"/>
      <stop offset=".25" stop-color="#05d6ea"/>
      <stop offset=".77" stop-color="#0c687b"/>
      <stop offset="1" stop-color="#103d4f"/>
    </radialGradient>
    <radialGradient id="radial-gradient-5" cx="338.69" cy="496.76" fx="338.69" fy="496.76" r="124.72" gradientUnits="userSpaceOnUse">
      <stop offset=".08" stop-color="#a8eaf0"/>
      <stop offset=".9" stop-color="#05dcf0"/>
    </radialGradient>
    <radialGradient id="radial-gradient-6" cx="175.27" cy="573.72" fx="175.27" fy="573.72" r="231.53" gradientUnits="userSpaceOnUse">
      <stop offset="0" stop-color="#fff" stop-opacity=".3"/>
      <stop offset=".57" stop-color="#2d292a" stop-opacity=".05"/>
      <stop offset="1" stop-color="#231f20" stop-opacity="0"/>
    </radialGradient>
    <clipPath id="clippath-1">
      <rect x="97.49" y="460.96" width="236.04" height="147.62" rx="12.63" ry="12.63" fill="none"/>
    </clipPath>
    <radialGradient id="radial-gradient-7" cx="224.99" cy="616.29" fx="224.99" fy="616.29" r="131.37" gradientUnits="userSpaceOnUse">
      <stop offset="0" stop-color="#05dcf0"/>
      <stop offset=".34" stop-color="#0599ab" stop-opacity=".65"/>
      <stop offset=".8" stop-color="#054151" stop-opacity=".19"/>
      <stop offset="1" stop-color="#051e2e" stop-opacity="0"/>
    </radialGradient>
    <radialGradient id="radial-gradient-8" cx="219.95" cy="608.58" fx="219.95" fy="608.58" r="70.85" gradientUnits="userSpaceOnUse">
      <stop offset=".22" stop-color="#05dcf0"/>
      <stop offset=".33" stop-color="#05d9ed" stop-opacity=".98"/>
      <stop offset=".43" stop-color="#05d1e5" stop-opacity=".94"/>
      <stop offset=".53" stop-color="#06c5d8" stop-opacity=".86"/>
      <stop offset=".63" stop-color="#07b3c6" stop-opacity=".74"/>
      <stop offset=".72" stop-color="#099caf" stop-opacity=".6"/>
      <stop offset=".82" stop-color="#0b7f92" stop-opacity=".42"/>
      <stop offset=".92" stop-color="#0d5e71" stop-opacity=".21"/>
      <stop offset="1" stop-color="#103d4f" stop-opacity="0"/>
    </radialGradient>
  </defs>
  <g>
    <rect x="97.49" y="460.96" width="236.04" height="147.62" rx="12.63" ry="12.63" fill="url(#radial-gradient)"/>
    <path d="M110.12,608.58c15.05-.07,199.56-.09,209.71-.14,3.87.2,7.77-1.2,10.34-4.15,2.74-2.89,3.44-6.87,3.21-10.74,0,0-.03-46.6-.03-46.6-.02-15.38-.03-55.02-.05-69.9.13-3.84.01-7.83-2.53-10.94-2.27-3.08-6.06-4.91-9.87-4.91l-186.4-.12s-23.3-.02-23.3-.02c-5.85-.43-11.65,3.42-13.14,9.16-.55,1.86-.47,3.81-.47,5.76.04,23.24-.08,69.97-.06,93.2,0,0-.02,23.3-.02,23.3.04,1.94-.13,3.89.22,5.81,1,5.83,6.49,10.36,12.39,10.29h0ZM110.12,608.58c-5.9.07-11.42-4.44-12.42-10.28-.35-1.92-.19-3.88-.23-5.81l-.02-23.3c.04-23.22-.09-69.98-.06-93.2,0-1.93-.09-3.92.47-5.81,1.5-5.82,7.39-9.77,13.32-9.33,0,0,23.3-.02,23.3-.02,0,0,186.4-.12,186.4-.12,3.96,0,7.9,1.92,10.25,5.12,2.58,3.16,2.77,7.36,2.61,11.23,0,0-.02,23.3-.02,23.3,0,0-.03,46.6-.03,46.6,0,0-.03,46.6-.03,46.6.22,3.87-.5,8.03-3.3,10.93-2.61,2.99-6.64,4.44-10.56,4.23-9.16-.05-195.57-.1-209.71-.14h0Z" fill="#00bbcf"/>
    <rect x="97.49" y="460.96" width="236.04" height="147.62" rx="12.63" ry="12.63" fill="url(#radial-gradient-2)" opacity=".46"/>
  </g>
  <g>
    <path d="M123.08,476.91h-2.79v7.74h-1.14v-7.74h-2.78v-.94h6.71v.94Z" fill="#fff"/>
    <path d="M124.2,476.49c0-.18.05-.33.16-.45.11-.12.27-.18.49-.18s.38.06.49.18c.11.12.17.27.17.45s-.06.33-.17.45c-.11.12-.27.18-.49.18s-.38-.06-.49-.18c-.11-.12-.16-.27-.16-.45ZM125.39,484.64h-1.1v-6.44h1.1v6.44Z" fill="#fff"/>
    <path d="M128.19,478.2l.03.71c.47-.56,1.11-.83,1.91-.83.9,0,1.51.35,1.84,1.04.21-.31.49-.56.84-.75.34-.19.75-.29,1.22-.29,1.41,0,2.13.75,2.16,2.25v4.32h-1.1v-4.25c0-.46-.11-.8-.32-1.03-.21-.23-.56-.34-1.06-.34-.41,0-.75.12-1.02.37-.27.24-.43.57-.47.99v4.28h-1.11v-4.22c0-.94-.46-1.41-1.38-1.41-.72,0-1.22.31-1.48.92v4.7h-1.1v-6.44h1.04Z" fill="#fff"/>
    <path d="M140.51,484.76c-.87,0-1.58-.29-2.13-.86-.55-.57-.82-1.34-.82-2.3v-.2c0-.64.12-1.21.37-1.71.24-.5.59-.9,1.02-1.18.44-.28.91-.43,1.43-.43.84,0,1.49.28,1.95.83.46.55.7,1.34.7,2.37v.46h-4.36c.02.64.2,1.15.56,1.54.36.39.81.59,1.35.59.39,0,.72-.08.99-.24.27-.16.51-.37.71-.63l.67.52c-.54.83-1.35,1.24-2.43,1.24ZM140.38,478.98c-.44,0-.82.16-1.12.49-.3.32-.49.78-.56,1.36h3.23v-.08c-.03-.56-.18-.99-.45-1.3-.27-.31-.64-.46-1.1-.46Z" fill="#fff"/>
    <path d="M145.62,483.71h4.11v.94h-5.26v-8.67h1.15v7.74Z" fill="#fff"/>
    <path d="M150.87,476.49c0-.18.05-.33.16-.45.11-.12.27-.18.49-.18s.38.06.49.18c.11.12.17.27.17.45s-.06.33-.17.45c-.11.12-.27.18-.49.18s-.38-.06-.49-.18c-.11-.12-.16-.27-.16-.45ZM152.06,484.64h-1.1v-6.44h1.1v6.44Z" fill="#fff"/>
    <path d="M154.87,478.2l.04.81c.49-.62,1.14-.93,1.93-.93,1.36,0,2.05.77,2.06,2.3v4.26h-1.1v-4.26c0-.46-.11-.81-.32-1.03s-.53-.33-.97-.33c-.36,0-.67.1-.94.29-.27.19-.48.44-.63.75v4.59h-1.1v-6.44h1.04Z" fill="#fff"/>
    <path d="M163.23,484.76c-.87,0-1.58-.29-2.13-.86s-.82-1.34-.82-2.3v-.2c0-.64.12-1.21.37-1.71.24-.5.59-.9,1.02-1.18.44-.28.91-.43,1.43-.43.84,0,1.49.28,1.95.83.46.55.7,1.34.7,2.37v.46h-4.37c.02.64.2,1.15.56,1.54.36.39.81.59,1.35.59.39,0,.72-.08.99-.24.27-.16.51-.37.71-.63l.67.52c-.54.83-1.35,1.24-2.43,1.24ZM163.09,478.98c-.44,0-.82.16-1.12.49-.3.32-.49.78-.56,1.36h3.23v-.08c-.03-.56-.18-.99-.45-1.3-.27-.31-.64-.46-1.1-.46Z" fill="#fff"/>
  </g>
  <g>
    <rect x="116.16" y="495.24" width="200.6" height="96.29" rx="6.71" ry="6.71" fill="url(#radial-gradient-3)"/>
    <g clip-path="url(#clippath)">
      <rect x="110.98" y="506.74" width="125.35" height="28.03" rx="4.99" ry="4.99" fill="url(#radial-gradient-4)"/>
      <rect x="110.98" y="580.55" width="125.35" height="28.03" rx="4.99" ry="4.99" fill="#12ceff" opacity=".7"/>
      <rect x="223.06" y="539.63" width="125.35" height="28.03" rx="4.99" ry="4.99" fill="url(#radial-gradient-5)"/>
      <rect x="91.11" y="539.63" width="125.35" height="28.03" rx="4.99" ry="4.99" fill="#0bc6de" opacity=".3"/>
      <line x1="320" y1="573.72" x2="106.35" y2="573.72" fill="url(#radial-gradient-6)" stroke="#737373" stroke-miterlimit="10" stroke-width=".75"/>
      <g>
        <path d="M124.49,518.47l1.51-5.02h1.53l-2.32,6.67h-1.43l-2.31-6.67h1.53l1.5,5.02Z" fill="#fff"/>
        <path d="M128.06,513.88c0-.2.07-.36.2-.49.13-.13.31-.19.54-.19s.41.06.54.19c.13.13.2.29.2.49s-.07.37-.2.49c-.14.13-.32.19-.54.19s-.4-.06-.54-.19c-.14-.13-.2-.29-.2-.49ZM129.47,520.12h-1.33v-4.96h1.33v4.96Z" fill="#fff"/>
        <path d="M130.36,517.61c0-.77.17-1.39.52-1.85.35-.46.82-.69,1.42-.69.48,0,.88.18,1.2.54v-2.53h1.33v7.04h-1.2l-.06-.53c-.33.41-.75.62-1.27.62-.58,0-1.05-.23-1.4-.69-.35-.46-.53-1.1-.53-1.92ZM131.68,517.7c0,.47.08.82.24,1.07.16.25.4.37.71.37.41,0,.7-.17.87-.52v-1.96c-.16-.35-.45-.52-.86-.52-.64,0-.96.52-.96,1.56Z" fill="#fff"/>
        <path d="M138.13,520.21c-.73,0-1.32-.22-1.78-.67-.46-.45-.68-1.04-.68-1.78v-.13c0-.5.1-.94.29-1.34.19-.39.46-.69.82-.91.35-.21.76-.32,1.21-.32.68,0,1.21.21,1.6.64.39.43.58,1.03.58,1.82v.54h-3.16c.04.32.17.58.39.78.22.2.49.29.82.29.51,0,.91-.19,1.2-.55l.65.73c-.2.28-.47.5-.81.66-.34.16-.71.24-1.13.24ZM137.98,516.14c-.26,0-.48.09-.64.27-.16.18-.27.43-.31.76h1.84v-.11c0-.29-.09-.52-.24-.68-.15-.16-.37-.24-.65-.24Z" fill="#fff"/>
        <path d="M140.71,517.6c0-.49.09-.93.28-1.31.19-.38.46-.68.82-.89.36-.21.77-.32,1.24-.32.67,0,1.21.2,1.64.61.42.41.66.96.71,1.67v.34c0,.76-.2,1.37-.63,1.83-.42.46-.99.69-1.71.69s-1.28-.23-1.71-.69c-.43-.46-.64-1.08-.64-1.87v-.06ZM142.04,517.69c0,.47.09.83.27,1.08.18.25.43.37.76.37s.57-.12.75-.37c.18-.25.27-.64.27-1.18,0-.46-.09-.82-.27-1.07-.18-.25-.43-.38-.76-.38s-.57.13-.75.38c-.18.25-.27.64-.27,1.17Z" fill="#fff"/>
        <path d="M150.66,517.36c0,.92-.19,1.63-.57,2.12-.38.49-.94.73-1.68.73s-1.28-.24-1.67-.72c-.38-.48-.58-1.17-.59-2.06v-1.23c0-.93.19-1.64.58-2.12.39-.48.94-.72,1.67-.72s1.28.24,1.67.72c.38.48.58,1.16.59,2.06v1.23ZM149.33,516.01c0-.55-.08-.96-.23-1.21-.15-.25-.39-.38-.71-.38s-.54.12-.69.36c-.15.24-.23.62-.24,1.13v1.62c0,.54.07.95.22,1.21.15.26.39.4.71.4s.56-.13.7-.38c.14-.25.22-.64.22-1.16v-1.59Z" fill="#fff"/>
        <path d="M154.77,520.12h-1.32v-5.1l-1.58.49v-1.08l2.76-.99h.14v6.68Z" fill="#fff"/>
      </g>
      <g>
        <path d="M124.49,550.88l1.51-5.02h1.53l-2.32,6.67h-1.43l-2.31-6.67h1.53l1.5,5.02Z" fill="#fff"/>
        <path d="M128.06,546.3c0-.2.07-.36.2-.49.13-.13.31-.19.54-.19s.41.06.54.19c.13.13.2.29.2.49s-.07.37-.2.49c-.14.13-.32.19-.54.19s-.4-.06-.54-.19c-.14-.13-.2-.29-.2-.49ZM129.47,552.53h-1.33v-4.96h1.33v4.96Z" fill="#fff"/>
        <path d="M130.36,550.02c0-.77.17-1.39.52-1.85.35-.46.82-.69,1.42-.69.48,0,.88.18,1.2.54v-2.53h1.33v7.04h-1.2l-.06-.53c-.33.41-.75.62-1.27.62-.58,0-1.05-.23-1.4-.69-.35-.46-.53-1.1-.53-1.92ZM131.68,550.12c0,.47.08.82.24,1.07.16.25.4.37.71.37.41,0,.7-.17.87-.52v-1.96c-.16-.35-.45-.52-.86-.52-.64,0-.96.52-.96,1.56Z" fill="#fff"/>
        <path d="M138.13,552.63c-.73,0-1.32-.22-1.78-.67-.46-.45-.68-1.04-.68-1.78v-.13c0-.5.1-.94.29-1.34.19-.39.46-.69.82-.91.35-.21.76-.32,1.21-.32.68,0,1.21.21,1.6.64.39.43.58,1.03.58,1.82v.54h-3.16c.04.32.17.58.39.78.22.2.49.29.82.29.51,0,.91-.19,1.2-.55l.65.73c-.2.28-.47.5-.81.66-.34.16-.71.24-1.13.24ZM137.98,548.55c-.26,0-.48.09-.64.27-.16.18-.27.43-.31.76h1.84v-.11c0-.29-.09-.52-.24-.68-.15-.16-.37-.24-.65-.24Z" fill="#fff"/>
        <path d="M140.71,550.01c0-.49.09-.93.28-1.31.19-.38.46-.68.82-.89.36-.21.77-.32,1.24-.32.67,0,1.21.2,1.64.61.42.41.66.96.71,1.67v.34c0,.76-.2,1.37-.63,1.83-.42.46-.99.69-1.71.69s-1.28-.23-1.71-.69c-.43-.46-.64-1.08-.64-1.87v-.06ZM142.04,550.1c0,.47.09.83.27,1.08.18.25.43.37.76.37s.57-.12.75-.37c.18-.25.27-.64.27-1.18,0-.46-.09-.82-.27-1.07-.18-.25-.43-.38-.76-.38s-.57.13-.75.38c-.18.25-.27.64-.27,1.17Z" fill="#fff"/>
        <path d="M150.66,549.78c0,.92-.19,1.63-.57,2.12-.38.49-.94.73-1.68.73s-1.28-.24-1.67-.72c-.38-.48-.58-1.17-.59-2.06v-1.23c0-.93.19-1.64.58-2.12.39-.48.94-.72,1.67-.72s1.28.24,1.67.72c.38.48.58,1.16.59,2.06v1.23ZM149.33,548.43c0-.55-.08-.96-.23-1.21-.15-.25-.39-.38-.71-.38s-.54.12-.69.36c-.15.24-.23.62-.24,1.13v1.62c0,.54.07.95.22,1.21.15.26.39.4.71.4s.56-.13.7-.38c.14-.25.22-.64.22-1.16v-1.59Z" fill="#fff"/>
        <path d="M152.9,548.61h.71c.34,0,.58-.08.75-.25s.24-.39.24-.67-.08-.48-.24-.63c-.16-.15-.38-.22-.66-.22-.25,0-.47.07-.64.21-.17.14-.26.32-.26.54h-1.32c0-.35.09-.66.28-.94.19-.28.45-.49.79-.65.34-.16.71-.23,1.12-.23.71,0,1.26.17,1.66.51s.6.8.6,1.39c0,.31-.09.59-.28.84-.19.26-.43.45-.73.59.38.13.66.34.84.6.18.27.28.59.28.95,0,.59-.22,1.07-.65,1.42s-1,.54-1.72.54c-.67,0-1.21-.18-1.63-.53-.42-.35-.63-.82-.63-1.39h1.32c0,.25.09.46.28.61s.42.24.69.24c.31,0,.56-.08.74-.25.18-.17.27-.39.27-.66,0-.67-.37-1-1.1-1h-.7v-1.04Z" fill="#fff"/>
      </g>
      <g>
        <path d="M125.49,592.3h-2.41l-.46,1.37h-1.46l2.48-6.67h1.27l2.5,6.67h-1.46l-.46-1.37ZM123.45,591.19h1.67l-.84-2.5-.83,2.5Z" fill="#fff"/>
        <path d="M130.86,593.17c-.33.4-.78.6-1.36.6-.53,0-.94-.15-1.22-.46-.28-.31-.42-.75-.43-1.34v-3.25h1.32v3.21c0,.52.24.77.71.77s.76-.16.93-.47v-3.51h1.33v4.96h-1.25l-.04-.5Z" fill="#fff"/>
        <path d="M132.94,591.16c0-.77.17-1.39.52-1.85.35-.46.82-.69,1.42-.69.48,0,.88.18,1.2.54v-2.53h1.33v7.04h-1.2l-.06-.53c-.33.41-.75.62-1.27.62-.58,0-1.05-.23-1.4-.69-.35-.46-.53-1.1-.53-1.92ZM134.26,591.26c0,.47.08.82.24,1.07.16.25.4.37.71.37.41,0,.7-.17.87-.52v-1.96c-.16-.35-.45-.52-.86-.52-.64,0-.96.52-.96,1.56Z" fill="#fff"/>
        <path d="M138.42,587.44c0-.2.07-.36.2-.49.13-.13.31-.19.54-.19s.41.06.54.19c.13.13.2.29.2.49s-.07.37-.2.49c-.14.13-.32.19-.54.19s-.4-.06-.54-.19c-.14-.13-.2-.29-.2-.49ZM139.83,593.68h-1.33v-4.96h1.33v4.96Z" fill="#fff"/>
        <path d="M140.71,591.15c0-.49.09-.93.28-1.31.19-.38.46-.68.82-.89.36-.21.77-.32,1.24-.32.67,0,1.21.2,1.64.61.42.41.66.96.71,1.67v.34c0,.76-.2,1.37-.63,1.83-.42.46-.99.69-1.71.69s-1.28-.23-1.71-.69c-.43-.46-.64-1.08-.64-1.87v-.06ZM142.04,591.25c0,.47.09.83.27,1.08.18.25.43.37.76.37s.57-.12.75-.37c.18-.25.27-.64.27-1.18,0-.46-.09-.82-.27-1.07-.18-.25-.43-.38-.76-.38s-.57.13-.75.38c-.18.25-.27.64-.27,1.17Z" fill="#fff"/>
        <path d="M150.66,590.92c0,.92-.19,1.63-.57,2.12-.38.49-.94.73-1.68.73s-1.28-.24-1.67-.72c-.38-.48-.58-1.17-.59-2.06v-1.23c0-.93.19-1.64.58-2.12.39-.48.94-.72,1.67-.72s1.28.24,1.67.72c.38.48.58,1.16.59,2.06v1.23ZM149.33,589.57c0-.55-.08-.96-.23-1.21-.15-.25-.39-.38-.71-.38s-.54.12-.69.36c-.15.24-.23.62-.24,1.13v1.62c0,.54.07.95.22,1.21.15.26.39.4.71.4s.56-.13.7-.38c.14-.25.22-.64.22-1.16v-1.59Z" fill="#fff"/>
        <path d="M152.9,589.76h.71c.34,0,.58-.08.75-.25s.24-.39.24-.67-.08-.48-.24-.63c-.16-.15-.38-.22-.66-.22-.25,0-.47.07-.64.21-.17.14-.26.32-.26.54h-1.32c0-.35.09-.66.28-.94.19-.28.45-.49.79-.65.34-.16.71-.23,1.12-.23.71,0,1.26.17,1.66.51s.6.8.6,1.39c0,.31-.09.59-.28.84-.19.26-.43.45-.73.59.38.13.66.34.84.6.18.27.28.59.28.95,0,.59-.22,1.07-.65,1.42s-1,.54-1.72.54c-.67,0-1.21-.18-1.63-.53-.42-.35-.63-.82-.63-1.39h1.32c0,.25.09.46.28.61s.42.24.69.24c.31,0,.56-.08.74-.25.18-.17.27-.39.27-.66,0-.67-.37-1-1.1-1h-.7v-1.04Z" fill="#fff"/>
      </g>
      <rect x="119.22" y="591.55" width="14.61" height=".64" fill="none"/>
      <g>
        <path d="M233.09,550.88l1.51-5.02h1.53l-2.32,6.67h-1.43l-2.31-6.67h1.53l1.5,5.02Z" fill="#fff"/>
        <path d="M236.67,546.3c0-.2.07-.36.2-.49.13-.13.31-.19.54-.19s.41.06.54.19c.13.13.2.29.2.49s-.07.37-.2.49c-.14.13-.32.19-.54.19s-.4-.06-.54-.19c-.14-.13-.2-.29-.2-.49ZM238.07,552.53h-1.33v-4.96h1.33v4.96Z" fill="#fff"/>
        <path d="M238.96,550.02c0-.77.17-1.39.52-1.85.35-.46.82-.69,1.42-.69.48,0,.88.18,1.2.54v-2.53h1.33v7.04h-1.2l-.06-.53c-.33.41-.75.62-1.27.62-.58,0-1.05-.23-1.4-.69s-.53-1.1-.53-1.92ZM240.28,550.12c0,.47.08.82.24,1.07.16.25.4.37.71.37.41,0,.7-.17.87-.52v-1.96c-.16-.35-.45-.52-.86-.52-.64,0-.96.52-.96,1.56Z" fill="#fff"/>
        <path d="M246.73,552.63c-.73,0-1.32-.22-1.78-.67-.46-.45-.68-1.04-.68-1.78v-.13c0-.5.1-.94.29-1.34.19-.39.46-.69.82-.91.35-.21.76-.32,1.21-.32.68,0,1.21.21,1.6.64.39.43.58,1.03.58,1.82v.54h-3.16c.04.32.17.58.39.78.22.2.49.29.82.29.51,0,.91-.19,1.2-.55l.65.73c-.2.28-.47.5-.81.66-.34.16-.71.24-1.13.24ZM246.58,548.55c-.26,0-.48.09-.64.27-.16.18-.27.43-.31.76h1.84v-.11c0-.29-.09-.52-.24-.68-.15-.16-.37-.24-.65-.24Z" fill="#fff"/>
        <path d="M249.31,550.01c0-.49.09-.93.28-1.31.19-.38.46-.68.82-.89.36-.21.77-.32,1.24-.32.67,0,1.21.2,1.64.61s.66.96.71,1.67v.34c0,.76-.2,1.37-.63,1.83-.42.46-.99.69-1.71.69s-1.28-.23-1.71-.69c-.43-.46-.64-1.08-.64-1.87v-.06ZM250.64,550.1c0,.47.09.83.27,1.08.18.25.43.37.76.37s.57-.12.75-.37c.18-.25.27-.64.27-1.18,0-.46-.09-.82-.27-1.07-.18-.25-.43-.38-.76-.38s-.57.13-.75.38c-.18.25-.27.64-.27,1.17Z" fill="#fff"/>
        <path d="M259.26,549.78c0,.92-.19,1.63-.57,2.12-.38.49-.94.73-1.68.73s-1.28-.24-1.67-.72c-.38-.48-.58-1.17-.59-2.06v-1.23c0-.93.19-1.64.58-2.12.39-.48.94-.72,1.67-.72s1.28.24,1.67.72c.38.48.58,1.16.59,2.06v1.23ZM257.94,548.43c0-.55-.08-.96-.23-1.21-.15-.25-.39-.38-.71-.38s-.54.12-.69.36c-.15.24-.23.62-.24,1.13v1.62c0,.54.07.95.22,1.21.15.26.39.4.71.4s.56-.13.7-.38c.14-.25.22-.64.22-1.16v-1.59Z" fill="#fff"/>
        <path d="M264.72,552.53h-4.57v-.91l2.16-2.3c.3-.32.52-.61.66-.85.14-.24.21-.47.21-.69,0-.3-.07-.53-.22-.7-.15-.17-.36-.25-.64-.25-.3,0-.54.1-.71.31-.17.21-.26.48-.26.81h-1.33c0-.41.1-.78.29-1.11.19-.34.47-.6.82-.79.35-.19.76-.29,1.2-.29.69,0,1.22.17,1.6.49.38.33.57.8.57,1.4,0,.33-.09.67-.26,1.01-.17.34-.46.74-.88,1.2l-1.52,1.6h2.87v1.07Z" fill="#fff"/>
      </g>
    </g>
  </g>
  <g class="timeline-tracker">
    <rect x="221.37" y="489.79" width="3.1" height="112.74" fill="#fff"/>
    <path d="M222.91,493.3l-6.26-6.26c-1.03-1.03-.3-2.8,1.16-2.8h10.04c1.65,0,2.45,2.01,1.26,3.15l-6.2,5.92Z" fill="#fff"/>
  </g>
  <g clip-path="url(#clippath-1)">
    <rect x="82.92" y="494.97" width="265.17" height="128.62" fill="url(#radial-gradient-7)" opacity=".7"/>
    <path d="M119.81,608.58c16.69-1.24,33.38-1.89,50.07-2.33,8.35-.28,16.69-.34,25.04-.5l25.04-.17c16.69-.02,33.38.22,50.07.66,16.69.44,33.38,1.09,50.07,2.34-16.69,1.25-33.38,1.9-50.07,2.34-16.69.43-33.38.67-50.07.66l-25.04-.17c-8.35-.16-16.69-.22-25.04-.5-16.69-.44-33.38-1.09-50.07-2.33Z" fill="url(#radial-gradient-8)"/>
  </g>
</svg>