<?xml version="1.0" encoding="UTF-8"?>
<svg id="Layer_24" data-name="Layer 24" xmlns="http://www.w3.org/2000/svg" xmlns:xlink="http://www.w3.org/1999/xlink" viewBox="0 0 1760.24 1100.23">
  <defs>
    <radialGradient id="radial-gradient" cx="246.2" cy="237.59" fx="246.2" fy="237.59" r="339.55" gradientUnits="userSpaceOnUse">
      <stop offset="0" stop-color="#071424"/>
      <stop offset=".64" stop-color="#060f20"/>
      <stop offset="1" stop-color="#060a1c"/>
    </radialGradient>
    <radialGradient id="radial-gradient-2" cx="251.48" cy="250.19" fx="251.48" fy="250.19" r="298.52" gradientUnits="userSpaceOnUse">
      <stop offset="0" stop-color="#00a9bc"/>
      <stop offset=".1" stop-color="#00b6ca" stop-opacity=".77"/>
      <stop offset=".21" stop-color="#00c4d9" stop-opacity=".54"/>
      <stop offset=".33" stop-color="#00cfe6" stop-opacity=".34"/>
      <stop offset=".45" stop-color="#00d8ef" stop-opacity=".19"/>
      <stop offset=".56" stop-color="#00def6" stop-opacity=".09"/>
      <stop offset=".68" stop-color="#00e2fa" stop-opacity=".02"/>
      <stop offset=".8" stop-color="#00e4fc" stop-opacity="0"/>
      <stop offset="1" stop-color="#59e8c9" stop-opacity="0"/>
    </radialGradient>
    <clipPath id="clippath">
      <rect x="264.95" y="237.76" width="64.61" height="206.36" rx="32.3" ry="32.3" fill="none"/>
    </clipPath>
    <radialGradient id="radial-gradient-3" cx="607.31" cy="469.24" fx="607.31" fy="469.24" r="111.43" gradientTransform="translate(-307.13 -84.5)" gradientUnits="userSpaceOnUse">
      <stop offset="0" stop-color="#05dcf0"/>
      <stop offset=".34" stop-color="#0599ab" stop-opacity=".65"/>
      <stop offset=".8" stop-color="#054151" stop-opacity=".19"/>
      <stop offset="1" stop-color="#051e2e" stop-opacity="0"/>
    </radialGradient>
    <radialGradient id="radial-gradient-4" cx="264.95" cy="339.7" fx="264.95" fy="339.7" r="60.1" gradientUnits="userSpaceOnUse">
      <stop offset=".22" stop-color="#05dcf0"/>
      <stop offset=".33" stop-color="#05d9ed" stop-opacity=".98"/>
      <stop offset=".43" stop-color="#05d1e5" stop-opacity=".94"/>
      <stop offset=".53" stop-color="#06c5d8" stop-opacity=".86"/>
      <stop offset=".63" stop-color="#07b3c6" stop-opacity=".74"/>
      <stop offset=".72" stop-color="#099caf" stop-opacity=".6"/>
      <stop offset=".82" stop-color="#0b7f92" stop-opacity=".42"/>
      <stop offset=".92" stop-color="#0d5e71" stop-opacity=".21"/>
      <stop offset="1" stop-color="#103d4f" stop-opacity="0"/>
    </radialGradient>
  </defs>
  <g>
    <rect x="264.95" y="237.76" width="64.61" height="206.36" rx="32.3" ry="32.3" fill="url(#radial-gradient)"/>
    <rect x="264.95" y="237.76" width="64.61" height="206.36" rx="32.3" ry="32.3" fill="none" stroke="#00bbcf" stroke-miterlimit="10" stroke-width=".5"/>
    <rect x="264.95" y="237.76" width="64.61" height="206.36" rx="32.3" ry="32.3" fill="url(#radial-gradient-2)" opacity=".46"/>
  </g>
  <g>
    <g>
      <polygon points="284.77 279.95 284.77 273.01 287.54 273.01 287.54 277.18 291.71 277.18 291.71 279.95 284.77 279.95"/>
      <polygon points="302.81 279.95 302.81 277.18 306.97 277.18 306.97 273.01 309.74 273.01 309.74 279.95 302.81 279.95"/>
      <polygon points="284.77 266.06 284.77 259.12 291.71 259.12 291.71 261.89 287.54 261.89 287.54 266.06 284.77 266.06"/>
      <polygon points="306.97 266.06 306.97 261.89 302.81 261.89 302.81 259.12 309.74 259.12 309.74 266.06 306.97 266.06"/>
    </g>
    <g>
      <polygon points="284.77 279.95 284.77 273.01 287.54 273.01 287.54 277.18 291.71 277.18 291.71 279.95 284.77 279.95" fill="#05dcf0"/>
      <polygon points="302.81 279.95 302.81 277.18 306.97 277.18 306.97 273.01 309.74 273.01 309.74 279.95 302.81 279.95" fill="#05dcf0"/>
      <polygon points="284.77 266.06 284.77 259.12 291.71 259.12 291.71 261.89 287.54 261.89 287.54 266.06 284.77 266.06" fill="#05dcf0"/>
      <polygon points="306.97 266.06 306.97 261.89 302.81 261.89 302.81 259.12 309.74 259.12 309.74 266.06 306.97 266.06" fill="#05dcf0"/>
    </g>
  </g>
  <path d="M285.42,304.21v-2.5h4.42l-5.28-5.37,1.72-1.75,5.28,5.37v-4.49h2.45v8.74h-8.59ZM287.87,315.44c-.67,0-1.25-.24-1.73-.73-.48-.49-.72-1.08-.72-1.76v-6.24h2.45v6.24h9.81v2.5h-9.81ZM307.5,306.71v-8.74h-11.04v-2.5h11.04c.67,0,1.25.24,1.73.73.48.49.72,1.08.72,1.76v8.74h-2.45ZM300.14,315.44v-6.24h9.81v6.24h-9.81Z" fill="#d4d3d8"/>
  <path d="M300.69,378.44v.94c0,.27.09.49.27.67.18.18.4.27.67.26s.49-.09.67-.27c.18-.18.27-.4.26-.67v-.94h.94c.35,0,.65-.12.89-.36.24-.24.36-.54.36-.89v-4.99c0-.35-.12-.65-.36-.89-.24-.24-.54-.36-.89-.36h-3.74c-.35,0-.65.12-.89.36s-.36.54-.36.89v4.99c0,.35.12.65.36.89.24.24.54.36.89.36h.94ZM291.64,375.95h2.5v1.56c0,.27.09.49.27.67s.4.27.67.26.49-.09.67-.27c.18-.18.27-.4.26-.67v-5.62c0-.27-.09-.49-.27-.67-.18-.18-.4-.26-.67-.27s-.49.09-.67.27c-.18.18-.27.4-.27.67v2.18h-2.5v-2.18c0-.27-.09-.49-.27-.67-.18-.18-.4-.26-.67-.27s-.49.09-.67.27c-.18.18-.27.4-.27.67v5.62c0,.27.09.49.27.67.18.18.4.27.67.26s.49-.09.67-.27c.18-.18.27-.4.26-.67v-1.56ZM300.38,376.57v-3.74h2.5v3.74h-2.5ZM287.27,384.68c-.69,0-1.27-.24-1.76-.73-.49-.49-.73-1.08-.73-1.76v-14.98c0-.69.24-1.27.73-1.76.49-.49,1.08-.73,1.76-.73h19.97c.69,0,1.27.24,1.76.73.49.49.73,1.08.73,1.76v14.98c0,.69-.24,1.27-.73,1.76-.49.49-1.08.73-1.76.73h-19.97Z" fill="#d4d3d8"/>
  <path d="M286.76,350.06c-.67-1.16-1.24-2.37-1.71-3.62-.47-1.25-.71-2.54-.71-3.87,0-1.73.34-3.35,1.02-4.87.68-1.52,1.6-2.84,2.76-3.96,1.16-1.12,2.53-2.01,4.11-2.67,1.57-.65,3.26-.98,5.04-.98.5,0,.99.03,1.49.09s.99.15,1.49.25l-1.71,2.25c-.22-.04-.43-.07-.63-.08-.21,0-.41-.02-.63-.02-2.89,0-5.34.97-7.34,2.9-2,1.93-3.01,4.3-3.01,7.08,0,.87.12,1.73.37,2.57.25.84.6,1.65,1.05,2.42h17.81c.47-.75.83-1.55,1.07-2.4.24-.85.36-1.72.36-2.59,0-1.37-.28-2.68-.83-3.93-.55-1.25-1.34-2.34-2.38-3.28l.68-2.71c1.62,1.19,2.87,2.65,3.75,4.38.88,1.74,1.34,3.58,1.36,5.54,0,1.35-.24,2.65-.71,3.88-.47,1.24-1.06,2.44-1.75,3.6h-20.95ZM296.21,344.82c.69.29,1.39.31,2.09.05s1.16-.73,1.37-1.42c.63-2,1.19-4,1.68-6.01.5-2.01.95-4.03,1.36-6.07-1.34,1.62-2.65,3.26-3.94,4.91-1.29,1.65-2.55,3.33-3.78,5.04-.43.6-.52,1.26-.26,1.97.26.71.75,1.22,1.49,1.53" fill="#d4d3d8"/>
  <path d="M306.79,399.33h-19.06c-1.63,0-2.94,1.32-2.94,2.94v14.52c0,1.63,1.32,2.94,2.94,2.94h19.06c1.63,0,2.94-1.32,2.94-2.94v-14.52c0-1.63-1.32-2.94-2.94-2.94ZM291.01,404.55h4.99v2.5h-4.99v4.99h4.99v2.5h-4.99c-1.38,0-2.5-1.12-2.5-2.5v-4.99c0-1.38,1.12-2.5,2.5-2.5M300.99,404.55h4.99v2.5h-4.99v4.99h4.99v2.5h-4.99c-1.38,0-2.5-1.12-2.5-2.5v-4.99c0-1.38,1.12-2.5,2.5-2.5" fill="#d4d3d8"/>
  <g clip-path="url(#clippath)">
    <rect x="179.68" y="281.84" width="224.92" height="109.09" transform="translate(628.52 44.25) rotate(90)" fill="url(#radial-gradient-3)" opacity=".7"/>
    <path d="M264.95,254.76c1.24,14.16,1.89,28.31,2.33,42.47.28,7.08.34,14.16.5,21.24l.17,21.24c.02,14.16-.22,28.31-.66,42.47-.44,14.16-1.09,28.31-2.34,42.47-1.25-14.16-1.9-28.31-2.34-42.47-.43-14.16-.67-28.31-.66-42.47l.17-21.24c.16-7.08.22-14.16.5-21.24.44-14.16,1.09-28.31,2.33-42.47Z" fill="url(#radial-gradient-4)"/>
  </g>
</svg>