<?xml version="1.0" encoding="UTF-8"?>
<svg id="Layer_18" data-name="Layer 18" xmlns="http://www.w3.org/2000/svg" xmlns:xlink="http://www.w3.org/1999/xlink" viewBox="0 0 1289.28 860">
  <defs>
    <style>
      .cls-1 {
        fill: #05dcf0;
      }

      .cls-2 {
        fill: none;
      }

      .cls-3 {
        fill: #05daee;
      }

      .cls-4 {
        fill: #05dbef;
      }

      .cls-5 {
        fill: none;
        stroke: url(#linear-gradient-stroke);
        stroke-width: 5;
        stroke-linecap: round;
        stroke-dasharray: 20 180;
        animation: flow 4s linear infinite;
      }

      .cls-5-back {
        fill: none;
        stroke: #103d4f;
        stroke-width: 4;
        stroke-linecap: round;
        opacity: 0.4;
      }

      .cls-6 {
        clip-path: url(#clippath);
      }

      .arrow-glow {
        filter: drop-shadow(0 0 8px #05dcf0);
        animation: arrow-glow-pulse 2s ease-in-out infinite;
      }

      @keyframes flow {
        to {
          stroke-dashoffset: -200;
        }
      }

      @keyframes arrow-glow-pulse {
        0%, 100% {
          opacity: 0.5;
          transform: scale(0.98);
          transform-origin: 585px 566px;
        }
        50% {
          opacity: 1;
          transform: scale(1.04);
          transform-origin: 585px 566px;
        }
      }
    </style>
    <linearGradient id="linear-gradient-stroke" x1="508.27" y1="532.51" x2="595.32" y2="532.51" gradientUnits="userSpaceOnUse">
      <stop offset="0" stop-color="#05dcf0" stop-opacity="0"/>
      <stop offset="0.5" stop-color="#05dcf0" stop-opacity="1"/>
      <stop offset="1" stop-color="#05dcf0" stop-opacity="0"/>
    </linearGradient>
    <linearGradient id="linear-gradient" x1="508.27" y1="532.51" x2="595.32" y2="532.51" gradientUnits="userSpaceOnUse">
      <stop offset="0" stop-color="#103d4f"/>
      <stop offset=".23" stop-color="#0c687b"/>
      <stop offset=".75" stop-color="#05d6ea"/>
      <stop offset=".78" stop-color="#05dcf0"/>
    </linearGradient>
    <clipPath id="clippath">
      <polygon class="cls-2" points="577.73 582.42 575 579.49 589.45 566.06 575 552.63 577.73 549.71 595.32 566.06 577.73 582.42"/>
    </clipPath>
  </defs>
  <path class="cls-5-back" d="M590.98,568.56h-55.55c-14.97,0-27.16-12.18-27.16-27.16v-44.94c0,12.22,9.94,22.16,22.16,22.16h55.55"/>
  <path class="cls-5" d="M590.98,568.56h-55.55c-14.97,0-27.16-12.18-27.16-27.16v-44.94h5v44.94c0,12.22,9.94,22.16,22.16,22.16h55.55v5Z"/>
  <g class="cls-6 arrow-glow">
    <rect class="cls-3" x="575" y="549.71" width=".14" height="32.71"/>
    <rect class="cls-4" x="575.13" y="549.71" width=".42" height="32.71"/>
    <rect class="cls-1" x="575.55" y="549.71" width=".42" height="32.71"/>
    <rect class="cls-1" x="575.98" y="549.71" width="19.34" height="32.71"/>
  </g>
</svg>