<svg width="1261" height="1795" viewBox="0 0 1261 1795" fill="none" xmlns="http://www.w3.org/2000/svg">
<g filter="url(#filter0_f_2_26251)">
<path d="M912.279 555.978C857.662 527.011 799.867 373.256 777.796 300H1035.78C1052.94 300 1128.76 408.627 1193.25 425.223C1257.75 441.819 1210.06 600.233 1223.44 667.119C1236.82 734.005 1214.18 861.743 1210.06 886.888C1205.95 912.033 1194.97 1045.3 1193.25 1117.72C1191.54 1190.14 1141.79 1184.1 1128.76 1256.52C1115.72 1328.94 1035.78 1320.39 948.302 1340C860.82 1359.62 842.293 1320.39 713.3 1340C584.306 1359.62 321.957 1530.19 303.088 1488.45C284.22 1446.71 355.736 1349.2 410.97 1276.78C466.204 1204.37 648.802 1087.04 798.723 1072.96C948.644 1058.88 984.323 905.998 1035.78 831.066C1087.24 756.133 980.549 592.187 912.279 555.978Z" fill="url(#paint0_linear_2_26251)"/>
</g>
<defs>
<filter id="filter0_f_2_26251" x="0" y="0" width="1528" height="1795" filterUnits="userSpaceOnUse" color-interpolation-filters="sRGB">
<feFlood flood-opacity="0" result="BackgroundImageFix"/>
<feBlend mode="normal" in="SourceGraphic" in2="BackgroundImageFix" result="shape"/>
<feGaussianBlur stdDeviation="150" result="effect1_foregroundBlur_2_26251"/>
</filter>
<linearGradient id="paint0_linear_2_26251" x1="764" y1="300" x2="764" y2="1495" gradientUnits="userSpaceOnUse">
<stop stop-color="#003741" stop-opacity="0.5"/>
<stop offset="1" stop-color="#46B6A0" stop-opacity="0.5"/>
</linearGradient>
</defs>
</svg>
