<svg width="408" height="296" viewBox="0 0 408 296" fill="none" xmlns="http://www.w3.org/2000/svg">
<g opacity="0.26">
<path d="M369.6 0H206.4C194.029 0 184 10.0288 184 22.4V129.6C184 141.971 194.029 152 206.4 152H369.6C381.971 152 392 141.971 392 129.6V22.4C392 10.0288 381.971 0 369.6 0Z" fill="#003137"/>
<path d="M369.6 144H206.4C194.029 144 184 154.029 184 166.4V273.6C184 285.971 194.029 296 206.4 296H369.6C381.971 296 392 285.971 392 273.6V166.4C392 154.029 381.971 144 369.6 144Z" fill="#003137"/>
</g>
<path d="M185.6 65.6006H22.4C10.0288 65.6006 0 75.6294 0 88.0006V195.201C0 207.572 10.0288 217.601 22.4 217.601H185.6C197.971 217.601 208 207.572 208 195.201V88.0006C208 75.6294 197.971 65.6006 185.6 65.6006Z" fill="url(#paint0_linear_2_21490)"/>
<path d="M182.4 78.4004H25.6C15.8798 78.4004 8 86.2802 8 96.0004V187.2C8 196.921 15.8798 204.8 25.6 204.8H182.4C192.12 204.8 200 196.921 200 187.2V96.0004C200 86.2802 192.12 78.4004 182.4 78.4004Z" fill="#0B1F2A"/>
<path d="M160 97.5996H48C39.1634 97.5996 32 104.763 32 113.6V169.6C32 178.436 39.1634 185.6 48 185.6H160C168.837 185.6 176 178.436 176 169.6V113.6C176 104.763 168.837 97.5996 160 97.5996Z" fill="#008A9A" stroke="#46B6A0" stroke-width="1.6"/>
<path d="M155.2 110.399H52.7998C48.3815 110.399 44.7998 113.981 44.7998 118.399V156.799C44.7998 161.218 48.3815 164.799 52.7998 164.799H155.2C159.618 164.799 163.2 161.218 163.2 156.799V118.399C163.2 113.981 159.618 110.399 155.2 110.399Z" fill="#008A9A"/>
<path d="M162.4 155.199H45.5998C45.158 155.199 44.7998 155.557 44.7998 155.999C44.7998 156.441 45.158 156.799 45.5998 156.799H162.4C162.842 156.799 163.2 156.441 163.2 155.999C163.2 155.557 162.842 155.199 162.4 155.199Z" fill="#111827"/>
<path d="M44.7998 152C64.7998 144 76.7998 134.4 92.7998 132.8C110.4 131.2 121.6 142.4 134.4 139.2C148.8 136 156.8 131.2 163.2 132.8V164.8H44.7998V152Z" fill="url(#paint1_linear_2_21490)"/>
<path d="M44.7998 152C64.7998 144 76.7998 134.4 92.7998 132.8C110.4 131.2 121.6 142.4 134.4 139.2C148.8 136 156.8 131.2 163.2 132.8" stroke="#00A9BD" stroke-width="1.6" stroke-linecap="round"/>
<path d="M145.6 123.199C153.553 123.199 160 116.752 160 108.799C160 100.847 153.553 94.3994 145.6 94.3994C137.647 94.3994 131.2 100.847 131.2 108.799C131.2 116.752 137.647 123.199 145.6 123.199Z" fill="#46B6A0"/>
<path d="M140.8 108.8L144.8 113.6L151.2 105.6" stroke="#F9FAFB" stroke-width="1.92" stroke-linecap="round"/>
<path d="M19.2 83.1998C20.9673 83.1998 22.4 81.7671 22.4 79.9998C22.4 78.2325 20.9673 76.7998 19.2 76.7998C17.4327 76.7998 16 78.2325 16 79.9998C16 81.7671 17.4327 83.1998 19.2 83.1998Z" fill="#4B5563"/>
<path d="M30.4002 83.1998C32.1675 83.1998 33.6002 81.7671 33.6002 79.9998C33.6002 78.2325 32.1675 76.7998 30.4002 76.7998C28.6329 76.7998 27.2002 78.2325 27.2002 79.9998C27.2002 81.7671 28.6329 83.1998 30.4002 83.1998Z" fill="#4B5563"/>
<path d="M41.6004 83.1998C43.3677 83.1998 44.8004 81.7671 44.8004 79.9998C44.8004 78.2325 43.3677 76.7998 41.6004 76.7998C39.8331 76.7998 38.4004 78.2325 38.4004 79.9998C38.4004 81.7671 39.8331 83.1998 41.6004 83.1998Z" fill="#4B5563"/>
<path opacity="0.9" d="M144.8 27.2012H77.6002C67.4382 27.2012 59.2002 35.4391 59.2002 45.6012C59.2002 55.7632 67.4382 64.0012 77.6002 64.0012H144.8C154.962 64.0012 163.2 55.7632 163.2 45.6012C163.2 35.4391 154.962 27.2012 144.8 27.2012Z" fill="#007887"/>
<path opacity="0.95" d="M144.8 30.4014H77.6004C69.2057 30.4014 62.4004 37.2066 62.4004 45.6014C62.4004 53.9961 69.2057 60.8014 77.6004 60.8014H144.8C153.195 60.8014 160 53.9961 160 45.6014C160 37.2066 153.195 30.4014 144.8 30.4014Z" fill="#008A9A"/>
<path d="M82.7269 48.8008V39.4917H85.8723C86.5996 39.4917 87.1966 39.6159 87.6632 39.8644C88.1299 40.1099 88.4754 40.4478 88.6996 40.8781C88.9239 41.3084 89.036 41.7978 89.036 42.3462C89.036 42.8947 88.9239 43.3811 88.6996 43.8053C88.4754 44.2296 88.1314 44.5629 87.6678 44.8053C87.2042 45.0447 86.6117 45.1644 85.8905 45.1644H83.3451V44.1462H85.8542C86.3511 44.1462 86.7511 44.0735 87.0542 43.9281C87.3602 43.7826 87.5814 43.5765 87.7178 43.3099C87.8572 43.0402 87.9269 42.719 87.9269 42.3462C87.9269 41.9735 87.8572 41.6478 87.7178 41.369C87.5784 41.0902 87.3557 40.875 87.0496 40.7235C86.7435 40.569 86.339 40.4917 85.836 40.4917H83.8542V48.8008H82.7269ZM87.1087 44.619L89.3996 48.8008H88.0905L85.836 44.619H87.1087ZM93.6212 48.9462C92.9485 48.9462 92.3682 48.7978 91.8803 48.5008C91.3954 48.2008 91.0212 47.7826 90.7576 47.2462C90.497 46.7068 90.3667 46.0796 90.3667 45.3644C90.3667 44.6493 90.497 44.019 90.7576 43.4735C91.0212 42.925 91.3879 42.4978 91.8576 42.1917C92.3303 41.8826 92.8818 41.7281 93.5121 41.7281C93.8757 41.7281 94.2348 41.7887 94.5894 41.9099C94.9439 42.0311 95.2667 42.2281 95.5576 42.5008C95.8485 42.7705 96.0803 43.1281 96.253 43.5735C96.4257 44.019 96.5121 44.5674 96.5121 45.219V45.6735H91.1303V44.7462H95.4212C95.4212 44.3523 95.3424 44.0008 95.1848 43.6917C95.0303 43.3826 94.8091 43.1387 94.5212 42.9599C94.2364 42.7811 93.9 42.6917 93.5121 42.6917C93.0848 42.6917 92.7151 42.7978 92.403 43.0099C92.0939 43.219 91.856 43.4917 91.6894 43.8281C91.5227 44.1644 91.4394 44.525 91.4394 44.9099V45.5281C91.4394 46.0553 91.5303 46.5023 91.7121 46.869C91.897 47.2326 92.153 47.5099 92.4803 47.7008C92.8076 47.8887 93.1879 47.9826 93.6212 47.9826C93.903 47.9826 94.1576 47.9432 94.3848 47.8644C94.6151 47.7826 94.8136 47.6614 94.9803 47.5008C95.147 47.3371 95.2757 47.1341 95.3667 46.8917L96.403 47.1826C96.2939 47.5341 96.1106 47.8432 95.853 48.1099C95.5954 48.3735 95.2773 48.5796 94.8985 48.7281C94.5197 48.8735 94.0939 48.9462 93.6212 48.9462ZM98.1439 51.419V41.819H99.1803V42.9281H99.3076C99.3864 42.8068 99.4954 42.6523 99.6348 42.4644C99.7773 42.2735 99.9803 42.1038 100.244 41.9553C100.511 41.8038 100.871 41.7281 101.326 41.7281C101.914 41.7281 102.432 41.875 102.88 42.169C103.329 42.4629 103.679 42.8796 103.93 43.419C104.182 43.9584 104.308 44.5947 104.308 45.3281C104.308 46.0674 104.182 46.7084 103.93 47.2508C103.679 47.7902 103.33 48.2084 102.885 48.5053C102.439 48.7993 101.926 48.9462 101.344 48.9462C100.895 48.9462 100.536 48.872 100.267 48.7235C99.997 48.572 99.7894 48.4008 99.6439 48.2099C99.4985 48.0159 99.3864 47.8553 99.3076 47.7281H99.2167V51.419H98.1439ZM99.1985 45.3099C99.1985 45.8371 99.2757 46.3023 99.4303 46.7053C99.5848 47.1053 99.8106 47.419 100.108 47.6462C100.405 47.8705 100.768 47.9826 101.198 47.9826C101.647 47.9826 102.021 47.8644 102.321 47.6281C102.624 47.3887 102.852 47.0674 103.003 46.6644C103.158 46.2584 103.235 45.8068 103.235 45.3099C103.235 44.819 103.159 44.3765 103.008 43.9826C102.859 43.5856 102.633 43.272 102.33 43.0417C102.03 42.8084 101.653 42.6917 101.198 42.6917C100.762 42.6917 100.395 42.8023 100.098 43.0235C99.8015 43.2417 99.5773 43.5478 99.4257 43.9417C99.2742 44.3326 99.1985 44.7887 99.1985 45.3099ZM108.78 48.9462C108.15 48.9462 107.597 48.7962 107.121 48.4962C106.648 48.1962 106.279 47.7765 106.012 47.2371C105.748 46.6978 105.617 46.0674 105.617 45.3462C105.617 44.619 105.748 43.9841 106.012 43.4417C106.279 42.8993 106.648 42.4781 107.121 42.1781C107.597 41.8781 108.15 41.7281 108.78 41.7281C109.411 41.7281 109.962 41.8781 110.435 42.1781C110.911 42.4781 111.28 42.8993 111.544 43.4417C111.811 43.9841 111.944 44.619 111.944 45.3462C111.944 46.0674 111.811 46.6978 111.544 47.2371C111.28 47.7765 110.911 48.1962 110.435 48.4962C109.962 48.7962 109.411 48.9462 108.78 48.9462ZM108.78 47.9826C109.259 47.9826 109.653 47.8599 109.962 47.6144C110.271 47.369 110.5 47.0462 110.648 46.6462C110.797 46.2462 110.871 45.8129 110.871 45.3462C110.871 44.8796 110.797 44.4447 110.648 44.0417C110.5 43.6387 110.271 43.3129 109.962 43.0644C109.653 42.8159 109.259 42.6917 108.78 42.6917C108.302 42.6917 107.908 42.8159 107.598 43.0644C107.289 43.3129 107.061 43.6387 106.912 44.0417C106.764 44.4447 106.689 44.8796 106.689 45.3462C106.689 45.8129 106.764 46.2462 106.912 46.6462C107.061 47.0462 107.289 47.369 107.598 47.6144C107.908 47.8599 108.302 47.9826 108.78 47.9826ZM113.581 48.8008V41.819H114.618V42.8735H114.691C114.818 42.5281 115.048 42.2478 115.381 42.0326C115.715 41.8174 116.091 41.7099 116.509 41.7099C116.587 41.7099 116.686 41.7114 116.804 41.7144C116.922 41.7174 117.012 41.722 117.072 41.7281V42.819C117.036 42.8099 116.953 42.7962 116.822 42.7781C116.695 42.7568 116.56 42.7462 116.418 42.7462C116.078 42.7462 115.775 42.8174 115.509 42.9599C115.245 43.0993 115.036 43.2932 114.881 43.5417C114.73 43.7871 114.654 44.0674 114.654 44.3826V48.8008H113.581ZM121.818 41.819V42.7281H118.2V41.819H121.818ZM119.254 40.1462H120.327V46.8008C120.327 47.1038 120.371 47.3311 120.459 47.4826C120.55 47.6311 120.665 47.7311 120.804 47.7826C120.947 47.8311 121.097 47.8553 121.254 47.8553C121.372 47.8553 121.469 47.8493 121.545 47.8371C121.621 47.822 121.681 47.8099 121.727 47.8008L121.945 48.7644C121.872 48.7917 121.771 48.819 121.641 48.8462C121.51 48.8765 121.345 48.8917 121.145 48.8917C120.842 48.8917 120.545 48.8265 120.254 48.6962C119.966 48.5659 119.727 48.3674 119.536 48.1008C119.348 47.8341 119.254 47.4978 119.254 47.0917V40.1462ZM128.252 43.3826L127.288 43.6553C127.228 43.4947 127.138 43.3387 127.02 43.1871C126.905 43.0326 126.747 42.9053 126.547 42.8053C126.347 42.7053 126.091 42.6553 125.779 42.6553C125.352 42.6553 124.996 42.7538 124.711 42.9508C124.429 43.1447 124.288 43.3917 124.288 43.6917C124.288 43.9584 124.385 44.169 124.579 44.3235C124.773 44.4781 125.076 44.6068 125.488 44.7099L126.525 44.9644C127.149 45.1159 127.614 45.3478 127.92 45.6599C128.226 45.969 128.379 46.3674 128.379 46.8553C128.379 47.2553 128.264 47.6129 128.034 47.9281C127.806 48.2432 127.488 48.4917 127.079 48.6735C126.67 48.8553 126.194 48.9462 125.652 48.9462C124.94 48.9462 124.35 48.7917 123.884 48.4826C123.417 48.1735 123.122 47.722 122.997 47.1281L124.016 46.8735C124.112 47.2493 124.296 47.5311 124.566 47.719C124.838 47.9068 125.194 48.0008 125.634 48.0008C126.134 48.0008 126.531 47.8947 126.825 47.6826C127.122 47.4674 127.27 47.2099 127.27 46.9099C127.27 46.6674 127.185 46.4644 127.016 46.3008C126.846 46.1341 126.585 46.0099 126.234 45.9281L125.07 45.6553C124.431 45.5038 123.961 45.269 123.661 44.9508C123.364 44.6296 123.216 44.2281 123.216 43.7462C123.216 43.3523 123.326 43.0038 123.547 42.7008C123.772 42.3978 124.076 42.1599 124.461 41.9871C124.849 41.8144 125.288 41.7281 125.779 41.7281C126.47 41.7281 127.012 41.8796 127.406 42.1826C127.803 42.4856 128.085 42.8856 128.252 43.3826Z" fill="#F9FAFB"/>
<path opacity="0.9" d="M137.6 200H81.5996C72.7631 200 65.5996 207.163 65.5996 216C65.5996 224.837 72.7631 232 81.5996 232H137.6C146.436 232 153.6 224.837 153.6 216C153.6 207.163 146.436 200 137.6 200Z" fill="#007887"/>
<path opacity="0.6" d="M143.2 211.2H75.9996C74.6741 211.2 73.5996 212.275 73.5996 213.6C73.5996 214.926 74.6741 216 75.9996 216H143.2C144.525 216 145.6 214.926 145.6 213.6C145.6 212.275 144.525 211.2 143.2 211.2Z" fill="#9CA3AF"/>
<g opacity="0.45">
<path d="M251.2 118.399H216C208.047 118.399 201.6 124.847 201.6 132.799V145.599C201.6 153.552 208.047 159.999 216 159.999H251.2C259.153 159.999 265.6 153.552 265.6 145.599V132.799C265.6 124.847 259.153 118.399 251.2 118.399Z" fill="url(#paint2_linear_2_21490)"/>
<path d="M251.2 166.399H216C208.047 166.399 201.6 172.847 201.6 180.799V193.599C201.6 201.552 208.047 207.999 216 207.999H251.2C259.153 207.999 265.6 201.552 265.6 193.599V180.799C265.6 172.847 259.153 166.399 251.2 166.399Z" fill="url(#paint3_linear_2_21490)"/>
</g>
<path opacity="0.95" d="M387.2 6.39941H252.8C241.312 6.39941 232 15.7119 232 27.1994V113.599C232 125.087 241.312 134.399 252.8 134.399H387.2C398.688 134.399 408 125.087 408 113.599V27.1994C408 15.7119 398.688 6.39941 387.2 6.39941Z" fill="#003137"/>
<path d="M382.4 14.3994H257.6C247.88 14.3994 240 22.2792 240 31.9994V108.799C240 118.52 247.88 126.399 257.6 126.399H382.4C392.12 126.399 400 118.52 400 108.799V31.9994C400 22.2792 392.12 14.3994 382.4 14.3994Z" fill="#00A9BD"/>
<path d="M369.6 19.2002H270.4C262.447 19.2002 256 25.6473 256 33.6002C256 41.5531 262.447 48.0002 270.4 48.0002H369.6C377.553 48.0002 384 41.5531 384 33.6002C384 25.6473 377.553 19.2002 369.6 19.2002Z" fill="url(#paint4_linear_2_21490)"/>
<path d="M288.618 31.2006H287.491C287.424 30.8763 287.308 30.5915 287.141 30.346C286.977 30.1006 286.777 29.8945 286.541 29.7279C286.308 29.5582 286.048 29.4309 285.764 29.346C285.479 29.2612 285.182 29.2188 284.873 29.2188C284.309 29.2188 283.798 29.3612 283.341 29.646C282.886 29.9309 282.524 30.3506 282.255 30.9051C281.988 31.4597 281.855 32.14 281.855 32.946C281.855 33.7521 281.988 34.4324 282.255 34.9869C282.524 35.5415 282.886 35.9612 283.341 36.246C283.798 36.5309 284.309 36.6733 284.873 36.6733C285.182 36.6733 285.479 36.6309 285.764 36.546C286.048 36.4612 286.308 36.3354 286.541 36.1688C286.777 35.9991 286.977 35.7915 287.141 35.546C287.308 35.2976 287.424 35.0127 287.491 34.6915H288.618C288.533 35.1673 288.379 35.593 288.155 35.9688C287.93 36.3445 287.652 36.6642 287.318 36.9279C286.985 37.1885 286.611 37.3869 286.195 37.5233C285.783 37.6597 285.342 37.7279 284.873 37.7279C284.079 37.7279 283.373 37.5339 282.755 37.146C282.136 36.7582 281.65 36.2066 281.295 35.4915C280.941 34.7763 280.764 33.9279 280.764 32.946C280.764 31.9642 280.941 31.1157 281.295 30.4006C281.65 29.6854 282.136 29.1339 282.755 28.746C283.373 28.3582 284.079 28.1642 284.873 28.1642C285.342 28.1642 285.783 28.2324 286.195 28.3688C286.611 28.5051 286.985 28.7051 287.318 28.9688C287.652 29.2294 287.93 29.5476 288.155 29.9233C288.379 30.296 288.533 30.7218 288.618 31.2006ZM293.131 37.746C292.5 37.746 291.947 37.596 291.472 37.296C290.999 36.996 290.629 36.5763 290.363 36.0369C290.099 35.4976 289.967 34.8673 289.967 34.146C289.967 33.4188 290.099 32.7839 290.363 32.2415C290.629 31.6991 290.999 31.2779 291.472 30.9779C291.947 30.6779 292.5 30.5279 293.131 30.5279C293.761 30.5279 294.313 30.6779 294.785 30.9779C295.261 31.2779 295.631 31.6991 295.894 32.2415C296.161 32.7839 296.294 33.4188 296.294 34.146C296.294 34.8673 296.161 35.4976 295.894 36.0369C295.631 36.5763 295.261 36.996 294.785 37.296C294.313 37.596 293.761 37.746 293.131 37.746ZM293.131 36.7824C293.609 36.7824 294.003 36.6597 294.313 36.4142C294.622 36.1688 294.85 35.846 294.999 35.446C295.147 35.046 295.222 34.6127 295.222 34.146C295.222 33.6794 295.147 33.2445 294.999 32.8415C294.85 32.4385 294.622 32.1127 294.313 31.8642C294.003 31.6157 293.609 31.4915 293.131 31.4915C292.652 31.4915 292.258 31.6157 291.949 31.8642C291.64 32.1127 291.411 32.4385 291.263 32.8415C291.114 33.2445 291.04 33.6794 291.04 34.146C291.04 34.6127 291.114 35.046 291.263 35.446C291.411 35.846 291.64 36.1688 291.949 36.4142C292.258 36.6597 292.652 36.7824 293.131 36.7824ZM297.932 37.6006V30.6188H298.968V31.7097H299.059C299.205 31.3369 299.439 31.0476 299.764 30.8415C300.088 30.6324 300.477 30.5279 300.932 30.5279C301.392 30.5279 301.776 30.6324 302.082 30.8415C302.391 31.0476 302.632 31.3369 302.805 31.7097H302.877C303.056 31.3491 303.324 31.0627 303.682 30.8506C304.039 30.6354 304.468 30.5279 304.968 30.5279C305.592 30.5279 306.103 30.7233 306.5 31.1142C306.897 31.5021 307.095 32.1066 307.095 32.9279V37.6006H306.023V32.9279C306.023 32.4127 305.882 32.0445 305.6 31.8233C305.318 31.6021 304.986 31.4915 304.605 31.4915C304.114 31.4915 303.733 31.64 303.464 31.9369C303.194 32.2309 303.059 32.6036 303.059 33.0551V37.6006H301.968V32.8188C301.968 32.4218 301.839 32.1021 301.582 31.8597C301.324 31.6142 300.992 31.4915 300.586 31.4915C300.308 31.4915 300.047 31.5657 299.805 31.7142C299.565 31.8627 299.371 32.0688 299.223 32.3324C299.077 32.593 299.005 32.8945 299.005 33.2369V37.6006H297.932ZM309.057 40.2188V30.6188H310.093V31.7279H310.22C310.299 31.6066 310.408 31.4521 310.548 31.2642C310.69 31.0733 310.893 30.9036 311.157 30.7551C311.423 30.6036 311.784 30.5279 312.239 30.5279C312.827 30.5279 313.345 30.6748 313.793 30.9688C314.242 31.2627 314.592 31.6794 314.843 32.2188C315.095 32.7582 315.22 33.3945 315.22 34.1279C315.22 34.8673 315.095 35.5082 314.843 36.0506C314.592 36.59 314.243 37.0082 313.798 37.3051C313.352 37.5991 312.839 37.746 312.257 37.746C311.808 37.746 311.449 37.6718 311.18 37.5233C310.91 37.3718 310.702 37.2006 310.557 37.0097C310.411 36.8157 310.299 36.6551 310.22 36.5279H310.13V40.2188H309.057ZM310.111 34.1097C310.111 34.6369 310.189 35.1021 310.343 35.5051C310.498 35.9051 310.723 36.2188 311.02 36.446C311.317 36.6703 311.681 36.7824 312.111 36.7824C312.56 36.7824 312.934 36.6642 313.234 36.4279C313.537 36.1885 313.764 35.8673 313.916 35.4642C314.07 35.0582 314.148 34.6066 314.148 34.1097C314.148 33.6188 314.072 33.1763 313.92 32.7824C313.772 32.3854 313.546 32.0718 313.243 31.8415C312.943 31.6082 312.566 31.4915 312.111 31.4915C311.675 31.4915 311.308 31.6021 311.011 31.8233C310.714 32.0415 310.49 32.3476 310.339 32.7415C310.187 33.1324 310.111 33.5885 310.111 34.1097ZM318.911 37.7642C318.469 37.7642 318.067 37.6809 317.707 37.5142C317.346 37.3445 317.06 37.1006 316.848 36.7824C316.636 36.4612 316.53 36.0733 316.53 35.6188C316.53 35.2188 316.608 34.8945 316.766 34.646C316.923 34.3945 317.134 34.1976 317.398 34.0551C317.661 33.9127 317.952 33.8066 318.27 33.7369C318.592 33.6642 318.914 33.6066 319.239 33.5642C319.663 33.5097 320.007 33.4688 320.27 33.4415C320.537 33.4112 320.731 33.3612 320.852 33.2915C320.977 33.2218 321.039 33.1006 321.039 32.9279V32.8915C321.039 32.443 320.916 32.0945 320.67 31.846C320.428 31.5976 320.06 31.4733 319.566 31.4733C319.054 31.4733 318.652 31.5854 318.361 31.8097C318.07 32.0339 317.866 32.2733 317.748 32.5279L316.73 32.1642C316.911 31.74 317.154 31.4097 317.457 31.1733C317.763 30.9339 318.096 30.7673 318.457 30.6733C318.82 30.5763 319.178 30.5279 319.53 30.5279C319.754 30.5279 320.011 30.5551 320.302 30.6097C320.596 30.6612 320.88 30.7688 321.152 30.9324C321.428 31.096 321.657 31.343 321.839 31.6733C322.02 32.0036 322.111 32.446 322.111 33.0006V37.6006H321.039V36.6551H320.984C320.911 36.8066 320.79 36.9688 320.62 37.1415C320.451 37.3142 320.225 37.4612 319.943 37.5824C319.661 37.7036 319.317 37.7642 318.911 37.7642ZM319.075 36.8006C319.499 36.8006 319.857 36.7173 320.148 36.5506C320.442 36.3839 320.663 36.1688 320.811 35.9051C320.963 35.6415 321.039 35.3642 321.039 35.0733V34.0915C320.993 34.146 320.893 34.196 320.739 34.2415C320.587 34.2839 320.411 34.3218 320.211 34.3551C320.014 34.3854 319.822 34.4127 319.634 34.4369C319.449 34.4582 319.299 34.4763 319.184 34.4915C318.905 34.5279 318.645 34.5869 318.402 34.6688C318.163 34.7476 317.969 34.8673 317.82 35.0279C317.675 35.1854 317.602 35.4006 317.602 35.6733C317.602 36.046 317.74 36.3279 318.016 36.5188C318.295 36.7066 318.648 36.8006 319.075 36.8006ZM325.142 33.4006V37.6006H324.069V30.6188H325.106V31.7097H325.197C325.36 31.3551 325.609 31.0703 325.942 30.8551C326.275 30.6369 326.706 30.5279 327.233 30.5279C327.706 30.5279 328.119 30.6248 328.474 30.8188C328.828 31.0097 329.104 31.3006 329.301 31.6915C329.498 32.0794 329.597 32.5703 329.597 33.1642V37.6006H328.524V33.2369C328.524 32.6885 328.381 32.2612 328.097 31.9551C327.812 31.646 327.421 31.4915 326.924 31.4915C326.581 31.4915 326.275 31.5657 326.006 31.7142C325.739 31.8627 325.528 32.0794 325.374 32.3642C325.219 32.6491 325.142 32.9945 325.142 33.4006ZM331.998 40.2188C331.816 40.2188 331.654 40.2036 331.511 40.1733C331.369 40.146 331.27 40.1188 331.216 40.0915L331.489 39.146C331.749 39.2127 331.98 39.2369 332.18 39.2188C332.38 39.2006 332.557 39.1112 332.711 38.9506C332.869 38.793 333.013 38.5369 333.143 38.1824L333.343 37.6369L330.761 30.6188H331.925L333.852 36.1824H333.925L335.852 30.6188H337.016L334.052 38.6188C333.919 38.9794 333.754 39.2779 333.557 39.5142C333.36 39.7536 333.131 39.9309 332.87 40.046C332.613 40.1612 332.322 40.2188 331.998 40.2188ZM345.286 28.2915V37.6006H344.159V29.4733H344.105L341.832 30.9824V29.8369L344.159 28.2915H345.286ZM351 37.7279C350.315 37.7279 349.732 37.5415 349.25 37.1688C348.768 36.793 348.4 36.2491 348.145 35.5369C347.891 34.8218 347.764 33.9582 347.764 32.946C347.764 31.94 347.891 31.0809 348.145 30.3688C348.403 29.6536 348.773 29.1082 349.255 28.7324C349.739 28.3536 350.321 28.1642 351 28.1642C351.679 28.1642 352.259 28.3536 352.741 28.7324C353.226 29.1082 353.595 29.6536 353.85 30.3688C354.108 31.0809 354.236 31.94 354.236 32.946C354.236 33.9582 354.109 34.8218 353.855 35.5369C353.6 36.2491 353.232 36.793 352.75 37.1688C352.268 37.5415 351.685 37.7279 351 37.7279ZM351 36.7279C351.679 36.7279 352.206 36.4006 352.582 35.746C352.958 35.0915 353.145 34.1582 353.145 32.946C353.145 32.14 353.059 31.4536 352.886 30.8869C352.717 30.3203 352.471 29.8885 352.15 29.5915C351.832 29.2945 351.448 29.146 351 29.146C350.327 29.146 349.802 29.4779 349.423 30.1415C349.044 30.8021 348.855 31.7369 348.855 32.946C348.855 33.7521 348.939 34.4369 349.109 35.0006C349.279 35.5642 349.523 35.993 349.841 36.2869C350.162 36.5809 350.548 36.7279 351 36.7279ZM359.236 28.2915V37.6006H358.109V29.4733H358.055L355.782 30.9824V29.8369L358.109 28.2915H359.236Z" fill="#F9FAFB"/>
<path d="M320 115.2C337.673 115.2 352 100.873 352 83.2002C352 65.5271 337.673 51.2002 320 51.2002C302.327 51.2002 288 65.5271 288 83.2002C288 100.873 302.327 115.2 320 115.2Z" fill="#008A9A"/>
<path d="M320 108.801C334.139 108.801 345.6 97.3391 345.6 83.2006C345.6 69.0621 334.139 57.6006 320 57.6006C305.862 57.6006 294.4 69.0621 294.4 83.2006C294.4 97.3391 305.862 108.801 320 108.801Z" fill="url(#paint5_linear_2_21490)"/>
<path d="M320 99.2002C328.837 99.2002 336 92.0368 336 83.2002C336 74.3636 328.837 67.2002 320 67.2002C311.163 67.2002 304 74.3636 304 83.2002C304 92.0368 311.163 99.2002 320 99.2002Z" fill="#F9FAFB"/>
<path d="M316.8 76.7998L328 83.1998L316.8 89.5998V76.7998Z" fill="#46B6A0"/>
<path opacity="0.92" d="M371.2 160H204.8C193.312 160 184 169.312 184 180.8V267.2C184 278.688 193.312 288 204.8 288H371.2C382.688 288 392 278.688 392 267.2V180.8C392 169.312 382.688 160 371.2 160Z" fill="#003137"/>
<path d="M366.4 168H209.6C199.88 168 192 175.88 192 185.6V262.4C192 272.12 199.88 280 209.6 280H366.4C376.12 280 384 272.12 384 262.4V185.6C384 175.88 376.12 168 366.4 168Z" fill="#004750"/>
<path d="M209.32 187H208.286L211.277 178.855H212.295L215.286 187H214.252L211.818 180.143H211.755L209.32 187ZM209.702 183.818H213.87V184.693H209.702V183.818ZM220.278 184.502V180.891H221.216V187H220.278V185.966H220.214C220.071 186.276 219.848 186.54 219.546 186.757C219.244 186.972 218.862 187.08 218.401 187.08C218.019 187.08 217.679 186.996 217.382 186.829C217.085 186.659 216.852 186.405 216.682 186.065C216.513 185.723 216.428 185.292 216.428 184.773V180.891H217.366V184.709C217.366 185.155 217.491 185.51 217.74 185.775C217.992 186.04 218.313 186.173 218.703 186.173C218.936 186.173 219.173 186.113 219.415 185.994C219.659 185.874 219.863 185.691 220.027 185.445C220.194 185.198 220.278 184.884 220.278 184.502ZM225.402 189.418C224.948 189.418 224.558 189.36 224.232 189.243C223.906 189.129 223.634 188.978 223.417 188.79C223.202 188.604 223.031 188.405 222.904 188.193L223.652 187.668C223.736 187.78 223.844 187.907 223.974 188.05C224.104 188.196 224.281 188.322 224.507 188.428C224.735 188.537 225.033 188.591 225.402 188.591C225.895 188.591 226.302 188.472 226.623 188.233C226.943 187.994 227.104 187.62 227.104 187.111V185.87H227.024C226.955 185.982 226.857 186.12 226.73 186.284C226.605 186.446 226.425 186.59 226.189 186.718C225.956 186.842 225.64 186.905 225.242 186.905C224.749 186.905 224.306 186.788 223.914 186.555C223.524 186.321 223.215 185.982 222.987 185.536C222.762 185.091 222.649 184.55 222.649 183.914C222.649 183.288 222.759 182.743 222.979 182.279C223.199 181.812 223.506 181.452 223.898 181.197C224.291 180.94 224.744 180.811 225.258 180.811C225.656 180.811 225.972 180.878 226.205 181.01C226.441 181.14 226.621 181.289 226.746 181.456C226.873 181.62 226.971 181.755 227.04 181.861H227.136V180.891H228.042V187.175C228.042 187.7 227.923 188.127 227.685 188.456C227.449 188.787 227.13 189.03 226.73 189.184C226.332 189.34 225.889 189.418 225.402 189.418ZM225.37 186.061C225.746 186.061 226.064 185.975 226.324 185.803C226.584 185.63 226.782 185.383 226.917 185.059C227.052 184.736 227.12 184.348 227.12 183.898C227.12 183.458 227.053 183.069 226.921 182.732C226.788 182.396 226.592 182.132 226.332 181.941C226.072 181.75 225.752 181.655 225.37 181.655C224.972 181.655 224.641 181.755 224.375 181.957C224.113 182.158 223.915 182.429 223.783 182.768C223.653 183.108 223.588 183.484 223.588 183.898C223.588 184.322 223.654 184.697 223.787 185.023C223.922 185.347 224.121 185.601 224.383 185.787C224.649 185.97 224.977 186.061 225.37 186.061Z" fill="#E5E7EB"/>
<path d="M325.441 180.891C325.393 180.488 325.2 180.175 324.86 179.952C324.521 179.73 324.105 179.618 323.611 179.618C323.251 179.618 322.935 179.677 322.665 179.793C322.397 179.91 322.188 180.07 322.036 180.274C321.888 180.479 321.814 180.711 321.814 180.97C321.814 181.188 321.865 181.375 321.969 181.531C322.075 181.685 322.21 181.814 322.374 181.917C322.539 182.018 322.711 182.101 322.891 182.168C323.072 182.231 323.237 182.283 323.389 182.323L324.216 182.545C324.428 182.601 324.664 182.678 324.924 182.776C325.186 182.874 325.437 183.008 325.676 183.178C325.917 183.345 326.116 183.56 326.272 183.822C326.429 184.085 326.507 184.407 326.507 184.789C326.507 185.229 326.391 185.627 326.161 185.982C325.933 186.337 325.599 186.62 325.159 186.829C324.721 187.038 324.189 187.143 323.564 187.143C322.98 187.143 322.475 187.049 322.048 186.861C321.624 186.673 321.29 186.41 321.046 186.073C320.805 185.737 320.668 185.345 320.636 184.9H321.655C321.681 185.208 321.784 185.462 321.965 185.664C322.148 185.862 322.378 186.011 322.657 186.109C322.938 186.205 323.24 186.252 323.564 186.252C323.94 186.252 324.278 186.191 324.578 186.069C324.877 185.945 325.115 185.772 325.29 185.552C325.465 185.33 325.552 185.07 325.552 184.773C325.552 184.502 325.477 184.282 325.326 184.113C325.174 183.943 324.976 183.805 324.729 183.699C324.482 183.593 324.216 183.5 323.93 183.42L322.927 183.134C322.291 182.951 321.787 182.69 321.416 182.351C321.045 182.011 320.859 181.567 320.859 181.018C320.859 180.562 320.982 180.164 321.229 179.825C321.478 179.483 321.812 179.218 322.231 179.03C322.653 178.839 323.123 178.743 323.643 178.743C324.168 178.743 324.635 178.837 325.043 179.026C325.452 179.211 325.775 179.466 326.014 179.789C326.255 180.113 326.382 180.48 326.395 180.891H325.441ZM330.563 187.127C329.974 187.127 329.466 186.997 329.039 186.738C328.615 186.475 328.288 186.109 328.057 185.64C327.829 185.168 327.715 184.619 327.715 183.993C327.715 183.367 327.829 182.816 328.057 182.339C328.288 181.859 328.608 181.485 329.019 181.217C329.433 180.947 329.916 180.811 330.467 180.811C330.785 180.811 331.1 180.864 331.41 180.97C331.72 181.077 332.002 181.249 332.257 181.488C332.512 181.723 332.714 182.036 332.865 182.426C333.017 182.816 333.092 183.296 333.092 183.866V184.264H328.383V183.452H332.138C332.138 183.108 332.069 182.8 331.931 182.53C331.796 182.259 331.602 182.046 331.35 181.889C331.101 181.733 330.807 181.655 330.467 181.655C330.093 181.655 329.77 181.747 329.497 181.933C329.226 182.116 329.018 182.355 328.872 182.649C328.726 182.943 328.654 183.259 328.654 183.595V184.136C328.654 184.598 328.733 184.989 328.892 185.31C329.054 185.628 329.278 185.87 329.564 186.038C329.851 186.202 330.183 186.284 330.563 186.284C330.809 186.284 331.032 186.25 331.231 186.181C331.432 186.109 331.606 186.003 331.752 185.863C331.898 185.719 332.01 185.542 332.09 185.33L332.997 185.584C332.901 185.892 332.741 186.162 332.515 186.395C332.29 186.626 332.012 186.806 331.68 186.936C331.349 187.064 330.976 187.127 330.563 187.127ZM334.52 189.291V180.891H335.427V181.861H335.538C335.607 181.755 335.703 181.62 335.825 181.456C335.949 181.289 336.127 181.14 336.358 181.01C336.591 180.878 336.906 180.811 337.304 180.811C337.819 180.811 338.272 180.94 338.664 181.197C339.057 181.454 339.363 181.819 339.583 182.291C339.803 182.763 339.913 183.32 339.913 183.961C339.913 184.608 339.803 185.169 339.583 185.644C339.363 186.116 339.058 186.482 338.668 186.741C338.279 186.999 337.829 187.127 337.32 187.127C336.928 187.127 336.613 187.062 336.377 186.932C336.141 186.8 335.96 186.65 335.833 186.483C335.705 186.313 335.607 186.173 335.538 186.061H335.459V189.291H334.52ZM335.443 183.945C335.443 184.407 335.51 184.814 335.646 185.166C335.781 185.516 335.978 185.791 336.238 185.99C336.498 186.186 336.816 186.284 337.193 186.284C337.585 186.284 337.913 186.181 338.175 185.974C338.44 185.764 338.639 185.483 338.772 185.131C338.907 184.775 338.975 184.38 338.975 183.945C338.975 183.516 338.908 183.129 338.776 182.784C338.646 182.437 338.448 182.162 338.183 181.961C337.921 181.757 337.59 181.655 337.193 181.655C336.811 181.655 336.49 181.751 336.23 181.945C335.97 182.136 335.774 182.404 335.642 182.748C335.509 183.09 335.443 183.489 335.443 183.945Z" fill="#E5E7EB"/>
<path d="M211.2 208.001C212.967 208.001 214.4 206.568 214.4 204.801C214.4 203.033 212.967 201.601 211.2 201.601C209.433 201.601 208 203.033 208 204.801C208 206.568 209.433 208.001 211.2 208.001Z" fill="#4B5563"/>
<path d="M230.4 208.001C232.168 208.001 233.6 206.568 233.6 204.801C233.6 203.033 232.168 201.601 230.4 201.601C228.633 201.601 227.2 203.033 227.2 204.801C227.2 206.568 228.633 208.001 230.4 208.001Z" fill="#4B5563"/>
<path d="M249.6 208.001C251.368 208.001 252.8 206.568 252.8 204.801C252.8 203.033 251.368 201.601 249.6 201.601C247.833 201.601 246.4 203.033 246.4 204.801C246.4 206.568 247.833 208.001 249.6 208.001Z" fill="#4B5563"/>
<path d="M268.8 208.001C270.567 208.001 272 206.568 272 204.801C272 203.033 270.567 201.601 268.8 201.601C267.032 201.601 265.6 203.033 265.6 204.801C265.6 206.568 267.032 208.001 268.8 208.001Z" fill="#4B5563"/>
<path d="M323.2 208.001C324.967 208.001 326.4 206.568 326.4 204.801C326.4 203.033 324.967 201.601 323.2 201.601C321.433 201.601 320 203.033 320 204.801C320 206.568 321.433 208.001 323.2 208.001Z" fill="#4B5563"/>
<path d="M342.4 208.001C344.168 208.001 345.6 206.568 345.6 204.801C345.6 203.033 344.168 201.601 342.4 201.601C340.633 201.601 339.2 203.033 339.2 204.801C339.2 206.568 340.633 208.001 342.4 208.001Z" fill="#4B5563"/>
<path d="M361.6 208.001C363.368 208.001 364.8 206.568 364.8 204.801C364.8 203.033 363.368 201.601 361.6 201.601C359.833 201.601 358.4 203.033 358.4 204.801C358.4 206.568 359.833 208.001 361.6 208.001Z" fill="#4B5563"/>
<path d="M380.8 208.001C382.567 208.001 384 206.568 384 204.801C384 203.033 382.567 201.601 380.8 201.601C379.032 201.601 377.6 203.033 377.6 204.801C377.6 206.568 379.032 208.001 380.8 208.001Z" fill="#4B5563"/>
<defs>
<linearGradient id="paint0_linear_2_21490" x1="0" y1="65.6006" x2="0" y2="15265.6" gradientUnits="userSpaceOnUse">
<stop stop-color="#00A9BD" stop-opacity="0.52"/>
<stop offset="1" stop-color="#050513"/>
</linearGradient>
<linearGradient id="paint1_linear_2_21490" x1="44.7998" y1="132.482" x2="44.7998" y2="3364.26" gradientUnits="userSpaceOnUse">
<stop stop-color="#BCFFF2"/>
<stop offset="1" stop-color="#020617" stop-opacity="0.9"/>
</linearGradient>
<linearGradient id="paint2_linear_2_21490" x1="201.6" y1="118.399" x2="201.6" y2="4278.4" gradientUnits="userSpaceOnUse">
<stop stop-color="#F9FAFB" stop-opacity="0.18"/>
<stop offset="1" stop-color="#020617" stop-opacity="0.9"/>
</linearGradient>
<linearGradient id="paint3_linear_2_21490" x1="201.6" y1="166.399" x2="201.6" y2="4326.4" gradientUnits="userSpaceOnUse">
<stop stop-color="#F9FAFB" stop-opacity="0.18"/>
<stop offset="1" stop-color="#020617" stop-opacity="0.9"/>
</linearGradient>
<linearGradient id="paint4_linear_2_21490" x1="256" y1="19.2002" x2="13056" y2="19.2002" gradientUnits="userSpaceOnUse">
<stop stop-color="#00A9BD"/>
<stop offset="0.5" stop-color="#8B5CF6"/>
<stop offset="1" stop-color="#A855F7"/>
</linearGradient>
<linearGradient id="paint5_linear_2_21490" x1="294.4" y1="57.6006" x2="5414.4" y2="57.6006" gradientUnits="userSpaceOnUse">
<stop stop-color="#00A9BD"/>
<stop offset="0.5" stop-color="#8B5CF6"/>
<stop offset="1" stop-color="#A855F7"/>
</linearGradient>
</defs>
</svg>
