<svg width="1440" height="1323" viewBox="0 0 1440 1323" fill="none" xmlns="http://www.w3.org/2000/svg">
<g filter="url(#filter0_f_273_9512)">
<path d="M997.26 237.035C923.092 210.211 844.608 67.8351 814.636 0H1164.98C1188.27 0 1291.23 100.588 1378.81 115.956C1466.4 131.324 1401.64 278.015 1419.81 339.952C1437.98 401.888 1407.23 520.173 1401.64 543.457C1396.05 566.742 1381.14 690.149 1378.81 757.208C1376.48 824.267 1308.93 818.678 1291.23 885.737C1273.53 952.796 1164.98 944.88 1046.18 963.042C927.38 981.203 851.219 1087.93 727.052 963.042C556.5 791.5 -169.878 924.389 -195.501 885.737C-221.124 847.085 142.494 661.059 217.5 594C292.506 526.941 639.467 728.801 843.055 715.762C1046.64 702.722 1095.09 561.153 1164.98 491.766C1234.86 422.378 1089.97 270.564 997.26 237.035Z" fill="url(#paint0_linear_273_9512)"/>
</g>
<defs>
<filter id="filter0_f_273_9512" x="-496.791" y="-300" width="2222.79" height="1622.81" filterUnits="userSpaceOnUse" color-interpolation-filters="sRGB">
<feFlood flood-opacity="0" result="BackgroundImageFix"/>
<feBlend mode="normal" in="SourceGraphic" in2="BackgroundImageFix" result="shape"/>
<feGaussianBlur stdDeviation="150" result="effect1_foregroundBlur_273_9512"/>
</filter>
<linearGradient id="paint0_linear_273_9512" x1="795.902" y1="0" x2="795.902" y2="1106.57" gradientUnits="userSpaceOnUse">
<stop stop-color="#003741" stop-opacity="0.5"/>
<stop offset="1" stop-color="#46B6A0" stop-opacity="0.5"/>
</linearGradient>
</defs>
</svg>
