<?xml version="1.0" encoding="UTF-8"?><svg xmlns="http://www.w3.org/2000/svg" xmlns:xlink="http://www.w3.org/1999/xlink" viewBox="0 0 875.74 668.43"><defs><style>.cls-1{fill:url(#radial-gradient-10);}.cls-2{fill:url(#radial-gradient-14);filter:url(#drop-shadow-2);}.cls-2,.cls-3,.cls-4,.cls-5,.cls-6,.cls-7,.cls-8,.cls-9{stroke-miterlimit:10;}.cls-2,.cls-8{stroke:#95fce5;}.cls-3{stroke:url(#linear-gradient-2);}.cls-3,.cls-7{fill:none;opacity:.34;stroke-dasharray:7.68;stroke-width:2.19px;}.cls-10{fill:url(#radial-gradient-9);}.cls-11{fill:url(#radial-gradient-19);opacity:.4;}.cls-11,.cls-12{fill-opacity:.7;}.cls-4{fill:#01202c;stroke:rgba(209,244,248,.3);}.cls-13,.cls-14{fill:#fff;}.cls-15{fill:url(#radial-gradient-16);}.cls-16{fill:url(#radial-gradient-2);}.cls-16,.cls-17{opacity:.15;}.cls-16,.cls-17,.cls-18{mix-blend-mode:lighten;}.cls-19{fill:url(#radial-gradient);}.cls-20{fill:#18777b;}.cls-21{isolation:isolate;}.cls-22{opacity:.3;}.cls-23{fill:#07bdd1;}.cls-5{fill:#03d9db;stroke:url(#radial-gradient-3);}.cls-17{fill:url(#radial-gradient-8);}.cls-14{font-family:Roboto-Regular, Roboto;font-size:19.87px;}.cls-6{fill:#10899a;stroke:url(#radial-gradient-5);}.cls-24{fill:url(#radial-gradient-12);}.cls-25{fill:#294954;}.cls-26{fill:#95fce5;}.cls-27{fill:url(#radial-gradient-15);}.cls-28{fill:url(#radial-gradient-20);}.cls-28,.cls-12,.cls-29{opacity:.7;}.cls-7{stroke:url(#linear-gradient);}.cls-30{fill:#3c5e67;}.cls-18{fill:url(#radial-gradient-13);opacity:.36;}.cls-8{fill:url(#radial-gradient-11);filter:url(#drop-shadow-1);}.cls-31{fill:#17d7c7;}.cls-32{fill:url(#radial-gradient-7);}.cls-12{fill:url(#radial-gradient-18);}.cls-33{fill:url(#radial-gradient-17);}.cls-34{fill:#0d3f48;}.cls-29{fill:url(#radial-gradient-6);}.cls-35{fill:#d1f4f8;}.cls-9{fill:#00aab2;stroke:url(#radial-gradient-4);}</style><radialGradient id="radial-gradient" cx="-208.99" cy="115.79" fx="-208.99" fy="115.79" r="471.36" gradientTransform="translate(429.75) scale(1.26 1)" gradientUnits="userSpaceOnUse"><stop offset="0" stop-color="#023341"/><stop offset=".29" stop-color="#022f3c"/><stop offset=".6" stop-color="#032430"/><stop offset=".91" stop-color="#04131b"/><stop offset="1" stop-color="#050d14"/></radialGradient><radialGradient id="radial-gradient-2" cx="-161.23" cy="172.17" fx="-161.23" fy="172.17" r="472.56" gradientTransform="translate(429.75) scale(1.26 1)" gradientUnits="userSpaceOnUse"><stop offset="0" stop-color="#8affe8"/><stop offset=".1" stop-color="#7aeed7" stop-opacity=".77"/><stop offset=".2" stop-color="#6cdfc8" stop-opacity=".57"/><stop offset=".3" stop-color="#60d2bb" stop-opacity=".4"/><stop offset=".4" stop-color="#57c8b1" stop-opacity=".25"/><stop offset=".5" stop-color="#4fc0a9" stop-opacity=".14"/><stop offset=".6" stop-color="#4abaa3" stop-opacity=".06"/><stop offset=".7" stop-color="#47b7a0" stop-opacity=".02"/><stop offset=".8" stop-color="#46b69f" stop-opacity="0"/><stop offset="1" stop-color="#59e8c9" stop-opacity="0"/></radialGradient><radialGradient id="radial-gradient-3" cx="194.81" cy="219.49" fx="194.81" fy="219.49" r="7.76" gradientTransform="matrix(1,0,0,1,0,0)" xlink:href="#radial-gradient-2"/><radialGradient id="radial-gradient-4" cx="215.97" cy="219.49" fx="215.97" fy="219.49" r="7.76" gradientTransform="matrix(1,0,0,1,0,0)" xlink:href="#radial-gradient-2"/><radialGradient id="radial-gradient-5" cx="237.12" cy="219.49" fx="237.12" fy="219.49" r="7.76" gradientTransform="matrix(1,0,0,1,0,0)" xlink:href="#radial-gradient-2"/><radialGradient id="radial-gradient-6" cx="223.14" cy="172.68" fx="223.14" fy="172.68" r="362.05" gradientUnits="userSpaceOnUse"><stop offset="0" stop-color="#012734"/><stop offset=".79" stop-color="#011a25"/><stop offset="1" stop-color="#021621"/></radialGradient><radialGradient id="radial-gradient-7" cx="215.8" cy="242.47" fx="215.8" fy="242.47" r="213.43" gradientTransform="matrix(1,0,0,1,0,0)" xlink:href="#radial-gradient"/><radialGradient id="radial-gradient-8" cx="232.82" cy="233.14" fx="232.82" fy="233.14" r="334.74" gradientTransform="matrix(1,0,0,1,0,0)" xlink:href="#radial-gradient-2"/><radialGradient id="radial-gradient-9" cx="349.99" cy="281.5" fx="349.99" fy="281.5" r="55.81" gradientUnits="userSpaceOnUse"><stop offset=".22" stop-color="#05dcf0"/><stop offset=".25" stop-color="#05d6ea"/><stop offset=".77" stop-color="#0c687b"/><stop offset="1" stop-color="#103d4f"/></radialGradient><radialGradient id="radial-gradient-10" cx="261.68" cy="289.82" fx="261.68" fy="289.82" r="204.95" xlink:href="#radial-gradient-9"/><radialGradient id="radial-gradient-11" cx="432.69" cy="87.93" fx="432.69" fy="87.93" r="291" gradientTransform="matrix(1,0,0,1,0,0)" xlink:href="#radial-gradient"/><filter id="drop-shadow-1" x="400.81" y="123.67" width="287.28" height="246" filterUnits="userSpaceOnUse"><feOffset dx="0" dy="20"/><feGaussianBlur result="blur" stdDeviation="11"/><feFlood flood-color="#051916" flood-opacity="1"/><feComposite in2="blur" operator="in"/><feComposite in="SourceGraphic"/></filter><radialGradient id="radial-gradient-12" cx="501.02" cy="157.57" fx="501.02" fy="157.57" r="215.36" xlink:href="#radial-gradient-9"/><radialGradient id="radial-gradient-13" cx="-5517.26" cy="765.44" fx="-5517.26" fy="765.44" r="42.39" gradientTransform="translate(1326.34 5753.67) rotate(90)" gradientUnits="userSpaceOnUse"><stop offset="0" stop-color="#6cc7b3"/><stop offset="0" stop-color="#6bc6b2" stop-opacity=".99"/><stop offset=".12" stop-color="#61c2ad" stop-opacity=".73"/><stop offset=".23" stop-color="#59bea9" stop-opacity=".51"/><stop offset=".34" stop-color="#52bba5" stop-opacity=".32"/><stop offset=".46" stop-color="#4cb9a2" stop-opacity=".18"/><stop offset=".57" stop-color="#49b7a0" stop-opacity=".08"/><stop offset=".68" stop-color="#46b69f" stop-opacity=".02"/><stop offset=".8" stop-color="#46b69f" stop-opacity="0"/><stop offset="1" stop-color="#59e8c9" stop-opacity="0"/></radialGradient><radialGradient id="radial-gradient-14" cx="406.63" cy="306.36" fx="406.63" fy="306.36" r="298.9" gradientTransform="matrix(1,0,0,1,0,0)" xlink:href="#radial-gradient"/><filter id="drop-shadow-2" x="375.13" y="334.63" width="328.32" height="219.12" filterUnits="userSpaceOnUse"><feOffset dx="0" dy="20"/><feGaussianBlur result="blur-2" stdDeviation="11"/><feFlood flood-color="#051916" flood-opacity="1"/><feComposite in2="blur-2" operator="in"/><feComposite in="SourceGraphic"/></filter><radialGradient id="radial-gradient-15" cx="416.7" cy="392.35" fx="416.7" fy="392.35" r="312.36" gradientUnits="userSpaceOnUse"><stop offset="0" stop-color="#46c4d7"/><stop offset="1" stop-color="#0d3f48" stop-opacity="0"/></radialGradient><radialGradient id="radial-gradient-16" cx="449.05" cy="413.24" fx="449.05" fy="413.24" r="61.01" xlink:href="#radial-gradient-9"/><radialGradient id="radial-gradient-17" cx="485.62" cy="412.95" fx="485.62" fy="412.95" r="57.93" xlink:href="#radial-gradient-9"/><linearGradient id="linear-gradient" x1="674.82" y1="316.53" x2="706.1" y2="316.53" gradientUnits="userSpaceOnUse"><stop offset="0" stop-color="#2fc0a4"/><stop offset=".83" stop-color="#46b69f"/></linearGradient><radialGradient id="radial-gradient-18" cx="-340.74" cy="232.11" fx="-340.74" fy="232.11" r="275.58" gradientTransform="translate(1088.38) scale(1.25 1)" gradientUnits="userSpaceOnUse"><stop offset="0" stop-color="#07bbcf" stop-opacity=".3"/><stop offset=".02" stop-color="#07b1c5" stop-opacity=".28"/><stop offset=".19" stop-color="#097187" stop-opacity=".16"/><stop offset=".37" stop-color="#0a445a" stop-opacity=".07"/><stop offset=".56" stop-color="#0b283f" stop-opacity=".02"/><stop offset=".77" stop-color="#0c2037" stop-opacity="0"/></radialGradient><radialGradient id="radial-gradient-19" cx="-324.83" cy="418.42" fx="-324.83" fy="418.42" r="199.87" gradientTransform="translate(1088.38) scale(1.25 1)" gradientUnits="userSpaceOnUse"><stop offset="0" stop-color="#06cfe3" stop-opacity=".2"/><stop offset=".07" stop-color="#06b3c8" stop-opacity=".17"/><stop offset=".31" stop-color="#096177" stop-opacity=".08"/><stop offset=".55" stop-color="#0b3047" stop-opacity=".02"/><stop offset=".77" stop-color="#0c2037" stop-opacity="0"/></radialGradient><linearGradient id="linear-gradient-2" x1="125.99" y1="395.97" x2="161.82" y2="395.97" xlink:href="#linear-gradient"/><radialGradient id="radial-gradient-20" cx="-745.68" cy="347.39" fx="-745.68" fy="347.39" r="199.87" gradientTransform="translate(1088.38) scale(1.25 1)" gradientUnits="userSpaceOnUse"><stop offset="0" stop-color="#08bace" stop-opacity=".2"/><stop offset=".22" stop-color="#097d92" stop-opacity=".12"/><stop offset=".54" stop-color="#0b384f" stop-opacity=".03"/><stop offset=".77" stop-color="#0c2037" stop-opacity="0"/></radialGradient></defs><g class="cls-21"><g id="Layer_9"><rect class="cls-19" x="169.19" y="196.16" width="447.59" height="292.09" rx="23.07" ry="23.07"/><g class="cls-22"><path class="cls-26" d="M593.71,488.25c-23.37.06-385.68.24-399.29.28-7.61.46-15.33-2.52-20.19-8.5-3.64-4.41-5.51-10.14-5.34-15.83.19-4.09-.21-94.63-.07-101.23.13-36.01-.35-111,.04-146.27,1.13-11.7,11.64-21.17,23.41-21.03,18.44-.11,384.52.35,393.67.27,0,0,5.62,0,5.62,0,1.88,0,3.78-.03,5.64.29,11.48,1.51,20.39,12.45,19.78,23.98-.15,71.89-.05,170.13-.17,241.83,0,0,0,2.81,0,2.81-.02.94-.07,1.88-.14,2.81-1.12,11.46-11.43,20.73-22.96,20.58h0ZM593.71,488.25c11.49.11,21.83-9.12,22.91-20.59.22-1.45.09-4.09.13-5.62.01-71.63-.16-170.01-.17-241.83.56-11.32-8.14-22.1-19.46-23.55-3.02-.43-8.05-.25-11.2-.28-7.2-.02-376.89.28-393.67.27-11.25-.13-21.39,8.91-22.46,20.14-.41,34.87-.09,110.48-.24,146.17-.05,6.92-.04,96.6-.07,101.23-.17,5.58,1.63,11.14,5.18,15.46,4.77,5.84,12.28,8.77,19.74,8.31,12.18-.09,377.29.33,399.29.28h0Z"/></g><rect class="cls-16" x="169.19" y="196.16" width="447.59" height="292.09" rx="23.07" ry="23.07"/><circle class="cls-5" cx="194.81" cy="219.49" r="7.26"/><circle class="cls-9" cx="215.97" cy="219.49" r="7.26"/><circle class="cls-6" cx="237.12" cy="219.49" r="7.26"/><rect class="cls-29" x="192.16" y="250.48" width="230.81" height="216.17" rx="29.39" ry="29.39"/><rect class="cls-32" x="217.25" y="274.05" width="180.63" height="114.76" rx="19.36" ry="19.36"/><path class="cls-23" d="M378.51,388.81c-36.99-.1-106.8.41-143.77.3-10.95-.98-18.76-10.71-18.01-21.57-.04-17.37-.2-52.32-.18-69.69.04-1.44-.08-5.17.11-6.6.42-3.74,1.88-7.35,4.22-10.31,3.71-4.76,9.68-7.63,15.72-7.64,36.98.14,106.81.02,143.76.48,7.79.71,14.73,6.41,16.92,13.92.73,2.46.89,5.08.82,7.62,0,0-.13,34.84-.13,34.84-.28,6.48.56,37.71-.55,43.53-1.84,8.66-10.08,15.24-18.92,15.12h0ZM378.51,388.81c8.83.09,17.04-6.49,18.84-15.13,1.06-5.57.17-37.21.41-43.51,0,0-.13-34.84-.13-34.84.05-2.89-.16-5.78-1.22-8.47-2.66-7.5-10.33-12.65-18.26-12.43-35.85.19-105.71.35-141.55.38-8.49-.11-16.43,6.21-18.19,14.53-.32,1.37-.42,2.76-.47,4.16.06,1.63-.1,36.61-.06,39.2.18,4.54-.72,37.51.4,41.22,1.87,8.45,10.04,14.72,18.67,14.52,35.85.16,105.71.37,141.55.38h0Z"/><rect class="cls-17" x="217.25" y="274.05" width="180.63" height="114.76" rx="19.36" ry="19.36"/><polygon class="cls-13" points="375.38 294.36 370.74 294.36 365.22 300.92 361.89 297.64 358.8 300.46 358.8 303.71 364.81 308.83 377.17 296.48 375.38 294.36"/><path class="cls-10" d="M366.79,286.09c-7.69,0-13.92,6.23-13.92,13.92s6.23,13.92,13.92,13.92,13.92-6.23,13.92-13.92-6.23-13.92-13.92-13.92ZM374.57,297.35l-8.77,8.77c-.22.22-.51.34-.82.34s-.6-.12-.82-.34l-4.01-4.01c-.45-.45-.45-1.19,0-1.64s1.19-.45,1.64,0l3.19,3.19,7.95-7.95c.45-.45,1.19-.45,1.64,0s.45,1.19,0,1.64Z"/><path class="cls-1" d="M379.64,321.07v48.13c0,3.39-2.75,6.14-6.14,6.14h-131.86c-3.39,0-6.14-2.75-6.14-6.14v-4.87c12.07-5.8,23.21-13,33.58-21.5,12.34-9.82,26.94-18.85,43.21-18.02,9.25.38,18.02,3.6,27.26,5.29,16.7,3.19,25.59.08,39.59-9.03h.51Z"/><rect class="cls-25" x="215.97" y="406.54" width="181.91" height="11.5" rx="5.75" ry="5.75"/><rect class="cls-25" x="215.97" y="432.59" width="107.09" height="11.5" rx="5.75" ry="5.75"/><rect class="cls-8" x="434.46" y="137.21" width="220.23" height="179.09" rx="29.96" ry="29.96"/><text class="cls-14" transform="translate(489.63 182.96)"><tspan x="0" y="0">Project Final</tspan></text><circle class="cls-4" cx="544.58" cy="243.98" r="42.11"/><circle class="cls-24" cx="544.58" cy="243.98" r="29.96"/><path class="cls-35" d="M554.15,242.66l-14.81-8.55c-1.01-.59-2.28.15-2.28,1.32v17.1c0,1.17,1.27,1.9,2.28,1.32l14.81-8.55c1.01-.59,1.01-2.05,0-2.64l-14.81-8.55c-1.01-.59-2.28.15-2.28,1.32v17.1c0,1.17,1.27,1.9,2.28,1.32l14.81-8.55c1.01-.59,1.01-2.05,0-2.64Z"/><path class="cls-18" d="M554.15,242.66l-14.81-8.55c-1.01-.59-2.28.15-2.28,1.32v17.1c0,1.17,1.27,1.9,2.28,1.32l14.81-8.55c1.01-.59,1.01-2.05,0-2.64l-14.81-8.55c-1.01-.59-2.28.15-2.28,1.32v17.1c0,1.17,1.27,1.9,2.28,1.32l14.81-8.55c1.01-.59,1.01-2.05,0-2.64Z"/><rect class="cls-2" x="408.73" y="348.21" width="261.36" height="152.1" rx="28.22" ry="28.22"/><text class="cls-14" transform="translate(443.68 399.76)"><tspan x="0" y="0">Aug</tspan></text><text class="cls-14" transform="translate(597.27 399.76)"><tspan x="0" y="0">Sep</tspan></text><rect class="cls-34" x="426.5" y="432.59" width="221.43" height="4.93" rx="2.47" ry="2.47"/><rect class="cls-27" x="426.5" y="432.59" width="95.96" height="4.93" rx="2.47" ry="2.47"/><circle class="cls-20" cx="455.89" cy="435.06" r="9.95"/><circle class="cls-15" cx="455.89" cy="435.06" r="6.32"/><circle class="cls-20" cx="501.53" cy="435.06" r="9.95"/><circle class="cls-33" cx="501.53" cy="435.06" r="6.32"/><circle class="cls-30" cx="547.17" cy="435.06" r="6.32"/><circle class="cls-30" cx="592.8" cy="435.06" r="6.32"/><circle class="cls-30" cx="638.44" cy="435.06" r="6.32"/><path class="cls-7" d="M686.69,412.29c.06,0,.12,0,.18,0,10.08-.25,18.13-8.49,18.13-18.57v-154.36c0-10.26-8.32-18.58-18.58-18.58h-11.6"/><circle class="cls-31" cx="685.78" cy="412.29" r="3.04"/><circle class="cls-31" cx="668.05" cy="220.77" r="3.04"/><ellipse class="cls-12" cx="663.1" cy="220.77" rx="170.32" ry="136.14"/><ellipse class="cls-11" cx="682.74" cy="410.19" rx="123.53" ry="98.74"/><path class="cls-3" d="M161.82,449.74h-18.5c-8.96,0-16.23-7.27-16.23-16.23v-75.07c0-8.96,7.27-16.23,16.23-16.23h4.19"/><circle class="cls-31" cx="153.2" cy="342.21" r="3.04"/><ellipse class="cls-28" cx="156.24" cy="339.17" rx="123.53" ry="98.74"/></g></g></svg>