<?xml version="1.0" encoding="UTF-8"?><svg xmlns="http://www.w3.org/2000/svg" xmlns:xlink="http://www.w3.org/1999/xlink" viewBox="0 0 1240.79 992.63"><defs><style>.cls-1{font-family:Roboto-Regular, Roboto;font-size:15.86px;}.cls-1,.cls-2{fill:#fff;}.cls-3{fill:#00121a;filter:url(#drop-shadow-4);}.cls-4{filter:url(#drop-shadow-2);}.cls-5{stroke:#47b2a8;stroke-linecap:round;stroke-linejoin:round;stroke-width:2.07px;}.cls-5,.cls-6{fill:none;}.cls-5,.cls-7{fill-rule:evenodd;}.cls-8{fill:url(#radial-gradient-9);}.cls-9{fill:url(#radial-gradient-6);}.cls-9,.cls-10,.cls-11,.cls-12,.cls-13,.cls-14,.cls-15{mix-blend-mode:lighten;opacity:.36;}.cls-10{fill:url(#radial-gradient-10);}.cls-11{fill:url(#radial-gradient-23);}.cls-12{fill:url(#radial-gradient-4);}.cls-16{fill:url(#radial-gradient-5);}.cls-17{fill:url(#radial-gradient-17);}.cls-17,.cls-18,.cls-19,.cls-20,.cls-21,.cls-22,.cls-23,.cls-24,.cls-25{opacity:.3;}.cls-26{fill:url(#radial-gradient);}.cls-27{fill:url(#radial-gradient-3);}.cls-6{stroke:#00dfce;stroke-miterlimit:10;stroke-width:1.92px;}.cls-28{fill:#6ec7cb;}.cls-29{fill:url(#radial-gradient-20);}.cls-30{filter:url(#drop-shadow-1);}.cls-31{mix-blend-mode:screen;}.cls-31,.cls-32{opacity:.7;}.cls-31,.cls-33{fill:#c7f7fc;}.cls-34{isolation:isolate;}.cls-35{fill:#05cfbf;}.cls-19{fill:url(#radial-gradient-18);}.cls-7{fill:url(#radial-gradient-11);}.cls-20{fill:url(#radial-gradient-16);}.cls-13{fill:url(#radial-gradient-21);}.cls-36{fill:url(#radial-gradient-22);}.cls-14{fill:url(#radial-gradient-2);}.cls-21{fill:url(#radial-gradient-15);}.cls-37{fill:#00c7c4;}.cls-38{filter:url(#drop-shadow-3);}.cls-22{fill:url(#radial-gradient-19);}.cls-23{fill:url(#radial-gradient-12);}.cls-39{fill:#00dfce;}.cls-15{fill:url(#radial-gradient-8);}.cls-24{fill:url(#radial-gradient-14);}.cls-40{fill:#ebffff;}.cls-41{fill:#00fcbd;}.cls-42{fill:url(#radial-gradient-7);}.cls-25{fill:url(#radial-gradient-13);}.cls-43{opacity:.59;}</style><radialGradient id="radial-gradient" cx="-832.65" cy="-3.81" fx="-832.65" fy="-3.81" r="2334.13" gradientTransform="translate(-37.23 6.96) scale(1.06 .99)" gradientUnits="userSpaceOnUse"><stop offset="0" stop-color="#023341"/><stop offset=".3" stop-color="#022f3c"/><stop offset=".62" stop-color="#032430"/><stop offset=".95" stop-color="#04131b"/><stop offset="1" stop-color="#051017"/></radialGradient><radialGradient id="radial-gradient-2" cx="273.56" cy="226.99" fx="273.56" fy="226.99" r="919.59" gradientTransform="translate(-37.23 6.96) scale(1.06 .99)" gradientUnits="userSpaceOnUse"><stop offset="0" stop-color="#000"/><stop offset=".8" stop-color="#000" stop-opacity="0"/><stop offset="1" stop-color="#000" stop-opacity="0"/></radialGradient><radialGradient id="radial-gradient-3" cx="-398.74" cy="154.09" fx="-398.74" fy="154.09" r="1640.79" gradientTransform="matrix(1,0,0,1,0,0)" xlink:href="#radial-gradient"/><radialGradient id="radial-gradient-4" cx="512.05" cy="176.18" fx="512.05" fy="176.18" r="978.23" gradientUnits="userSpaceOnUse"><stop offset="0" stop-color="#8affe8"/><stop offset=".2" stop-color="#75e9d2" stop-opacity=".7"/><stop offset=".41" stop-color="#61d3bc" stop-opacity=".41"/><stop offset=".59" stop-color="#52c3ac" stop-opacity=".19"/><stop offset=".73" stop-color="#49b9a2" stop-opacity=".05"/><stop offset=".8" stop-color="#46b69f" stop-opacity="0"/><stop offset="1" stop-color="#59e8c9" stop-opacity="0"/></radialGradient><radialGradient id="radial-gradient-5" cx="675.04" cy="231.63" fx="675.04" fy="231.63" r="335.39" gradientTransform="matrix(1,0,0,1,0,0)" xlink:href="#radial-gradient"/><radialGradient id="radial-gradient-6" cx="830.67" cy="288.58" fx="830.67" fy="288.58" r="255.37" gradientUnits="userSpaceOnUse"><stop offset="0" stop-color="#8affe8"/><stop offset=".1" stop-color="#7aeed7" stop-opacity=".77"/><stop offset=".2" stop-color="#6cdfc8" stop-opacity=".57"/><stop offset=".3" stop-color="#60d2bb" stop-opacity=".4"/><stop offset=".4" stop-color="#57c8b1" stop-opacity=".25"/><stop offset=".5" stop-color="#4fc0a9" stop-opacity=".14"/><stop offset=".6" stop-color="#4abaa3" stop-opacity=".06"/><stop offset=".7" stop-color="#47b7a0" stop-opacity=".02"/><stop offset=".8" stop-color="#46b69f" stop-opacity="0"/><stop offset="1" stop-color="#59e8c9" stop-opacity="0"/></radialGradient><filter id="drop-shadow-1" x="798.68" y="262.2" width="144.24" height="141.12" filterUnits="userSpaceOnUse"><feOffset dx="3.27" dy="3.27"/><feGaussianBlur result="blur" stdDeviation="16.33"/><feFlood flood-color="#00ffe0" flood-opacity="1"/><feComposite in2="blur" operator="in"/><feComposite in="SourceGraphic"/></filter><filter id="drop-shadow-2" x="140.29" y="412.6" width="412.32" height="321.36" filterUnits="userSpaceOnUse"><feOffset dx="0" dy="10.8"/><feGaussianBlur result="blur-2" stdDeviation="27"/><feFlood flood-color="#071e1a" flood-opacity="1"/><feComposite in2="blur-2" operator="in"/><feComposite in="SourceGraphic"/></filter><radialGradient id="radial-gradient-7" cx="-106.93" cy="416.08" fx="-106.93" fy="416.08" r="723.23" gradientUnits="userSpaceOnUse"><stop offset="0" stop-color="#012029"/><stop offset=".47" stop-color="#011c24"/><stop offset=".97" stop-color="#041118"/><stop offset="1" stop-color="#051017"/></radialGradient><radialGradient id="radial-gradient-8" cx="252.94" cy="430.2" fx="252.94" fy="430.2" r="434.83" gradientUnits="userSpaceOnUse"><stop offset="0" stop-color="#6cc7b3"/><stop offset="0" stop-color="#6bc6b2" stop-opacity=".99"/><stop offset=".12" stop-color="#61c2ad" stop-opacity=".73"/><stop offset=".23" stop-color="#59bea9" stop-opacity=".51"/><stop offset=".34" stop-color="#52bba5" stop-opacity=".32"/><stop offset=".46" stop-color="#4cb9a2" stop-opacity=".18"/><stop offset=".57" stop-color="#49b7a0" stop-opacity=".08"/><stop offset=".68" stop-color="#46b69f" stop-opacity=".02"/><stop offset=".8" stop-color="#46b69f" stop-opacity="0"/><stop offset="1" stop-color="#59e8c9" stop-opacity="0"/></radialGradient><filter id="drop-shadow-3" x="648.61" y="465.64" width="403.44" height="315.6" filterUnits="userSpaceOnUse"><feOffset dx="0" dy="10.8"/><feGaussianBlur result="blur-3" stdDeviation="27"/><feFlood flood-color="#071e1a" flood-opacity="1"/><feComposite in2="blur-3" operator="in"/><feComposite in="SourceGraphic"/></filter><radialGradient id="radial-gradient-9" cx="413.17" cy="471.46" fx="413.17" fy="471.46" r="697.24" xlink:href="#radial-gradient-7"/><radialGradient id="radial-gradient-10" cx="760.12" cy="485.07" fx="760.12" fy="485.07" r="419.2" xlink:href="#radial-gradient-8"/><radialGradient id="radial-gradient-11" cx="788.73" cy="619.13" fx="788.73" fy="619.13" r="165.97" gradientUnits="userSpaceOnUse"><stop offset=".21" stop-color="#47b2a8"/><stop offset=".42" stop-color="#42b5ab"/><stop offset=".63" stop-color="#36beb4"/><stop offset=".85" stop-color="#21cec4"/><stop offset="1" stop-color="#0fddd3"/></radialGradient><radialGradient id="radial-gradient-12" cx="539.09" cy="442.26" fx="539.09" fy="442.26" r="166.14" xlink:href="#radial-gradient-4"/><radialGradient id="radial-gradient-13" cx="999.11" cy="462.74" fx="999.11" fy="462.74" r="166.14" gradientTransform="translate(-1188.26) scale(1.77 1)" xlink:href="#radial-gradient-4"/><radialGradient id="radial-gradient-14" cx="999.11" cy="483.22" fx="999.11" fy="483.22" r="166.14" gradientTransform="translate(-1188.26) scale(1.77 1)" xlink:href="#radial-gradient-4"/><radialGradient id="radial-gradient-15" cx="898.33" cy="503.69" fx="898.33" fy="503.69" r="166.14" gradientTransform="translate(-794.18) scale(1.51 1)" xlink:href="#radial-gradient-4"/><radialGradient id="radial-gradient-16" cx="881.97" cy="524.17" fx="881.97" fy="524.17" r="113.66" gradientTransform="translate(-794.18) scale(1.51 1)" xlink:href="#radial-gradient-4"/><radialGradient id="radial-gradient-17" cx="539.09" cy="544.65" fx="539.09" fy="544.65" r="166.14" xlink:href="#radial-gradient-4"/><radialGradient id="radial-gradient-18" cx="626.36" cy="565.13" fx="626.36" fy="565.13" r="281.69" gradientTransform="translate(-78.69) scale(1.05 1)" xlink:href="#radial-gradient-4"/><radialGradient id="radial-gradient-19" cx="590.36" cy="585.61" fx="590.36" fy="585.61" r="166.14" gradientTransform="translate(-78.69) scale(1.05 1)" xlink:href="#radial-gradient-4"/><radialGradient id="radial-gradient-20" cx="443.09" cy="430.54" fx="443.09" fy="430.54" r="299.19" xlink:href="#radial-gradient-7"/><radialGradient id="radial-gradient-21" cx="579.25" cy="438.95" fx="579.25" fy="438.95" r="215.48" xlink:href="#radial-gradient-8"/><radialGradient id="radial-gradient-22" cx="-2242.31" cy="4319.1" fx="-2242.31" fy="4319.1" r="97.59" gradientTransform="translate(4963.6 2702.4) rotate(90)" xlink:href="#radial-gradient"/><radialGradient id="radial-gradient-23" cx="-2199.65" cy="4322.52" fx="-2199.65" fy="4322.52" r="49.19" gradientTransform="translate(4963.6 2702.4) rotate(90)" xlink:href="#radial-gradient-6"/><filter id="drop-shadow-4" x="459.31" y="343.55" width="311.04" height="158.88" filterUnits="userSpaceOnUse"><feOffset dx="0" dy="14.7"/><feGaussianBlur result="blur-4" stdDeviation="20.57"/><feFlood flood-color="#071e1a" flood-opacity="1"/><feComposite in2="blur-4" operator="in"/><feComposite in="SourceGraphic"/></filter></defs><g class="cls-34"><g id="Layer_7"><g class="cls-32"><rect class="cls-26" x="189.59" y="235.8" width="842.47" height="548.34" rx="47.33" ry="47.33"/><g class="cls-18"><path class="cls-33" d="M236.91,784.14c43.82.02,723.37-.19,748.9-.3,0,0,2.62-.13,2.62-.13.44-.03.88-.02,1.31-.09l1.3-.2,2.59-.4c.87-.1,1.7-.4,2.55-.6,20.69-4.85,36.16-24.98,35.6-46.22.02-94.4-.12-264.14-.12-358.63.06-8.19.07-91.38-.19-97.54-.55-9.55-4.3-18.89-10.27-26.35-8.73-10.9-22.52-17.46-36.48-17.44-47.88.1-720.76-.52-751.53-.06-16.67,1.15-32.16,11.94-39.05,27.18-2.97,6.34-4.48,13.36-4.39,20.37v21.1c.63,128.5-1.04,309.82.23,437.72,2.68,23.43,23.32,41.7,46.92,41.59h0ZM236.91,784.14c-23.56.11-44.28-18.08-46.97-41.58-1.14-127.67-.12-309.47-.53-437.73,0,0,0-21.1,0-21.1-.09-7.06,1.42-14.13,4.41-20.53,6.95-15.35,22.53-26.25,39.35-27.41,27.85-.4,706.46-.34,751.56-.43,14.21,0,28.26,6.67,37.14,17.79,6.08,7.6,9.89,17.11,10.44,26.83.71,5.28-.21,89.74.13,97.59-.32,94.6.12,264.14-.12,358.63.51,21.45-15.08,41.83-36.02,46.7-1.06.35-3.95.85-5.2,1-1.31.26-3.88.36-5.28.42-22.84-.05-707.65-.08-748.91-.19h0Z"/></g><rect class="cls-14" x="189.59" y="235.8" width="842.47" height="548.34" rx="47.33" ry="47.33"/></g><rect class="cls-27" x="335.91" y="321.03" width="557.59" height="393.55" rx="30.79" ry="30.79"/><g class="cls-43"><path class="cls-41" d="M862.7,714.57c-133.1-.21-365.68.93-498.54.94-7.47-.53-14.66-3.88-20-9.12-5.3-5.3-8.72-12.48-9.32-19.96-.77-74.31-.45-192.8-.71-267.38,0-7.36-.16-62.43,0-68.71.14-3.77,1.03-7.66,2.46-11.17,4.93-11.91,17.2-20.15,30.13-20.06,115.24.13,347.12.46,462.34.95,0,0,28.9.09,28.9.09,3.61-.02,7.35-.05,10.96.65,13.48,2.61,24.29,14.69,25.19,28.41-.03,100.81-.54,231.63-.53,332.36.93,17.85-12.81,32.94-30.86,33h0ZM862.7,714.57c16.15.08,30.17-13.18,30.67-29.4.16-99.21-.31-229.32-.57-328.69.05-4.79.02-9.51-1.56-14.05-2.95-8.96-10.29-16.24-19.27-19.1-4.56-1.51-9.24-1.51-14.03-1.43-129.31.45-361.79,1.01-491.23,1.04-11.42-.08-22.29,7.15-26.67,17.68-1.28,3.1-2.07,6.52-2.19,9.88-.36,5.6.04,61.44-.15,68.54.31,74.62-.71,192.84-.45,267.19.52,6.94,3.64,13.59,8.53,18.55,4.94,4.9,11.61,8.07,18.57,8.6,132.6.87,365.57.99,498.37,1.19h0Z"/></g><rect class="cls-12" x="335.91" y="321.03" width="557.59" height="393.55" rx="30.79" ry="30.79"/><circle class="cls-16" cx="867.42" cy="329.45" r="52.92"/><circle class="cls-6" cx="867.42" cy="329.45" r="52.92"/><circle class="cls-9" cx="867.42" cy="329.45" r="52.92"/><g class="cls-30"><path class="cls-39" d="M867.42,308.07c-.31,0-.62.06-.91.19l-20.36,8.82c-.96.42-1.59,1.37-1.59,2.42s.62,2,1.59,2.42l20.36,8.83c.58.25,1.24.25,1.82,0l20.36-8.83c.96-.42,1.58-1.37,1.58-2.42s-.62-2-1.59-2.42l-20.36-8.82c-.29-.13-.6-.19-.91-.19Z"/><path class="cls-40" d="M888.22,327.31c-.37-.04-.76.02-1.14.18l-1.38.59h0s-18.29,7.93-18.29,7.93l-19.68-8.51c-1.5-.65-3.18.45-3.18,2.09,0,.91.54,1.73,1.38,2.09l20.58,8.92c.58.25,1.24.25,1.82,0l20.57-8.92c.83-.36,1.38-1.18,1.38-2.09,0-1.23-.95-2.16-2.06-2.28Z"/><path class="cls-37" d="M888.22,337.36c-.37-.04-.76.02-1.14.18l-1.38.6h0s-18.29,7.92-18.29,7.92l-19.68-8.51c-1.5-.65-3.18.45-3.18,2.09,0,.91.54,1.73,1.38,2.09l20.58,8.91c.58.25,1.24.25,1.82,0l20.57-8.91c.83-.36,1.38-1.19,1.38-2.1,0-1.23-.95-2.16-2.06-2.28Z"/></g><g class="cls-4"><rect class="cls-42" x="221.86" y="483.34" width="249.55" height="158.55" rx="18.9" ry="18.9"/><g class="cls-18"><path class="cls-33" d="M452.51,641.89l-195.93.22h-12.25c-4.07.11-8.36.01-12.05-1.97-4.67-2.26-8.25-6.52-9.83-11.45-.94-2.97-.9-6.13-.87-9.18.03-24.42-.12-73.55-.11-97.96,0,0-.01-12.25-.01-12.25.11-3.51-.39-8.88.72-12.29,2.18-8.18,10.12-14.17,18.58-14.1,0,0,195.93.22,195.93.22,3.85.12,14.55-.22,18.39.21,8.26.99,15.29,8,16.3,16.26.5,32.94-.05,83.43.07,116.35-.11,2.75.24,7.98-.37,10.7-1.61,8.68-9.75,15.37-18.57,15.26h0ZM452.51,641.89c8.8.09,16.94-6.59,18.52-15.27.54-2.7.31-7.87.35-10.69-.21-32.87.26-83.41-.33-116.3-1.02-8.09-7.9-14.96-16.01-15.91-3.78-.33-14.31-.13-18.33-.17,0,0-195.93.22-195.93.22-8.07-.08-15.69,5.63-17.78,13.45-1.05,3.29-.64,8.6-.72,12.07,0,0-.01,12.25-.01,12.25.03,24.41-.12,73.56-.11,97.96-.03,3.07-.09,6.09.83,9.02,1.53,4.8,4.99,8.96,9.54,11.17,3.65,1.95,7.77,2.05,11.83,1.96,0,0,12.25.01,12.25.01l195.93.22h0Z"/></g><rect class="cls-15" x="221.86" y="483.34" width="249.55" height="158.55" rx="18.9" ry="18.9"/><polygon class="cls-2" points="441.57 509.48 436.24 509.48 429.89 517.02 426.06 513.25 422.5 516.49 422.5 520.23 429.42 526.11 443.62 511.91 441.57 509.48"/><path class="cls-35" d="M431.69,499.97c-8.84,0-16.01,7.17-16.01,16.01s7.17,16.01,16.01,16.01,16.01-7.17,16.01-16.01-7.17-16.01-16.01-16.01ZM440.64,512.92l-10.09,10.09c-.25.25-.59.39-.94.39s-.69-.14-.94-.39l-4.61-4.61c-.52-.52-.52-1.36,0-1.89s1.36-.52,1.89,0l3.66,3.66,9.14-9.14c.52-.52,1.36-.52,1.89,0s.52,1.36,0,1.89Z"/><path class="cls-5" d="M248.1,610.89c16.73-8,32.16-17.96,46.52-29.72,16.95-13.49,37.01-25.9,59.37-24.76,12.7.52,24.76,4.94,37.46,7.27,22.94,4.38,35.16.11,54.39-12.41"/><circle class="cls-2" cx="445.85" cy="551.27" r="3.28"/><circle class="cls-2" cx="404.03" cy="565.9" r="3.28"/><circle class="cls-2" cx="345.58" cy="556.55" r="5.07"/><circle class="cls-2" cx="248.1" cy="610.89" r="3.96"/></g><g class="cls-38"><rect class="cls-8" x="730.15" y="536.29" width="240.58" height="152.85" rx="18.22" ry="18.22"/><g class="cls-18"><path class="cls-33" d="M952.51,689.14l-188.89.21h-11.81c-3.92.11-8.06.01-11.62-1.9-4.51-2.18-7.96-6.29-9.47-11.04-.9-2.86-.87-5.91-.84-8.85.03-23.54-.12-70.91-.11-94.44,0,0-.01-11.81-.01-11.81.11-3.39-.37-8.56.7-11.85,2.1-7.88,9.76-13.66,17.91-13.6,0,0,188.89.21,188.89.21,3.71.11,14.03-.21,17.72.21,7.97.95,14.74,7.71,15.71,15.67.48,31.76-.05,80.43.07,112.16-.11,2.65.23,7.7-.36,10.31-1.55,8.36-9.4,14.82-17.91,14.71h0ZM952.51,689.14c8.49.08,16.33-6.36,17.85-14.72.52-2.6.3-7.59.33-10.3-.2-31.69.25-80.41-.32-112.12-.98-7.8-7.62-14.42-15.44-15.34-3.65-.32-13.79-.13-17.67-.16,0,0-188.89.21-188.89.21-7.78-.08-15.13,5.43-17.14,12.96-1.01,3.18-.62,8.29-.7,11.63,0,0-.01,11.81-.01,11.81.03,23.54-.12,70.91-.11,94.44-.03,2.96-.09,5.87.8,8.7,1.47,4.63,4.81,8.64,9.2,10.77,3.52,1.88,7.49,1.97,11.4,1.89,0,0,11.81.01,11.81.01l188.89.21h0Z"/></g><rect class="cls-10" x="730.15" y="536.29" width="240.58" height="152.85" rx="18.22" ry="18.22"/><polygon class="cls-2" points="941.96 561.5 936.83 561.5 930.7 568.76 927.01 565.13 923.58 568.25 923.58 571.85 930.25 577.53 943.94 563.84 941.96 561.5"/><path class="cls-35" d="M932.44,552.32c-8.52,0-15.43,6.91-15.43,15.43s6.91,15.43,15.43,15.43,15.43-6.91,15.43-15.43-6.91-15.43-15.43-15.43ZM941.07,564.81l-9.72,9.72c-.24.24-.57.38-.91.38s-.67-.14-.91-.38l-4.44-4.44c-.5-.5-.5-1.32,0-1.82s1.32-.5,1.82,0l3.53,3.53,8.81-8.81c.5-.5,1.32-.5,1.82,0s.5,1.32,0,1.82Z"/><path class="cls-7" d="M946.44,598.92v64.1c0,4.52-3.66,8.18-8.18,8.18h-175.63c-4.52,0-8.18-3.66-8.18-8.18v-6.49c16.07-7.72,30.92-17.32,44.72-28.63,16.43-13.08,35.88-25.11,57.55-24,12.31.5,24.01,4.79,36.31,7.04,22.24,4.25,34.08.11,52.73-12.03h.67Z"/><g class="cls-18"><path class="cls-33" d="M762.78,671.21c-2.83.01-5.61-1.49-7.1-3.92-1.65-2.43-1.24-5.45-1.3-8.23,0,0-.06-16.9-.06-16.9-.02-22.78-.09-57.58-.11-80.26-.41-6.86,4.61-10.49,11.13-9.84,24.62,0,81.55.1,105.6.13,0,0,33.79.13,33.79.13l-33.79.13c-23.87.03-81.12.12-105.6.13-6.29-.61-11.02,2.66-10.66,9.33-.04,22.63-.07,57.53-.11,80.26,0,0-.06,16.9-.06,16.9.04,2.77-.4,5.76,1.23,8.19,1.46,2.42,4.22,3.94,7.04,3.95h0Z"/></g></g><rect class="cls-23" x="487.36" y="443.03" width="163.76" height="2.1" rx="1.04" ry="1.04"/><rect class="cls-25" x="487.36" y="463.51" width="289.63" height="2.1" rx="1.05" ry="1.05"/><rect class="cls-24" x="487.36" y="483.99" width="289.63" height="2.1" rx="1.05" ry="1.05"/><rect class="cls-21" x="487.36" y="504.47" width="247.89" height="2.1" rx="1.05" ry="1.05"/><rect class="cls-20" x="487.36" y="524.94" width="169.51" height="2.1" rx=".87" ry=".87"/><rect class="cls-17" x="487.36" y="545.42" width="163.76" height="2.1" rx="1.04" ry="1.04"/><rect class="cls-19" x="487.36" y="565.9" width="291.84" height="2.1" rx="1.05" ry="1.05"/><rect class="cls-22" x="487.36" y="586.38" width="172.09" height="2.1" rx="1.05" ry="1.05"/><circle class="cls-29" cx="614.71" cy="517.8" r="47.21"/><g class="cls-18"><path class="cls-33" d="M661.92,517.8c-.35,42.43-50.76,63.61-81.35,34.14-18.99-18.4-19-49.88,0-68.28,30.58-29.48,81.01-8.28,81.35,34.14h0ZM661.92,517.8c.17-18.65-11.89-36.55-29.3-43.25-30.44-12.27-63.97,10.49-63.88,43.25-.09,32.77,33.43,55.53,63.88,43.25,17.41-6.7,29.46-24.61,29.29-43.25h0Z"/></g><circle class="cls-13" cx="614.71" cy="517.8" r="47.21"/><path class="cls-36" d="M631.37,515.73l-23.34-13.47c-1.6-.92-3.6.23-3.6,2.08v26.95c0,1.85,2,3,3.6,2.08l23.34-13.47c1.6-.92,1.6-3.23,0-4.15l-23.34-13.47c-1.6-.92-3.6.23-3.6,2.08v26.95c0,1.85,2,3,3.6,2.08l23.34-13.47c1.6-.92,1.6-3.23,0-4.15Z"/><path class="cls-11" d="M631.37,515.73l-23.34-13.47c-1.6-.92-3.6.23-3.6,2.08v26.95c0,1.85,2,3,3.6,2.08l23.34-13.47c1.6-.92,1.6-3.23,0-4.15l-23.34-13.47c-1.6-.92-3.6.23-3.6,2.08v26.95c0,1.85,2,3,3.6,2.08l23.34-13.47c1.6-.92,1.6-3.23,0-4.15Z"/><path class="cls-31" d="M631.37,515.73l-23.34-13.47c-1.6-.92-3.6.23-3.6,2.08v26.95c0,1.85,2,3,3.6,2.08l23.34-13.47c1.6-.92,1.6-3.23,0-4.15l-23.34-13.47c-1.6-.92-3.6.23-3.6,2.08v26.95c0,1.85,2,3,3.6,2.08l23.34-13.47c1.6-.92,1.6-3.23,0-4.15Z"/><rect class="cls-3" x="521.08" y="390.59" width="187.26" height="35.24" rx="17.62" ry="17.62"/><circle class="cls-28" cx="539.09" cy="408.21" r="6"/><text class="cls-1" transform="translate(556.4 413.4)"><tspan x="0" y="0">Project Overview</tspan></text></g></g></svg>