<svg width="354" height="172" viewBox="0 0 354 172" fill="none" xmlns="http://www.w3.org/2000/svg">
<path d="M96.8208 0.879395H21.5888C15.1586 0.879395 9.9458 7.85496 9.9458 16.4598V81.1782C9.9458 89.783 15.1586 96.7585 21.5888 96.7585H96.8208C103.251 96.7585 108.464 89.783 108.464 81.1782V16.4598C108.464 7.85496 103.251 0.879395 96.8208 0.879395Z" fill="white" fill-opacity="0.02" stroke="#00A9BD" stroke-opacity="0.48" stroke-width="1.75925"/>
<g opacity="0.7" filter="url(#filter0_f_283_457)">
<path d="M294.78 28.771H61.8989C51.1809 28.771 42.4922 37.4597 42.4922 48.1777V125.805C42.4922 136.523 51.1809 145.211 61.8989 145.211H294.78C305.498 145.211 314.187 136.523 314.187 125.805V48.1777C314.187 37.4597 305.498 28.771 294.78 28.771Z" fill="#005A65"/>
<path d="M61.8994 29.0942H294.78C305.32 29.0944 313.863 37.6389 313.863 48.1782V125.805C313.863 136.344 305.319 144.888 294.78 144.888H61.8994C51.3601 144.888 42.8157 136.344 42.8154 125.805V48.1782C42.8154 37.6388 51.36 29.0942 61.8994 29.0942Z" stroke="#46B6A0" stroke-width="0.646891"/>
</g>
<path d="M294.78 28.771H61.8989C51.1809 28.771 42.4922 37.4597 42.4922 48.1777V125.805C42.4922 136.523 51.1809 145.211 61.8989 145.211H294.78C305.498 145.211 314.187 136.523 314.187 125.805V48.1777C314.187 37.4597 305.498 28.771 294.78 28.771Z" fill="url(#paint0_linear_283_457)" stroke="#46B6A0" stroke-width="1.29378"/>
<g filter="url(#filter1_f_283_457)">
<path d="M187.396 54.647H78.7179C73.0016 54.647 68.3677 59.2809 68.3677 64.9972V83.1102C68.3677 88.8265 73.0016 93.4605 78.7179 93.4605H187.396C193.112 93.4605 197.746 88.8265 197.746 83.1102V64.9972C197.746 59.2809 193.112 54.647 187.396 54.647Z" fill="url(#paint1_radial_283_457)"/>
<path d="M78.7183 54.9702H187.396C192.934 54.9704 197.422 59.46 197.422 64.9976V83.1099C197.422 88.6474 192.934 93.1371 187.396 93.1372H78.7183C73.1806 93.1372 68.6909 88.6475 68.6909 83.1099V64.9976C68.6909 59.4599 73.1806 54.9702 78.7183 54.9702Z" stroke="#46B6A0" stroke-width="0.646891"/>
</g>
<mask id="path-7-inside-1_283_457" fill="white">
<path d="M271.473 119.397V125.042H270.789V120.114H270.756L269.378 121.029V120.334L270.789 119.397H271.473ZM273.582 124.32C273.446 124.32 273.329 124.272 273.232 124.174C273.134 124.077 273.086 123.96 273.086 123.824C273.086 123.688 273.134 123.571 273.232 123.474C273.329 123.377 273.446 123.328 273.582 123.328C273.718 123.328 273.835 123.377 273.932 123.474C274.029 123.571 274.078 123.688 274.078 123.824C274.078 123.914 274.055 123.997 274.009 124.072C273.965 124.147 273.905 124.208 273.83 124.254C273.756 124.298 273.674 124.32 273.582 124.32ZM273.582 121.464C273.446 121.464 273.329 121.416 273.232 121.318C273.134 121.221 273.086 121.104 273.086 120.968C273.086 120.832 273.134 120.715 273.232 120.618C273.329 120.521 273.446 120.472 273.582 120.472C273.718 120.472 273.835 120.521 273.932 120.618C274.029 120.715 274.078 120.832 274.078 120.968C274.078 121.058 274.055 121.141 274.009 121.216C273.965 121.292 273.905 121.352 273.83 121.398C273.756 121.442 273.674 121.464 273.582 121.464ZM277.076 125.12C276.661 125.12 276.307 125.007 276.015 124.781C275.722 124.553 275.499 124.223 275.345 123.791C275.19 123.357 275.113 122.833 275.113 122.22C275.113 121.61 275.19 121.089 275.345 120.657C275.501 120.223 275.725 119.892 276.017 119.664C276.311 119.435 276.664 119.32 277.076 119.32C277.488 119.32 277.839 119.435 278.132 119.664C278.426 119.892 278.65 120.223 278.804 120.657C278.96 121.089 279.039 121.61 279.039 122.22C279.039 122.833 278.961 123.357 278.807 123.791C278.653 124.223 278.429 124.553 278.137 124.781C277.845 125.007 277.491 125.12 277.076 125.12ZM277.076 124.513C277.488 124.513 277.807 124.315 278.035 123.918C278.263 123.521 278.377 122.955 278.377 122.22C278.377 121.731 278.325 121.315 278.22 120.971C278.117 120.627 277.968 120.365 277.773 120.185C277.58 120.005 277.348 119.915 277.076 119.915C276.668 119.915 276.349 120.116 276.119 120.519C275.89 120.919 275.775 121.486 275.775 122.22C275.775 122.709 275.826 123.124 275.929 123.466C276.032 123.808 276.18 124.068 276.373 124.246C276.568 124.424 276.802 124.513 277.076 124.513ZM281.928 125.12C281.512 125.12 281.158 125.007 280.866 124.781C280.574 124.553 280.351 124.223 280.196 123.791C280.042 123.357 279.965 122.833 279.965 122.22C279.965 121.61 280.042 121.089 280.196 120.657C280.353 120.223 280.577 119.892 280.869 119.664C281.163 119.435 281.516 119.32 281.928 119.32C282.339 119.32 282.691 119.435 282.983 119.664C283.277 119.892 283.502 120.223 283.656 120.657C283.812 121.089 283.89 121.61 283.89 122.22C283.89 122.833 283.813 123.357 283.659 123.791C283.504 124.223 283.281 124.553 282.989 124.781C282.697 125.007 282.343 125.12 281.928 125.12ZM281.928 124.513C282.339 124.513 282.659 124.315 282.887 123.918C283.115 123.521 283.229 122.955 283.229 122.22C283.229 121.731 283.176 121.315 283.072 120.971C282.969 120.627 282.82 120.365 282.625 120.185C282.432 120.005 282.2 119.915 281.928 119.915C281.52 119.915 281.201 120.116 280.971 120.519C280.741 120.919 280.626 121.486 280.626 122.22C280.626 122.709 280.678 123.124 280.781 123.466C280.884 123.808 281.032 124.068 281.225 124.246C281.419 124.424 281.654 124.513 281.928 124.513Z"/>
</mask>
<path d="M271.473 119.397V125.042H270.789V120.114H270.756L269.378 121.029V120.334L270.789 119.397H271.473ZM273.582 124.32C273.446 124.32 273.329 124.272 273.232 124.174C273.134 124.077 273.086 123.96 273.086 123.824C273.086 123.688 273.134 123.571 273.232 123.474C273.329 123.377 273.446 123.328 273.582 123.328C273.718 123.328 273.835 123.377 273.932 123.474C274.029 123.571 274.078 123.688 274.078 123.824C274.078 123.914 274.055 123.997 274.009 124.072C273.965 124.147 273.905 124.208 273.83 124.254C273.756 124.298 273.674 124.32 273.582 124.32ZM273.582 121.464C273.446 121.464 273.329 121.416 273.232 121.318C273.134 121.221 273.086 121.104 273.086 120.968C273.086 120.832 273.134 120.715 273.232 120.618C273.329 120.521 273.446 120.472 273.582 120.472C273.718 120.472 273.835 120.521 273.932 120.618C274.029 120.715 274.078 120.832 274.078 120.968C274.078 121.058 274.055 121.141 274.009 121.216C273.965 121.292 273.905 121.352 273.83 121.398C273.756 121.442 273.674 121.464 273.582 121.464ZM277.076 125.12C276.661 125.12 276.307 125.007 276.015 124.781C275.722 124.553 275.499 124.223 275.345 123.791C275.19 123.357 275.113 122.833 275.113 122.22C275.113 121.61 275.19 121.089 275.345 120.657C275.501 120.223 275.725 119.892 276.017 119.664C276.311 119.435 276.664 119.32 277.076 119.32C277.488 119.32 277.839 119.435 278.132 119.664C278.426 119.892 278.65 120.223 278.804 120.657C278.96 121.089 279.039 121.61 279.039 122.22C279.039 122.833 278.961 123.357 278.807 123.791C278.653 124.223 278.429 124.553 278.137 124.781C277.845 125.007 277.491 125.12 277.076 125.12ZM277.076 124.513C277.488 124.513 277.807 124.315 278.035 123.918C278.263 123.521 278.377 122.955 278.377 122.22C278.377 121.731 278.325 121.315 278.22 120.971C278.117 120.627 277.968 120.365 277.773 120.185C277.58 120.005 277.348 119.915 277.076 119.915C276.668 119.915 276.349 120.116 276.119 120.519C275.89 120.919 275.775 121.486 275.775 122.22C275.775 122.709 275.826 123.124 275.929 123.466C276.032 123.808 276.18 124.068 276.373 124.246C276.568 124.424 276.802 124.513 277.076 124.513ZM281.928 125.12C281.512 125.12 281.158 125.007 280.866 124.781C280.574 124.553 280.351 124.223 280.196 123.791C280.042 123.357 279.965 122.833 279.965 122.22C279.965 121.61 280.042 121.089 280.196 120.657C280.353 120.223 280.577 119.892 280.869 119.664C281.163 119.435 281.516 119.32 281.928 119.32C282.339 119.32 282.691 119.435 282.983 119.664C283.277 119.892 283.502 120.223 283.656 120.657C283.812 121.089 283.89 121.61 283.89 122.22C283.89 122.833 283.813 123.357 283.659 123.791C283.504 124.223 283.281 124.553 282.989 124.781C282.697 125.007 282.343 125.12 281.928 125.12ZM281.928 124.513C282.339 124.513 282.659 124.315 282.887 123.918C283.115 123.521 283.229 122.955 283.229 122.22C283.229 121.731 283.176 121.315 283.072 120.971C282.969 120.627 282.82 120.365 282.625 120.185C282.432 120.005 282.2 119.915 281.928 119.915C281.52 119.915 281.201 120.116 280.971 120.519C280.741 120.919 280.626 121.486 280.626 122.22C280.626 122.709 280.678 123.124 280.781 123.466C280.884 123.808 281.032 124.068 281.225 124.246C281.419 124.424 281.654 124.513 281.928 124.513Z" fill="white"/>
<path d="M271.473 119.397H272.12V118.75H271.473V119.397ZM271.473 125.042V125.689H272.12V125.042H271.473ZM270.789 125.042H270.142V125.689H270.789V125.042ZM270.789 120.114H271.436V119.467H270.789V120.114ZM270.756 120.114V119.467H270.561L270.398 119.575L270.756 120.114ZM269.378 121.029H268.731V122.235L269.736 121.568L269.378 121.029ZM269.378 120.334L269.02 119.795L268.731 119.987V120.334H269.378ZM270.789 119.397V118.75H270.594L270.431 118.858L270.789 119.397ZM271.473 119.397H270.826V125.042H271.473H272.12V119.397H271.473ZM271.473 125.042V124.396H270.789V125.042V125.689H271.473V125.042ZM270.789 125.042H271.436V120.114H270.789H270.142V125.042H270.789ZM270.789 120.114V119.467H270.756V120.114V120.76H270.789V120.114ZM270.756 120.114L270.398 119.575L269.02 120.49L269.378 121.029L269.736 121.568L271.114 120.653L270.756 120.114ZM269.378 121.029H270.025V120.334H269.378H268.731V121.029H269.378ZM269.378 120.334L269.736 120.873L271.147 119.936L270.789 119.397L270.431 118.858L269.02 119.795L269.378 120.334ZM270.789 119.397V120.044H271.473V119.397V118.75H270.789V119.397ZM273.232 124.174L272.774 124.632V124.632L273.232 124.174ZM273.232 123.474L272.774 123.017H272.774L273.232 123.474ZM273.932 123.474L274.389 123.017V123.017L273.932 123.474ZM274.009 124.072L273.457 123.735L273.451 123.745L274.009 124.072ZM273.83 124.254L274.163 124.809L274.167 124.806L273.83 124.254ZM273.232 120.618L273.689 121.075L273.689 121.075L273.232 120.618ZM273.932 120.618L273.474 121.075L273.474 121.075L273.932 120.618ZM274.009 121.216L273.457 120.879L273.451 120.889L274.009 121.216ZM273.83 121.398L274.163 121.953L274.167 121.951L273.83 121.398ZM273.582 124.32V123.673C273.593 123.673 273.615 123.676 273.641 123.687C273.668 123.698 273.684 123.711 273.689 123.717L273.232 124.174L272.774 124.632C272.991 124.849 273.272 124.967 273.582 124.967V124.32ZM273.232 124.174L273.689 123.717C273.695 123.722 273.708 123.738 273.719 123.764C273.73 123.791 273.733 123.813 273.733 123.824H273.086H272.439C272.439 124.134 272.557 124.415 272.774 124.632L273.232 124.174ZM273.086 123.824H273.733C273.733 123.835 273.73 123.857 273.719 123.884C273.708 123.91 273.695 123.926 273.689 123.931L273.232 123.474L272.774 123.017C272.557 123.233 272.439 123.514 272.439 123.824H273.086ZM273.232 123.474L273.689 123.931C273.684 123.937 273.668 123.95 273.641 123.961C273.615 123.972 273.593 123.975 273.582 123.975V123.328V122.681C273.272 122.681 272.991 122.8 272.774 123.017L273.232 123.474ZM273.582 123.328V123.975C273.571 123.975 273.549 123.972 273.522 123.961C273.496 123.95 273.48 123.937 273.474 123.931L273.932 123.474L274.389 123.017C274.172 122.8 273.892 122.681 273.582 122.681V123.328ZM273.932 123.474L273.474 123.931C273.469 123.926 273.455 123.91 273.445 123.884C273.433 123.857 273.431 123.835 273.431 123.824H274.078H274.725C274.725 123.514 274.606 123.233 274.389 123.017L273.932 123.474ZM274.078 123.824H273.431C273.431 123.813 273.433 123.798 273.438 123.78C273.442 123.763 273.45 123.747 273.457 123.735L274.009 124.072L274.561 124.409C274.671 124.23 274.725 124.03 274.725 123.824H274.078ZM274.009 124.072L273.451 123.745C273.455 123.738 273.462 123.729 273.47 123.72C273.479 123.711 273.487 123.705 273.493 123.702L273.83 124.254L274.167 124.806C274.332 124.705 274.469 124.568 274.567 124.399L274.009 124.072ZM273.83 124.254L273.497 123.699C273.512 123.69 273.529 123.683 273.546 123.679C273.563 123.674 273.576 123.673 273.582 123.673V124.32V124.967C273.782 124.967 273.981 124.918 274.163 124.809L273.83 124.254ZM273.582 121.464V120.817C273.593 120.817 273.615 120.82 273.641 120.831C273.668 120.842 273.684 120.855 273.689 120.861L273.232 121.318L272.774 121.776C272.991 121.993 273.272 122.111 273.582 122.111V121.464ZM273.232 121.318L273.689 120.861C273.695 120.866 273.708 120.882 273.719 120.909C273.73 120.935 273.733 120.957 273.733 120.968H273.086H272.439C272.439 121.278 272.557 121.559 272.774 121.776L273.232 121.318ZM273.086 120.968H273.733C273.733 120.979 273.73 121.001 273.719 121.028C273.708 121.054 273.695 121.07 273.689 121.075L273.232 120.618L272.774 120.161C272.557 120.378 272.439 120.658 272.439 120.968H273.086ZM273.232 120.618L273.689 121.075C273.684 121.081 273.668 121.095 273.641 121.105C273.615 121.116 273.593 121.119 273.582 121.119V120.472V119.825C273.272 119.825 272.991 119.944 272.774 120.161L273.232 120.618ZM273.582 120.472V121.119C273.571 121.119 273.549 121.116 273.522 121.105C273.496 121.095 273.48 121.081 273.474 121.075L273.932 120.618L274.389 120.161C274.172 119.944 273.892 119.825 273.582 119.825V120.472ZM273.932 120.618L273.474 121.075C273.469 121.07 273.455 121.054 273.445 121.028C273.433 121.001 273.431 120.979 273.431 120.968H274.078H274.725C274.725 120.658 274.606 120.378 274.389 120.161L273.932 120.618ZM274.078 120.968H273.431C273.431 120.958 273.433 120.942 273.438 120.925C273.442 120.907 273.45 120.891 273.457 120.879L274.009 121.216L274.561 121.553C274.671 121.374 274.725 121.174 274.725 120.968H274.078ZM274.009 121.216L273.451 120.889C273.455 120.882 273.462 120.873 273.47 120.864C273.479 120.856 273.487 120.849 273.493 120.846L273.83 121.398L274.167 121.951C274.332 121.85 274.469 121.712 274.567 121.543L274.009 121.216ZM273.83 121.398L273.497 120.843C273.512 120.835 273.529 120.827 273.546 120.823C273.563 120.818 273.576 120.817 273.582 120.817V121.464V122.111C273.782 122.111 273.981 122.062 274.163 121.953L273.83 121.398ZM276.015 124.781L275.617 125.291L275.619 125.292L276.015 124.781ZM275.345 123.791L274.735 124.008L274.736 124.009L275.345 123.791ZM275.345 120.657L274.736 120.437L274.736 120.439L275.345 120.657ZM276.017 119.664L276.415 120.174L276.416 120.174L276.017 119.664ZM278.132 119.664L277.732 120.173L277.735 120.176L278.132 119.664ZM278.804 120.657L278.195 120.874L278.196 120.877L278.804 120.657ZM278.807 123.791L279.416 124.009L279.416 124.008L278.807 123.791ZM278.137 124.781L278.533 125.292L278.535 125.291L278.137 124.781ZM278.035 123.918L277.474 123.596V123.596L278.035 123.918ZM278.22 120.971L277.6 121.157L277.601 121.16L278.22 120.971ZM277.773 120.185L277.332 120.658L277.334 120.66L277.773 120.185ZM276.119 120.519L276.68 120.841L276.681 120.84L276.119 120.519ZM275.929 123.466L275.31 123.652V123.652L275.929 123.466ZM276.373 124.246L275.934 124.721L275.936 124.723L276.373 124.246ZM277.076 125.12V124.473C276.785 124.473 276.575 124.396 276.41 124.269L276.015 124.781L275.619 125.292C276.038 125.617 276.536 125.767 277.076 125.767V125.12ZM276.015 124.781L276.412 124.27C276.238 124.134 276.077 123.917 275.954 123.573L275.345 123.791L274.736 124.009C274.921 124.529 275.207 124.971 275.617 125.291L276.015 124.781ZM275.345 123.791L275.954 123.574C275.831 123.229 275.76 122.783 275.76 122.22H275.113H274.466C274.466 122.884 274.549 123.486 274.735 124.008L275.345 123.791ZM275.113 122.22H275.76C275.76 121.661 275.831 121.218 275.954 120.874L275.345 120.657L274.736 120.439C274.549 120.959 274.466 121.558 274.466 122.22H275.113ZM275.345 120.657L275.953 120.876C276.078 120.529 276.24 120.311 276.415 120.174L276.017 119.664L275.619 119.154C275.21 119.474 274.924 119.917 274.736 120.437L275.345 120.657ZM276.017 119.664L276.416 120.174C276.584 120.042 276.793 119.967 277.076 119.967V119.32V118.673C276.536 118.673 276.039 118.827 275.619 119.155L276.017 119.664ZM277.076 119.32V119.967C277.359 119.967 277.566 120.042 277.732 120.173L278.132 119.664L278.531 119.156C278.113 118.827 277.616 118.673 277.076 118.673V119.32ZM278.132 119.664L277.735 120.176C277.911 120.312 278.072 120.529 278.195 120.874L278.804 120.657L279.414 120.44C279.228 119.917 278.941 119.473 278.528 119.153L278.132 119.664ZM278.804 120.657L278.196 120.877C278.32 121.219 278.392 121.661 278.392 122.22H279.039H279.685C279.685 121.558 279.601 120.958 279.413 120.437L278.804 120.657ZM279.039 122.22H278.392C278.392 122.783 278.32 123.229 278.198 123.574L278.807 123.791L279.416 124.008C279.602 123.486 279.685 122.884 279.685 122.22H279.039ZM278.807 123.791L278.198 123.573C278.075 123.917 277.914 124.134 277.739 124.27L278.137 124.781L278.535 125.291C278.945 124.971 279.23 124.529 279.416 124.009L278.807 123.791ZM278.137 124.781L277.741 124.269C277.576 124.396 277.367 124.473 277.076 124.473V125.12V125.767C277.616 125.767 278.113 125.617 278.533 125.292L278.137 124.781ZM277.076 124.513V125.16C277.749 125.16 278.269 124.811 278.596 124.24L278.035 123.918L277.474 123.596C277.346 123.819 277.226 123.866 277.076 123.866V124.513ZM278.035 123.918L278.596 124.24C278.905 123.703 279.024 123.006 279.024 122.22H278.377H277.73C277.73 122.903 277.621 123.339 277.474 123.596L278.035 123.918ZM278.377 122.22H279.024C279.024 121.688 278.967 121.205 278.839 120.782L278.22 120.971L277.601 121.16C277.682 121.425 277.73 121.773 277.73 122.22H278.377ZM278.22 120.971L278.84 120.785C278.715 120.368 278.517 119.992 278.212 119.71L277.773 120.185L277.334 120.66C277.419 120.739 277.519 120.886 277.6 121.157L278.22 120.971ZM277.773 120.185L278.215 119.712C277.898 119.417 277.506 119.268 277.076 119.268V119.915V120.562C277.19 120.562 277.263 120.594 277.332 120.658L277.773 120.185ZM277.076 119.915V119.268C276.4 119.268 275.884 119.627 275.557 120.198L276.119 120.519L276.681 120.84C276.815 120.606 276.936 120.562 277.076 120.562V119.915ZM276.119 120.519L275.558 120.197C275.248 120.737 275.128 121.434 275.128 122.22H275.775H276.422C276.422 121.539 276.531 121.102 276.68 120.841L276.119 120.519ZM275.775 122.22H275.128C275.128 122.75 275.183 123.232 275.31 123.652L275.929 123.466L276.549 123.279C276.469 123.016 276.422 122.667 276.422 122.22H275.775ZM275.929 123.466L275.31 123.652C275.434 124.066 275.631 124.441 275.934 124.721L276.373 124.246L276.812 123.771C276.729 123.694 276.63 123.549 276.549 123.279L275.929 123.466ZM276.373 124.246L275.936 124.723C276.255 125.015 276.647 125.16 277.076 125.16V124.513V123.866C276.957 123.866 276.88 123.833 276.81 123.769L276.373 124.246ZM280.866 124.781L280.468 125.291L280.47 125.292L280.866 124.781ZM280.196 123.791L279.587 124.008L279.587 124.009L280.196 123.791ZM280.196 120.657L279.588 120.437L279.587 120.439L280.196 120.657ZM280.869 119.664L281.267 120.174L281.267 120.174L280.869 119.664ZM282.983 119.664L282.584 120.173L282.587 120.176L282.983 119.664ZM283.656 120.657L283.047 120.874L283.048 120.877L283.656 120.657ZM283.659 123.791L284.268 124.009L284.268 124.008L283.659 123.791ZM282.989 124.781L283.385 125.292L283.387 125.291L282.989 124.781ZM282.887 123.918L282.326 123.596V123.596L282.887 123.918ZM283.072 120.971L282.452 121.157L282.453 121.16L283.072 120.971ZM282.625 120.185L282.184 120.658L282.186 120.66L282.625 120.185ZM280.971 120.519L281.532 120.841L281.533 120.84L280.971 120.519ZM280.781 123.466L280.161 123.652V123.652L280.781 123.466ZM281.225 124.246L280.786 124.721L280.788 124.723L281.225 124.246ZM281.928 125.12V124.473C281.637 124.473 281.427 124.396 281.262 124.269L280.866 124.781L280.47 125.292C280.89 125.617 281.388 125.767 281.928 125.767V125.12ZM280.866 124.781L281.264 124.27C281.089 124.134 280.928 123.917 280.806 123.573L280.196 123.791L279.587 124.009C279.773 124.529 280.059 124.971 280.468 125.291L280.866 124.781ZM280.196 123.791L280.806 123.574C280.683 123.229 280.612 122.783 280.612 122.22H279.965H279.318C279.318 122.884 279.401 123.486 279.587 124.008L280.196 123.791ZM279.965 122.22H280.612C280.612 121.661 280.683 121.218 280.806 120.874L280.196 120.657L279.587 120.439C279.401 120.959 279.318 121.558 279.318 122.22H279.965ZM280.196 120.657L280.805 120.876C280.93 120.529 281.092 120.311 281.267 120.174L280.869 119.664L280.471 119.154C280.062 119.474 279.775 119.917 279.588 120.437L280.196 120.657ZM280.869 119.664L281.267 120.174C281.436 120.042 281.644 119.967 281.928 119.967V119.32V118.673C281.387 118.673 280.89 118.827 280.471 119.155L280.869 119.664ZM281.928 119.32V119.967C282.211 119.967 282.418 120.042 282.584 120.173L282.983 119.664L283.383 119.156C282.965 118.827 282.468 118.673 281.928 118.673V119.32ZM282.983 119.664L282.587 120.176C282.762 120.312 282.924 120.529 283.047 120.874L283.656 120.657L284.265 120.44C284.079 119.917 283.792 119.473 283.38 119.153L282.983 119.664ZM283.656 120.657L283.048 120.877C283.171 121.219 283.243 121.661 283.243 122.22H283.89H284.537C284.537 121.558 284.453 120.958 284.264 120.437L283.656 120.657ZM283.89 122.22H283.243C283.243 122.783 283.172 123.229 283.049 123.574L283.659 123.791L284.268 124.008C284.454 123.486 284.537 122.884 284.537 122.22H283.89ZM283.659 123.791L283.05 123.573C282.927 123.917 282.766 124.134 282.591 124.27L282.989 124.781L283.387 125.291C283.796 124.971 284.082 124.529 284.268 124.009L283.659 123.791ZM282.989 124.781L282.593 124.269C282.428 124.396 282.218 124.473 281.928 124.473V125.12V125.767C282.467 125.767 282.965 125.617 283.385 125.292L282.989 124.781ZM281.928 124.513V125.16C282.601 125.16 283.12 124.811 283.448 124.24L282.887 123.918L282.326 123.596C282.198 123.819 282.078 123.866 281.928 123.866V124.513ZM282.887 123.918L283.448 124.24C283.756 123.703 283.876 123.006 283.876 122.22H283.229H282.582C282.582 122.903 282.473 123.339 282.326 123.596L282.887 123.918ZM283.229 122.22H283.876C283.876 121.688 283.819 121.205 283.69 120.782L283.072 120.971L282.453 121.16C282.534 121.425 282.582 121.773 282.582 122.22H283.229ZM283.072 120.971L283.691 120.785C283.566 120.368 283.369 119.992 283.064 119.71L282.625 120.185L282.186 120.66C282.271 120.739 282.371 120.886 282.452 121.157L283.072 120.971ZM282.625 120.185L283.066 119.712C282.75 119.417 282.358 119.268 281.928 119.268V119.915V120.562C282.041 120.562 282.114 120.594 282.184 120.658L282.625 120.185ZM281.928 119.915V119.268C281.252 119.268 280.735 119.627 280.409 120.198L280.971 120.519L281.533 120.84C281.666 120.606 281.787 120.562 281.928 120.562V119.915ZM280.971 120.519L280.41 120.197C280.1 120.737 279.98 121.434 279.98 122.22H280.626H281.273C281.273 121.539 281.382 121.102 281.532 120.841L280.971 120.519ZM280.626 122.22H279.98C279.98 122.75 280.035 123.232 280.161 123.652L280.781 123.466L281.4 123.279C281.321 123.016 281.273 122.667 281.273 122.22H280.626ZM280.781 123.466L280.161 123.652C280.286 124.066 280.483 124.441 280.786 124.721L281.225 124.246L281.664 123.771C281.581 123.694 281.481 123.549 281.4 123.279L280.781 123.466ZM281.225 124.246L280.788 124.723C281.107 125.015 281.499 125.16 281.928 125.16V124.513V123.866C281.809 123.866 281.732 123.833 281.661 123.769L281.225 124.246Z" fill="#46B6A0" mask="url(#path-7-inside-1_283_457)"/>
<path d="M336.181 67.584H227.503C218.214 67.584 210.684 75.1142 210.684 84.4032V154.267C210.684 163.556 218.214 171.087 227.503 171.087H336.181C345.47 171.087 353 163.556 353 154.267V84.4032C353 75.1142 345.47 67.584 336.181 67.584Z" fill="white" fill-opacity="0.02" stroke="#00A9BD" stroke-opacity="0.48" stroke-width="1.29378"/>
<path d="M327.124 79.228H236.559C229.414 79.228 223.622 85.0205 223.622 92.1659V118.042C223.622 125.187 229.414 130.979 236.559 130.979H327.124C334.27 130.979 340.062 125.187 340.062 118.042V92.1659C340.062 85.0205 334.27 79.228 327.124 79.228Z" fill="#11101A"/>
<g filter="url(#filter2_f_283_457)">
<path d="M281.842 128.392C293.989 128.392 303.836 118.545 303.836 106.398C303.836 94.251 293.989 84.4038 281.842 84.4038C269.695 84.4038 259.848 94.251 259.848 106.398C259.848 118.545 269.695 128.392 281.842 128.392Z" fill="url(#paint2_radial_283_457)"/>
</g>
<path d="M240.441 37.8267H221.034C217.461 37.8267 214.565 40.7229 214.565 44.2956V48.1769C214.565 51.7496 217.461 54.6458 221.034 54.6458H240.441C244.013 54.6458 246.91 51.7496 246.91 48.1769V44.2956C246.91 40.7229 244.013 37.8267 240.441 37.8267Z" fill="#3A3A47"/>
<path d="M51.9829 20.6214L34.1272 28.2237C30.8401 29.6233 29.3098 33.4226 30.7094 36.7097L32.2299 40.2809C33.6294 43.568 37.4287 45.0982 40.7159 43.6987L58.5716 36.0964C61.8587 34.6968 63.3889 30.8975 61.9894 27.6104L60.4689 24.0392C59.0694 20.7521 55.2701 19.2219 51.9829 20.6214Z" fill="#00A9BD"/>
<path d="M223.311 49.1397V47.8864L226.454 42.9354H227.534V44.6703H226.895L224.914 47.8055V47.8643H229.379V49.1397H223.311ZM226.924 50.4629V48.7574L226.954 48.2024V42.9354H228.446V50.4629H226.924ZM230.484 50.4629V42.9354H232.075V46.2544H232.175L234.884 42.9354H236.791L233.998 46.3059L236.824 50.4629H234.92L232.858 47.3681L232.075 48.3237V50.4629H230.484Z" fill="white"/>
<path d="M43.8779 37.9177C43.3729 38.1327 42.8861 38.2374 42.4177 38.2318C41.9505 38.2229 41.5378 38.1137 41.1796 37.904C40.8226 37.6912 40.5548 37.3844 40.3763 36.9837L41.8507 36.3559C41.9317 36.5212 42.0503 36.6465 42.2065 36.7318C42.3639 36.8139 42.5432 36.8534 42.7443 36.8503C42.9454 36.8473 43.153 36.8001 43.3672 36.7089C43.5904 36.6139 43.7709 36.4905 43.9086 36.3386C44.0464 36.1868 44.134 36.0203 44.1714 35.8392C44.2088 35.6582 44.1887 35.4764 44.1109 35.2937C44.0322 35.1089 43.9108 34.9675 43.7466 34.8696C43.5837 34.7685 43.3892 34.7182 43.163 34.7186C42.939 34.7181 42.6963 34.7735 42.4348 34.8848L41.7889 35.1598L41.331 34.0844L41.9769 33.8094C42.1979 33.7154 42.3766 33.594 42.513 33.4454C42.6517 33.2958 42.7396 33.1332 42.7767 32.9576C42.8129 32.7797 42.792 32.5995 42.7143 32.4169C42.6404 32.2433 42.5339 32.1089 42.3948 32.0136C42.257 31.9152 42.0979 31.8604 41.9174 31.8494C41.7392 31.8374 41.552 31.8731 41.3558 31.9566C41.1575 32.0411 40.9913 32.1544 40.8575 32.2967C40.7226 32.4366 40.6335 32.5931 40.5899 32.7661C40.5464 32.9391 40.5587 33.115 40.6268 33.2937L39.2234 33.8912C39.0602 33.4893 39.0244 33.0891 39.1157 32.6907C39.2071 32.2923 39.4034 31.9277 39.7047 31.597C40.0073 31.2631 40.3953 30.9954 40.8688 30.7938C41.3467 30.5903 41.8019 30.499 42.2343 30.52C42.6666 30.541 43.0449 30.6569 43.369 30.8678C43.6945 31.0755 43.9338 31.3624 44.0871 31.7286C44.2544 32.1154 44.2715 32.4903 44.1384 32.8532C44.0076 33.2152 43.7632 33.5137 43.4051 33.7486L43.4282 33.8028C43.9655 33.6512 44.4287 33.6631 44.8176 33.8384C45.2078 34.0105 45.4934 34.3123 45.6745 34.7439C45.8447 35.1375 45.8801 35.5365 45.7807 35.941C45.6835 36.3446 45.4717 36.7197 45.1453 37.0665C44.8189 37.4132 44.3964 37.6969 43.8779 37.9177ZM50.0507 35.1777L47.5955 36.223L44.6468 29.2971L47.1222 28.2432C47.8189 27.9466 48.4776 27.8299 49.0984 27.8931C49.7183 27.9541 50.2734 28.1852 50.7637 28.5863C51.2563 28.9864 51.6558 29.5461 51.962 30.2653C52.2691 30.9867 52.3967 31.6648 52.3447 32.2995C52.2949 32.9332 52.0754 33.4967 51.6862 33.99C51.2993 34.4823 50.7541 34.8782 50.0507 35.1777ZM48.5257 34.3449L49.4556 33.9489C49.8885 33.7646 50.22 33.533 50.45 33.2539C50.6814 32.9717 50.8024 32.6365 50.813 32.2485C50.8248 31.8573 50.7208 31.4036 50.501 30.8873C50.2831 30.3755 50.0296 29.9894 49.7403 29.7291C49.4533 29.4678 49.1294 29.3234 48.7688 29.2958C48.4082 29.2683 48.0115 29.3466 47.5786 29.5309L46.6452 29.9283L48.5257 34.3449Z" fill="white"/>
<path opacity="0.95" d="M96.26 117.173L14.7558 117.993C6.89629 118.072 0.588994 124.507 0.668054 132.367L0.837234 149.185C0.916294 157.044 7.35178 163.352 15.2113 163.273L96.7155 162.453C104.575 162.374 110.882 155.938 110.803 148.079L110.634 131.26C110.555 123.401 104.12 117.094 96.26 117.173Z" fill="url(#paint3_linear_283_457)"/>
<path opacity="0.8" d="M93.9345 120.639L17.6051 121.407C10.4601 121.479 4.72623 127.329 4.79811 134.474L4.91523 146.118C4.9871 153.263 10.8375 158.997 17.9825 158.925L94.3119 158.157C101.457 158.085 107.191 152.235 107.119 145.09L107.002 133.446C106.93 126.301 101.08 120.567 93.9345 120.639Z" fill="url(#paint4_linear_283_457)" stroke="#46B6A0" stroke-width="0.77627"/>
<path d="M28.2095 136.665L28.1961 135.336L36.1174 135.256L36.1307 136.585L32.9373 136.617L33.0268 145.523L31.4876 145.539L31.398 136.633L28.2095 136.665ZM40.0476 145.607C39.2913 145.615 38.6383 145.46 38.0886 145.142C37.5423 144.821 37.1178 144.367 36.8154 143.781C36.5162 143.191 36.3626 142.497 36.3546 141.701C36.3467 140.915 36.4864 140.22 36.7735 139.618C37.064 139.015 37.4724 138.543 37.9988 138.201C38.5285 137.859 39.1498 137.684 39.8628 137.677C40.296 137.673 40.7165 137.74 41.1244 137.88C41.5323 138.019 41.8994 138.24 42.2257 138.543C42.5519 138.846 42.8108 139.242 43.0023 139.73C43.1938 140.214 43.293 140.805 43.3 141.501L43.3053 142.031L37.2033 142.092L37.192 140.973L41.8298 140.926C41.8258 140.533 41.7424 140.186 41.5794 139.884C41.4164 139.579 41.1891 139.34 40.8974 139.166C40.6091 138.993 40.2717 138.908 39.8852 138.912C39.4654 138.916 39.1 139.023 38.7889 139.233C38.4811 139.439 38.2439 139.708 38.0773 140.039C37.914 140.368 37.8342 140.723 37.8381 141.106L37.8469 141.981C37.8521 142.494 37.9464 142.93 38.1299 143.288C38.3168 143.646 38.5744 143.918 38.9029 144.105C39.2313 144.288 39.6137 144.377 40.0501 144.373C40.3333 144.37 40.5911 144.327 40.8236 144.245C41.0559 144.16 41.2563 144.034 41.4246 143.869C41.5928 143.704 41.7207 143.501 41.8083 143.261L43.2252 143.501C43.1161 143.919 42.9165 144.286 42.6265 144.602C42.3397 144.915 41.9773 145.16 41.5393 145.338C41.1045 145.512 40.6073 145.602 40.0476 145.607ZM47.233 145.55C46.7466 145.555 46.3059 145.47 45.911 145.294C45.516 145.114 45.2018 144.853 44.9684 144.508C44.7384 144.164 44.6208 143.74 44.6157 143.237C44.6114 142.804 44.6911 142.447 44.8549 142.165C45.0186 141.884 45.2413 141.66 45.5229 141.494C45.8044 141.328 46.1197 141.201 46.4687 141.115C46.8177 141.028 47.1735 140.961 47.5363 140.914C47.9955 140.856 48.3682 140.809 48.6544 140.773C48.9406 140.733 49.1482 140.673 49.2774 140.591C49.4065 140.51 49.4702 140.38 49.4684 140.2L49.468 140.165C49.4636 139.728 49.3369 139.391 49.088 139.154C48.8423 138.916 48.478 138.8 47.9949 138.805C47.4918 138.81 47.0964 138.926 46.8088 139.152C46.5245 139.375 46.3287 139.621 46.2215 139.892L44.8139 139.587C44.9758 139.119 45.2153 138.74 45.5322 138.45C45.8525 138.157 46.2219 137.943 46.6404 137.809C47.0588 137.672 47.4996 137.6 47.9627 137.596C48.2692 137.593 48.5945 137.626 48.9384 137.696C49.2856 137.762 49.6101 137.889 49.9118 138.076C50.2169 138.263 50.4679 138.532 50.6647 138.883C50.8614 139.231 50.9626 139.685 50.9682 140.245L51.0195 145.342L49.5602 145.357L49.5497 144.307L49.4897 144.308C49.395 144.502 49.252 144.694 49.0606 144.882C48.8693 145.071 48.6226 145.228 48.3207 145.354C48.0187 145.481 47.6562 145.546 47.233 145.55ZM47.5458 144.347C47.959 144.343 48.3113 144.258 48.6028 144.092C48.8977 143.926 49.1205 143.71 49.2711 143.445C49.425 143.177 49.5004 142.892 49.4974 142.588L49.4874 141.599C49.4347 141.653 49.3319 141.704 49.1791 141.752C49.0296 141.797 48.8584 141.837 48.6655 141.872C48.4725 141.904 48.2846 141.934 48.1016 141.963C47.9186 141.988 47.7655 142.009 47.6424 142.027C47.3529 142.067 47.0887 142.131 46.8497 142.22C46.614 142.309 46.4253 142.436 46.2837 142.601C46.1454 142.762 46.0776 142.976 46.0802 143.243C46.084 143.612 46.2234 143.891 46.4985 144.078C46.7736 144.262 47.1227 144.352 47.5458 144.347ZM53.0098 145.322L52.9326 137.646L54.3669 137.631L54.3795 138.881L54.4744 138.88C54.6301 138.455 54.8883 138.123 55.2491 137.882C55.6099 137.639 56.0434 137.515 56.5499 137.509C57.063 137.504 57.494 137.62 57.8429 137.856C58.1951 138.093 58.4567 138.42 58.6275 138.838L58.7074 138.837C58.8865 138.426 59.1748 138.096 59.5722 137.849C59.9695 137.598 60.4447 137.47 60.9978 137.465C61.6941 137.458 62.2643 137.67 62.7085 138.102C63.156 138.534 63.3842 139.19 63.3931 140.07L63.4448 145.217L61.9506 145.232L61.9002 140.225C61.895 139.705 61.7496 139.33 61.464 139.099C61.1785 138.869 60.8391 138.756 60.446 138.76C59.9596 138.765 59.5829 138.918 59.3161 139.221C59.0492 139.52 58.9181 139.903 58.9228 140.369L58.972 145.262L57.4827 145.277L57.4314 140.175C57.4272 139.758 57.2939 139.425 57.0314 139.174C56.769 138.923 56.4296 138.8 56.0131 138.804C55.7299 138.807 55.4691 138.885 55.2307 139.037C54.9957 139.186 54.8061 139.393 54.6622 139.658C54.5216 139.922 54.453 140.228 54.4565 140.574L54.5041 145.307L53.0098 145.322ZM70.1566 145.15L68.5174 145.166L72.0977 134.894L73.8819 134.876L77.6681 145.074L76.0288 145.091L73.051 136.744L72.971 136.744L70.1566 145.15ZM70.3912 141.139L75.7087 141.085L75.7217 142.385L70.4043 142.438L70.3912 141.139Z" fill="#F9FAFB"/>
<path d="M91.5379 67.5782L94.0725 67.5528L96.2753 72.774L96.3746 72.773L98.4719 67.5085L101.007 67.483L101.092 75.951L99.0987 75.971L99.0464 70.7695L98.9761 70.7702L96.9936 75.9384L95.7201 75.9513L93.6337 70.795L93.5634 70.7957L93.6161 76.0262L91.6231 76.0462L91.5379 67.5782ZM105.334 76.0282C104.667 76.0349 104.092 75.9042 103.61 75.6362C103.13 75.3653 102.758 74.9859 102.494 74.4978C102.233 74.007 102.099 73.4363 102.093 72.7858C102.086 72.1325 102.208 71.5592 102.46 71.066C102.714 70.57 103.078 70.1831 103.552 69.9054C104.029 69.6249 104.601 69.4813 105.268 69.4746C105.935 69.4679 106.509 69.6 106.988 69.8709C107.471 70.1389 107.843 70.5184 108.104 71.0092C108.368 71.4973 108.503 72.0679 108.51 72.7212C108.516 73.3718 108.392 73.945 108.138 74.4411C107.887 74.9343 107.523 75.3211 107.046 75.6016C106.572 75.8793 106.001 76.0215 105.334 76.0282ZM105.331 74.5024C105.574 74.4999 105.778 74.4234 105.945 74.2729C106.112 74.1224 106.238 73.9143 106.323 73.6488C106.412 73.3833 106.454 73.0768 106.451 72.7295C106.447 72.3767 106.398 72.0684 106.305 71.8047C106.214 71.541 106.084 71.3355 105.914 71.1884C105.744 71.0412 105.538 70.9689 105.296 70.9713C105.045 70.9738 104.833 71.0504 104.661 71.201C104.492 71.3515 104.363 71.5596 104.275 71.8251C104.189 72.0906 104.148 72.3998 104.152 72.7527C104.155 73.1 104.202 73.4055 104.293 73.6692C104.387 73.9329 104.52 74.1384 104.692 74.2855C104.867 74.4326 105.08 74.5049 105.331 74.5024ZM113.098 69.4786L113.113 70.9671L109.107 71.0074L109.092 69.5189L113.098 69.4786ZM109.916 67.9888L111.938 67.9685L111.997 73.844C111.998 73.968 112.018 74.0685 112.058 74.1452C112.1 74.2193 112.159 74.2724 112.237 74.3047C112.314 74.3343 112.407 74.3485 112.514 74.3474C112.592 74.3466 112.673 74.3389 112.758 74.3243C112.846 74.3069 112.912 74.2924 112.956 74.2809L113.277 75.7374C113.181 75.766 113.045 75.8018 112.869 75.8449C112.695 75.888 112.488 75.9163 112.245 75.9298C111.771 75.9566 111.364 75.9055 111.024 75.7766C110.686 75.6449 110.426 75.438 110.244 75.1559C110.065 74.8738 109.976 74.5177 109.977 74.0876L109.916 67.9888ZM114.194 75.8192L114.13 69.4682L116.152 69.4479L116.216 75.7988L114.194 75.8192ZM115.135 68.7179C114.851 68.7207 114.607 68.6295 114.401 68.4441C114.195 68.2559 114.091 68.0282 114.088 67.7608C114.085 67.4962 114.185 67.2691 114.387 67.0796C114.589 66.8874 114.832 66.7898 115.116 66.787C115.403 66.7841 115.648 66.8767 115.851 67.0649C116.057 67.2503 116.161 67.4753 116.163 67.7399C116.166 68.0073 116.066 68.2371 115.864 68.4294C115.665 68.6188 115.422 68.715 115.135 68.7179ZM120.468 75.876C119.801 75.8827 119.227 75.752 118.744 75.4839C118.265 75.2131 117.893 74.8336 117.629 74.3456C117.367 73.8548 117.233 73.2841 117.227 72.6335C117.22 71.9802 117.343 71.407 117.594 70.9137C117.848 70.4177 118.212 70.0309 118.687 69.7532C119.163 69.4727 119.735 69.3291 120.402 69.3224C121.069 69.3157 121.643 69.4478 122.122 69.7186C122.605 69.9867 122.977 70.3661 123.238 70.857C123.502 71.345 123.637 71.9157 123.644 72.569C123.651 73.2195 123.527 73.7928 123.273 74.2888C123.021 74.782 122.657 75.1689 122.18 75.4494C121.706 75.7271 121.135 75.8693 120.468 75.876ZM120.465 74.3501C120.708 74.3477 120.913 74.2712 121.079 74.1207C121.246 73.9701 121.372 73.7621 121.458 73.4966C121.546 73.231 121.588 72.9246 121.585 72.5773C121.581 72.2245 121.533 71.9162 121.439 71.6525C121.348 71.3887 121.218 71.1833 121.048 71.0361C120.879 70.889 120.672 70.8166 120.43 70.8191C120.179 70.8216 119.968 70.8981 119.795 71.0487C119.626 71.1993 119.497 71.4074 119.409 71.6729C119.323 71.9384 119.282 72.2476 119.286 72.6004C119.289 72.9477 119.336 73.2533 119.427 73.517C119.521 73.7807 119.654 73.9861 119.826 74.1333C120.002 74.2804 120.215 74.3527 120.465 74.3501ZM126.697 72.071L126.733 75.693L124.711 75.7134L124.648 69.3624L126.57 69.3431L126.582 70.5091L126.652 70.5084C126.789 70.1183 127.026 69.8113 127.363 69.5873C127.699 69.3606 128.102 69.2449 128.571 69.2402C129.017 69.2357 129.405 69.3325 129.736 69.5304C130.068 69.7255 130.327 70.0014 130.513 70.3579C130.701 70.7116 130.796 71.1269 130.798 71.6038L130.839 75.6517L128.817 75.6721L128.781 72.0211C128.78 71.6682 128.687 71.3935 128.503 71.1968C128.322 71.0002 128.072 70.9035 127.752 70.9067C127.54 70.9088 127.353 70.9576 127.191 71.0529C127.032 71.1455 126.909 71.2777 126.823 71.4495C126.739 71.6212 126.697 71.8284 126.697 72.071ZM137.722 75.5825L134.592 75.614L134.507 67.146L137.633 67.1146C138.496 67.1059 139.241 67.2679 139.867 67.6007C140.496 67.9307 140.983 68.411 141.329 69.0416C141.674 69.6694 141.851 70.423 141.86 71.3023C141.869 72.1844 141.707 72.9441 141.374 73.5816C141.044 74.2189 140.568 74.7103 139.946 75.0556C139.324 75.3982 138.583 75.5738 137.722 75.5825ZM136.622 73.8485L137.626 73.8384C138.1 73.8337 138.501 73.7497 138.827 73.5865C139.156 73.4205 139.403 73.1548 139.568 72.7892C139.735 72.4209 139.815 71.9321 139.809 71.323C139.803 70.7138 139.713 70.2295 139.538 69.8701C139.364 69.508 139.109 69.2486 138.774 69.0921C138.441 68.9328 138.032 68.8556 137.547 68.8605L136.572 68.8703L136.622 73.8485ZM146.068 75.6185C145.403 75.6252 144.829 75.5 144.344 75.243C143.861 74.9832 143.488 74.6106 143.224 74.1253C142.963 73.6373 142.829 73.0555 142.822 72.3802C142.815 71.7242 142.939 71.1495 143.193 70.6562C143.448 70.1602 143.809 69.7734 144.278 69.4958C144.746 69.2154 145.3 69.0719 145.94 69.0655C146.392 69.061 146.806 69.1271 147.182 69.2639C147.559 69.4007 147.885 69.6056 148.16 69.8785C148.436 70.1514 148.652 70.4897 148.807 70.8934C148.963 71.2943 149.043 71.7552 149.049 72.2762L149.054 72.7807L143.534 72.8362L143.522 71.6619L147.16 71.6253C147.156 71.4103 147.103 71.2193 147.002 71.0521C146.901 70.885 146.763 70.7554 146.588 70.6634C146.417 70.5687 146.219 70.5224 145.996 70.5247C145.77 70.5269 145.568 70.58 145.389 70.6838C145.211 70.7848 145.071 70.9227 144.968 71.0974C144.865 71.2693 144.811 71.4642 144.808 71.6821L144.82 72.877C144.823 73.1361 144.876 73.363 144.98 73.5577C145.084 73.7496 145.23 73.8984 145.419 74.004C145.607 74.1096 145.831 74.1611 146.09 74.1585C146.269 74.1567 146.432 74.1303 146.577 74.0792C146.723 74.0281 146.848 73.9538 146.951 73.8563C147.055 73.7587 147.133 73.6394 147.183 73.4983L149.041 73.5334C148.968 73.9504 148.802 74.3146 148.543 74.6259C148.287 74.9345 147.949 75.1764 147.529 75.3515C147.109 75.5239 146.622 75.6129 146.068 75.6185ZM155.614 70.9903L153.758 71.0586C153.737 70.9265 153.683 70.8098 153.597 70.7087C153.51 70.6048 153.398 70.5246 153.26 70.4681C153.124 70.4089 152.966 70.3801 152.787 70.3819C152.553 70.3843 152.354 70.4331 152.189 70.5285C152.028 70.6239 151.949 70.7515 151.953 70.9113C151.952 71.0354 152.002 71.1424 152.105 71.2323C152.211 71.3223 152.398 71.3934 152.666 71.4459L153.892 71.6651C154.527 71.78 155.001 71.9765 155.312 72.2546C155.626 72.5326 155.787 72.9031 155.795 73.3662C155.796 73.8018 155.671 74.1821 155.417 74.5072C155.167 74.8322 154.822 75.0866 154.383 75.2702C153.944 75.451 153.44 75.5443 152.872 75.55C151.965 75.5591 151.248 75.3803 150.721 75.0134C150.196 74.6438 149.893 74.1451 149.813 73.5173L151.809 73.4476C151.856 73.6787 151.972 73.854 152.158 73.9734C152.344 74.0929 152.58 74.1511 152.867 74.1483C153.126 74.1456 153.336 74.0953 153.498 73.9972C153.659 73.8991 153.741 73.7701 153.742 73.6101C153.738 73.4668 153.673 73.3531 153.548 73.2689C153.423 73.1819 153.228 73.115 152.963 73.068L151.853 72.8683C151.215 72.7589 150.739 72.5501 150.424 72.2417C150.11 71.9306 149.951 71.5325 149.949 71.0473C149.942 70.6228 150.051 70.2592 150.277 69.9564C150.503 69.6509 150.826 69.4161 151.246 69.252C151.666 69.0879 152.163 69.0029 152.736 68.9971C153.596 68.9885 154.276 69.1622 154.776 69.5183C155.276 69.8717 155.555 70.3623 155.614 70.9903ZM156.811 75.3905L156.747 69.0395L158.769 69.0192L158.832 75.3701L156.811 75.3905ZM157.752 68.2892C157.468 68.2921 157.223 68.2008 157.018 68.0154C156.812 67.8272 156.707 67.5995 156.705 67.3321C156.702 67.0675 156.802 66.8404 157.004 66.6509C157.206 66.4587 157.449 66.3611 157.733 66.3583C158.019 66.3554 158.264 66.448 158.468 66.6362C158.673 66.8216 158.778 67.0466 158.78 67.3112C158.783 67.5786 158.683 67.8084 158.481 68.0007C158.282 68.1901 158.039 68.2863 157.752 68.2892ZM163.105 77.8413C162.501 77.8474 161.984 77.7685 161.552 77.6047C161.12 77.4409 160.78 77.2141 160.532 76.9244C160.284 76.6347 160.133 76.3054 160.08 75.9365L161.993 75.8098C162.03 75.939 162.097 76.0513 162.195 76.1468C162.295 76.2423 162.424 76.3154 162.582 76.3662C162.742 76.417 162.93 76.4413 163.145 76.4391C163.484 76.4357 163.763 76.3502 163.982 76.1826C164.203 76.0177 164.312 75.7313 164.308 75.3233L164.297 74.207L164.226 74.2077C164.148 74.4042 164.029 74.5804 163.868 74.7364C163.707 74.8924 163.505 75.0158 163.264 75.1064C163.025 75.197 162.75 75.2439 162.438 75.247C161.975 75.2517 161.549 75.1485 161.161 74.9373C160.776 74.7234 160.465 74.3902 160.229 73.9377C159.996 73.4825 159.875 72.8951 159.868 72.1756C159.861 71.4341 159.973 70.8224 160.205 70.3404C160.438 69.8556 160.744 69.4955 161.125 69.2601C161.509 69.0247 161.922 68.9047 162.366 68.9003C162.7 68.8969 162.985 68.9519 163.224 69.0653C163.465 69.1759 163.663 69.32 163.819 69.4977C163.975 69.6753 164.095 69.8602 164.176 70.0523L164.234 70.0517L164.223 68.9643L166.237 68.944L166.301 75.3198C166.307 75.8573 166.176 76.3121 165.91 76.6842C165.643 77.0563 165.268 77.3399 164.785 77.535C164.302 77.7328 163.742 77.8349 163.105 77.8413ZM163.126 73.768C163.372 73.7655 163.58 73.6986 163.753 73.5673C163.925 73.436 164.057 73.2486 164.148 73.0051C164.239 72.7616 164.283 72.4703 164.28 72.1313C164.277 71.7867 164.227 71.4909 164.13 71.2437C164.037 70.9938 163.901 70.8022 163.724 70.6689C163.549 70.5356 163.338 70.4701 163.093 70.4726C162.842 70.4751 162.631 70.5462 162.458 70.6857C162.286 70.8253 162.156 71.021 162.067 71.2727C161.982 71.5217 161.94 71.8157 161.944 72.1548C161.947 72.4938 161.996 72.7842 162.089 73.0258C162.182 73.2675 162.315 73.4522 162.488 73.5801C162.662 73.7079 162.875 73.7705 163.126 73.768ZM169.575 71.6397L169.612 75.2617L167.59 75.2821L167.526 68.9311L169.449 68.9117L169.46 70.0777L169.531 70.077C169.667 69.6869 169.904 69.3799 170.241 69.156C170.578 68.9293 170.98 68.8136 171.449 68.8089C171.896 68.8044 172.284 68.9011 172.614 69.0991C172.947 69.2942 173.206 69.57 173.391 69.9265C173.58 70.2803 173.675 70.6956 173.677 71.1725L173.718 75.2204L171.696 75.2408L171.659 71.5898C171.658 71.2369 171.566 70.9622 171.382 70.7655C171.201 70.5689 170.95 70.4721 170.63 70.4753C170.418 70.4775 170.231 70.5262 170.07 70.6216C169.911 70.7142 169.788 70.8463 169.701 71.0181C169.618 71.1899 169.576 71.3971 169.575 71.6397Z" fill="#F9FAFB"/>
<path opacity="0.95" d="M328.336 92.5471L248.055 78.4551C240.314 77.0962 232.936 82.2704 231.578 90.0119L228.67 106.578C227.311 114.319 232.485 121.697 240.227 123.056L320.507 137.148C328.249 138.506 335.626 133.332 336.985 125.591L339.893 109.025C341.252 101.283 336.078 93.906 328.336 92.5471Z" fill="url(#paint5_linear_283_457)"/>
<path opacity="0.8" d="M325.116 95.9223L249.932 82.7251C242.895 81.4897 236.188 86.1935 234.953 93.2313L232.94 104.7C231.704 111.738 236.408 118.444 243.446 119.68L318.629 132.877C325.667 134.112 332.374 129.409 333.609 122.371L335.622 110.902C336.858 103.864 332.154 97.1577 325.116 95.9223Z" fill="#00707D" stroke="#46B6A0" stroke-width="0.77627"/>
<path d="M264.444 100.589L264.602 99.6928L270.857 100.791L270.7 101.687L268.077 101.226L266.77 108.671L265.76 108.494L267.067 101.049L264.444 100.589ZM272.514 109.814C271.912 109.708 271.415 109.484 271.025 109.141C270.637 108.796 270.368 108.362 270.216 107.84C270.067 107.316 270.049 106.734 270.162 106.093C270.274 105.452 270.49 104.908 270.809 104.46C271.132 104.01 271.527 103.685 271.996 103.485C272.469 103.282 272.987 103.23 273.552 103.329C273.878 103.387 274.19 103.497 274.488 103.662C274.787 103.826 275.045 104.053 275.263 104.343C275.481 104.631 275.633 104.988 275.717 105.414C275.802 105.84 275.793 106.345 275.691 106.929L275.619 107.336L270.797 106.49L270.943 105.659L274.788 106.334C274.85 105.981 274.834 105.654 274.742 105.352C274.652 105.051 274.492 104.797 274.262 104.592C274.035 104.387 273.748 104.254 273.4 104.193C273.017 104.126 272.67 104.162 272.357 104.303C272.047 104.442 271.791 104.649 271.588 104.924C271.386 105.199 271.255 105.509 271.194 105.854L271.097 106.408C271.014 106.881 271.025 107.295 271.131 107.652C271.239 108.007 271.425 108.296 271.688 108.519C271.952 108.738 272.278 108.882 272.666 108.951C272.918 108.995 273.153 109 273.369 108.965C273.588 108.928 273.785 108.85 273.959 108.733C274.134 108.612 274.282 108.45 274.401 108.248L275.284 108.671C275.131 108.969 274.918 109.217 274.646 109.416C274.373 109.611 274.056 109.746 273.693 109.819C273.331 109.89 272.938 109.888 272.514 109.814ZM278.405 110.865C278.008 110.795 277.662 110.657 277.365 110.451C277.068 110.242 276.85 109.979 276.71 109.66C276.571 109.339 276.537 108.975 276.608 108.568C276.671 108.209 276.793 107.931 276.973 107.733C277.154 107.533 277.373 107.389 277.632 107.303C277.89 107.217 278.168 107.168 278.464 107.155C278.763 107.141 279.061 107.14 279.358 107.153C279.747 107.171 280.062 107.188 280.302 107.205C280.546 107.22 280.728 107.206 280.847 107.162C280.969 107.119 281.044 107.021 281.071 106.866L281.077 106.833C281.148 106.431 281.092 106.1 280.912 105.839C280.733 105.578 280.423 105.409 279.981 105.331C279.522 105.25 279.144 105.288 278.848 105.443C278.552 105.598 278.332 105.78 278.186 105.99L277.331 105.504C277.56 105.152 277.829 104.895 278.138 104.73C278.45 104.564 278.775 104.467 279.113 104.44C279.454 104.41 279.782 104.423 280.097 104.478C280.298 104.513 280.524 104.578 280.776 104.673C281.031 104.765 281.268 104.906 281.487 105.096C281.708 105.286 281.874 105.543 281.985 105.868C282.096 106.192 282.108 106.603 282.021 107.1L281.298 111.221L280.336 111.053L280.485 110.205L280.436 110.197C280.347 110.321 280.213 110.447 280.034 110.576C279.855 110.704 279.629 110.8 279.358 110.864C279.086 110.928 278.769 110.929 278.405 110.865ZM278.703 110.027C279.083 110.094 279.416 110.075 279.703 109.972C279.993 109.869 280.225 109.711 280.399 109.498C280.577 109.285 280.688 109.049 280.734 108.788L280.888 107.908C280.839 107.95 280.742 107.979 280.596 107.996C280.454 108.01 280.29 108.016 280.106 108.015C279.924 108.011 279.748 108.005 279.576 107.997C279.407 107.987 279.269 107.98 279.164 107.975C278.908 107.964 278.665 107.976 278.435 108.011C278.208 108.044 278.016 108.121 277.858 108.241C277.702 108.36 277.603 108.541 277.561 108.785C277.502 109.119 277.581 109.393 277.798 109.608C278.018 109.82 278.32 109.96 278.703 110.027ZM283.052 111.529L284.15 105.274L285.079 105.437L284.907 106.414L284.988 106.428C285.177 106.117 285.433 105.895 285.756 105.761C286.08 105.625 286.445 105.592 286.852 105.664C287.265 105.736 287.592 105.89 287.833 106.126C288.078 106.359 288.248 106.656 288.344 107.017L288.409 107.029C288.626 106.734 288.912 106.519 289.265 106.386C289.62 106.249 290.021 106.22 290.469 106.299C291.028 106.397 291.455 106.652 291.749 107.065C292.044 107.475 292.127 108.048 291.997 108.784L291.262 112.97L290.301 112.802L291.036 108.615C291.117 108.153 291.049 107.801 290.831 107.559C290.613 107.316 290.334 107.165 289.991 107.105C289.552 107.028 289.187 107.101 288.899 107.325C288.611 107.546 288.432 107.858 288.361 108.263L287.646 112.336L286.668 112.164L287.421 107.88C287.483 107.524 287.418 107.217 287.225 106.96C287.033 106.699 286.755 106.537 286.391 106.473C286.141 106.429 285.896 106.455 285.656 106.55C285.418 106.645 285.212 106.799 285.037 107.012C284.866 107.223 284.753 107.481 284.699 107.788L284.013 111.698L283.052 111.529ZM296.376 113.868L297.84 105.527L300.756 106.039C301.337 106.141 301.798 106.326 302.141 106.593C302.483 106.857 302.717 107.174 302.843 107.543C302.969 107.909 302.996 108.296 302.925 108.704C302.862 109.062 302.746 109.347 302.577 109.558C302.411 109.769 302.213 109.925 301.983 110.024C301.756 110.124 301.517 110.186 301.267 110.209L301.252 110.291C301.505 110.352 301.745 110.486 301.975 110.695C302.204 110.903 302.379 111.174 302.499 111.509C302.62 111.843 302.641 112.231 302.564 112.67C302.491 113.089 302.33 113.448 302.081 113.749C301.832 114.049 301.486 114.261 301.042 114.385C300.597 114.508 300.047 114.512 299.39 114.397L296.376 113.868ZM297.543 113.149L299.547 113.501C300.207 113.617 300.697 113.571 301.019 113.365C301.344 113.156 301.539 112.868 301.603 112.502C301.653 112.219 301.626 111.946 301.524 111.682C301.423 111.415 301.252 111.186 301.011 110.996C300.771 110.802 300.468 110.674 300.105 110.61L298.052 110.25L297.543 113.149ZM298.206 109.37L300.08 109.699C300.384 109.752 300.669 109.741 300.934 109.664C301.202 109.588 301.427 109.454 301.609 109.262C301.794 109.07 301.912 108.828 301.963 108.535C302.028 108.168 301.955 107.835 301.744 107.535C301.534 107.232 301.152 107.032 300.599 106.935L298.693 106.6L298.206 109.37Z" fill="#F9FAFB"/>
<path d="M78.5564 21.9907L81.1439 33.4773L92.6304 36.0647L81.1439 38.6522L78.5564 50.1387L75.969 38.6522L64.4824 36.0647L75.969 33.4773L78.5564 21.9907Z" fill="#0AD9F1"/>
<path d="M201.704 120.509L203.321 127.688L210.5 129.305L203.321 130.922L201.704 138.101L200.087 130.922L192.908 129.305L200.087 127.688L201.704 120.509Z" fill="#0AD9F1"/>
<path d="M190.709 112.592L191.922 117.976L197.306 119.189L191.922 120.402L190.709 125.786L189.496 120.402L184.112 119.189L189.496 117.976L190.709 112.592Z" fill="#0AD9F1"/>
<path d="M275.153 10.5557L276.366 15.94L281.75 17.1529L276.366 18.3657L275.153 23.75L273.94 18.3657L268.556 17.1529L273.94 15.94L275.153 10.5557Z" fill="#0AD9F1"/>
<path d="M290.986 14.0742L292.684 21.6123L300.222 23.3103L292.684 25.0083L290.986 32.5463L289.288 25.0083L281.75 23.3103L289.288 21.6123L290.986 14.0742Z" fill="#0AD9F1"/>
<defs>
<filter id="filter0_f_283_457" x="26.9668" y="13.2456" width="302.745" height="147.491" filterUnits="userSpaceOnUse" color-interpolation-filters="sRGB">
<feFlood flood-opacity="0" result="BackgroundImageFix"/>
<feBlend mode="normal" in="SourceGraphic" in2="BackgroundImageFix" result="shape"/>
<feGaussianBlur stdDeviation="7.7627" result="effect1_foregroundBlur_283_457"/>
</filter>
<filter id="filter1_f_283_457" x="66.6084" y="52.8877" width="132.897" height="42.332" filterUnits="userSpaceOnUse" color-interpolation-filters="sRGB">
<feFlood flood-opacity="0" result="BackgroundImageFix"/>
<feBlend mode="normal" in="SourceGraphic" in2="BackgroundImageFix" result="shape"/>
<feGaussianBlur stdDeviation="0.879625" result="effect1_foregroundBlur_283_457"/>
</filter>
<filter id="filter2_f_283_457" x="244.322" y="68.8784" width="75.0396" height="75.0396" filterUnits="userSpaceOnUse" color-interpolation-filters="sRGB">
<feFlood flood-opacity="0" result="BackgroundImageFix"/>
<feBlend mode="normal" in="SourceGraphic" in2="BackgroundImageFix" result="shape"/>
<feGaussianBlur stdDeviation="7.7627" result="effect1_foregroundBlur_283_457"/>
</filter>
<linearGradient id="paint0_linear_283_457" x1="42.4922" y1="28.771" x2="126.811" y2="225.515" gradientUnits="userSpaceOnUse">
<stop stop-color="white" stop-opacity="0.18"/>
<stop offset="1" stop-color="white" stop-opacity="0.04"/>
</linearGradient>
<radialGradient id="paint1_radial_283_457" cx="0" cy="0" r="1" gradientUnits="userSpaceOnUse" gradientTransform="translate(133.057 74.0537) scale(103.503 31.0508)">
<stop stop-color="#46B6A0"/>
<stop offset="1" stop-color="#00A9BD"/>
</radialGradient>
<radialGradient id="paint2_radial_283_457" cx="0" cy="0" r="1" gradientUnits="userSpaceOnUse" gradientTransform="translate(281.842 106.398) scale(35.1909)">
<stop stop-color="#46B6A0"/>
<stop offset="1" stop-color="#00A9BD"/>
</radialGradient>
<linearGradient id="paint3_linear_283_457" x1="0.524902" y1="118.136" x2="10997.1" y2="7.51842" gradientUnits="userSpaceOnUse">
<stop stop-color="#111827"/>
<stop offset="1" stop-color="#020617"/>
</linearGradient>
<linearGradient id="paint4_linear_283_457" x1="55.7698" y1="121.023" x2="87.5366" y2="164.93" gradientUnits="userSpaceOnUse">
<stop stop-color="#00707D"/>
<stop offset="1" stop-color="#00CBE3"/>
</linearGradient>
<linearGradient id="paint5_linear_283_457" x1="234.038" y1="75.9946" x2="11065.6" y2="1977.29" gradientUnits="userSpaceOnUse">
<stop stop-color="#111827"/>
<stop offset="1" stop-color="#020617"/>
</linearGradient>
</defs>
</svg>
