<?xml version="1.0" encoding="UTF-8"?>
<svg id="Layer_12" data-name="Layer 12" xmlns="http://www.w3.org/2000/svg" xmlns:xlink="http://www.w3.org/1999/xlink" viewBox="0 0 1287.26 921.06">
  <defs>
    <style>
      .cls-1 {
        fill: none;
        stroke: url(#linear-gradient);
        stroke-dasharray: 7.68;
        stroke-miterlimit: 10;
        stroke-width: 3px;
      }
    </style>
    <linearGradient id="linear-gradient" x1="238.45" y1="467.04" x2="1042.92" y2="467.04" gradientUnits="userSpaceOnUse">
      <stop offset="0" stop-color="#208571"/>
      <stop offset=".83" stop-color="#46b69f"/>
    </linearGradient>
  </defs>
  <path class="cls-1" d="M549.42,282.52v-126.92c-95.59.43-102.83.43-198.83.43-17,3-30,20-30,37,0,15,3,30,0,46-3,15-14,26-28,28-7,2-14,2-21,2-16,2-29,16-30,32-1,79-4,157,2,236,1,14,12,25,25,29,10,2,19,1,28,6,10,6,17,16,18,28,1,7,0,15,0,22,1,38-1,75,1,113,84,0,168,0,251.93-.45l83.93.28c11.81,0,21.38-9.57,21.38-21.38v-37h86.44v64.25c0,20.85,16.91,37.76,37.76,37.76h193.09c28.33,0,51.3-22.97,51.3-51.3v-156.41c0-20.85-16.9-37.76-37.76-37.76h-151.28l-2.62-71.91h132.82c.01-65.3.01-130.3-.04-194.93l.03-52.6c0-4.41-.67-8.67-1.92-12.67-.65-2.09-3.39-10.23-10.56-17.35-11.55-11.48-26.46-12.22-30.1-12.3l-207.4,2.29h-.31c-17.19.16-30.97,14.28-30.71,31.47,0,.51.02,1.02.02,1.53-.16,25.21-.33,50.42-.49,75.63-50.56.11-101.12.22-151.68.32Z"/>
</svg>