<?xml version="1.0" encoding="UTF-8"?>
<svg xmlns="http://www.w3.org/2000/svg" xmlns:xlink="http://www.w3.org/1999/xlink" viewBox="0 0 1287.26 921.06">
  <defs>
    <style>
      .cls-1, .cls-2 {
        font-size: 21px;
      }

      .cls-1, .cls-2, .cls-3 {
        font-family: Roboto-Regular, Roboto;
      }

      .cls-1, .cls-3 {
        fill: #fff;
      }

      .cls-2 {
        fill: #e0e0e0;
      }

      .cls-4 {
        fill: url(#radial-gradient-6);
      }

      .cls-4, .cls-5, .cls-6, .cls-7 {
        mix-blend-mode: lighten;
        opacity: .36;
      }

      .cls-8 {
        fill: #00e4fc;
      }

      .cls-5 {
        fill: url(#radial-gradient-10);
      }

      .cls-9 {
        fill: url(#radial-gradient-16);
      }

      .cls-10, .cls-11 {
        opacity: .46;
      }

      .cls-12 {
        fill: #5b5b5b;
      }

      .cls-13 {
        fill: #03475b;
      }

      .cls-14 {
        stroke: url(#radial-gradient-12);
        stroke-width: 4px;
      }

      .cls-14, .cls-15 {
        fill: none;
      }

      .cls-14, .cls-15, .cls-16, .cls-17, .cls-18 {
        stroke-miterlimit: 10;
      }

      .cls-19 {
        fill: url(#radial-gradient-7);
        filter: url(#drop-shadow-23);
      }

      .cls-20 {
        fill: url(#radial-gradient);
      }

      .cls-21 {
        clip-path: url(#clippath-1);
      }

      .cls-22 {
        fill: url(#radial-gradient-11);
        filter: url(#drop-shadow-26);
      }

      .cls-23 {
        filter: url(#drop-shadow-25);
      }

      .cls-24 {
        isolation: isolate;
      }

      .cls-25 {
        fill: url(#radial-gradient-14);
      }

      .cls-25, .cls-26, .cls-15 {
        opacity: .7;
      }

      .cls-27 {
        opacity: .3;
      }

      .cls-3 {
        font-size: 24px;
      }

      .cls-26 {
        fill: url(#radial-gradient-17);
      }

      .cls-28 {
        clip-path: url(#clippath-3);
      }

      .cls-15 {
        stroke: #00bbcf;
      }

      .cls-16 {
        fill: #03d9db;
        stroke: url(#radial-gradient-3);
      }

      .cls-29 {
        filter: url(#drop-shadow-24);
      }

      .cls-30 {
        fill: #0cf7ef;
      }

      .cls-17 {
        fill: #10899a;
        stroke: url(#radial-gradient-5);
      }

      .cls-31 {
        fill: url(#radial-gradient-15);
        filter: url(#drop-shadow-27);
      }

      .cls-32 {
        fill: #e3e3e3;
        font-family: Roboto-Medium, Roboto;
        font-size: 27px;
        font-weight: 500;
      }

      .cls-6 {
        fill: url(#radial-gradient-8);
      }

      .cls-7 {
        fill: url(#radial-gradient-9);
      }

      .cls-33 {
        clip-path: url(#clippath-2);
      }

      .cls-34 {
        fill: #c7f7fc;
      }

      .cls-11 {
        fill: url(#radial-gradient-2);
      }

      .cls-35 {
        fill: url(#radial-gradient-13);
      }

      .cls-18 {
        fill: #00aab2;
        stroke: url(#radial-gradient-4);
      }

      .cls-36 {
        clip-path: url(#clippath);
      }
    </style>
    <radialGradient id="radial-gradient" cx="-331.78" cy="28.82" fx="-331.78" fy="28.82" r="1631.57" gradientUnits="userSpaceOnUse">
      <stop offset="0" stop-color="#012730"/>
      <stop offset=".37" stop-color="#01222d"/>
      <stop offset=".75" stop-color="#031624"/>
      <stop offset="1" stop-color="#060a1c"/>
    </radialGradient>
    <radialGradient id="radial-gradient-2" cx="400.44" cy="226.9" fx="400.44" fy="226.9" r="953.64" gradientUnits="userSpaceOnUse">
      <stop offset="0" stop-color="#00a9bc"/>
      <stop offset=".1" stop-color="#00b6ca" stop-opacity=".77"/>
      <stop offset=".21" stop-color="#00c4d9" stop-opacity=".54"/>
      <stop offset=".33" stop-color="#00cfe6" stop-opacity=".34"/>
      <stop offset=".45" stop-color="#00d8ef" stop-opacity=".19"/>
      <stop offset=".56" stop-color="#00def6" stop-opacity=".09"/>
      <stop offset=".68" stop-color="#00e2fa" stop-opacity=".02"/>
      <stop offset=".8" stop-color="#00e4fc" stop-opacity="0"/>
      <stop offset="1" stop-color="#59e8c9" stop-opacity="0"/>
    </radialGradient>
    <radialGradient id="radial-gradient-3" cx="-3534.94" cy="265.64" fx="-3534.94" fy="265.64" r="10.18" gradientTransform="translate(3930.94)" gradientUnits="userSpaceOnUse">
      <stop offset="0" stop-color="#8affe8"/>
      <stop offset=".1" stop-color="#7aeed7" stop-opacity=".77"/>
      <stop offset=".2" stop-color="#6cdfc8" stop-opacity=".57"/>
      <stop offset=".3" stop-color="#60d2bb" stop-opacity=".4"/>
      <stop offset=".4" stop-color="#57c8b1" stop-opacity=".25"/>
      <stop offset=".5" stop-color="#4fc0a9" stop-opacity=".14"/>
      <stop offset=".6" stop-color="#4abaa3" stop-opacity=".06"/>
      <stop offset=".7" stop-color="#47b7a0" stop-opacity=".02"/>
      <stop offset=".8" stop-color="#46b69f" stop-opacity="0"/>
      <stop offset="1" stop-color="#59e8c9" stop-opacity="0"/>
    </radialGradient>
    <radialGradient id="radial-gradient-4" cx="-3506.75" fx="-3506.75" r="10.18" xlink:href="#radial-gradient-3"/>
    <radialGradient id="radial-gradient-5" cx="-3478.55" cy="265.64" fx="-3478.55" fy="265.64" r="10.18" xlink:href="#radial-gradient-3"/>
    <radialGradient id="radial-gradient-6" cx="-3659.76" cy="129.9" fx="-3659.76" fy="129.9" r="156.87" gradientTransform="translate(3144.9 2798.35) rotate(44.73)" xlink:href="#radial-gradient-3"/>
    <radialGradient id="radial-gradient-7" cx="413.94" cy="308.44" fx="413.94" fy="308.44" r="144.11" gradientUnits="userSpaceOnUse">
      <stop offset=".22" stop-color="#05dcf0"/>
      <stop offset=".25" stop-color="#05d6ea"/>
      <stop offset=".77" stop-color="#0c687b"/>
      <stop offset="1" stop-color="#103d4f"/>
    </radialGradient>
    <filter id="drop-shadow-23" x="405.67" y="319.42" width="58.08" height="58.08" filterUnits="userSpaceOnUse">
      <feOffset dx="0" dy="0"/>
      <feGaussianBlur result="blur" stdDeviation="5"/>
      <feFlood flood-color="#00f3ff" flood-opacity="1"/>
      <feComposite in2="blur" operator="in"/>
      <feComposite in="SourceGraphic"/>
    </filter>
    <clipPath id="clippath">
      <rect class="cls-13" x="481.57" y="545.16" width="265.96" height="9.15" rx="4.57" ry="4.57"/>
    </clipPath>
    <clipPath id="clippath-1">
      <rect class="cls-13" x="481.57" y="479.58" width="265.96" height="9.15" rx="4.57" ry="4.57"/>
    </clipPath>
    <clipPath id="clippath-2">
      <rect class="cls-13" x="481.57" y="413.87" width="265.96" height="9.15" rx="4.57" ry="4.57"/>
    </clipPath>
    <clipPath id="clippath-3">
      <rect class="cls-13" x="478.37" y="343.82" width="265.96" height="9.15" rx="4.57" ry="4.57"/>
    </clipPath>
    <filter id="drop-shadow-24" x="391.63" y="372.34" width="84.48" height="86.16" filterUnits="userSpaceOnUse">
      <feOffset dx="0" dy="0"/>
      <feGaussianBlur result="blur-2" stdDeviation="10"/>
      <feFlood flood-color="#00f3ff" flood-opacity="1"/>
      <feComposite in2="blur-2" operator="in"/>
      <feComposite in="SourceGraphic"/>
    </filter>
    <radialGradient id="radial-gradient-8" cx="-3612.28" cy="178.42" fx="-3612.28" fy="178.42" r="156.87" gradientTransform="translate(3144.9 2798.35) rotate(44.73)" xlink:href="#radial-gradient-3"/>
    <radialGradient id="radial-gradient-9" cx="-3564.28" cy="226.42" fx="-3564.28" fy="226.42" r="156.87" gradientTransform="translate(3144.9 2798.35) rotate(44.73)" xlink:href="#radial-gradient-3"/>
    <filter id="drop-shadow-25" x="410.71" y="459.34" width="48" height="49.68" filterUnits="userSpaceOnUse">
      <feOffset dx="0" dy="0"/>
      <feGaussianBlur result="blur-3" stdDeviation="5"/>
      <feFlood flood-color="#00f3ff" flood-opacity="1"/>
      <feComposite in2="blur-3" operator="in"/>
      <feComposite in="SourceGraphic"/>
    </filter>
    <radialGradient id="radial-gradient-10" cx="-3516.5" cy="274.64" fx="-3516.5" fy="274.64" r="156.87" gradientTransform="translate(3144.9 2798.35) rotate(44.73)" xlink:href="#radial-gradient-3"/>
    <radialGradient id="radial-gradient-11" cx="558.94" cy="214.1" fx="558.94" fy="214.1" r="107.9" gradientTransform="translate(-102.52 322.9) scale(.94)" xlink:href="#radial-gradient-7"/>
    <filter id="drop-shadow-26" x="410.47" y="527.02" width="48.48" height="50.16" filterUnits="userSpaceOnUse">
      <feOffset dx="0" dy="0"/>
      <feGaussianBlur result="blur-4" stdDeviation="5"/>
      <feFlood flood-color="#00f3ff" flood-opacity="1"/>
      <feComposite in2="blur-4" operator="in"/>
      <feComposite in="SourceGraphic"/>
    </filter>
    <radialGradient id="radial-gradient-12" cx="628.17" cy="233.7" fx="628.17" fy="233.7" r="161.9" gradientTransform="translate(0 0)" gradientUnits="userSpaceOnUse">
      <stop offset="0" stop-color="#05d4e8" stop-opacity=".74"/>
      <stop offset=".2" stop-color="#04d0e4" stop-opacity=".72"/>
      <stop offset=".35" stop-color="#04c5d8" stop-opacity=".68"/>
      <stop offset=".49" stop-color="#04b2c5" stop-opacity=".61"/>
      <stop offset=".62" stop-color="#0498aa" stop-opacity=".51"/>
      <stop offset=".75" stop-color="#047687" stop-opacity=".38"/>
      <stop offset=".87" stop-color="#044c5c" stop-opacity=".21"/>
      <stop offset=".98" stop-color="#041b2a" stop-opacity=".03"/>
      <stop offset="1" stop-color="#041423" stop-opacity="0"/>
    </radialGradient>
    <radialGradient id="radial-gradient-13" cx="441.47" cy="420.06" fx="441.47" fy="420.06" r="265.26" gradientUnits="userSpaceOnUse">
      <stop offset="0" stop-color="#011f26"/>
      <stop offset=".47" stop-color="#021a25"/>
      <stop offset=".97" stop-color="#070e24"/>
      <stop offset="1" stop-color="#080d24"/>
    </radialGradient>
    <radialGradient id="radial-gradient-14" cx="422.36" cy="572.14" fx="422.36" fy="572.14" r="376.48" gradientUnits="userSpaceOnUse">
      <stop offset="0" stop-color="#00a9bc"/>
      <stop offset="0" stop-color="#00a8bb" stop-opacity="1"/>
      <stop offset=".11" stop-color="#008a99" stop-opacity=".73"/>
      <stop offset=".22" stop-color="#00707c" stop-opacity=".51"/>
      <stop offset=".33" stop-color="#005a65" stop-opacity=".33"/>
      <stop offset=".44" stop-color="#004a52" stop-opacity=".18"/>
      <stop offset=".56" stop-color="#003e45" stop-opacity=".08"/>
      <stop offset=".67" stop-color="#00373d" stop-opacity=".02"/>
      <stop offset=".8" stop-color="#00353b" stop-opacity="0"/>
      <stop offset="1" stop-color="#000" stop-opacity="0"/>
    </radialGradient>
    <radialGradient id="radial-gradient-15" cx="1098.53" cy="-851.02" fx="1098.53" fy="-851.02" r="162.39" gradientTransform="translate(-417.68 1237.47) scale(.76)" xlink:href="#radial-gradient-7"/>
    <filter id="drop-shadow-27" x="408.07" y="597.82" width="54" height="54.24" filterUnits="userSpaceOnUse">
      <feOffset dx="0" dy="0"/>
      <feGaussianBlur result="blur-5" stdDeviation="5"/>
      <feFlood flood-color="#00f3ff" flood-opacity="1"/>
      <feComposite in2="blur-5" operator="in"/>
      <feComposite in="SourceGraphic"/>
    </filter>
    <radialGradient id="radial-gradient-16" cx="693.98" cy="576.55" fx="693.98" fy="576.55" r="252.86" xlink:href="#radial-gradient-13"/>
    <radialGradient id="radial-gradient-17" cx="696.18" cy="576.81" fx="696.18" fy="576.81" r="169.36" xlink:href="#radial-gradient-14"/>
  </defs>
  <g class="cls-24">
    <g id="Layer_12" data-name="Layer 12">
      <g>
        <g>
          <rect class="cls-20" x="362.63" y="232.97" width="527.04" height="481.29" rx="33.37" ry="33.37"/>
          <rect class="cls-15" x="362.63" y="232.97" width="527.04" height="481.29" rx="33.37" ry="33.37"/>
          <rect class="cls-11" x="362.63" y="232.97" width="527.04" height="481.29" rx="33.37" ry="33.37"/>
        </g>
        <g>
          <circle class="cls-16" cx="396" cy="265.64" r="9.68"/>
          <circle class="cls-18" cx="424.2" cy="265.64" r="9.68"/>
          <circle class="cls-17" cx="452.39" cy="265.64" r="9.68"/>
        </g>
        <text class="cls-32" transform="translate(526.22 304.28)"><tspan x="0" y="0">Premium Design</tspan></text>
        <g>
          <g>
            <g class="cls-27">
              <path class="cls-34" d="M449.74,363.2c-13.22,13.36-36.14,4.12-36.42-14.71-.3-11.64,9.73-21.77,21.37-21.57,18.83.1,28.28,22.94,15.05,36.28h0ZM449.74,363.2c13-13.28,3.49-35.61-15.05-35.43-11.03-.1-20.73,9.68-20.52,20.71-.01,18.55,22.41,27.84,35.57,14.71h0Z"/>
            </g>
            <circle class="cls-4" cx="434.79" cy="348.39" r="21.05"/>
          </g>
          <path class="cls-19" d="M448.69,348.39c-10.85,1.69-12.22,3.05-13.9,13.9-1.69-10.85-3.05-12.22-13.9-13.9,10.85-1.69,12.22-3.05,13.9-13.9,1.69,10.85,3.05,12.22,13.9,13.9Z"/>
        </g>
        <g>
          <rect class="cls-13" x="481.57" y="545.16" width="265.96" height="9.15" rx="4.57" ry="4.57"/>
          <g class="cls-36">
            <rect class="cls-30" x="460.47" y="544.52" width="232.49" height="9.79" rx="4.9" ry="4.9"/>
          </g>
        </g>
        <g>
          <rect class="cls-13" x="481.57" y="479.58" width="265.96" height="9.15" rx="4.57" ry="4.57"/>
          <g class="cls-21">
            <rect class="cls-30" x="460.48" y="478.94" width="222.65" height="9.79" rx="4.9" ry="4.9"/>
          </g>
        </g>
        <g>
          <rect class="cls-13" x="481.57" y="413.87" width="265.96" height="9.15" rx="4.57" ry="4.57"/>
          <g class="cls-33">
            <rect class="cls-30" x="460.47" y="413.23" width="204.54" height="9.79" rx="4.9" ry="4.9"/>
          </g>
        </g>
        <g>
          <rect class="cls-13" x="478.37" y="343.82" width="265.96" height="9.15" rx="4.57" ry="4.57"/>
          <g class="cls-28">
            <rect class="cls-30" x="457.27" y="343.17" width="243.17" height="9.79" rx="4.9" ry="4.9"/>
          </g>
        </g>
        <g>
          <g class="cls-29">
            <polygon class="cls-12" points="426.75 414.75 425.13 415.83 425.13 414.75 426.75 414.75"/>
            <polygon class="cls-12" points="426.75 416.6 429.06 414.75 430.56 414.75 428.25 416.6 426.75 416.6"/>
            <polygon class="cls-12" points="430.56 416.6 432.87 414.75 434.37 414.75 432.06 416.6 430.56 416.6"/>
            <path class="cls-12" d="M437.37,421.22c-.05-.1-.13-.18-.23-.23l-4.31-2.46c-.09-.05-.19-.08-.29-.08-.34,0-.62.26-.63.6v4.94c0,.34.28.62.62.62.11,0,.21-.03.31-.08l4.31-2.46c.3-.17.4-.54.23-.84ZM433.14,422.93v-2.8l2.45,1.4-2.45,1.4Z"/>
            <polygon class="cls-12" points="434.37 416.6 436.68 414.75 438.18 414.75 435.87 416.6 434.37 416.6"/>
            <polygon class="cls-12" points="438.18 416.6 440.49 414.75 441.99 414.75 439.68 416.6 438.18 416.6"/>
            <polygon class="cls-12" points="441.99 416.6 443.61 415.52 443.61 416.6 441.99 416.6"/>
            <path class="cls-12" d="M424.2,409.55l.29,1.04,1.26-1.48-1.55.44ZM427.97,408.48l-1.72,2.41,1.44-.41,1.72-2.41-1.44.41ZM431.64,407.44l-1.72,2.41,1.44-.41,1.72-2.41-1.44.41ZM435.3,406.4l-1.72,2.41,1.44-.41,1.72-2.41-1.44.41ZM438.97,405.36l-1.72,2.41,1.44-.41,1.72-2.41-1.44.41ZM442.18,405.25l-1.26,1.48,1.56-.44-.29-1.04ZM442.18,405.25l-1.26,1.48,1.56-.44-.29-1.04ZM437.25,407.77l1.44-.41,1.72-2.41-1.44.41-1.72,2.41ZM433.59,408.81l1.44-.41,1.72-2.41-1.44.41-1.72,2.41ZM429.92,409.85l1.44-.41,1.72-2.41-1.44.41-1.72,2.41ZM426.25,410.89l1.44-.41,1.72-2.41-1.44.41-1.72,2.41ZM424.49,410.59l1.26-1.48-1.55.44.29,1.04ZM445.45,412.9h-19.62l18.87-5.34c.33-.09.52-.43.42-.76l-.88-3.11h0c-.21-.74-.88-1.3-1.62-1.26-.11,0-.21.02-.32.05l-19.48,5.51c-.86.24-1.26,1.2-1.02,2.05l.86,3.03v13.69c0,.84.7,1.54,1.54,1.54h20.32c.84,0,1.54-.7,1.54-1.54v-13.24c0-.34-.28-.62-.62-.62ZM422.99,409.7h0c-.08-.3.05-.5.17-.53l19.48-5.51c.11-.03.33.06.42.36l.71,2.52-20.06,5.68-.72-2.52ZM444.84,426.76c0,.18-.13.31-.31.31h-20.32c-.18,0-.31-.13-.31-.31v-12.62h20.94v12.62ZM440.92,406.73l1.56-.44-.29-1.04-1.26,1.48ZM437.25,407.77l1.44-.41,1.72-2.41-1.44.41-1.72,2.41ZM433.59,408.81l1.44-.41,1.72-2.41-1.44.41-1.72,2.41ZM429.92,409.85l1.44-.41,1.72-2.41-1.44.41-1.72,2.41ZM426.25,410.89l1.44-.41,1.72-2.41-1.44.41-1.72,2.41ZM424.49,410.59l1.26-1.48-1.55.44.29,1.04Z"/>
            <polygon class="cls-12" points="424.2 409.55 425.75 409.11 424.49 410.59 424.2 409.55"/>
            <polygon class="cls-12" points="427.97 408.48 429.42 408.07 427.7 410.48 426.25 410.89 427.97 408.48"/>
            <polygon class="cls-12" points="431.64 407.44 433.08 407.03 431.36 409.44 429.92 409.85 431.64 407.44"/>
            <polygon class="cls-12" points="435.3 406.4 436.75 405.99 435.03 408.4 433.59 408.81 435.3 406.4"/>
            <polygon class="cls-12" points="438.97 405.36 440.41 404.95 438.7 407.36 437.25 407.77 438.97 405.36"/>
            <polygon class="cls-12" points="442.47 406.28 440.92 406.73 442.18 405.25 442.47 406.28"/>
            <polygon class="cls-12" points="440.41 404.95 438.7 407.36 437.25 407.77 438.97 405.36 440.41 404.95"/>
            <polygon class="cls-12" points="442.47 406.28 440.92 406.73 442.18 405.25 442.47 406.28"/>
            <polygon class="cls-12" points="436.75 405.99 435.03 408.4 433.59 408.81 435.3 406.4 436.75 405.99"/>
            <polygon class="cls-12" points="433.08 407.03 431.36 409.44 429.92 409.85 431.64 407.44 433.08 407.03"/>
            <polygon class="cls-12" points="429.42 408.07 427.7 410.48 426.25 410.89 427.97 408.48 429.42 408.07"/>
            <polygon class="cls-12" points="425.75 409.11 424.49 410.59 424.2 409.55 425.75 409.11"/>
            <polygon class="cls-12" points="426.75 414.75 425.13 415.83 425.13 414.75 426.75 414.75"/>
            <polygon class="cls-12" points="430.56 414.75 428.25 416.6 426.75 416.6 429.06 414.75 430.56 414.75"/>
            <polygon class="cls-12" points="432.06 416.6 430.56 416.6 432.87 414.75 434.37 414.75 432.06 416.6"/>
            <path class="cls-12" d="M437.37,421.22c-.05-.1-.13-.18-.23-.23l-4.31-2.46c-.09-.05-.19-.08-.29-.08-.34,0-.62.26-.63.6v4.94c0,.34.28.62.62.62.11,0,.21-.03.31-.08l4.31-2.46c.3-.17.4-.54.23-.84ZM433.14,422.93v-2.8l2.45,1.4-2.45,1.4Z"/>
            <polygon class="cls-12" points="434.37 416.6 436.68 414.75 438.18 414.75 435.87 416.6 434.37 416.6"/>
            <polygon class="cls-12" points="441.99 414.75 439.68 416.6 438.18 416.6 440.49 414.75 441.99 414.75"/>
            <polygon class="cls-12" points="443.61 415.52 443.61 416.6 441.99 416.6 443.61 415.52"/>
            <polygon class="cls-12" points="426.75 414.75 425.13 415.83 425.13 414.75 426.75 414.75"/>
            <polygon class="cls-12" points="430.56 414.75 428.25 416.6 426.75 416.6 429.06 414.75 430.56 414.75"/>
            <polygon class="cls-12" points="434.37 414.75 432.06 416.6 430.56 416.6 432.87 414.75 434.37 414.75"/>
            <polygon class="cls-12" points="438.18 414.75 435.87 416.6 434.37 416.6 436.68 414.75 438.18 414.75"/>
            <polygon class="cls-12" points="441.99 414.75 439.68 416.6 438.18 416.6 440.49 414.75 441.99 414.75"/>
            <polygon class="cls-12" points="443.61 415.52 443.61 416.6 441.99 416.6 443.61 415.52"/>
            <path class="cls-12" d="M437.37,421.22c-.05-.1-.13-.18-.23-.23l-4.31-2.46c-.09-.05-.19-.08-.29-.08-.34,0-.62.26-.63.6v4.94c0,.34.28.62.62.62.11,0,.21-.03.31-.08l4.31-2.46c.3-.17.4-.54.23-.84ZM433.14,422.93v-2.8l2.45,1.4-2.45,1.4Z"/>
          </g>
          <g>
            <g class="cls-27">
              <path class="cls-34" d="M449.32,431.08c-13.22,13.36-36.14,4.11-36.42-14.71-.3-11.64,9.73-21.76,21.37-21.57,18.83.1,28.28,22.94,15.05,36.28h0ZM449.32,431.08c13-13.28,3.49-35.61-15.05-35.43-11.03-.1-20.73,9.68-20.52,20.71-.01,18.55,22.41,27.84,35.57,14.71h0Z"/>
            </g>
            <circle class="cls-6" cx="434.37" cy="416.27" r="21.05"/>
          </g>
        </g>
        <g>
          <g>
            <g class="cls-27">
              <path class="cls-34" d="M449.65,498.97c-13.22,13.36-36.14,4.12-36.42-14.71-.3-11.64,9.73-21.77,21.37-21.57,18.83.1,28.29,22.94,15.05,36.28h0ZM449.65,498.97c13-13.28,3.5-35.61-15.05-35.43-11.03-.1-20.73,9.68-20.52,20.71-.01,18.55,22.41,27.84,35.57,14.71h0Z"/>
            </g>
            <circle class="cls-7" cx="434.7" cy="484.16" r="21.05"/>
          </g>
          <g class="cls-23">
            <path d="M443.51,474.34v5.31h-.52c-.31-1.23-.65-2.11-1.03-2.64-.38-.54-.89-.96-1.55-1.28-.37-.17-1.01-.26-1.92-.26h-1.46v15.14c0,1,.06,1.63.17,1.88s.33.47.65.66.76.28,1.32.28h.65v.54h-10.27v-.54h.65c.57,0,1.03-.1,1.37-.3.25-.14.45-.37.59-.69.11-.23.16-.84.16-1.82v-15.14h-1.42c-1.32,0-2.28.28-2.88.84-.84.78-1.37,1.9-1.59,3.34h-.55v-5.31h17.63Z"/>
          </g>
        </g>
        <g>
          <g>
            <g class="cls-27">
              <path class="cls-34" d="M449.65,566.85c-13.22,13.36-36.14,4.12-36.42-14.71-.3-11.64,9.73-21.76,21.37-21.57,18.83.1,28.28,22.94,15.05,36.28h0ZM449.65,566.85c13-13.28,3.49-35.61-15.05-35.43-11.03-.1-20.73,9.68-20.52,20.71-.01,18.55,22.41,27.84,35.57,14.71h0Z"/>
            </g>
            <circle class="cls-5" cx="434.7" cy="552.04" r="21.05"/>
          </g>
          <path class="cls-22" d="M438.53,542.07c-.99,0-1.84.65-2.16,1.53h-10.88v1.53h10.88c.32.89,1.16,1.53,2.16,1.53s1.84-.65,2.16-1.53h3.21v-1.53h-3.21c-.32-.89-1.16-1.53-2.16-1.53ZM438.53,543.61c.43,0,.77.34.77.77s-.34.77-.77.77-.77-.34-.77-.77.34-.77.77-.77ZM430.86,549.74c-.99,0-1.84.65-2.16,1.53h-3.21v1.53h3.21c.32.89,1.16,1.53,2.16,1.53s1.84-.65,2.16-1.53h10.88v-1.53h-10.88c-.32-.89-1.16-1.53-2.16-1.53ZM430.86,551.27c.43,0,.77.34.77.77s-.34.77-.77.77-.77-.34-.77-.77.34-.77.77-.77ZM438.53,557.4c-.99,0-1.84.65-2.16,1.53h-10.88v1.53h10.88c.32.89,1.16,1.53,2.16,1.53s1.84-.65,2.16-1.53h3.21v-1.53h-3.21c-.32-.89-1.16-1.53-2.16-1.53ZM438.53,558.94c.43,0,.77.34.77.77s-.34.77-.77.77-.77-.34-.77-.77.34-.77.77-.77Z"/>
        </g>
        <text class="cls-1" transform="translate(770.36 557.29)"><tspan x="0" y="0">%</tspan><tspan x="15.38" y="0">76</tspan></text>
        <text class="cls-1" transform="translate(770.36 491.71)"><tspan x="0" y="0">%</tspan><tspan x="15.38" y="0">74</tspan></text>
        <text class="cls-1" transform="translate(770.36 426)"><tspan x="0" y="0">%</tspan><tspan x="15.38" y="0">72</tspan></text>
        <text class="cls-1" transform="translate(770.36 355.95)"><tspan x="0" y="0">%</tspan><tspan x="15.38" y="0">78</tspan></text>
        <line class="cls-14" x1="399.22" y1="233.7" x2="857.12" y2="233.7"/>
        <text class="cls-2" transform="translate(486.91 631.28)"><tspan x="0" y="0">Project Progress</tspan></text>
        <g>
          <g>
            <circle class="cls-35" cx="435" cy="624.95" r="21.79"/>
            <g class="cls-10">
              <path class="cls-8" d="M450.48,640.29c-13.69,13.83-37.41,4.26-37.7-15.23-.31-12.04,10.07-22.52,22.12-22.32,19.49.1,29.28,23.75,15.59,37.56h0ZM450.48,640.29c13.46-13.76,3.62-36.89-15.58-36.7-11.43-.11-21.48,10.03-21.27,21.47,0,19.21,23.22,28.83,36.85,15.24h0Z"/>
            </g>
            <circle class="cls-25" cx="435" cy="624.95" r="21.79"/>
          </g>
          <path class="cls-31" d="M435,613.03c-6.17,0-11.27,4.72-11.87,10.74h2.41c.59-4.7,4.6-8.35,9.46-8.35s8.87,3.65,9.46,8.35h2.41c-.6-6.02-5.69-10.74-11.87-10.74ZM423.13,626.15c.24,2.4,1.2,4.58,2.64,6.34l1.69-1.69c-1.02-1.32-1.71-2.91-1.93-4.65h-2.41ZM442.48,630.84c-.49.63-1.06,1.2-1.69,1.68l1.21,2.07c.97-.7,1.83-1.56,2.55-2.51l-2.06-1.24ZM429.16,632.49l-1.7,1.7c1.56,1.28,3.44,2.17,5.5,2.53l.17-2.4c-1.48-.3-2.83-.93-3.98-1.82ZM438.74,633.73c-1,.43-2.08.69-3.22.75l-.17,2.39c1.64-.05,3.19-.44,4.59-1.08l-1.2-2.06Z"/>
        </g>
        <g>
          <g>
            <rect class="cls-9" x="704.33" y="602.26" width="104.99" height="45.38" rx="10.16" ry="10.16"/>
            <g class="cls-10">
              <path class="cls-8" d="M799.16,647.64c-17.65,0-53.17.14-70.82.25,0,0-8.85.05-8.85.05-2.56-.07-6.46.38-8.89-.71-3.59-1.36-6.22-4.86-6.62-8.68-.12-1.51-.06-5.12-.08-6.68,0,0-.04-17.7-.04-17.7-.67-6.46,3.9-12.39,10.62-12.41,21.88.03,57.85.15,79.67.29,2.52.1,6.44-.31,8.82.79,3.51,1.38,6.03,4.8,6.39,8.53.1,1.47.01,5.12.03,6.65,0,0-.04,17.7-.04,17.7.65,6.19-3.76,11.93-10.2,11.91h0ZM799.16,647.64c6.39,0,10.81-5.73,10.12-11.91,0,0-.04-17.7-.04-17.7-.03-1.51.04-5.16-.08-6.63-.39-3.63-2.88-6.97-6.31-8.26-2.32-1.03-6.19-.61-8.7-.67-21.78.12-57.83.29-79.67.29-6.14-.01-10.33,5.45-9.7,11.41,0,0-.04,17.7-.04,17.7.02,1.48-.07,5.17.02,6.6.34,3.55,2.73,6.81,6.08,8.12,2.27,1.04,6.16.67,8.63.75l8.85.05c17.65.1,53.17.24,70.82.25h0Z"/>
            </g>
            <rect class="cls-26" x="704.33" y="602.26" width="104.99" height="45.38" rx="10.16" ry="10.16"/>
          </g>
          <g>
            <circle class="cls-8" cx="731.09" cy="624.95" r="3.45"/>
            <text class="cls-3" transform="translate(743.18 633.14)"><tspan x="0" y="0">%</tspan><tspan x="17.58" y="0">75</tspan></text>
          </g>
        </g>
      </g>
    </g>
  </g>
</svg>