<svg width="290" height="182" viewBox="0 0 290 182" fill="none" xmlns="http://www.w3.org/2000/svg">
<path d="M241.349 0H13.4083C6.00309 0 0 6.00309 0 13.4083V46.929C0 54.3342 6.00309 60.3373 13.4083 60.3373H241.349C248.754 60.3373 254.757 54.3342 254.757 46.929V13.4083C254.757 6.00309 248.754 0 241.349 0Z" fill="#002437"/>
<path d="M28.7139 35.7822H27.2283L31.525 24.0805H32.9878L37.2845 35.7822H35.7989L32.3021 25.9317H32.2107L28.7139 35.7822ZM29.2624 31.2112H35.2504V32.4682H29.2624V31.2112ZM40.2728 30.5027V35.7822H38.9243V27.0059H40.2271V28.3772H40.3414C40.5471 27.9315 40.8594 27.5735 41.2784 27.303C41.6974 27.0288 42.2383 26.8916 42.9011 26.8916C43.4954 26.8916 44.0153 27.0135 44.461 27.2573C44.9067 27.4973 45.2533 27.863 45.5009 28.3543C45.7485 28.8419 45.8723 29.459 45.8723 30.2056V35.7822H44.5238V30.297C44.5238 29.6076 44.3448 29.0705 43.9867 28.6857C43.6287 28.2972 43.1373 28.1029 42.5126 28.1029C42.0821 28.1029 41.6974 28.1963 41.3584 28.3829C41.0232 28.5696 40.7585 28.8419 40.5642 29.2C40.3699 29.558 40.2728 29.9923 40.2728 30.5027ZM48.3363 35.7822V27.0059H49.6848V35.7822H48.3363ZM49.022 25.5432C48.7592 25.5432 48.5325 25.4537 48.342 25.2746C48.1554 25.0956 48.0621 24.8804 48.0621 24.629C48.0621 24.3776 48.1554 24.1623 48.342 23.9833C48.5325 23.8043 48.7592 23.7148 49.022 23.7148C49.2848 23.7148 49.5096 23.8043 49.6962 23.9833C49.8867 24.1623 49.9819 24.3776 49.9819 24.629C49.9819 24.8804 49.8867 25.0956 49.6962 25.2746C49.5096 25.4537 49.2848 25.5432 49.022 25.5432ZM52.1546 35.7822V27.0059H53.4573V28.3772H53.5716C53.7544 27.9087 54.0496 27.5449 54.4572 27.2859C54.8648 27.023 55.3543 26.8916 55.9256 26.8916C56.5046 26.8916 56.9865 27.023 57.3712 27.2859C57.7597 27.5449 58.0626 27.9087 58.2797 28.3772H58.3711C58.5959 27.9239 58.933 27.5639 59.3825 27.2973C59.8319 27.0268 60.3709 26.8916 60.9995 26.8916C61.7841 26.8916 62.426 27.1373 62.925 27.6287C63.424 28.1163 63.6735 28.8762 63.6735 29.9085V35.7822H62.325V29.9085C62.325 29.2609 62.1479 28.7981 61.7937 28.52C61.4394 28.242 61.0223 28.1029 60.5423 28.1029C59.9253 28.1029 59.4472 28.2896 59.1082 28.6629C58.7692 29.0324 58.5997 29.5009 58.5997 30.0685V35.7822H57.2284V29.7714C57.2284 29.2724 57.0665 28.8705 56.7427 28.5658C56.4189 28.2572 56.0018 28.1029 55.4914 28.1029C55.1409 28.1029 54.8134 28.1963 54.5086 28.3829C54.2077 28.5696 53.9639 28.8286 53.7773 29.16C53.5944 29.4876 53.503 29.8666 53.503 30.297V35.7822H52.1546ZM68.7216 35.9879C68.1655 35.9879 67.6607 35.8832 67.2074 35.6737C66.7542 35.4604 66.3942 35.1537 66.1275 34.7538C65.8609 34.35 65.7276 33.8624 65.7276 33.291C65.7276 32.7882 65.8266 32.3806 66.0247 32.0683C66.2228 31.7521 66.4875 31.5045 66.8189 31.3255C67.1503 31.1465 67.516 31.0131 67.916 30.9255C68.3197 30.8341 68.7254 30.7617 69.133 30.7084C69.6663 30.6398 70.0986 30.5884 70.43 30.5541C70.7652 30.516 71.009 30.4532 71.1614 30.3656C71.3175 30.278 71.3956 30.1256 71.3956 29.9085V29.8628C71.3956 29.299 71.2414 28.861 70.9328 28.5486C70.6281 28.2363 70.1653 28.0801 69.5444 28.0801C68.9006 28.0801 68.3959 28.221 68.0302 28.5029C67.6645 28.7848 67.4074 29.0857 67.2589 29.4057L65.979 28.9486C66.2075 28.4153 66.5123 28.0001 66.8932 27.703C67.2779 27.402 67.6969 27.1925 68.1502 27.0745C68.6073 26.9526 69.0568 26.8916 69.4987 26.8916C69.7805 26.8916 70.1043 26.9259 70.47 26.9945C70.8395 27.0592 71.1957 27.1944 71.5385 27.4001C71.8851 27.6058 72.1727 27.9163 72.4013 28.3315C72.6298 28.7467 72.7441 29.3028 72.7441 29.9999V35.7822H71.3956V34.5938H71.3271C71.2356 34.7842 71.0833 34.988 70.87 35.2051C70.6567 35.4223 70.3729 35.607 70.0186 35.7594C69.6644 35.9117 69.232 35.9879 68.7216 35.9879ZM68.9273 34.7766C69.4606 34.7766 69.9101 34.6719 70.2757 34.4623C70.6452 34.2528 70.9233 33.9824 71.1099 33.651C71.3004 33.3196 71.3956 32.9711 71.3956 32.6054V31.3712C71.3385 31.4398 71.2128 31.5026 71.0185 31.5598C70.8281 31.6131 70.6071 31.6607 70.3557 31.7026C70.1081 31.7407 69.8663 31.775 69.6301 31.8055C69.3977 31.8321 69.2092 31.855 69.0644 31.874C68.714 31.9197 68.3864 31.994 68.0817 32.0969C67.7807 32.1959 67.5369 32.3464 67.3503 32.5482C67.1675 32.7463 67.076 33.0168 67.076 33.3596C67.076 33.8281 67.2493 34.1824 67.596 34.4224C67.9464 34.6585 68.3902 34.7766 68.9273 34.7766ZM79.0221 27.0059V28.1486H74.4739V27.0059H79.0221ZM75.7995 24.9032H77.148V33.2682C77.148 33.6491 77.2032 33.9348 77.3137 34.1252C77.4279 34.3119 77.5727 34.4376 77.7479 34.5023C77.9269 34.5633 78.1155 34.5938 78.3136 34.5938C78.4621 34.5938 78.584 34.5861 78.6792 34.5709C78.7745 34.5519 78.8507 34.5366 78.9078 34.5252L79.1821 35.7365C79.0906 35.7708 78.963 35.8051 78.7992 35.8394C78.6354 35.8775 78.4278 35.8965 78.1764 35.8965C77.7955 35.8965 77.4222 35.8146 77.0565 35.6508C76.6947 35.487 76.3937 35.2375 76.1538 34.9023C75.9176 34.5671 75.7995 34.1443 75.7995 33.6339V24.9032ZM81.0505 35.7822V27.0059H82.3989V35.7822H81.0505ZM81.7361 25.5432C81.4733 25.5432 81.2466 25.4537 81.0562 25.2746C80.8695 25.0956 80.7762 24.8804 80.7762 24.629C80.7762 24.3776 80.8695 24.1623 81.0562 23.9833C81.2466 23.8043 81.4733 23.7148 81.7361 23.7148C81.9989 23.7148 82.2237 23.8043 82.4103 23.9833C82.6008 24.1623 82.696 24.3776 82.696 24.629C82.696 24.8804 82.6008 25.0956 82.4103 25.2746C82.2237 25.4537 81.9989 25.5432 81.7361 25.5432ZM88.4341 35.9651C87.6417 35.9651 86.9466 35.7765 86.3485 35.3994C85.7543 35.0223 85.2896 34.4947 84.9544 33.8167C84.623 33.1387 84.4573 32.3464 84.4573 31.4398C84.4573 30.5256 84.623 29.7275 84.9544 29.0457C85.2896 28.3639 85.7543 27.8344 86.3485 27.4573C86.9466 27.0802 87.6417 26.8916 88.4341 26.8916C89.2264 26.8916 89.9196 27.0802 90.5139 27.4573C91.1119 27.8344 91.5766 28.3639 91.908 29.0457C92.2432 29.7275 92.4108 30.5256 92.4108 31.4398C92.4108 32.3464 92.2432 33.1387 91.908 33.8167C91.5766 34.4947 91.1119 35.0223 90.5139 35.3994C89.9196 35.7765 89.2264 35.9651 88.4341 35.9651ZM88.4341 34.7538C89.0359 34.7538 89.5311 34.5995 89.9196 34.2909C90.3082 33.9824 90.5958 33.5767 90.7824 33.0739C90.9691 32.5711 91.0624 32.0264 91.0624 31.4398C91.0624 30.8532 90.9691 30.3065 90.7824 29.7999C90.5958 29.2933 90.3082 28.8838 89.9196 28.5715C89.5311 28.2591 89.0359 28.1029 88.4341 28.1029C87.8322 28.1029 87.337 28.2591 86.9485 28.5715C86.5599 28.8838 86.2724 29.2933 86.0857 29.7999C85.8991 30.3065 85.8057 30.8532 85.8057 31.4398C85.8057 32.0264 85.8991 32.5711 86.0857 33.0739C86.2724 33.5767 86.5599 33.9824 86.9485 34.2909C87.337 34.5995 87.8322 34.7538 88.4341 34.7538ZM95.8177 30.5027V35.7822H94.4692V27.0059H95.7719V28.3772H95.8862C96.0919 27.9315 96.4043 27.5735 96.8233 27.303C97.2423 27.0288 97.7832 26.8916 98.446 26.8916C99.0402 26.8916 99.5602 27.0135 100.006 27.2573C100.452 27.4973 100.798 27.863 101.046 28.3543C101.293 28.8419 101.417 29.459 101.417 30.2056V35.7822H100.069V30.297C100.069 29.6076 99.8897 29.0705 99.5316 28.6857C99.1735 28.2972 98.6822 28.1029 98.0575 28.1029C97.627 28.1029 97.2423 28.1963 96.9033 28.3829C96.5681 28.5696 96.3033 28.8419 96.1091 29.2C95.9148 29.558 95.8177 29.9923 95.8177 30.5027Z" fill="white"/>
<path d="M26.8169 46.9277H134.083" stroke="#003A41" stroke-width="5.36331" stroke-linecap="round"/>
<path d="M254.757 60.3379H13.4083C6.00309 60.3379 0 66.341 0 73.7462V107.267C0 114.672 6.00309 120.675 13.4083 120.675H254.757C262.163 120.675 268.166 114.672 268.166 107.267V73.7462C268.166 66.341 262.163 60.3379 254.757 60.3379Z" fill="#46B6A0"/>
<path d="M35.9127 84.4203H37.3297V92.1682C37.3297 92.9681 37.1412 93.6823 36.7641 94.3108C36.3908 94.9355 35.8632 95.4288 35.1813 95.7907C34.4995 96.1487 33.6996 96.3278 32.7816 96.3278C31.8636 96.3278 31.0636 96.1487 30.3818 95.7907C29.6999 95.4288 29.1705 94.9355 28.7934 94.3108C28.4201 93.6823 28.2334 92.9681 28.2334 92.1682V84.4203H29.6504V92.0539C29.6504 92.6253 29.7761 93.1338 30.0275 93.5794C30.2789 94.0213 30.637 94.3699 31.1017 94.6251C31.5703 94.8765 32.1302 95.0022 32.7816 95.0022C33.4329 95.0022 33.9929 94.8765 34.4614 94.6251C34.9299 94.3699 35.288 94.0213 35.5356 93.5794C35.787 93.1338 35.9127 92.6253 35.9127 92.0539V84.4203ZM41.5765 84.4203V96.1221H40.1595V84.4203H41.5765ZM52.6912 96.2821C51.9369 96.2821 51.2646 96.1525 50.6742 95.8935C50.0876 95.6345 49.621 95.2745 49.2743 94.8136C48.9315 94.3489 48.7449 93.8099 48.7144 93.1966H50.1542C50.1847 93.5737 50.3142 93.8994 50.5428 94.1737C50.7713 94.4441 51.0704 94.6536 51.4398 94.8022C51.8093 94.9508 52.2188 95.025 52.6683 95.025C53.1711 95.025 53.6168 94.9374 54.0053 94.7622C54.3939 94.587 54.6986 94.3432 54.9195 94.0308C55.1405 93.7185 55.2509 93.3566 55.2509 92.9452C55.2509 92.5148 55.1443 92.1358 54.931 91.8082C54.7176 91.4768 54.4053 91.2178 53.9939 91.0311C53.5825 90.8445 53.0797 90.7511 52.4855 90.7511H51.5484V89.4941H52.4855C52.9502 89.4941 53.3578 89.4103 53.7082 89.2427C54.0625 89.0751 54.3386 88.8389 54.5367 88.5342C54.7386 88.2295 54.8395 87.8714 54.8395 87.46C54.8395 87.0639 54.7519 86.7191 54.5767 86.4258C54.4015 86.1325 54.1539 85.904 53.8339 85.7402C53.5177 85.5764 53.1444 85.4945 52.714 85.4945C52.3102 85.4945 51.9293 85.5688 51.5713 85.7173C51.217 85.8621 50.9275 86.0735 50.7028 86.3515C50.478 86.6258 50.3561 86.9572 50.3371 87.3457H48.9658C48.9886 86.7325 49.1734 86.1954 49.52 85.7345C49.8667 85.2697 50.3199 84.9079 50.8799 84.6488C51.4437 84.3898 52.0626 84.2603 52.7369 84.2603C53.4606 84.2603 54.0815 84.407 54.5996 84.7003C55.1176 84.9898 55.5157 85.3726 55.7937 85.8487C56.0718 86.3249 56.2108 86.8391 56.2108 87.3914C56.2108 88.0504 56.0375 88.6123 55.6909 89.077C55.3481 89.5417 54.8814 89.8636 54.291 90.0426V90.1341C55.03 90.2559 55.6071 90.5702 56.0223 91.0768C56.4375 91.5796 56.6451 92.2024 56.6451 92.9452C56.6451 93.5814 56.4718 94.1527 56.1251 94.6593C55.7823 95.1622 55.3138 95.5583 54.7195 95.8478C54.1253 96.1373 53.4492 96.2821 52.6912 96.2821ZM62.7988 96.1221H59.1877V84.4203H62.9588C64.0939 84.4203 65.0653 84.6546 65.8728 85.1231C66.6803 85.5878 67.2993 86.2563 67.7298 87.1286C68.1602 87.9971 68.3754 89.037 68.3754 90.2483C68.3754 91.4673 68.1583 92.5167 67.7241 93.3966C67.2898 94.2727 66.6575 94.9469 65.8271 95.4193C64.9967 95.8878 63.9873 96.1221 62.7988 96.1221ZM60.6047 94.865H62.7074C63.6749 94.865 64.4767 94.6784 65.1129 94.3051C65.749 93.9318 66.2232 93.4004 66.5356 92.711C66.8479 92.0215 67.0041 91.2006 67.0041 90.2483C67.0041 89.3037 66.8498 88.4904 66.5413 87.8086C66.2328 87.1229 65.7719 86.5972 65.1586 86.2316C64.5453 85.8621 63.7816 85.6773 62.8674 85.6773H60.6047V94.865ZM75.2776 84.4203H76.9689L80.9457 94.1337H81.0828L85.0596 84.4203H86.7509V96.1221H85.4253V87.2315H85.311L81.6542 96.1221H80.3743L76.7175 87.2315H76.6032V96.1221H75.2776V84.4203ZM92.9746 96.3049C92.1823 96.3049 91.4871 96.1164 90.8891 95.7392C90.2948 95.3621 89.8301 94.8346 89.4949 94.1565C89.1635 93.4785 88.9978 92.6862 88.9978 91.7796C88.9978 90.8654 89.1635 90.0674 89.4949 89.3855C89.8301 88.7037 90.2948 88.1742 90.8891 87.7971C91.4871 87.42 92.1823 87.2315 92.9746 87.2315C93.7669 87.2315 94.4602 87.42 95.0544 87.7971C95.6524 88.1742 96.1171 88.7037 96.4485 89.3855C96.7837 90.0674 96.9514 90.8654 96.9514 91.7796C96.9514 92.6862 96.7837 93.4785 96.4485 94.1565C96.1171 94.8346 95.6524 95.3621 95.0544 95.7392C94.4602 96.1164 93.7669 96.3049 92.9746 96.3049ZM92.9746 95.0936C93.5764 95.0936 94.0716 94.9393 94.4602 94.6308C94.8487 94.3222 95.1363 93.9166 95.3229 93.4137C95.5096 92.9109 95.6029 92.3662 95.6029 91.7796C95.6029 91.193 95.5096 90.6464 95.3229 90.1398C95.1363 89.6331 94.8487 89.2237 94.4602 88.9113C94.0716 88.599 93.5764 88.4428 92.9746 88.4428C92.3727 88.4428 91.8775 88.599 91.489 88.9113C91.1005 89.2237 90.8129 89.6331 90.6262 90.1398C90.4396 90.6464 90.3462 91.193 90.3462 91.7796C90.3462 92.3662 90.4396 92.9109 90.6262 93.4137C90.8129 93.9166 91.1005 94.3222 91.489 94.6308C91.8775 94.9393 92.3727 95.0936 92.9746 95.0936ZM102.827 87.3457V88.4885H98.2784V87.3457H102.827ZM99.604 85.2431H100.952V93.608C100.952 93.9889 101.008 94.2746 101.118 94.4651C101.232 94.6517 101.377 94.7774 101.552 94.8422C101.731 94.9031 101.92 94.9336 102.118 94.9336C102.267 94.9336 102.388 94.926 102.484 94.9108C102.579 94.8917 102.655 94.8765 102.712 94.865L102.987 96.0764C102.895 96.1106 102.767 96.1449 102.604 96.1792C102.44 96.2173 102.232 96.2363 101.981 96.2363C101.6 96.2363 101.227 96.1544 100.861 95.9907C100.499 95.8269 100.198 95.5774 99.9582 95.2422C99.722 94.9069 99.604 94.4841 99.604 93.9737V85.2431ZM104.855 96.1221V87.3457H106.203V96.1221H104.855ZM105.541 85.883C105.278 85.883 105.051 85.7935 104.861 85.6145C104.674 85.4354 104.581 85.2202 104.581 84.9688C104.581 84.7174 104.674 84.5022 104.861 84.3232C105.051 84.1441 105.278 84.0546 105.541 84.0546C105.803 84.0546 106.028 84.1441 106.215 84.3232C106.405 84.5022 106.5 84.7174 106.5 84.9688C106.5 85.2202 106.405 85.4354 106.215 85.6145C106.028 85.7935 105.803 85.883 105.541 85.883ZM112.239 96.3049C111.446 96.3049 110.751 96.1164 110.153 95.7392C109.559 95.3621 109.094 94.8346 108.759 94.1565C108.427 93.4785 108.262 92.6862 108.262 91.7796C108.262 90.8654 108.427 90.0674 108.759 89.3855C109.094 88.7037 109.559 88.1742 110.153 87.7971C110.751 87.42 111.446 87.2315 112.239 87.2315C113.031 87.2315 113.724 87.42 114.318 87.7971C114.916 88.1742 115.381 88.7037 115.712 89.3855C116.048 90.0674 116.215 90.8654 116.215 91.7796C116.215 92.6862 116.048 93.4785 115.712 94.1565C115.381 94.8346 114.916 95.3621 114.318 95.7392C113.724 96.1164 113.031 96.3049 112.239 96.3049ZM112.239 95.0936C112.84 95.0936 113.336 94.9393 113.724 94.6308C114.113 94.3222 114.4 93.9166 114.587 93.4137C114.774 92.9109 114.867 92.3662 114.867 91.7796C114.867 91.193 114.774 90.6464 114.587 90.1398C114.4 89.6331 114.113 89.2237 113.724 88.9113C113.336 88.599 112.84 88.4428 112.239 88.4428C111.637 88.4428 111.141 88.599 110.753 88.9113C110.364 89.2237 110.077 89.6331 109.89 90.1398C109.704 90.6464 109.61 91.193 109.61 91.7796C109.61 92.3662 109.704 92.9109 109.89 93.4137C110.077 93.9166 110.364 94.3222 110.753 94.6308C111.141 94.9393 111.637 95.0936 112.239 95.0936ZM119.622 90.8426V96.1221H118.274V87.3457H119.576V88.717H119.691C119.896 88.2714 120.209 87.9133 120.628 87.6429C121.047 87.3686 121.588 87.2315 122.25 87.2315C122.845 87.2315 123.365 87.3534 123.81 87.5971C124.256 87.8371 124.603 88.2028 124.85 88.6942C125.098 89.1818 125.222 89.7988 125.222 90.5454V96.1221H123.873V90.6369C123.873 89.9474 123.694 89.4103 123.336 89.0256C122.978 88.637 122.487 88.4428 121.862 88.4428C121.431 88.4428 121.047 88.5361 120.708 88.7228C120.373 88.9094 120.108 89.1818 119.914 89.5398C119.719 89.8979 119.622 90.3321 119.622 90.8426Z" fill="white"/>
<path d="M53.6333 110.62H201.124" stroke="#2D2841" stroke-width="4.02249" stroke-linecap="round"/>
<path d="M53.6333 110.62H120.675" stroke="black" stroke-width="4.02249" stroke-linecap="round"/>
<path d="M221.237 120.675H13.4083C6.00309 120.675 0 126.678 0 134.083V167.604C0 175.009 6.00309 181.012 13.4083 181.012H221.237C228.642 181.012 234.645 175.009 234.645 167.604V134.083C234.645 126.678 228.642 120.675 221.237 120.675Z" fill="#092534"/>
<path d="M37.6497 148.412H36.2327C36.1489 148.004 36.0022 147.646 35.7927 147.338C35.587 147.029 35.3356 146.77 35.0385 146.561C34.7452 146.347 34.4195 146.188 34.0615 146.081C33.7034 145.974 33.3301 145.921 32.9416 145.921C32.233 145.921 31.5912 146.1 31.016 146.458C30.4446 146.816 29.9894 147.344 29.6504 148.041C29.3152 148.738 29.1476 149.593 29.1476 150.606C29.1476 151.619 29.3152 152.475 29.6504 153.172C29.9894 153.869 30.4446 154.396 31.016 154.754C31.5912 155.112 32.233 155.291 32.9416 155.291C33.3301 155.291 33.7034 155.238 34.0615 155.131C34.4195 155.025 34.7452 154.867 35.0385 154.657C35.3356 154.444 35.587 154.183 35.7927 153.874C36.0022 153.562 36.1489 153.204 36.2327 152.8H37.6497C37.543 153.398 37.3488 153.933 37.0669 154.406C36.785 154.878 36.4346 155.28 36.0156 155.611C35.5965 155.939 35.1261 156.188 34.6043 156.36C34.0862 156.531 33.532 156.617 32.9416 156.617C31.9436 156.617 31.056 156.373 30.2789 155.886C29.5019 155.398 28.8905 154.705 28.4448 153.806C27.9992 152.907 27.7763 151.84 27.7763 150.606C27.7763 149.372 27.9992 148.305 28.4448 147.406C28.8905 146.507 29.5019 145.814 30.2789 145.327C31.056 144.839 31.9436 144.595 32.9416 144.595C33.532 144.595 34.0862 144.681 34.6043 144.852C35.1261 145.024 35.5965 145.275 36.0156 145.607C36.4346 145.934 36.785 146.334 37.0669 146.806C37.3488 147.275 37.543 147.81 37.6497 148.412ZM43.322 156.64C42.5297 156.64 41.8345 156.451 41.2365 156.074C40.6423 155.697 40.1776 155.17 39.8423 154.491C39.5109 153.813 39.3452 153.021 39.3452 152.115C39.3452 151.2 39.5109 150.402 39.8423 149.721C40.1776 149.039 40.6423 148.509 41.2365 148.132C41.8345 147.755 42.5297 147.566 43.322 147.566C44.1143 147.566 44.8076 147.755 45.4018 148.132C45.9999 148.509 46.4646 149.039 46.796 149.721C47.1312 150.402 47.2988 151.2 47.2988 152.115C47.2988 153.021 47.1312 153.813 46.796 154.491C46.4646 155.17 45.9999 155.697 45.4018 156.074C44.8076 156.451 44.1143 156.64 43.322 156.64ZM43.322 155.429C43.9239 155.429 44.4191 155.274 44.8076 154.966C45.1961 154.657 45.4837 154.252 45.6704 153.749C45.857 153.246 45.9504 152.701 45.9504 152.115C45.9504 151.528 45.857 150.981 45.6704 150.475C45.4837 149.968 45.1961 149.559 44.8076 149.246C44.4191 148.934 43.9239 148.778 43.322 148.778C42.7202 148.778 42.225 148.934 41.8364 149.246C41.4479 149.559 41.1603 149.968 40.9737 150.475C40.787 150.981 40.6937 151.528 40.6937 152.115C40.6937 152.701 40.787 153.246 40.9737 153.749C41.1603 154.252 41.4479 154.657 41.8364 154.966C42.225 155.274 42.7202 155.429 43.322 155.429ZM49.3572 156.457V147.681H50.6599V149.052H50.7742C50.957 148.583 51.2522 148.22 51.6598 147.961C52.0674 147.698 52.5569 147.566 53.1283 147.566C53.7073 147.566 54.1891 147.698 54.5738 147.961C54.9624 148.22 55.2652 148.583 55.4823 149.052H55.5737C55.7985 148.599 56.1356 148.239 56.5851 147.972C57.0346 147.702 57.5736 147.566 58.2021 147.566C58.9868 147.566 59.6286 147.812 60.1276 148.303C60.6266 148.791 60.8761 149.551 60.8761 150.583V156.457H59.5277V150.583C59.5277 149.936 59.3505 149.473 58.9963 149.195C58.642 148.917 58.2249 148.778 57.745 148.778C57.1279 148.778 56.6498 148.964 56.3108 149.338C55.9718 149.707 55.8023 150.176 55.8023 150.743V156.457H54.431V150.446C54.431 149.947 54.2691 149.545 53.9453 149.241C53.6215 148.932 53.2044 148.778 52.694 148.778C52.3436 148.778 52.016 148.871 51.7112 149.058C51.4103 149.244 51.1665 149.503 50.9799 149.835C50.797 150.162 50.7056 150.541 50.7056 150.972V156.457H49.3572ZM63.3416 159.748V147.681H64.6443V149.075H64.8043C64.9034 148.922 65.0405 148.728 65.2157 148.492C65.3947 148.252 65.65 148.039 65.9814 147.852C66.3166 147.662 66.7699 147.566 67.3412 147.566C68.0802 147.566 68.7316 147.751 69.2953 148.121C69.8591 148.49 70.2991 149.014 70.6152 149.692C70.9314 150.37 71.0895 151.17 71.0895 152.092C71.0895 153.021 70.9314 153.827 70.6152 154.509C70.2991 155.187 69.861 155.712 69.3011 156.086C68.7411 156.455 68.0954 156.64 67.3641 156.64C66.8003 156.64 66.3489 156.547 66.0099 156.36C65.6709 156.169 65.41 155.954 65.2271 155.714C65.0443 155.47 64.9034 155.269 64.8043 155.109H64.69V159.748H63.3416ZM64.6672 152.069C64.6672 152.732 64.7643 153.316 64.9586 153.823C65.1529 154.326 65.4366 154.72 65.8099 155.006C66.1832 155.288 66.6403 155.429 67.1812 155.429C67.745 155.429 68.2154 155.28 68.5925 154.983C68.9735 154.682 69.2591 154.278 69.4496 153.772C69.6439 153.261 69.741 152.694 69.741 152.069C69.741 151.452 69.6458 150.896 69.4553 150.4C69.2687 149.901 68.9849 149.507 68.604 149.218C68.2269 148.924 67.7526 148.778 67.1812 148.778C66.6327 148.778 66.1718 148.917 65.7985 149.195C65.4252 149.469 65.1433 149.854 64.9529 150.349C64.7624 150.84 64.6672 151.414 64.6672 152.069ZM75.729 156.663C75.1729 156.663 74.6682 156.558 74.2149 156.348C73.7616 156.135 73.4016 155.829 73.135 155.429C72.8683 155.025 72.735 154.537 72.735 153.966C72.735 153.463 72.8341 153.055 73.0321 152.743C73.2302 152.427 73.4949 152.179 73.8263 152C74.1577 151.821 74.5234 151.688 74.9234 151.6C75.3272 151.509 75.7328 151.437 76.1404 151.383C76.6737 151.315 77.106 151.263 77.4374 151.229C77.7726 151.191 78.0164 151.128 78.1688 151.04C78.325 150.953 78.4031 150.8 78.4031 150.583V150.538C78.4031 149.974 78.2488 149.536 77.9403 149.223C77.6355 148.911 77.1727 148.755 76.5518 148.755C75.9081 148.755 75.4033 148.896 75.0377 149.178C74.672 149.46 74.4149 149.761 74.2663 150.08L72.9864 149.623C73.215 149.09 73.5197 148.675 73.9006 148.378C74.2854 148.077 74.7044 147.867 75.1577 147.749C75.6148 147.627 76.0642 147.566 76.5061 147.566C76.788 147.566 77.1118 147.601 77.4774 147.669C77.8469 147.734 78.2031 147.869 78.5459 148.075C78.8925 148.281 79.1801 148.591 79.4087 149.006C79.6372 149.421 79.7515 149.978 79.7515 150.675V156.457H78.4031V155.269H78.3345C78.2431 155.459 78.0907 155.663 77.8774 155.88C77.6641 156.097 77.3803 156.282 77.0261 156.434C76.6718 156.587 76.2395 156.663 75.729 156.663ZM75.9347 155.451C76.468 155.451 76.9175 155.347 77.2832 155.137C77.6527 154.928 77.9307 154.657 78.1174 154.326C78.3078 153.994 78.4031 153.646 78.4031 153.28V152.046C78.3459 152.115 78.2202 152.177 78.026 152.235C77.8355 152.288 77.6146 152.336 77.3632 152.377C77.1156 152.416 76.8737 152.45 76.6375 152.48C76.4052 152.507 76.2166 152.53 76.0719 152.549C75.7214 152.595 75.3938 152.669 75.0891 152.772C74.7882 152.871 74.5444 153.021 74.3577 153.223C74.1749 153.421 74.0835 153.692 74.0835 154.034C74.0835 154.503 74.2568 154.857 74.6034 155.097C74.9539 155.333 75.3976 155.451 75.9347 155.451ZM83.5612 151.178V156.457H82.2127V147.681H83.5155V149.052H83.6297C83.8354 148.606 84.1478 148.248 84.5668 147.978C84.9858 147.704 85.5267 147.566 86.1895 147.566C86.7837 147.566 87.3037 147.688 87.7493 147.932C88.195 148.172 88.5417 148.538 88.7892 149.029C89.0368 149.517 89.1606 150.134 89.1606 150.88V156.457H87.8122V150.972C87.8122 150.282 87.6332 149.745 87.2751 149.361C86.917 148.972 86.4257 148.778 85.801 148.778C85.3705 148.778 84.9858 148.871 84.6468 149.058C84.3116 149.244 84.0468 149.517 83.8526 149.875C83.6583 150.233 83.5612 150.667 83.5612 151.178ZM92.1789 159.748C91.9504 159.748 91.7466 159.729 91.5676 159.691C91.3885 159.657 91.2647 159.622 91.1962 159.588L91.539 158.4C91.8666 158.484 92.1561 158.514 92.4075 158.491C92.6589 158.468 92.8817 158.356 93.076 158.154C93.2741 157.956 93.455 157.634 93.6188 157.188L93.8702 156.503L90.6248 147.681H92.0875L94.5101 154.674H94.6016L97.0242 147.681H98.4869L94.7616 157.737C94.5939 158.19 94.3863 158.565 94.1388 158.863C93.8912 159.163 93.6036 159.386 93.276 159.531C92.9522 159.676 92.5865 159.748 92.1789 159.748Z" fill="white"/>
<path d="M26.8164 167.604H134.083" stroke="#003A41" stroke-width="5.36331" stroke-linecap="round"/>
<path opacity="0.92" d="M275.725 20.7822H165.911C158.33 20.7822 152.184 26.9279 152.184 34.509V91.5277C152.184 99.1087 158.33 105.254 165.911 105.254H275.725C283.306 105.254 289.451 99.1087 289.451 91.5277V34.509C289.451 26.9279 283.306 20.7822 275.725 20.7822Z" fill="#050814"/>
<path d="M272.557 26.0625H169.079C162.664 26.0625 157.464 31.2627 157.464 37.6774V88.3607C157.464 94.7755 162.664 99.9757 169.079 99.9757H272.557C278.972 99.9757 284.172 94.7755 284.172 88.3607V37.6774C284.172 31.2627 278.972 26.0625 272.557 26.0625Z" fill="#0B1F2A"/>
<path d="M168.894 38.3418H168.212L170.186 32.9663H170.858L172.832 38.3418H172.149L170.543 33.8167H170.501L168.894 38.3418ZM169.146 36.242H171.897V36.8194H169.146V36.242ZM176.126 36.6934V34.3102H176.745V38.3418H176.126V37.6594H176.084C175.989 37.8641 175.842 38.0382 175.643 38.1817C175.443 38.3234 175.191 38.3943 174.887 38.3943C174.635 38.3943 174.411 38.3392 174.215 38.2289C174.019 38.1169 173.865 37.949 173.753 37.725C173.641 37.4992 173.585 37.2149 173.585 36.8719V34.3102H174.204V36.8299C174.204 37.1239 174.286 37.3584 174.451 37.5334C174.617 37.7084 174.829 37.7958 175.086 37.7958C175.24 37.7958 175.397 37.7565 175.556 37.6777C175.717 37.599 175.852 37.4783 175.96 37.3155C176.07 37.1528 176.126 36.9454 176.126 36.6934ZM179.507 39.9376C179.208 39.9376 178.95 39.8992 178.735 39.8222C178.52 39.7469 178.341 39.6472 178.197 39.5229C178.055 39.4004 177.943 39.2692 177.859 39.1292L178.352 38.7828C178.408 38.8562 178.479 38.9402 178.565 39.0347C178.65 39.131 178.768 39.2141 178.916 39.2841C179.067 39.3558 179.264 39.3917 179.507 39.3917C179.832 39.3917 180.101 39.313 180.313 39.1555C180.524 38.998 180.63 38.7513 180.63 38.4153V37.5964H180.578C180.532 37.6699 180.468 37.7609 180.384 37.8693C180.301 37.9761 180.182 38.0714 180.027 38.1554C179.873 38.2377 179.664 38.2788 179.402 38.2788C179.076 38.2788 178.784 38.2018 178.525 38.0478C178.268 37.8938 178.064 37.6699 177.914 37.3759C177.765 37.0819 177.691 36.7249 177.691 36.305C177.691 35.892 177.763 35.5324 177.908 35.2262C178.054 34.9182 178.256 34.6803 178.515 34.5123C178.774 34.3425 179.073 34.2577 179.412 34.2577C179.675 34.2577 179.883 34.3014 180.037 34.3889C180.193 34.4747 180.312 34.5726 180.394 34.6829C180.478 34.7914 180.543 34.8806 180.588 34.9506H180.651V34.3102H181.25V38.4573C181.25 38.8038 181.171 39.0855 181.014 39.3025C180.858 39.5212 180.648 39.6813 180.384 39.7828C180.121 39.886 179.829 39.9376 179.507 39.9376ZM179.486 37.7224C179.734 37.7224 179.944 37.6655 180.116 37.5517C180.287 37.438 180.418 37.2744 180.507 37.0609C180.596 36.8474 180.641 36.592 180.641 36.2945C180.641 36.004 180.597 35.7477 180.51 35.5254C180.422 35.3032 180.293 35.1291 180.121 35.0031C179.95 34.8771 179.738 34.8141 179.486 34.8141C179.223 34.8141 179.005 34.8806 178.83 35.0136C178.656 35.1466 178.526 35.3251 178.439 35.5491C178.353 35.773 178.31 36.0215 178.31 36.2945C178.31 36.5745 178.354 36.8221 178.441 37.0373C178.531 37.2508 178.662 37.4188 178.835 37.5412C179.01 37.662 179.227 37.7224 179.486 37.7224Z" fill="#E5E7EB"/>
<path d="M245.527 34.3102C245.495 34.0442 245.367 33.8377 245.143 33.6907C244.92 33.5437 244.645 33.4702 244.319 33.4702C244.081 33.4702 243.873 33.5087 243.695 33.5857C243.518 33.6627 243.38 33.7686 243.28 33.9033C243.182 34.0381 243.133 34.1912 243.133 34.3627C243.133 34.5062 243.167 34.6295 243.235 34.7328C243.305 34.8342 243.395 34.9191 243.503 34.9874C243.612 35.0539 243.725 35.109 243.844 35.1527C243.963 35.1947 244.073 35.2288 244.172 35.2551L244.718 35.4021C244.858 35.4388 245.014 35.4896 245.185 35.5543C245.359 35.619 245.524 35.7074 245.682 35.8194C245.841 35.9296 245.972 36.0714 246.075 36.2446C246.179 36.4178 246.23 36.6305 246.23 36.8824C246.23 37.1729 246.154 37.4354 246.002 37.6699C245.851 37.9043 245.631 38.0907 245.34 38.2289C245.052 38.3672 244.701 38.4363 244.288 38.4363C243.903 38.4363 243.57 38.3742 243.288 38.2499C243.008 38.1257 242.787 37.9525 242.626 37.7302C242.467 37.508 242.377 37.2499 242.356 36.9559H243.028C243.045 37.1589 243.114 37.3269 243.233 37.4599C243.353 37.5911 243.506 37.6891 243.689 37.7539C243.875 37.8168 244.074 37.8483 244.288 37.8483C244.536 37.8483 244.759 37.8081 244.957 37.7276C245.155 37.6454 245.311 37.5316 245.427 37.3864C245.542 37.2394 245.6 37.0679 245.6 36.8719C245.6 36.6934 245.55 36.5482 245.451 36.4362C245.351 36.3242 245.22 36.2332 245.057 36.1632C244.894 36.0933 244.718 36.032 244.529 35.9795L243.868 35.7905C243.448 35.6698 243.115 35.4974 242.87 35.2735C242.625 35.0495 242.503 34.7564 242.503 34.3942C242.503 34.0932 242.584 33.8307 242.747 33.6067C242.912 33.381 243.132 33.206 243.409 33.0818C243.687 32.9558 243.997 32.8928 244.34 32.8928C244.687 32.8928 244.995 32.9549 245.264 33.0792C245.534 33.2016 245.747 33.3696 245.905 33.5831C246.064 33.7966 246.148 34.0389 246.157 34.3102H245.527ZM248.907 38.4258C248.518 38.4258 248.183 38.34 247.901 38.1686C247.621 37.9953 247.405 37.7539 247.253 37.4441C247.103 37.1327 247.027 36.7704 247.027 36.3575C247.027 35.9445 247.103 35.5806 247.253 35.2656C247.405 34.9489 247.617 34.7021 247.888 34.5254C248.161 34.3469 248.48 34.2577 248.844 34.2577C249.054 34.2577 249.261 34.2927 249.466 34.3627C249.671 34.4327 249.857 34.5464 250.025 34.7039C250.193 34.8596 250.327 35.0661 250.426 35.3233C250.526 35.5806 250.576 35.8973 250.576 36.2735V36.536H247.468V36.0005H249.946C249.946 35.773 249.901 35.5701 249.81 35.3916C249.72 35.2131 249.593 35.0722 249.426 34.969C249.262 34.8657 249.068 34.8141 248.844 34.8141C248.597 34.8141 248.384 34.8754 248.203 34.9979C248.025 35.1186 247.887 35.2761 247.791 35.4703C247.695 35.6645 247.647 35.8728 247.647 36.095V36.452C247.647 36.7564 247.699 37.0145 247.804 37.2263C247.911 37.4363 248.059 37.5964 248.248 37.7066C248.437 37.8151 248.657 37.8693 248.907 37.8693C249.069 37.8693 249.216 37.8466 249.348 37.8011C249.481 37.7539 249.595 37.6839 249.692 37.5911C249.788 37.4966 249.862 37.3794 249.915 37.2394L250.513 37.4074C250.45 37.6104 250.344 37.7888 250.195 37.9428C250.047 38.0951 249.863 38.2141 249.644 38.2998C249.426 38.3838 249.18 38.4258 248.907 38.4258ZM251.518 39.8537V34.3102H252.117V34.9506H252.19C252.236 34.8806 252.299 34.7914 252.379 34.6829C252.462 34.5726 252.579 34.4747 252.731 34.3889C252.885 34.3014 253.093 34.2577 253.356 34.2577C253.695 34.2577 253.994 34.3425 254.253 34.5123C254.512 34.682 254.714 34.9226 254.86 35.2341C255.005 35.5456 255.078 35.913 255.078 36.3365C255.078 36.7634 255.005 37.1335 254.86 37.4468C254.714 37.7582 254.513 37.9997 254.256 38.1712C253.999 38.3409 253.702 38.4258 253.366 38.4258C253.107 38.4258 252.9 38.3829 252.744 38.2972C252.588 38.2097 252.469 38.1108 252.385 38.0006C252.301 37.8886 252.236 37.7958 252.19 37.7224H252.138V39.8537H251.518ZM252.127 36.326C252.127 36.6305 252.172 36.8991 252.261 37.1318C252.35 37.3628 252.481 37.5439 252.652 37.6751C252.824 37.8046 253.034 37.8693 253.282 37.8693C253.541 37.8693 253.757 37.8011 253.931 37.6646C254.106 37.5264 254.237 37.3409 254.324 37.1082C254.413 36.8737 254.458 36.613 254.458 36.326C254.458 36.0425 254.414 35.787 254.327 35.5596C254.241 35.3303 254.111 35.1492 253.936 35.0162C253.763 34.8815 253.545 34.8141 253.282 34.8141C253.03 34.8141 252.818 34.878 252.647 35.0057C252.476 35.1317 252.346 35.3085 252.259 35.5359C252.171 35.7617 252.127 36.025 252.127 36.326Z" fill="#E5E7EB"/>
<path d="M170.135 52.4599C171.301 52.4599 172.247 51.5145 172.247 50.3481C172.247 49.1818 171.301 48.2363 170.135 48.2363C168.968 48.2363 168.023 49.1818 168.023 50.3481C168.023 51.5145 168.968 52.4599 170.135 52.4599Z" fill="#4B5563"/>
<path d="M182.805 52.4599C183.971 52.4599 184.917 51.5145 184.917 50.3481C184.917 49.1818 183.971 48.2363 182.805 48.2363C181.639 48.2363 180.693 49.1818 180.693 50.3481C180.693 51.5145 181.639 52.4599 182.805 52.4599Z" fill="#4B5563"/>
<path d="M195.476 52.4599C196.642 52.4599 197.588 51.5145 197.588 50.3481C197.588 49.1818 196.642 48.2363 195.476 48.2363C194.31 48.2363 193.364 49.1818 193.364 50.3481C193.364 51.5145 194.31 52.4599 195.476 52.4599Z" fill="#4B5563"/>
<path d="M208.147 52.4599C209.313 52.4599 210.259 51.5145 210.259 50.3481C210.259 49.1818 209.313 48.2363 208.147 48.2363C206.981 48.2363 206.035 49.1818 206.035 50.3481C206.035 51.5145 206.981 52.4599 208.147 52.4599Z" fill="#4B5563"/>
<path d="M244.048 52.4599C245.214 52.4599 246.16 51.5145 246.16 50.3481C246.16 49.1818 245.214 48.2363 244.048 48.2363C242.882 48.2363 241.936 49.1818 241.936 50.3481C241.936 51.5145 242.882 52.4599 244.048 52.4599Z" fill="#4B5563"/>
<path d="M256.718 52.4599C257.885 52.4599 258.83 51.5145 258.83 50.3481C258.83 49.1818 257.885 48.2363 256.718 48.2363C255.552 48.2363 254.606 49.1818 254.606 50.3481C254.606 51.5145 255.552 52.4599 256.718 52.4599Z" fill="#4B5563"/>
<path d="M269.389 52.4599C270.555 52.4599 271.501 51.5145 271.501 50.3481C271.501 49.1818 270.555 48.2363 269.389 48.2363C268.223 48.2363 267.277 49.1818 267.277 50.3481C267.277 51.5145 268.223 52.4599 269.389 52.4599Z" fill="#4B5563"/>
<path d="M282.06 52.4599C283.226 52.4599 284.172 51.5145 284.172 50.3481C284.172 49.1818 283.226 48.2363 282.06 48.2363C280.894 48.2363 279.948 49.1818 279.948 50.3481C279.948 51.5145 280.894 52.4599 282.06 52.4599Z" fill="#4B5563"/>
</svg>
